<?xml version="1.0" standalone="no"?>
<!DOCTYPE svg PUBLIC "-//W3C//DTD SVG 1.1//EN" "http://www.w3.org/Graphics/SVG/1.1/DTD/svg11.dtd" >
<svg xmlns="http://www.w3.org/2000/svg" width="100%" height="100%">
<metadata>
Created Thu Feb 25 12:50:09 2016 by PreussType
Copyright (c) 2016 by Hubert Jocham. All rights reserved.
</metadata>
<defs>
<font id="HamburgSans-BoldItalic" horiz-adv-x="609" >
  <font-face 
    font-family="HamburgSans"
    font-weight="700"
    font-style="italic"
    font-stretch="normal"
    units-per-em="1000"
    panose-1="2 11 8 3 4 0 0 2 0 3"
    ascent="800"
    descent="-200"
    x-height="507"
    cap-height="715"
    bbox="-425 -300 1027 934"
    underline-thickness="50"
    underline-position="-50"
    unicode-range="U+000D-FB02"
  />
<missing-glyph horiz-adv-x="500" 
d="M410 -250h-317v1000h317v-1000zM168 683v-33h65v-37h-66v-33h166v33h-66v37h66v33h-165zM167 554v-104h166v34h-66v70h-100zM233 484h-33v36h33v-36zM167 423v-33h66v-37h-66v-33h100v70h66v33h-166zM300 363v-66h-133v-34h166v100h-33zM233 241v-56h34v23h33v-47h-100
v80h-33v-113h166v113h-100zM167 68v-113h166v113h-166zM300 -12h-100v47h100v-47zM167 -68v-33h70l-70 -47v-33h166v33h-102l70 47h32v33h-166z" />
    <glyph glyph-name="fi" unicode="fi" horiz-adv-x="628" 
d="M436 637q-68 0 -98 -24t-39 -66l-8 -40h332l-108 -507h-148l90 419h-185l-89 -419h-142l89 419h-70l18 88h70l8 37q17 80 86 130.5t192 50.5q58 0 98.5 -7.5t67.5 -15.5q31 -11 51 -24l-12 -96q-22 15 -52 28q-28 11 -65 19t-86 8z" />
    <glyph glyph-name="fl" unicode="fl" horiz-adv-x="643" 
d="M436 725q58 0 101 -8t72 -17q34 -11 57 -25l-143 -675h-147l132 627q-8 4 -19 8q-10 3 -22.5 5.5t-28.5 2.5q-67 0 -97.5 -24.5t-41.5 -72.5l-8 -39h119l-9 -88h-129l-89 -419h-142l89 419h-68l19 88h67l8 37q18 83 87 132t193 49z" />
    <glyph glyph-name=".notdef" horiz-adv-x="500" 
d="M410 -250h-317v1000h317v-1000zM168 683v-33h65v-37h-66v-33h166v33h-66v37h66v33h-165zM167 554v-104h166v34h-66v70h-100zM233 484h-33v36h33v-36zM167 423v-33h66v-37h-66v-33h100v70h66v33h-166zM300 363v-66h-133v-34h166v100h-33zM233 241v-56h34v23h33v-47h-100
v80h-33v-113h166v113h-100zM167 68v-113h166v113h-166zM300 -12h-100v47h100v-47zM167 -68v-33h70l-70 -47v-33h166v33h-102l70 47h32v33h-166z" />
    <glyph glyph-name=".null" horiz-adv-x="0" 
 />
    <glyph glyph-name=".null" horiz-adv-x="0" 
 />
    <glyph glyph-name="nonmarkingreturn" unicode="&#xd;" horiz-adv-x="250" 
 />
    <glyph glyph-name="space" unicode=" " horiz-adv-x="261" 
 />
    <glyph glyph-name="exclam" unicode="!" horiz-adv-x="270" 
d="M160 715h143l-116 -486h-118zM42 145h135l-30 -145h-135z" />
    <glyph glyph-name="quotedbl" unicode="&#x22;" horiz-adv-x="414" 
d="M158 715h115l-63 -251h-96zM333 715h119l-64 -251h-99z" />
    <glyph glyph-name="numbersign" unicode="#" horiz-adv-x="607" 
d="M495 406l-21 -94h98l-10 -96h-110l-50 -216h-112l49 216h-93l-49 -216h-113l49 216h-82l10 96h94l22 94h-98l10 95h110l49 214h112l-49 -214h94l49 214h112l-49 -214h83l-10 -95h-95zM383 406h-94l-21 -94h93z" />
    <glyph glyph-name="dollar" unicode="$" 
d="M452 713q46 -4 78 -13t52 -19q24 -11 40 -24l-16 -140q-22 26 -53 46q-29 19 -68 32.5t-93 13.5q-62 0 -98.5 -29t-36.5 -76q0 -29 21.5 -46t58.5 -30l72 -21q66 -20 106.5 -57t40.5 -103q0 -52 -19 -94t-53 -73t-80.5 -50.5t-102.5 -26.5l-31 -144h-102l31 143
q-48 4 -82.5 14t-58.5 20q-27 13 -46 27l17 131q25 -25 60 -45q31 -19 72 -32.5t95 -13.5q61 0 101 27t40 78q0 32 -25 49t-68 32l-71 23q-61 20 -97 57t-36 99q0 52 18.5 94.5t51.5 73.5t78.5 50.5t100.5 25.5l30 138h102z" />
    <glyph glyph-name="percent" unicode="%" horiz-adv-x="635" 
d="M187 361q-51 0 -74.5 29t-23.5 83q0 47 11 92.5t33.5 81t55.5 57t76 21.5q51 0 74.5 -29t23.5 -81q0 -47 -11 -92.5t-33.5 -81.5t-55 -58t-76.5 -22zM549 715h89l-506 -715h-90zM200 421q20 0 35 22t26 52.5t16.5 64t5.5 56.5q0 49 -31 49q-20 0 -36 -21.5t-26.5 -52
t-16 -63.5t-5.5 -56q0 -27 7.5 -39t24.5 -12zM416 -10q-51 0 -74.5 29t-23.5 83q0 47 11 92.5t33.5 80.5t55.5 56.5t76 21.5q51 0 74.5 -28.5t23.5 -80.5q0 -48 -11 -93.5t-33.5 -81t-55 -57.5t-76.5 -22zM429 50q20 0 35 22t26 52.5t16.5 64t5.5 56.5q0 49 -31 49
q-20 0 -36 -21.5t-26.5 -52t-16 -63.5t-5.5 -57q0 -50 32 -50z" />
    <glyph glyph-name="ampersand" unicode="&#x26;" horiz-adv-x="773" 
d="M560 127q57 -31 115 -31h29l-35 -93q-8 -4 -19 -7q-9 -2 -22 -4t-30 -2q-34 0 -71 15.5t-75 42.5q-49 -27 -104 -42.5t-116 -15.5q-46 0 -84 10.5t-65.5 31t-42.5 51t-15 70.5q0 49 17 85t45 62.5t64.5 45.5t76.5 34q-11 47 -11 90q0 53 18 97.5t50 77.5t76 51.5t95 18.5
q75 0 114 -34.5t39 -91.5q0 -52 -21.5 -88.5t-56 -63t-77.5 -45t-87 -35.5q20 -51 51.5 -97.5t72.5 -82.5q33 30 59 66.5t44 76t27.5 79.5t9.5 76l98 -20q0 -36 -11.5 -78t-33 -85t-53 -85.5t-71.5 -79.5zM341 487q0 -34 7 -63q31 12 58 25.5t47.5 31t32 40t11.5 52.5
q0 27 -14 42.5t-42 15.5q-25 0 -44 -12.5t-31.5 -32.5t-18.5 -46t-6 -53zM168 176q0 -41 27 -64.5t75 -23.5q61 0 112 21q-40 41 -73 91t-56 105q-38 -23 -61.5 -53t-23.5 -76z" />
    <glyph glyph-name="quotesingle" unicode="'" horiz-adv-x="242" 
d="M158 715h121l-63 -251h-102z" />
    <glyph glyph-name="parenleft" unicode="(" horiz-adv-x="334" 
d="M137 -123q-16 19 -32 49t-29 68.5t-21 84.5t-8 97q0 78 20 154t55.5 145.5t84.5 130.5t108 109h92q-52 -49 -94.5 -122.5t-72 -157.5t-45.5 -170t-16 -160q0 -81 16 -140t34 -88h-92z" />
    <glyph glyph-name="parenright" unicode=")" horiz-adv-x="334" 
d="M-54 -123q52 48 94.5 122t72 157.5t45.5 170t16 160.5q0 81 -16 140t-34 88h93q16 -20 32 -50t29 -68t21 -84t8 -98q0 -78 -20 -154t-55.5 -145.5t-84.5 -130t-108 -108.5h-93z" />
    <glyph glyph-name="asterisk" unicode="*" horiz-adv-x="532" 
d="M172 418l90 94l-127 27l32 102l119 -56l-15 130h108l-16 -131l120 57l31 -102l-127 -26l90 -95l-89 -62l-63 112l-63 -112z" />
    <glyph glyph-name="plus" unicode="+" 
d="M254 227h-185v103h185v184h101v-184h185v-103h-185v-185h-101v185z" />
    <glyph glyph-name="comma" unicode="," horiz-adv-x="249" 
d="M44 144h142l-150 -275h-99z" />
    <glyph glyph-name="hyphen" unicode="-" horiz-adv-x="373" 
d="M67 332h273l-23 -107h-273z" />
    <glyph glyph-name="period" unicode="." horiz-adv-x="249" 
d="M35 154h135l-33 -154h-134z" />
    <glyph glyph-name="slash" unicode="/" horiz-adv-x="446" 
d="M393 725h119l-415 -735h-119z" />
    <glyph glyph-name="zero" unicode="0" 
d="M248 -10q-96 0 -143.5 56t-47.5 164q0 88 22 179.5t66 166t109.5 122t152.5 47.5q98 0 144 -54t46 -160q0 -88 -22 -180.5t-66 -168t-109 -124t-152 -48.5zM272 99q29 0 53.5 21t44.5 55.5t36 78.5t27 90t16.5 90.5t5.5 79.5q0 55 -18.5 79.5t-53.5 24.5q-28 0 -53 -21
t-45.5 -55t-36.5 -78t-27 -90t-16.5 -90.5t-5.5 -80.5q0 -55 19 -79.5t54 -24.5z" />
    <glyph glyph-name="one" unicode="1" 
d="M20 98h197l100 471l-172 -78l38 117l201 106h109l-132 -616h166l-27 -98h-489z" />
    <glyph glyph-name="two" unicode="2" 
d="M8 18q10 46 31.5 85.5t52 74t68 64.5t79.5 58l63 41q32 21 60.5 42t50.5 44.5t35 51t13 60.5q0 35 -22.5 54.5t-70.5 19.5q-50 0 -94 -13t-77 -28q-38 -18 -71 -41l31 117q32 22 73 39q37 15 82.5 26.5t102.5 11.5q99 0 149 -43t50 -120q0 -49 -17 -91t-45.5 -77.5
t-67 -65t-81.5 -55.5l-65 -39q-23 -14 -46.5 -30.5t-44.5 -34t-37.5 -35t-25.5 -34.5h347l-32 -100h-494z" />
    <glyph glyph-name="three" unicode="3" 
d="M252 -10q-61 0 -104 11.5t-70 26.5q-31 16 -51 37l11 117q25 -23 59 -40q30 -17 69.5 -29t90.5 -12q65 0 102.5 38.5t37.5 96.5q0 38 -24 57.5t-68 19.5h-116l22 99h110q28 0 52 10t42 27.5t28 41.5t10 51q0 34 -22 53t-70 19q-49 0 -92 -12t-75 -27q-39 -17 -71 -39
l30 114q32 21 71 38q36 15 80.5 26t99.5 11q98 0 149.5 -41t51.5 -113q0 -37 -12 -69t-33 -58t-48 -46t-57 -33q14 -4 30.5 -12.5t31 -23.5t24.5 -37t10 -54q0 -56 -24 -102t-65 -78.5t-95 -50t-115 -17.5z" />
    <glyph glyph-name="four" unicode="4" 
d="M326 158h-311l23 105l356 452h191l-95 -447h89l-24 -110h-88l-34 -158h-140zM350 268l63 294l-236 -294h173z" />
    <glyph glyph-name="five" unicode="5" 
d="M256 -10q-60 0 -103 11t-71 24q-32 15 -54 35l11 120q27 -22 61 -39q31 -17 70.5 -28.5t89.5 -11.5q34 0 60 11.5t44 30.5t27 45t9 54q0 31 -14 53t-40.5 37t-63.5 24t-84 15l-86 11l120 333h378l-16 -117h-279l-44 -129l40 -5q120 -15 183 -62t63 -134q0 -61 -23.5 -112
t-64 -88t-95.5 -57.5t-118 -20.5z" />
    <glyph glyph-name="six" unicode="6" 
d="M276 -10q-104 0 -159.5 61t-55.5 182q0 96 27.5 185t78.5 157t124 109t164 41q39 0 67 -6t47 -14q21 -9 35 -20l-14 -116q-14 13 -33 24q-18 10 -42 17t-58 7q-35 0 -71 -13.5t-68 -43t-57.5 -76t-39.5 -113.5q9 14 25 30t39 29.5t52 23t63 9.5q73 0 116 -41t43 -121
q0 -63 -21 -119.5t-59 -99t-89.5 -67.5t-113.5 -25zM289 90q31 0 55.5 17t41 44t25 60t8.5 65q0 45 -20.5 68.5t-60.5 23.5q-29 0 -54.5 -13.5t-44 -36t-29 -53t-10.5 -65.5q0 -51 24 -80.5t65 -29.5z" />
    <glyph glyph-name="seven" unicode="7" 
d="M476 601h-351l35 114h494l-24 -112l-383 -603h-147z" />
    <glyph glyph-name="eight" unicode="8" 
d="M255 -10q-50 0 -91 11t-70 32t-45 52t-16 71q0 79 45.5 131t120.5 78q-13 6 -27 16t-25.5 25t-19 35.5t-7.5 47.5q0 53 20.5 96.5t57.5 74.5t88.5 48t112.5 17q98 0 151 -40.5t53 -112.5t-39.5 -126.5t-104.5 -80.5q15 -6 32 -15.5t31.5 -25t24 -38t9.5 -53.5
q0 -54 -23 -98.5t-63 -77t-95 -50t-120 -17.5zM341 409q24 0 45.5 11t37 30t25 44.5t9.5 53.5q0 35 -19.5 55t-59.5 20q-28 0 -50 -11t-37 -29t-23 -42t-8 -51q0 -38 22 -59.5t58 -21.5zM276 92q31 0 56 11t42.5 29.5t27 43.5t9.5 53q0 42 -25.5 62.5t-67.5 20.5
q-30 0 -55 -10.5t-43 -28.5t-28.5 -43t-10.5 -55q0 -39 24.5 -61t70.5 -22z" />
    <glyph glyph-name="nine" unicode="9" 
d="M196 -10q-39 0 -67 6t-46 14q-22 9 -36 20l14 116q14 -13 33 -24q18 -10 42 -17t57 -7q35 0 71.5 13.5t68.5 43t57.5 76t39.5 113.5q-9 -13 -25 -29.5t-39 -30t-51.5 -23t-63.5 -9.5q-73 0 -116 41t-43 121q0 63 21 119.5t59 99t90 67.5t113 25q104 0 159.5 -61
t55.5 -182q0 -96 -27.5 -185t-78.5 -157t-124 -109t-164 -41zM313 347q29 0 54.5 13.5t44 36.5t29 53.5t10.5 65.5q0 51 -24 80t-65 29q-31 0 -55.5 -17t-41 -44t-25 -60t-8.5 -65q0 -45 20.5 -68.5t60.5 -23.5z" />
    <glyph glyph-name="colon" unicode=":" horiz-adv-x="249" 
d="M111 507h135l-33 -153h-135zM35 154h135l-32 -154h-135z" />
    <glyph glyph-name="semicolon" unicode=";" horiz-adv-x="249" 
d="M115 507h135l-33 -153h-135zM37 144h142l-147 -275h-99z" />
    <glyph glyph-name="less" unicode="&#x3c;" 
d="M69 219v117l471 178v-109l-345 -127l345 -124v-109z" />
    <glyph glyph-name="equal" unicode="=" 
d="M69 418h471v-103h-471v103zM69 241h471v-102h-471v102z" />
    <glyph glyph-name="greater" unicode="&#x3e;" 
d="M71 154l345 124l-345 127v109l471 -178v-117l-471 -174v109z" />
    <glyph glyph-name="question" unicode="?" horiz-adv-x="442" 
d="M129 252q0 42 16 73t39.5 55.5t51.5 44.5t51.5 41t39.5 45t16 56q0 25 -15.5 39t-51.5 14q-39 0 -72.5 -9t-59.5 -20q-29 -13 -54 -30l31 112q24 15 55 26q28 11 64 18.5t82 7.5q78 0 117.5 -36t39.5 -96q0 -47 -15.5 -81t-39 -60.5t-52 -47.5t-54.5 -42.5t-46 -45
t-27 -54.5l-7 -33h-109v23zM97 145h135l-31 -145h-135z" />
    <glyph glyph-name="at" unicode="@" horiz-adv-x="912" 
d="M416 -79q-78 0 -143.5 20.5t-113 60.5t-73.5 99t-26 135q0 105 37.5 194.5t104.5 155t158 102.5t197 37q84 0 146 -23.5t103 -63.5t61 -92.5t20 -110.5q0 -62 -19.5 -121t-55 -104.5t-85 -73.5t-109.5 -28q-41 0 -65.5 16.5t-28.5 47.5q-16 -19 -38 -33
q-20 -14 -47.5 -24t-65.5 -10q-52 0 -81 27.5t-29 69.5q0 47 22.5 77.5t60.5 49.5t89.5 29t108.5 15l5 26q10 61 -58 61q-35 0 -66 -8.5t-55 -17.5q-28 -12 -52 -27l24 85q25 15 55 28q27 11 60 19.5t73 8.5q79 -1 110 -36t19 -110l-32 -181q-4 -17 2.5 -29t24.5 -12
q30 0 54 24t41.5 60t27 77t9.5 75q0 48 -15.5 89t-46.5 71t-77 47t-107 17q-81 0 -149 -31t-116.5 -85t-75.5 -126t-27 -154q0 -63 21 -107.5t57 -73t84.5 -42t103.5 -13.5q74 0 129 12t93 27q44 16 75 38l-31 -80q-32 -24 -75 -42q-39 -17 -91.5 -29.5t-121.5 -12.5z
M419 183q45 0 73 27.5t35 64.5l6 32q-31 -3 -59 -8t-49 -15t-33.5 -26t-12.5 -40q0 -35 40 -35z" />
    <glyph glyph-name="A" unicode="A" horiz-adv-x="704" 
d="M454 198h-229l-98 -198h-156l385 715h185l84 -715h-154zM446 291l-27 298l-148 -298h175z" />
    <glyph glyph-name="B" unicode="B" horiz-adv-x="648" 
d="M161 715h309q76 0 121.5 -33.5t45.5 -104.5q0 -74 -42 -128.5t-108 -78.5q17 -3 35.5 -11.5t34 -23.5t25.5 -37.5t10 -54.5q0 -54 -20.5 -98.5t-56.5 -77t-84.5 -50t-104.5 -17.5h-317zM357 407q31 0 55 11.5t40.5 31t25 45.5t8.5 54q0 70 -88 70h-107l-45 -212h111z
M301 94q33 0 59.5 11.5t44.5 32t27.5 47.5t9.5 58q0 41 -25.5 59.5t-70.5 18.5h-119l-48 -227h122z" />
    <glyph glyph-name="C" unicode="C" horiz-adv-x="650" 
d="M303 -9q-52 0 -97 15t-78 46.5t-52 79.5t-19 114q0 96 28 182.5t80.5 152.5t128 105t170.5 39q58 0 98.5 -9.5t66.5 -20.5q30 -13 49 -30l-15 -146q-19 25 -46 45q-25 18 -59.5 31.5t-83.5 13.5q-62 0 -108.5 -30.5t-77.5 -79t-46.5 -110t-15.5 -124.5q0 -83 41.5 -118
t109.5 -35q43 0 81.5 9t67.5 20q34 13 63 29l-34 -102q-28 -22 -65 -38q-35 -16 -80.5 -27.5t-106.5 -11.5z" />
    <glyph glyph-name="D" unicode="D" horiz-adv-x="696" 
d="M161 715h262q122 0 191.5 -59.5t69.5 -182.5q0 -98 -29 -184t-83.5 -150.5t-132 -101.5t-174.5 -37h-256zM267 96q63 0 111 33.5t80.5 87.5t49 121t16.5 133q0 79 -37.5 114t-105.5 35h-82l-112 -524h80z" />
    <glyph glyph-name="E" unicode="E" horiz-adv-x="575" 
d="M161 715h458l-9 -100h-314l-44 -204h274l-20 -92h-273l-47 -219h319l-34 -100h-462z" />
    <glyph glyph-name="F" unicode="F" horiz-adv-x="552" 
d="M161 715h447l-10 -101h-302l-44 -208h271l-19 -93h-272l-66 -313h-157z" />
    <glyph glyph-name="G" unicode="G" horiz-adv-x="698" 
d="M317 -9q-56 0 -103.5 15.5t-82 47.5t-54 81t-19.5 116q0 98 29 184t83 150.5t132 102t176 37.5q63 0 105.5 -10t69.5 -21q31 -14 50 -32l-13 -143q-20 25 -49 45q-26 18 -62.5 31.5t-87.5 13.5q-66 0 -116.5 -29t-84.5 -77t-51 -110t-17 -129q0 -88 45 -126t117 -38
q19 0 34.5 2t26.5 4q13 3 24 6l32 150h-119l18 88h260l-61 -287q-33 -20 -75 -36q-39 -15 -90 -25.5t-117 -10.5z" />
    <glyph glyph-name="H" unicode="H" horiz-adv-x="696" 
d="M162 715h158l-65 -305h253l65 305h159l-152 -715h-159l67 319h-253l-67 -319h-158z" />
    <glyph glyph-name="I" unicode="I" horiz-adv-x="286" 
d="M161 715h160l-152 -715h-160z" />
    <glyph glyph-name="J" unicode="J" horiz-adv-x="381" 
d="M84 -9q-25 0 -42.5 3t-29.5 7q-13 4 -22 10l8 103q8 -4 19 -7q9 -3 21 -5t27 -2q32 0 53.5 19t31.5 64l113 532h155l-113 -534q-22 -101 -81.5 -145.5t-139.5 -44.5z" />
    <glyph glyph-name="K" unicode="K" horiz-adv-x="670" 
d="M440 426l148 -426h-177l-97 303l-102 -101l-43 -202h-160l152 715h160l-75 -350l308 350h180z" />
    <glyph glyph-name="L" unicode="L" horiz-adv-x="551" 
d="M161 715h157l-130 -614h298l-33 -101h-444z" />
    <glyph glyph-name="M" unicode="M" horiz-adv-x="837" 
d="M160 715h201l36 -519l259 519h216l-152 -715h-146l119 558l-281 -558h-129l-40 557l-119 -557h-116z" />
    <glyph glyph-name="N" unicode="N" horiz-adv-x="704" 
d="M161 715h210l140 -506l107 506h122l-152 -715h-193l-154 521l-111 -521h-121z" />
    <glyph glyph-name="O" unicode="O" horiz-adv-x="761" 
d="M323 -10q-61 0 -110 15.5t-83.5 47t-53.5 79.5t-19 114q0 99 29 186t84 152t134 103t178 38q60 0 109.5 -14.5t84 -45t53.5 -78t19 -112.5q0 -99 -29 -187.5t-83.5 -154.5t-133.5 -104.5t-179 -38.5zM346 85q59 0 104 38.5t75.5 97.5t46.5 130t16 136q0 75 -33 108
t-93 33q-58 0 -103 -38t-76 -97t-46.5 -129.5t-15.5 -135.5q0 -75 33 -109t92 -34z" />
    <glyph glyph-name="P" unicode="P" horiz-adv-x="630" 
d="M161 715h316q83 0 129 -37.5t46 -109.5q0 -55 -19.5 -101t-54.5 -79t-83.5 -51t-105.5 -18h-157l-68 -319h-155zM368 407q66 0 100.5 40.5t34.5 100.5q0 38 -23 55t-67 17h-118l-45 -213h118z" />
    <glyph glyph-name="Q" unicode="Q" horiz-adv-x="761" 
d="M408 8q15 -39 38 -54.5t67 -15.5q22 0 41 3t33 7q17 4 31 10l-35 -93q-12 -9 -27 -16t-34 -11.5t-44 -4.5q-66 0 -111 38t-61 129q-57 2 -102.5 18.5t-78 47.5t-50 77t-17.5 109q0 98 29 184t84 150.5t133.5 101.5t177.5 37q60 0 109.5 -14t84.5 -44t54 -77t19 -112
q0 -88 -23 -166.5t-67 -141t-107 -105t-144 -57.5zM222 235q0 -75 33 -107.5t93 -32.5q59 0 103.5 37.5t75.5 95.5t46.5 128t15.5 135q0 73 -33 105t-94 32q-58 0 -103 -37t-75.5 -94.5t-46 -127t-15.5 -134.5z" />
    <glyph glyph-name="R" unicode="R" horiz-adv-x="648" 
d="M663 567q0 -48 -15 -88.5t-42.5 -71t-65.5 -51t-85 -29.5l113 -327h-157l-98 313h-83l-66 -313h-155l152 715h326q82 0 129 -37.5t47 -110.5zM376 404q31 0 56.5 11.5t43.5 30.5t28 45t10 54q0 38 -23 57t-67 19h-129l-46 -217h127z" />
    <glyph glyph-name="S" unicode="S" horiz-adv-x="606" 
d="M245 -9q-59 0 -102.5 10t-72.5 23q-34 14 -58 32l17 134q26 -26 60 -46q31 -19 72.5 -33t95.5 -14q61 0 101 27.5t40 80.5q0 32 -25 49.5t-68 32.5l-71 24q-61 20 -97 58t-36 102q0 60 23 107t63.5 80t96 50t121.5 17q59 0 100 -9.5t68 -20.5q30 -13 50 -30l-16 -143
q-22 26 -53 47q-29 18 -68 32t-93 14q-63 0 -99.5 -29.5t-36.5 -78.5q0 -29 22 -46.5t59 -30.5l72 -22q66 -21 106.5 -58.5t40.5 -105.5q0 -60 -24 -107.5t-66 -79.5t-99 -49t-123 -17z" />
    <glyph glyph-name="T" unicode="T" horiz-adv-x="633" 
d="M316 619h-206l30 96h548l-10 -96h-205l-132 -619h-157z" />
    <glyph glyph-name="U" unicode="U" horiz-adv-x="661" 
d="M274 -10q-127 0 -186 66.5t-33 190.5l101 468h162l-100 -472q-14 -66 12 -98t86 -32q59 0 98.5 32.5t53.5 98.5l100 471h133l-100 -471q-27 -126 -111.5 -190t-215.5 -64z" />
    <glyph glyph-name="V" unicode="V" horiz-adv-x="684" 
d="M123 715h170l38 -557l271 557h154l-376 -715h-185z" />
    <glyph glyph-name="W" unicode="W" horiz-adv-x="955" 
d="M123 715h167l-20 -550l247 550h132l11 -550l216 550h151l-317 -715h-170l-16 488l-223 -488h-172z" />
    <glyph glyph-name="X" unicode="X" horiz-adv-x="677" 
d="M249 360l-121 355h178l79 -271l191 271h165l-271 -355l123 -360h-177l-81 275l-197 -275h-164z" />
    <glyph glyph-name="Y" unicode="Y" horiz-adv-x="675" 
d="M269 305l-146 410h179l84 -282l204 282h157l-322 -407l-65 -308h-156z" />
    <glyph glyph-name="Z" unicode="Z" horiz-adv-x="618" 
d="M9 96l452 522h-342l30 97h514l-21 -97l-447 -522h357l-35 -96h-529z" />
    <glyph glyph-name="bracketleft" unicode="[" horiz-adv-x="352" 
d="M162 715h245l-8 -93h-122l-139 -653h122l-31 -92h-245z" />
    <glyph glyph-name="backslash" unicode="\" horiz-adv-x="442" 
d="M134 725h117l101 -735h-118z" />
    <glyph glyph-name="bracketright" unicode="]" horiz-adv-x="352" 
d="M-29 -31h121l139 653h-122l31 93h246l-178 -838h-246z" />
    <glyph glyph-name="asciicircum" unicode="^" horiz-adv-x="614" 
d="M251 509h116l174 -463h-111l-122 336l-124 -336h-112z" />
    <glyph glyph-name="underscore" unicode="_" horiz-adv-x="499" 
d="M-64 -63h491l-18 -86h-491z" />
    <glyph glyph-name="grave" unicode="`" horiz-adv-x="510" 
d="M122 699h152l91 -137h-109z" />
    <glyph glyph-name="a" unicode="a" horiz-adv-x="575" 
d="M570 507l-108 -507h-131l15 70q-32 -36 -73.5 -57.5t-93.5 -21.5q-67 0 -106 42.5t-39 127.5q0 60 18.5 122t52.5 111.5t82.5 81t108.5 31.5q50 0 81 -20t46 -53l16 73h131zM246 93q42 0 78.5 36t54.5 121h1h-1q9 41 9 70q0 45 -20 65t-52 20q-34 0 -59.5 -23t-42.5 -58
t-25.5 -76.5t-8.5 -77.5q0 -77 66 -77z" />
    <glyph glyph-name="b" unicode="b" horiz-adv-x="574" 
d="M395 517q67 0 106 -43t39 -130q0 -62 -18.5 -125t-52.5 -113.5t-82.5 -82.5t-108.5 -32q-50 0 -81 20t-47 54l-14 -65h-131l152 715h136l-58 -271q31 34 71 53.5t89 19.5zM258 95q34 0 59.5 23.5t42.5 59.5t25.5 78t8.5 79q0 78 -66 78q-41 0 -78 -36.5t-55 -123.5
q-9 -42 -9 -71q0 -46 20 -66.5t52 -20.5z" />
    <glyph glyph-name="c" unicode="c" horiz-adv-x="487" 
d="M216 -9q-82 0 -132.5 44t-50.5 138q0 70 21 132.5t60 109t95 74t126 27.5q40 0 67.5 -6t45.5 -14q21 -9 34 -20l-14 -128q-13 17 -31 30q-17 12 -39.5 20.5t-52.5 8.5q-41 0 -71 -17.5t-50 -47t-30 -67t-10 -77.5q0 -50 25.5 -71.5t72.5 -21.5q30 0 56 5.5t45 11.5
q23 7 42 17l-34 -97q-20 -14 -46 -25q-24 -11 -55.5 -18.5t-73.5 -7.5z" />
    <glyph glyph-name="d" unicode="d" horiz-adv-x="572" 
d="M612 715l-152 -715h-131l14 70q-32 -36 -73 -57.5t-92 -21.5q-67 0 -106 43t-39 130q0 62 18 125t52 113.5t82.5 82.5t109.5 32q48 0 78 -18.5t46 -50.5l57 267h136zM245 95q41 0 77.5 36.5t54.5 123.5h1h-1q5 21 7 38.5t2 32.5q0 46 -19.5 66.5t-51.5 20.5
q-34 0 -59.5 -23.5t-42.5 -59.5t-25.5 -78t-8.5 -79q0 -78 66 -78z" />
    <glyph glyph-name="e" unicode="e" horiz-adv-x="529" 
d="M179 220v-13q0 -56 31 -81.5t92 -25.5q32 0 61 5.5t52 12.5q26 7 48 17l-33 -93q-21 -14 -49 -25q-26 -11 -60 -18.5t-79 -7.5q-95 0 -151.5 46.5t-56.5 145.5q0 68 21 128t60 106t94.5 72.5t125.5 26.5q81 0 125.5 -36t44.5 -99q0 -73 -58 -117t-181 -44h-87zM324 428
q-26 0 -47.5 -11t-38 -29.5t-28.5 -43t-20 -51.5h86q60 0 87.5 21t27.5 54q0 29 -16.5 44.5t-50.5 15.5z" />
    <glyph glyph-name="f" unicode="f" horiz-adv-x="394" 
d="M383 631q-30 0 -52 -16.5t-30 -56.5l-11 -51h129l-11 -88h-136l-90 -419h-142l89 419h-68l19 88h68l10 49q16 75 66.5 120.5t132.5 45.5q53 0 80 -11t28 -12l-12 -88q-8 6 -19 10q-10 4 -22.5 7t-28.5 3z" />
    <glyph glyph-name="g" unicode="g" horiz-adv-x="571" 
d="M567 507l-108 -506q-8 -38 -27 -74.5t-53 -65t-83.5 -46t-119.5 -17.5q-46 0 -79.5 9t-54.5 19q-25 13 -42 29v103q21 -16 48 -29q25 -12 56.5 -20.5t72.5 -8.5q66 0 101 28.5t46 78.5l16 75q-31 -32 -70.5 -51t-87.5 -19q-68 0 -107.5 42t-39.5 127q0 60 18 120
t51.5 108t81 78t107.5 30q51 0 81.5 -19.5t47.5 -52.5l13 62h132zM247 113q40 0 75 31.5t54 108.5l5 25q6 32 6 53q0 46 -20.5 66t-52.5 20q-33 0 -58 -22t-41.5 -56t-25 -74.5t-8.5 -76.5q0 -75 66 -75z" />
    <glyph glyph-name="h" unicode="h" horiz-adv-x="558" 
d="M416 517q73 0 99 -40t11 -114l-78 -363h-140l71 332q7 32 -2.5 52.5t-44.5 20.5q-42 0 -78.5 -31.5t-50.5 -98.5l-59 -275h-140l152 715h140l-58 -275q34 35 79 56t99 21z" />
    <glyph glyph-name="i" unicode="i" horiz-adv-x="265" 
d="M155 705h148l-27 -126h-148zM113 507h148l-108 -507h-148z" />
    <glyph glyph-name="j" unicode="j" horiz-adv-x="264" 
d="M153 705h149l-27 -126h-148zM-55 -202q-18 0 -31.5 2.5t-22.5 4.5q-10 4 -17 8l10 90q5 -2 11 -3t12.5 -2t14.5 -1q32 0 50 18t26 57l114 535h147l-113 -534q-20 -92 -74.5 -133.5t-126.5 -41.5z" />
    <glyph glyph-name="k" unicode="k" horiz-adv-x="539" 
d="M361 317l104 -317h-154l-61 214l-77 -71l-30 -143h-139l152 715h139l-94 -441l211 233h155z" />
    <glyph glyph-name="l" unicode="l" horiz-adv-x="262" 
d="M156 715h146l-152 -715h-146z" />
    <glyph glyph-name="m" unicode="m" horiz-adv-x="833" 
d="M691 517q72 0 98.5 -40t10.5 -114l-77 -363h-138l71 332q7 32 -1 52.5t-41 20.5q-38 0 -71.5 -29t-49.5 -92l-60 -284h-138l71 332q7 32 -1 52.5t-41 20.5q-36 0 -69 -27t-50 -85l-62 -293h-138l108 507h132l-14 -69q32 37 75 58t96 21q102 0 113 -86q32 40 77 63t99 23z
" />
    <glyph glyph-name="n" unicode="n" horiz-adv-x="560" 
d="M412 517q73 0 101.5 -40t13.5 -114l-78 -363h-140l71 332q7 32 -2 52.5t-44 20.5q-41 0 -77.5 -30t-51.5 -94l-59 -281h-141l108 507h135l-15 -71q34 38 79 59.5t100 21.5z" />
    <glyph glyph-name="o" unicode="o" horiz-adv-x="578" 
d="M237 -11q-45 0 -82.5 10.5t-64 33t-41.5 57.5t-15 83q0 69 21.5 131.5t62 110t98.5 75t130 27.5q44 0 80.5 -9.5t62.5 -30.5t40.5 -54.5t14.5 -80.5q0 -70 -20.5 -134t-60 -113t-96.5 -77.5t-130 -28.5zM256 79q38 0 66 25.5t46.5 63.5t28 83.5t9.5 85.5q0 48 -20 68.5
t-56 20.5q-37 0 -65 -25t-47 -63t-28.5 -83t-9.5 -85q0 -48 20 -69.5t56 -21.5z" />
    <glyph glyph-name="p" unicode="p" horiz-adv-x="572" 
d="M393 517q67 0 106 -43t39 -130q0 -62 -18.5 -125t-52.5 -113.5t-82.5 -82.5t-108.5 -32q-48 0 -77.5 18t-46.5 49l-53 -250h-136l149 699h131l-14 -67v-1q32 35 72.5 56.5t91.5 21.5zM256 95q34 0 59.5 23.5t42.5 59.5t25.5 78t8.5 79q0 78 -66 78q-39 0 -73.5 -32
t-54.5 -107l-10 -46q-2 -13 -3 -24t-1 -22q0 -46 20 -66.5t52 -20.5z" />
    <glyph glyph-name="q" unicode="q" horiz-adv-x="571" 
d="M567 507l-149 -699h-136l54 255q-31 -33 -70.5 -52.5t-87.5 -19.5q-68 0 -106.5 43t-38.5 130q0 62 18 125t52 113.5t82.5 82.5t108.5 32q50 0 80.5 -20t46.5 -54l14 64h132zM245 95q39 0 74 33t54 111l8 37q2 14 3.5 26.5t1.5 23.5q0 46 -20 66.5t-52 20.5
q-34 0 -59 -23.5t-42 -59.5t-25.5 -78t-8.5 -79q0 -78 66 -78z" />
    <glyph glyph-name="r" unicode="r" horiz-adv-x="419" 
d="M401 517q10 0 17.5 -1t12.5 -1q6 -2 10 -3l-25 -135q-5 2 -13 4q-7 1 -16 2t-22 1q-26 0 -52.5 -10t-49.5 -30.5t-41 -50.5t-29 -70l-47 -223h-141l108 507h135l-23 -110q35 54 80.5 87t95.5 33z" />
    <glyph glyph-name="s" unicode="s" horiz-adv-x="495" 
d="M189 -10q-47 0 -80.5 7t-55.5 15q-26 10 -44 22l12 115q19 -18 45 -33q23 -13 54 -23t72 -10q44 0 69 16.5t25 48.5q0 21 -16 33t-45 20l-51 15q-54 16 -82 44.5t-28 79.5q0 41 17.5 74t49 55.5t75 34.5t95.5 12q46 0 78.5 -5.5t53.5 -12.5q24 -8 40 -18l-9 -116
q-19 17 -44 30q-23 12 -52.5 20.5t-68.5 8.5q-40 0 -64.5 -17t-24.5 -46q0 -22 16 -33.5t45 -20.5l52 -16q54 -16 82 -44.5t28 -79.5q0 -42 -18.5 -74.5t-51 -55t-77 -34.5t-97.5 -12z" />
    <glyph glyph-name="t" unicode="t" horiz-adv-x="410" 
d="M213 155q-15 -67 50 -67q17 0 32 3.5t27 7.5q13 4 25 10l-27 -84q-13 -10 -32 -17q-16 -8 -38.5 -13t-53.5 -5q-80 0 -111.5 43.5t-15.5 116.5l57 269h-66l18 88h67l29 137h142l-29 -137h132l-9 -88h-141z" />
    <glyph glyph-name="u" unicode="u" horiz-adv-x="559" 
d="M554 507l-108 -507h-135l16 73q-35 -38 -80.5 -60.5t-101.5 -22.5q-73 0 -100.5 40.5t-12.5 114.5l78 362h140l-71 -332q-7 -32 2.5 -52t44.5 -20q42 0 78.5 31t50.5 98l59 275h140z" />
    <glyph glyph-name="v" unicode="v" horiz-adv-x="536" 
d="M76 507h142l26 -367l182 367h141l-276 -507h-160z" />
    <glyph glyph-name="w" unicode="w" horiz-adv-x="763" 
d="M76 507h148l-7 -363l169 363h117l8 -364l149 364h134l-240 -507h-149l-15 309l-147 -309h-148z" />
    <glyph glyph-name="x" unicode="x" horiz-adv-x="540" 
d="M170 253l-92 254h165l49 -178l127 178h151l-202 -250l96 -257h-163l-54 180l-128 -180h-151z" />
    <glyph glyph-name="y" unicode="y" horiz-adv-x="539" 
d="M20 -202q-19 0 -33 3t-24 6q-11 5 -19 10l10 95q8 -4 19 -8q10 -3 23 -5t30 -2q45 0 73 29.5t60 87.5l-82 493h151l39 -330l170 330h133l-304 -533q-51 -91 -108.5 -133.5t-137.5 -42.5z" />
    <glyph glyph-name="z" unicode="z" horiz-adv-x="508" 
d="M4 87l313 334h-241l29 86h406l-19 -86l-309 -334h255l-30 -87h-423z" />
    <glyph glyph-name="braceleft" unicode="{" horiz-adv-x="355" 
d="M252 -123q-38 0 -71 8.5t-57 25t-38 42t-14 59.5q0 29 10 52t22 44t22 41.5t10 44.5q0 38 -26 51t-63 13v74q38 0 63.5 13t25.5 51q0 24 -10 44.5t-22 41.5t-22 44t-10 53q0 34 13.5 59.5t37.5 43t57 25.5t72 8h60l11 -93h-37q-75 0 -75 -62q0 -23 6 -42t13.5 -37.5
t13.5 -37.5t6 -43q0 -42 -21 -68t-47 -37q26 -11 47 -36.5t21 -67.5q0 -24 -6 -43.5t-13.5 -37.5t-13.5 -36.5t-6 -41.5q0 -63 75 -63h37l-11 -92h-60z" />
    <glyph glyph-name="bar" unicode="|" horiz-adv-x="306" 
d="M101 900h103v-1200h-103v1200z" />
    <glyph glyph-name="braceright" unicode="}" horiz-adv-x="355" 
d="M32 -31h36q76 0 76 63q0 23 -6 41.5t-13.5 36.5t-13.5 37.5t-6 43.5q0 42 20.5 67.5t46.5 36.5q-26 11 -46.5 37t-20.5 68q0 24 6 43t13.5 37.5t13.5 37.5t6 42q0 62 -76 62h-36l10 93h61q38 0 71 -8t57 -25.5t38 -43t14 -59.5q0 -30 -10 -53t-22 -44t-22 -41.5
t-10 -44.5q0 -38 25.5 -51t63.5 -13v-74q-37 0 -63 -13t-26 -51q0 -24 10 -44.5t22 -41.5t22 -44t10 -52q0 -34 -14 -59.5t-38 -42t-57 -25t-71 -8.5h-61z" />
    <glyph glyph-name="asciitilde" unicode="~" 
d="M386 188q-37 0 -61.5 12t-45 26t-41 26t-50.5 12q-28 0 -51 -11t-40 -24q-20 -16 -36 -36l21 101q19 22 43 39q21 15 48 26.5t60 11.5q37 0 61.5 -12t45.5 -26t41.5 -26t49.5 -12q28 0 51 11t40 25q21 15 37 35l-22 -101q-19 -22 -43 -38q-22 -16 -49 -27.5t-59 -11.5z
" />
    <glyph glyph-name="exclamdown" unicode="&#xa1;" horiz-adv-x="270" 
d="M120 508h135l-31 -145h-135zM80 279h118l-88 -471h-143z" />
    <glyph glyph-name="cent" unicode="&#xa2;" horiz-adv-x="546" 
d="M410 514q29 -3 50 -9.5t35 -12.5q16 -7 27 -16l-16 -128q-15 17 -35 30q-18 12 -42.5 20.5t-56.5 8.5q-42 0 -73 -17.5t-52 -47t-31 -67t-10 -77.5q0 -50 26.5 -71.5t74.5 -21.5q32 0 60 5.5t49 11.5q25 7 46 17l-36 -97q-14 -10 -33 -19q-17 -8 -40 -15.5t-53 -12.5
l-28 -133h-102l28 132q-67 11 -107 54.5t-40 124.5q0 63 17.5 120t50.5 102t81 75.5t108 40.5l29 135h101z" />
    <glyph glyph-name="sterling" unicode="&#xa3;" 
d="M407 725q52 0 89 -8.5t62 -17.5q29 -12 48 -27l-10 -131q-20 21 -48 37q-25 15 -58.5 26t-79.5 11q-66 0 -101 -37t-35 -98q0 -38 12 -71.5t22 -69.5h153l-16 -80h-129q-5 -45 -27.5 -80t-57.5 -58q36 -7 67 -14t74 -7q30 0 51 10.5t34.5 25.5t20.5 32t10 30l59 -43
l-4 -18q-6 -28 -21 -55t-38.5 -47t-55.5 -32.5t-72 -12.5q-37 0 -68 7t-61.5 15.5t-63 15.5t-72.5 7q-20 0 -36.5 -2t-28.5 -5q-13 -3 -24 -7l20 93q11 5 25 9q12 3 28.5 5.5t36.5 2.5q36 0 61 30.5t25 76.5v11t-1 10h-150l17 80h107q-14 32 -27 66t-13 76q0 56 21 101
t58 76.5t87.5 49t109.5 17.5z" />
    <glyph glyph-name="yen" unicode="&#xa5;" 
d="M481 436h113l-16 -79h-155l-28 -39l-6 -28h174l-16 -80h-175l-45 -210h-154l44 210h-173l17 80h173l6 27l-12 40h-153l17 79h113l-81 279h158l59 -304l186 304h156z" />
    <glyph glyph-name="brokenbar" unicode="&#xa6;" horiz-adv-x="312" 
d="M104 900h105v-496h-105v496zM104 195h105v-495h-105v495z" />
    <glyph glyph-name="section" unicode="&#xa7;" 
d="M420 630q-52 0 -81.5 -27t-29.5 -69q0 -33 24.5 -56t60.5 -46l63 -41q46 -29 73 -67.5t27 -89.5q0 -66 -36 -110.5t-96 -67.5q14 -31 14 -65q0 -46 -18.5 -82t-51.5 -61t-78 -37.5t-97 -12.5q-47 0 -80 6.5t-55 14.5q-25 10 -41 22l11 109q18 -17 43 -30
q22 -12 51.5 -20.5t68.5 -8.5q52 0 81.5 27t29.5 70q0 33 -24.5 56t-60.5 46l-63 40q-46 29 -73 68t-27 89q0 66 36 111t95 67q-13 29 -13 65q0 46 18.5 82t51.5 61t78 37.5t97 12.5q47 0 80 -6.5t54 -14.5q25 -10 41 -22l-10 -108q-18 16 -42 29q-23 12 -52.5 20.5
t-68.5 8.5zM291 361q-20 12 -36.5 24.5t-30.5 26.5q-26 -12 -42 -41t-16 -57q0 -34 23.5 -61t65.5 -53l66 -40q20 -12 36.5 -24.5t30.5 -26.5q26 13 41.5 41.5t15.5 57.5q0 33 -23 60.5t-65 53.5z" />
    <glyph glyph-name="dieresis" unicode="&#xa8;" horiz-adv-x="510" 
d="M155 706h114l-27 -126h-114zM325 706h114l-27 -126h-114z" />
    <glyph glyph-name="copyright" unicode="&#xa9;" horiz-adv-x="923" 
d="M462 -38q-84 0 -157 26.5t-127 76t-85 119.5t-31 157t30.5 158t83.5 121t126 77.5t158 27.5q87 0 161 -28t127 -78t83 -119.5t30 -152.5q0 -87 -30.5 -158.5t-83.5 -121.5t-126 -77.5t-159 -27.5zM465 36q66 0 122.5 22t97 62t63.5 97t23 126q0 76 -24.5 133.5t-67 96
t-99.5 58t-123 19.5q-67 0 -123 -22t-97 -62t-64 -96.5t-23 -126.5q0 -76 24.5 -133.5t67.5 -96t100 -58t123 -19.5zM464 127q-41 0 -77 12t-62.5 38t-42 67.5t-15.5 99.5q0 57 16.5 98.5t44.5 68.5t65.5 39.5t78.5 12.5q37 0 64 -5.5t44 -11.5q21 -8 35 -18l11 -99
q-15 13 -34 23q-17 9 -39 16t-49 7q-52 0 -80 -29.5t-28 -99.5q0 -69 30 -98t82 -29q26 0 48 4.5t37 10.5q19 7 33 15l-10 -78q-16 -12 -38 -22q-20 -9 -48 -15.5t-66 -6.5z" />
    <glyph glyph-name="ordfeminine" unicode="&#xaa;" horiz-adv-x="458" 
d="M199 359q-40 0 -61.5 22.5t-21.5 55.5q0 38 17.5 63.5t49 42t75.5 25t97 12.5l4 20q4 25 -7.5 38t-41.5 13q-28 0 -53.5 -6.5t-45.5 -14.5q-23 -9 -43 -21l22 73q18 12 42 22q21 8 47.5 14.5t60.5 6.5q68 0 95 -32t14 -91l-50 -236h-87l9 41q-16 -15 -46 -31.5t-76 -16.5
zM244 427q38 0 62.5 22.5t32.5 56.5l4 18q-24 -2 -47.5 -6t-42 -11.5t-30 -20.5t-11.5 -33q0 -26 32 -26z" />
    <glyph glyph-name="guillemotleft" unicode="&#xab;" horiz-adv-x="517" 
d="M51 281l235 235l50 -39l-155 -197l69 -199l-64 -36zM228 281l237 215l50 -38l-159 -178l82 -180l-64 -35z" />
    <glyph glyph-name="logicalnot" unicode="&#xac;" 
d="M437 315h-368v103h471v-285h-103v182z" />
    <glyph glyph-name="registered" unicode="&#xae;" horiz-adv-x="930" 
d="M469 -38q-84 0 -157.5 26.5t-127.5 76t-85 119.5t-31 157t30.5 158t84 121t126.5 77.5t158 27.5q87 0 160.5 -28t127 -78t83.5 -119.5t30 -152.5q0 -87 -30.5 -158.5t-84 -121.5t-126.5 -77.5t-158 -27.5zM472 36q66 0 122.5 22t97 62t63.5 97t23 126q0 76 -24.5 133.5
t-67 96t-99.5 58t-123 19.5q-67 0 -123.5 -22t-97 -62t-63.5 -96.5t-23 -126.5q0 -76 24.5 -133.5t67 -96t100 -58t123.5 -19.5zM309 553h209q66 0 102.5 -33.5t36.5 -89.5q0 -47 -24 -76.5t-66 -40.5l94 -168h-110l-79 153h-61v-153h-102v408zM491 362q32 0 48 18.5
t16 46.5q0 29 -16.5 45t-49.5 16h-78v-126h80z" />
    <glyph glyph-name="macron" unicode="&#xaf;" horiz-adv-x="510" 
d="M134 672h312l-10 -88h-331z" />
    <glyph glyph-name="degree" unicode="&#xb0;" horiz-adv-x="474" 
d="M299 386q-39 0 -71.5 12.5t-56.5 34.5t-37 53.5t-13 68.5q0 38 13 69t37 53.5t56.5 35t71.5 12.5t71 -12t55 -34.5t36 -54t13 -69.5q0 -37 -13 -68t-36 -53.5t-55 -35t-71 -12.5zM299 473q34 0 56 22t22 60q0 39 -22 61.5t-56 22.5q-36 0 -58 -22.5t-22 -61.5
q0 -38 22 -60t58 -22z" />
    <glyph glyph-name="plusminus" unicode="&#xb1;" 
d="M254 286h-185v98h185v145h101v-145h185v-98h-185v-142h-101v142zM69 97h471v-97h-471v97z" />
    <glyph glyph-name="uni00B2" unicode="&#xb2;" horiz-adv-x="312" 
d="M58 382q10 45 36 77t76 63l32 19q31 19 52.5 39t21.5 49q0 17 -10 26t-33 9q-25 0 -47 -6t-39 -13q-19 -9 -36 -20l18 63q15 10 35 19q18 7 41 12.5t52 5.5q48 0 74.5 -21t26.5 -62q0 -25 -8.5 -45.5t-22.5 -37t-32.5 -30t-38.5 -25.5l-33 -19q-29 -17 -45.5 -31
t-24.5 -27h167l-17 -55h-247z" />
    <glyph glyph-name="uni00B3" unicode="&#xb3;" horiz-adv-x="321" 
d="M182 362q-31 0 -52 6t-35 13q-15 8 -25 19l4 62q14 -11 31 -20q16 -8 36 -14t45 -6q31 0 48 17.5t17 43.5q0 35 -41 35h-60l12 55h57q23 0 41 16t18 43q0 32 -42 32q-25 0 -47 -6t-39 -13q-20 -9 -37 -20l17 62q16 11 36 19q18 8 40.5 13.5t51.5 5.5q50 0 76 -21t26 -57
q0 -20 -6.5 -36.5t-16.5 -29t-22 -21t-23 -14.5q15 -6 28 -20.5t13 -40.5q0 -28 -11.5 -51t-31.5 -39t-48 -24.5t-60 -8.5z" />
    <glyph glyph-name="acute" unicode="&#xb4;" horiz-adv-x="510" 
d="M306 699h152l-169 -137h-109z" />
    <glyph glyph-name="paragraph" unicode="&#xb6;" horiz-adv-x="667" 
d="M343 285h-65q-51 0 -93 14.5t-72.5 42t-47.5 67t-17 89.5t16 90t45.5 68t71.5 43.5t94 15.5h333v-805h-105v709h-54v-709h-106v375zM343 383v235h-42q-57 0 -86 -30t-29 -86q0 -54 28 -86.5t84 -32.5h45z" />
    <glyph glyph-name="periodcentered" unicode="&#xb7;" horiz-adv-x="365" 
d="M136 356h135l-33 -154h-135z" />
    <glyph glyph-name="cedilla" unicode="&#xb8;" horiz-adv-x="510" 
d="M198 -203q-25 0 -43.5 3t-30.5 7q-14 4 -23 10v65q12 -9 27 -17q14 -6 31 -11t37 -5q24 0 37.5 10t13.5 26q0 14 -10.5 20t-26.5 11l-42 13l62 79h63l-44 -54l30 -8q22 -5 39.5 -17.5t17.5 -38.5q0 -47 -39.5 -70t-98.5 -23z" />
    <glyph glyph-name="uni00B9" unicode="&#xb9;" horiz-adv-x="321" 
d="M73 429h95l44 203l-87 -37l22 67l103 53h59l-61 -286h81l-18 -56h-244z" />
    <glyph glyph-name="ordmasculine" unicode="&#xba;" horiz-adv-x="477" 
d="M262 356q-66 0 -102.5 32.5t-36.5 98.5q0 51 15 94.5t42.5 75.5t68 50t91.5 18q66 0 101.5 -31t35.5 -96q0 -52 -14.5 -96t-42 -76.5t-67.5 -51t-91 -18.5zM276 420q26 0 45.5 17.5t32.5 43.5t19.5 57.5t6.5 58.5q0 62 -53 62q-25 0 -44.5 -17.5t-32.5 -44t-19.5 -57
t-6.5 -57.5q0 -63 52 -63z" />
    <glyph glyph-name="guillemotright" unicode="&#xbb;" horiz-adv-x="517" 
d="M192 84l154 196l-69 200l65 36l136 -235l-236 -236zM12 103l159 177l-82 181l65 35l145 -215l-237 -216z" />
    <glyph glyph-name="onequarter" unicode="&#xbc;" horiz-adv-x="631" 
d="M561 715h89l-506 -715h-89zM66 429h86l43 203l-86 -37l22 67l103 53h59l-61 -286h71l-18 -56h-225zM441 75h-152l11 54l171 213h104l-44 -209h43l-13 -58h-43l-16 -75h-77zM454 133l26 123l-100 -123h74z" />
    <glyph glyph-name="onehalf" unicode="&#xbd;" horiz-adv-x="642" 
d="M552 715h89l-506 -715h-90zM66 429h86l43 203l-86 -37l22 67l103 53h59l-61 -286h71l-18 -56h-225zM310 10q9 45 35.5 77t76.5 63l32 19q31 19 52 39t21 49q0 17 -9.5 26t-32.5 9q-25 0 -47 -6t-39 -13q-19 -9 -36 -20l17 63q16 10 36 19q18 7 40.5 12.5t51.5 5.5
q48 0 75 -21t27 -62q0 -25 -8.5 -45.5t-22.5 -37t-33 -30t-39 -25.5l-32 -19q-29 -17 -45.5 -31t-24.5 -27h167l-17 -55h-247z" />
    <glyph glyph-name="threequarters" unicode="&#xbe;" horiz-adv-x="631" 
d="M182 362q-31 0 -52 6t-35 13q-15 8 -25 19l4 62q14 -11 31 -20q16 -8 36 -14t45 -6q31 0 48 17.5t17 43.5q0 35 -41 35h-60l12 55h57q23 0 41 16t18 43q0 32 -42 32q-25 0 -47 -6t-39 -13q-20 -9 -37 -20l17 62q16 11 36 19q18 8 40.5 13.5t51.5 5.5q50 0 76 -21t26 -57
q0 -20 -6.5 -36.5t-16.5 -29t-22 -21t-23 -14.5q15 -6 28 -20.5t13 -40.5q0 -28 -11.5 -51t-31.5 -39t-48 -24.5t-60 -8.5zM565 715h90l-506 -715h-90zM441 75h-152l11 54l171 213h104l-44 -209h43l-13 -58h-43l-16 -75h-77zM454 133l26 123l-100 -123h74z" />
    <glyph glyph-name="questiondown" unicode="&#xbf;" horiz-adv-x="447" 
d="M234 507h135l-31 -144h-136zM124 -202q-77 0 -116.5 36t-39.5 96q0 45 14.5 78t37 57.5t49.5 44.5t51.5 40t43.5 42.5t26 53.5l7 32h109v-22q0 -41 -15 -71t-37.5 -53.5t-49 -42t-49 -38t-37.5 -42.5t-15 -53q0 -25 15.5 -39t51.5 -14q39 0 73 9t59 20q30 13 55 30
l-32 -112q-24 -15 -54 -26q-28 -11 -64.5 -18.5t-82.5 -7.5z" />
    <glyph glyph-name="Agrave" unicode="&#xc0;" horiz-adv-x="704" 
d="M446 750l-134 137h152l91 -137h-109zM454 198h-229l-98 -198h-156l385 715h185l84 -715h-154zM446 291l-27 298l-148 -298h175z" />
    <glyph glyph-name="Aacute" unicode="&#xc1;" horiz-adv-x="704" 
d="M479 750h-109l126 137h152zM541 715l84 -715h-154l-17 198h-229l-98 -198h-156l385 715h185zM446 291l-27 298l-148 -298h175z" />
    <glyph glyph-name="Acircumflex" unicode="&#xc2;" horiz-adv-x="704" 
d="M313 742l-39 42l174 109h78l128 -109l-45 -42l-135 64zM541 715l84 -715h-154l-17 198h-229l-98 -198h-156l385 715h185zM446 291l-27 298l-148 -298h175z" />
    <glyph glyph-name="Atilde" unicode="&#xc3;" horiz-adv-x="704" 
d="M566 837q21 0 39.5 8t33 17.5t23 18l8.5 8.5l-26 -78q-14 -17 -31 -31q-16 -13 -36 -22t-46 -9q-30 0 -48.5 9t-34 20.5t-31 20.5t-38.5 9q-21 0 -39.5 -8t-32.5 -17.5t-22.5 -18l-9.5 -9.5l26 78q14 18 32 32q16 13 35.5 22.5t44.5 9.5q30 0 49.5 -9.5t35 -20.5
t31 -20.5t37.5 -9.5zM541 715l84 -715h-154l-17 198h-229l-98 -198h-156l385 715h185zM446 291l-27 298l-148 -298h175z" />
    <glyph glyph-name="Adieresis" unicode="&#xc4;" horiz-adv-x="704" 
d="M432 768h-114l27 126h114zM602 768h-114l27 126h114zM541 715l84 -715h-154l-17 198h-229l-98 -198h-156l385 715h185zM446 291l-27 298l-148 -298h175z" />
    <glyph glyph-name="Aring" unicode="&#xc5;" horiz-adv-x="704" 
d="M454 735q-43 0 -68.5 23t-25.5 59q0 26 10.5 47t28.5 37t43 24.5t54 8.5q42 0 67 -22.5t25 -59.5q0 -25 -10.5 -46.5t-28.5 -37t-42.5 -24.5t-52.5 -9zM484 876q-20 0 -36 -14t-16 -37q0 -14 8.5 -23t25.5 -9q21 0 36 14.5t15 37.5q0 15 -9 23t-24 8zM454 198h-229
l-98 -198h-156l385 715h185l84 -715h-154zM446 291l-27 298l-148 -298h175z" />
    <glyph glyph-name="AE" unicode="&#xc6;" horiz-adv-x="974" 
d="M696 615l-42 -201h272l-20 -93h-272l-47 -221h311l-23 -100h-465l47 221h-202l-131 -221h-156l442 715h613l-20 -100h-307zM541 615h-52l-179 -302h167z" />
    <glyph glyph-name="Ccedilla" unicode="&#xc7;" horiz-adv-x="650" 
d="M464 725q58 0 98.5 -9.5t66.5 -20.5q30 -13 49 -30l-15 -146q-19 25 -46 45q-25 18 -59.5 31.5t-83.5 13.5q-62 0 -108.5 -30.5t-77.5 -79t-46.5 -110t-15.5 -124.5q0 -83 41.5 -118t109.5 -35q43 0 81.5 9t67.5 20q34 13 63 29l-34 -102q-25 -19 -58 -35
q-30 -15 -71 -27t-95 -15l-30 -37l30 -8q22 -5 39.5 -17.5t17.5 -38.5q0 -47 -39.5 -70t-98.5 -23q-25 0 -43.5 3t-30.5 7q-14 4 -23 10v65q12 -9 27 -17q14 -6 31 -11t37 -5q24 0 37.5 10t13.5 26q0 14 -10.5 20t-26.5 11l-42 13l50 63q-46 4 -85 22t-67.5 49.5t-44.5 77
t-16 105.5q0 96 28 182.5t80.5 152.5t128 105t170.5 39z" />
    <glyph glyph-name="Egrave" unicode="&#xc8;" horiz-adv-x="575" 
d="M257 887h152l91 -137h-109zM161 715h458l-9 -100h-314l-44 -204h274l-20 -92h-273l-47 -219h319l-34 -100h-462z" />
    <glyph glyph-name="Eacute" unicode="&#xc9;" horiz-adv-x="575" 
d="M441 887h152l-169 -137h-109zM161 715h458l-9 -100h-314l-44 -204h274l-20 -92h-273l-47 -219h319l-34 -100h-462z" />
    <glyph glyph-name="Ecircumflex" unicode="&#xca;" horiz-adv-x="575" 
d="M218 784l174 109h78l128 -109l-45 -42l-135 64l-161 -64zM161 715h458l-9 -100h-314l-44 -204h274l-20 -92h-273l-47 -219h319l-34 -100h-462z" />
    <glyph glyph-name="Edieresis" unicode="&#xcb;" horiz-adv-x="575" 
d="M290 894h114l-27 -126h-114zM460 894h114l-27 -126h-114zM161 715h458l-9 -100h-314l-44 -204h274l-20 -92h-273l-47 -219h319l-34 -100h-462z" />
    <glyph glyph-name="Igrave" unicode="&#xcc;" horiz-adv-x="286" 
d="M105 887h152l91 -137h-109zM161 715h160l-152 -715h-160z" />
    <glyph glyph-name="Iacute" unicode="&#xcd;" horiz-adv-x="286" 
d="M289 887h152l-169 -137h-109zM161 715h160l-152 -715h-160z" />
    <glyph glyph-name="Icircumflex" unicode="&#xce;" horiz-adv-x="286" 
d="M66 784l174 109h78l128 -109l-45 -42l-135 64l-161 -64zM161 715h160l-152 -715h-160z" />
    <glyph glyph-name="Idieresis" unicode="&#xcf;" horiz-adv-x="286" 
d="M138 894h114l-27 -126h-114zM308 894h114l-27 -126h-114zM161 715h160l-152 -715h-160z" />
    <glyph glyph-name="Eth" unicode="&#xd0;" horiz-adv-x="720" 
d="M447 715q122 0 191.5 -59.5t69.5 -182.5q0 -98 -29 -184t-83.5 -150.5t-132 -101.5t-174.5 -37h-256l68 318h-61l20 90h60l65 307h262zM291 96q63 0 110.5 33.5t80 87.5t49 121t16.5 133q0 79 -37 114t-106 35h-82l-45 -212h148l-19 -90h-148l-47 -222h80z" />
    <glyph glyph-name="Ntilde" unicode="&#xd1;" horiz-adv-x="704" 
d="M538 749q-30 0 -48.5 9t-34 20.5t-31 20.5t-38.5 9q-21 0 -39.5 -8t-32.5 -17.5t-22.5 -18l-9.5 -9.5l26 78q14 18 32 32q16 13 35.5 22.5t44.5 9.5q30 0 49.5 -9.5t35 -20.5t31 -20.5t37.5 -9.5q21 0 39.5 8t33 17.5t23 18l8.5 8.5l-26 -78q-14 -17 -31 -31
q-16 -13 -36 -22t-46 -9zM161 715h210l140 -506l107 506h122l-152 -715h-193l-154 521l-111 -521h-121z" />
    <glyph glyph-name="Ograve" unicode="&#xd2;" horiz-adv-x="761" 
d="M344 887h152l91 -137h-109zM323 -10q-61 0 -110 15.5t-83.5 47t-53.5 79.5t-19 114q0 99 29 186t84 152t134 103t178 38q60 0 109.5 -14.5t84 -45t53.5 -78t19 -112.5q0 -99 -29 -187.5t-83.5 -154.5t-133.5 -104.5t-179 -38.5zM346 85q59 0 104 38.5t75.5 97.5t46.5 130
t16 136q0 75 -33 108t-93 33q-58 0 -103 -38t-76 -97t-46.5 -129.5t-15.5 -135.5q0 -75 33 -109t92 -34z" />
    <glyph glyph-name="Oacute" unicode="&#xd3;" horiz-adv-x="761" 
d="M528 887h152l-169 -137h-109zM323 -10q-61 0 -110 15.5t-83.5 47t-53.5 79.5t-19 114q0 99 29 186t84 152t134 103t178 38q60 0 109.5 -14.5t84 -45t53.5 -78t19 -112.5q0 -99 -29 -187.5t-83.5 -154.5t-133.5 -104.5t-179 -38.5zM346 85q59 0 104 38.5t75.5 97.5
t46.5 130t16 136q0 75 -33 108t-93 33q-58 0 -103 -38t-76 -97t-46.5 -129.5t-15.5 -135.5q0 -75 33 -109t92 -34z" />
    <glyph glyph-name="Ocircumflex" unicode="&#xd4;" horiz-adv-x="761" 
d="M305 784l174 109h78l128 -109l-45 -42l-135 64l-161 -64zM323 -10q-61 0 -110 15.5t-83.5 47t-53.5 79.5t-19 114q0 99 29 186t84 152t134 103t178 38q60 0 109.5 -14.5t84 -45t53.5 -78t19 -112.5q0 -99 -29 -187.5t-83.5 -154.5t-133.5 -104.5t-179 -38.5zM346 85
q59 0 104 38.5t75.5 97.5t46.5 130t16 136q0 75 -33 108t-93 33q-58 0 -103 -38t-76 -97t-46.5 -129.5t-15.5 -135.5q0 -75 33 -109t92 -34z" />
    <glyph glyph-name="Otilde" unicode="&#xd5;" horiz-adv-x="761" 
d="M563 749q-30 0 -48.5 9t-34 20.5t-31 20.5t-38.5 9q-21 0 -39.5 -8t-32.5 -17.5t-22.5 -18l-9.5 -9.5l26 78q14 18 32 32q16 13 35.5 22.5t44.5 9.5q30 0 49.5 -9.5t35 -20.5t31 -20.5t37.5 -9.5q21 0 39.5 8t33 17.5t23 18l8.5 8.5l-26 -78q-14 -17 -31 -31
q-16 -13 -36 -22t-46 -9zM323 -10q-61 0 -110 15.5t-83.5 47t-53.5 79.5t-19 114q0 99 29 186t84 152t134 103t178 38q60 0 109.5 -14.5t84 -45t53.5 -78t19 -112.5q0 -99 -29 -187.5t-83.5 -154.5t-133.5 -104.5t-179 -38.5zM346 85q59 0 104 38.5t75.5 97.5t46.5 130
t16 136q0 75 -33 108t-93 33q-58 0 -103 -38t-76 -97t-46.5 -129.5t-15.5 -135.5q0 -75 33 -109t92 -34z" />
    <glyph glyph-name="Odieresis" unicode="&#xd6;" horiz-adv-x="761" 
d="M377 894h114l-27 -126h-114zM547 894h114l-27 -126h-114zM323 -10q-61 0 -110 15.5t-83.5 47t-53.5 79.5t-19 114q0 99 29 186t84 152t134 103t178 38q60 0 109.5 -14.5t84 -45t53.5 -78t19 -112.5q0 -99 -29 -187.5t-83.5 -154.5t-133.5 -104.5t-179 -38.5zM346 85
q59 0 104 38.5t75.5 97.5t46.5 130t16 136q0 75 -33 108t-93 33q-58 0 -103 -38t-76 -97t-46.5 -129.5t-15.5 -135.5q0 -75 33 -109t92 -34z" />
    <glyph glyph-name="multiply" unicode="&#xd7;" 
d="M93 139l140 139l-140 139l72 72l139 -140l141 140l71 -71l-140 -140l140 -140l-71 -71l-141 140l-140 -140z" />
    <glyph glyph-name="Oslash" unicode="&#xd8;" horiz-adv-x="761" 
d="M665 673q40 -30 61.5 -79t21.5 -119q0 -99 -29 -187.5t-83.5 -154.5t-133.5 -104.5t-179 -38.5q-58 0 -103 13l-48 -71h-89l69 103q-45 31 -70 83t-25 128q0 99 29 186t84 152t134 103t178 38q66 0 118 -18l50 75h87zM221 228q0 -42 11 -72l304 455q-28 17 -74 17
q-58 0 -103 -38t-76 -97t-46.5 -129.5t-15.5 -135.5zM346 85q59 0 104 38.5t75.5 97.5t46.5 130t16 136q0 36 -7 60l-299 -449q26 -13 64 -13z" />
    <glyph glyph-name="Ugrave" unicode="&#xd9;" horiz-adv-x="661" 
d="M305 887h152l91 -137h-109zM274 -10q-127 0 -186 66.5t-33 190.5l101 468h162l-100 -472q-14 -66 12 -98t86 -32q59 0 98.5 32.5t53.5 98.5l100 471h133l-100 -471q-27 -126 -111.5 -190t-215.5 -64z" />
    <glyph glyph-name="Uacute" unicode="&#xda;" horiz-adv-x="661" 
d="M489 887h152l-169 -137h-109zM274 -10q-127 0 -186 66.5t-33 190.5l101 468h162l-100 -472q-14 -66 12 -98t86 -32q59 0 98.5 32.5t53.5 98.5l100 471h133l-100 -471q-27 -126 -111.5 -190t-215.5 -64z" />
    <glyph glyph-name="Ucircumflex" unicode="&#xdb;" horiz-adv-x="661" 
d="M266 784l174 109h78l128 -109l-45 -42l-135 64l-161 -64zM274 -10q-127 0 -186 66.5t-33 190.5l101 468h162l-100 -472q-14 -66 12 -98t86 -32q59 0 98.5 32.5t53.5 98.5l100 471h133l-100 -471q-27 -126 -111.5 -190t-215.5 -64z" />
    <glyph glyph-name="Udieresis" unicode="&#xdc;" horiz-adv-x="661" 
d="M338 894h114l-27 -126h-114zM508 894h114l-27 -126h-114zM274 -10q-127 0 -186 66.5t-33 190.5l101 468h162l-100 -472q-14 -66 12 -98t86 -32q59 0 98.5 32.5t53.5 98.5l100 471h133l-100 -471q-27 -126 -111.5 -190t-215.5 -64z" />
    <glyph glyph-name="Yacute" unicode="&#xdd;" horiz-adv-x="675" 
d="M492 887h152l-169 -137h-109zM269 305l-146 410h179l84 -282l204 282h157l-322 -407l-65 -308h-156z" />
    <glyph glyph-name="Thorn" unicode="&#xde;" horiz-adv-x="635" 
d="M161 715h155l-30 -142h165q81 0 126.5 -36t45.5 -107q0 -55 -19 -100.5t-53.5 -78.5t-81.5 -51.5t-104 -18.5h-163l-38 -181h-155zM344 270q31 0 55 11t40.5 30t25 44.5t8.5 54.5q0 37 -22 53t-63 16h-122l-45 -209h123z" />
    <glyph glyph-name="germandbls" unicode="&#xdf;" horiz-adv-x="559" 
d="M306 -9q-30 0 -51.5 6t-35.5 14q-16 8 -27 19l11 86q9 -10 22 -18q11 -7 26.5 -12.5t37.5 -5.5q35 0 55.5 22t20.5 57q0 26 -14.5 43.5t-32.5 34t-32.5 34.5t-14.5 45q0 39 25 68t55 56.5t55 57.5t25 72q0 52 -61 52q-44 0 -78 -32.5t-47 -93.5l-106 -496h-136l104 487
q11 51 37 94.5t65.5 75.5t90.5 50t111 18q79 0 120 -33.5t41 -90.5q0 -37 -12.5 -65.5t-32 -51.5t-41.5 -41t-41.5 -35t-32 -33.5t-12.5 -35.5q0 -21 16.5 -34.5t36 -29.5t36 -38.5t16.5 -61.5q0 -38 -15.5 -71.5t-42.5 -58.5t-63.5 -39.5t-77.5 -14.5z" />
    <glyph glyph-name="agrave" unicode="&#xe0;" horiz-adv-x="575" 
d="M346 562l-134 137h152l91 -137h-109zM570 507l-108 -507h-131l15 70q-32 -36 -73.5 -57.5t-93.5 -21.5q-67 0 -106 42.5t-39 127.5q0 60 18.5 122t52.5 111.5t82.5 81t108.5 31.5q50 0 81 -20t46 -53l16 73h131zM246 93q42 0 78.5 36t54.5 121h1h-1q9 41 9 70
q0 45 -20 65t-52 20q-34 0 -59.5 -23t-42.5 -58t-25.5 -76.5t-8.5 -77.5q0 -77 66 -77z" />
    <glyph glyph-name="aacute" unicode="&#xe1;" horiz-adv-x="575" 
d="M379 562h-109l126 137h152zM570 507l-108 -507h-131l15 70q-32 -36 -73.5 -57.5t-93.5 -21.5q-67 0 -106 42.5t-39 127.5q0 60 18.5 122t52.5 111.5t82.5 81t108.5 31.5q50 0 81 -20t46 -53l16 73h131zM246 93q42 0 78.5 36t54.5 121h1h-1q9 41 9 70q0 45 -20 65t-52 20
q-34 0 -59.5 -23t-42.5 -58t-25.5 -76.5t-8.5 -77.5q0 -77 66 -77z" />
    <glyph glyph-name="acircumflex" unicode="&#xe2;" horiz-adv-x="575" 
d="M212 554l-39 42l174 109h78l128 -109l-45 -42l-135 64zM570 507l-108 -507h-131l15 70q-32 -36 -73.5 -57.5t-93.5 -21.5q-67 0 -106 42.5t-39 127.5q0 60 18.5 122t52.5 111.5t82.5 81t108.5 31.5q50 0 81 -20t46 -53l16 73h131zM246 93q42 0 78.5 36t54.5 121h1h-1
q9 41 9 70q0 45 -20 65t-52 20q-34 0 -59.5 -23t-42.5 -58t-25.5 -76.5t-8.5 -77.5q0 -77 66 -77z" />
    <glyph glyph-name="atilde" unicode="&#xe3;" horiz-adv-x="575" 
d="M279 620q-21 0 -39.5 -8t-32.5 -17.5t-22.5 -18l-9.5 -9.5l26 78q14 18 32 32q16 13 35.5 22.5t44.5 9.5q30 0 49.5 -9.5t35 -20.5t31 -20.5t37.5 -9.5q21 0 39.5 8t33 17.5t23 18l8.5 8.5l-26 -78q-14 -17 -31 -31q-16 -13 -36 -22t-46 -9q-30 0 -48.5 9t-34 20.5
t-31 20.5t-38.5 9zM439 507h131l-108 -507h-131l15 70q-32 -36 -73.5 -57.5t-93.5 -21.5q-67 0 -106 42.5t-39 127.5q0 60 18.5 122t52.5 111.5t82.5 81t108.5 31.5q50 0 81 -20t46 -53zM246 93q42 0 78.5 36t54.5 121h1h-1q9 41 9 70q0 45 -20 65t-52 20q-34 0 -59.5 -23
t-42.5 -58t-25.5 -76.5t-8.5 -77.5q0 -77 66 -77z" />
    <glyph glyph-name="adieresis" unicode="&#xe4;" horiz-adv-x="575" 
d="M332 580h-114l27 126h114zM502 580h-114l27 126h114zM570 507l-108 -507h-131l15 70q-32 -36 -73.5 -57.5t-93.5 -21.5q-67 0 -106 42.5t-39 127.5q0 60 18.5 122t52.5 111.5t82.5 81t108.5 31.5q50 0 81 -20t46 -53l16 73h131zM246 93q42 0 78.5 36t54.5 121h1h-1
q9 41 9 70q0 45 -20 65t-52 20q-34 0 -59.5 -23t-42.5 -58t-25.5 -76.5t-8.5 -77.5q0 -77 66 -77z" />
    <glyph glyph-name="aring" unicode="&#xe5;" horiz-adv-x="575" 
d="M354 547q-43 0 -68.5 23t-25.5 59q0 26 10.5 47t28.5 37t43 24.5t54 8.5q42 0 67 -22.5t25 -59.5q0 -25 -10.5 -46.5t-28.5 -37t-42.5 -24.5t-52.5 -9zM384 688q-20 0 -36 -14t-16 -37q0 -14 8.5 -23t25.5 -9q21 0 36 14.5t15 37.5q0 15 -9 23t-24 8zM570 507l-108 -507
h-131l15 70q-32 -36 -73.5 -57.5t-93.5 -21.5q-67 0 -106 42.5t-39 127.5q0 60 18.5 122t52.5 111.5t82.5 81t108.5 31.5q50 0 81 -20t46 -53l16 73h131zM246 93q42 0 78.5 36t54.5 121h1h-1q9 41 9 70q0 45 -20 65t-52 20q-34 0 -59.5 -23t-42.5 -58t-25.5 -76.5
t-8.5 -77.5q0 -77 66 -77z" />
    <glyph glyph-name="ae" unicode="&#xe6;" horiz-adv-x="832" 
d="M482 220q-1 -3 -1 -6.5v-6.5q0 -56 31.5 -81.5t92.5 -25.5q32 0 61 5.5t51 12.5q26 7 48 17l-32 -93q-21 -14 -49 -25q-26 -11 -60 -18.5t-79 -7.5q-73 0 -123 26t-71 83q-36 -49 -91.5 -79.5t-123.5 -30.5q-66 0 -96.5 33t-30.5 81q0 56 27.5 92.5t75 59t110 33.5
t132.5 17l6 31q15 76 -72 76q-43 0 -80.5 -9.5t-66.5 -21.5q-33 -14 -62 -31l33 103q28 18 63 32q31 12 70.5 21.5t87.5 9.5q101 0 139 -50q35 23 76.5 36t89.5 13q81 0 125.5 -36t44.5 -99q0 -73 -58 -117t-181 -44h-87zM627 428q-26 0 -47.5 -11t-38 -29.5t-28.5 -43
t-20 -51.5h85q60 0 88 22t28 55q0 58 -67 58zM192 86q57 0 93 33.5t46 80.5l6 29l-6 -1q-37 -4 -70.5 -10t-59 -17.5t-40.5 -29.5t-15 -46q0 -39 46 -39z" />
    <glyph glyph-name="ccedilla" unicode="&#xe7;" horiz-adv-x="487" 
d="M335 516q40 0 67.5 -6t45.5 -14q21 -9 34 -20l-14 -128q-13 17 -31 30q-17 12 -39.5 20.5t-52.5 8.5q-41 0 -71 -17.5t-50 -47t-30 -67t-10 -77.5q0 -50 25.5 -71.5t72.5 -21.5q30 0 56 5.5t45 11.5q23 7 42 17l-34 -97q-17 -12 -39 -22q-20 -10 -47 -17.5t-62 -10.5
l-31 -38l30 -8q22 -5 39.5 -17.5t17.5 -38.5q0 -47 -39.5 -70t-98.5 -23q-25 0 -43.5 3t-30.5 7q-14 4 -23 10v65q12 -9 27 -17q14 -6 31 -11t37 -5q24 0 37.5 10t13.5 26q0 14 -10.5 20t-26.5 11l-42 13l50 64q-67 8 -107.5 52t-40.5 128q0 70 21 132.5t60 109t95 74
t126 27.5z" />
    <glyph glyph-name="egrave" unicode="&#xe8;" horiz-adv-x="529" 
d="M333 562l-134 137h152l91 -137h-109zM179 220v-13q0 -56 31 -81.5t92 -25.5q32 0 61 5.5t52 12.5q26 7 48 17l-33 -93q-21 -14 -49 -25q-26 -11 -60 -18.5t-79 -7.5q-95 0 -151.5 46.5t-56.5 145.5q0 68 21 128t60 106t94.5 72.5t125.5 26.5q81 0 125.5 -36t44.5 -99
q0 -73 -58 -117t-181 -44h-87zM324 428q-26 0 -47.5 -11t-38 -29.5t-28.5 -43t-20 -51.5h86q60 0 87.5 21t27.5 54q0 29 -16.5 44.5t-50.5 15.5z" />
    <glyph glyph-name="eacute" unicode="&#xe9;" horiz-adv-x="529" 
d="M366 562h-109l126 137h152zM335 516q81 0 125.5 -36t44.5 -99q0 -73 -58 -117t-181 -44h-87v-13q0 -56 31 -81.5t92 -25.5q32 0 61 5.5t52 12.5q26 7 48 17l-33 -93q-21 -14 -49 -25q-26 -11 -60 -18.5t-79 -7.5q-95 0 -151.5 46.5t-56.5 145.5q0 68 21 128t60 106
t94.5 72.5t125.5 26.5zM276 293q60 0 87.5 21t27.5 54q0 29 -16.5 44.5t-50.5 15.5q-26 0 -47.5 -11t-38 -29.5t-28.5 -43t-20 -51.5h86z" />
    <glyph glyph-name="ecircumflex" unicode="&#xea;" horiz-adv-x="529" 
d="M199 554l-39 42l174 109h78l128 -109l-45 -42l-135 64zM335 516q81 0 125.5 -36t44.5 -99q0 -73 -58 -117t-181 -44h-87v-13q0 -56 31 -81.5t92 -25.5q32 0 61 5.5t52 12.5q26 7 48 17l-33 -93q-21 -14 -49 -25q-26 -11 -60 -18.5t-79 -7.5q-95 0 -151.5 46.5
t-56.5 145.5q0 68 21 128t60 106t94.5 72.5t125.5 26.5zM276 293q60 0 87.5 21t27.5 54q0 29 -16.5 44.5t-50.5 15.5q-26 0 -47.5 -11t-38 -29.5t-28.5 -43t-20 -51.5h86z" />
    <glyph glyph-name="edieresis" unicode="&#xeb;" horiz-adv-x="529" 
d="M319 580h-114l27 126h114zM489 580h-114l27 126h114zM335 516q81 0 125.5 -36t44.5 -99q0 -73 -58 -117t-181 -44h-87v-13q0 -56 31 -81.5t92 -25.5q32 0 61 5.5t52 12.5q26 7 48 17l-33 -93q-21 -14 -49 -25q-26 -11 -60 -18.5t-79 -7.5q-95 0 -151.5 46.5t-56.5 145.5
q0 68 21 128t60 106t94.5 72.5t125.5 26.5zM276 293q60 0 87.5 21t27.5 54q0 29 -16.5 44.5t-50.5 15.5q-26 0 -47.5 -11t-38 -29.5t-28.5 -43t-20 -51.5h86z" />
    <glyph glyph-name="igrave" unicode="&#xec;" horiz-adv-x="264" 
d="M53 699h152l91 -137h-109zM112 507h148l-108 -507h-148z" />
    <glyph glyph-name="iacute" unicode="&#xed;" horiz-adv-x="264" 
d="M237 699h152l-169 -137h-109zM112 507h148l-108 -507h-148z" />
    <glyph glyph-name="icircumflex" unicode="&#xee;" horiz-adv-x="264" 
d="M14 596l174 109h78l128 -109l-45 -42l-135 64l-161 -64zM112 507h148l-108 -507h-148z" />
    <glyph glyph-name="idieresis" unicode="&#xef;" horiz-adv-x="264" 
d="M86 706h114l-27 -126h-114zM256 706h114l-27 -126h-114zM112 507h148l-108 -507h-148z" />
    <glyph glyph-name="eth" unicode="&#xf0;" horiz-adv-x="572" 
d="M593 640l-93 -32q20 -40 34 -91.5t14 -114.5q0 -83 -21 -157.5t-62 -131t-101.5 -90t-140.5 -33.5q-89 0 -139 47t-50 138q0 62 19 119t54.5 100.5t85.5 69.5t111 26q33 0 57.5 -9t41.5 -25q-6 59 -28 108l-141 -49l18 83l89 31q-20 29 -40.5 50.5t-39.5 35.5h153
q9 -6 20.5 -17t24.5 -27l152 53zM249 89q30 0 54 16t42 42t30.5 61t19.5 72q1 9 1.5 17t0.5 15q0 46 -23 65t-56 19q-35 0 -61.5 -21t-44 -53t-26.5 -71.5t-9 -76.5q0 -45 19 -65t53 -20z" />
    <glyph glyph-name="ntilde" unicode="&#xf1;" horiz-adv-x="560" 
d="M465 649q21 0 39.5 8t33 17.5t23 18l8.5 8.5l-26 -78q-14 -17 -31 -31q-16 -13 -36 -22t-46 -9q-30 0 -48.5 9t-34 20.5t-31 20.5t-38.5 9q-21 0 -39.5 -8t-32.5 -17.5t-22.5 -18l-9.5 -9.5l26 78q14 18 32 32q16 13 35.5 22.5t44.5 9.5q30 0 49.5 -9.5t35 -20.5
t31 -20.5t37.5 -9.5zM412 517q73 0 101.5 -40t13.5 -114l-78 -363h-140l71 332q7 32 -2 52.5t-44 20.5q-41 0 -77.5 -30t-51.5 -94l-59 -281h-141l108 507h135l-15 -71q34 38 79 59.5t100 21.5z" />
    <glyph glyph-name="ograve" unicode="&#xf2;" horiz-adv-x="578" 
d="M213 699h152l91 -137h-109zM237 -11q-45 0 -82.5 10.5t-64 33t-41.5 57.5t-15 83q0 69 21.5 131.5t62 110t98.5 75t130 27.5q44 0 80.5 -9.5t62.5 -30.5t40.5 -54.5t14.5 -80.5q0 -70 -20.5 -134t-60 -113t-96.5 -77.5t-130 -28.5zM256 79q38 0 66 25.5t46.5 63.5
t28 83.5t9.5 85.5q0 48 -20 68.5t-56 20.5q-37 0 -65 -25t-47 -63t-28.5 -83t-9.5 -85q0 -48 20 -69.5t56 -21.5z" />
    <glyph glyph-name="oacute" unicode="&#xf3;" horiz-adv-x="578" 
d="M397 699h152l-169 -137h-109zM237 -11q-45 0 -82.5 10.5t-64 33t-41.5 57.5t-15 83q0 69 21.5 131.5t62 110t98.5 75t130 27.5q44 0 80.5 -9.5t62.5 -30.5t40.5 -54.5t14.5 -80.5q0 -70 -20.5 -134t-60 -113t-96.5 -77.5t-130 -28.5zM256 79q38 0 66 25.5t46.5 63.5
t28 83.5t9.5 85.5q0 48 -20 68.5t-56 20.5q-37 0 -65 -25t-47 -63t-28.5 -83t-9.5 -85q0 -48 20 -69.5t56 -21.5z" />
    <glyph glyph-name="ocircumflex" unicode="&#xf4;" horiz-adv-x="578" 
d="M174 596l174 109h78l128 -109l-45 -42l-135 64l-161 -64zM237 -11q-45 0 -82.5 10.5t-64 33t-41.5 57.5t-15 83q0 69 21.5 131.5t62 110t98.5 75t130 27.5q44 0 80.5 -9.5t62.5 -30.5t40.5 -54.5t14.5 -80.5q0 -70 -20.5 -134t-60 -113t-96.5 -77.5t-130 -28.5zM256 79
q38 0 66 25.5t46.5 63.5t28 83.5t9.5 85.5q0 48 -20 68.5t-56 20.5q-37 0 -65 -25t-47 -63t-28.5 -83t-9.5 -85q0 -48 20 -69.5t56 -21.5z" />
    <glyph glyph-name="otilde" unicode="&#xf5;" horiz-adv-x="578" 
d="M432 561q-30 0 -48.5 9t-34 20.5t-31 20.5t-38.5 9q-21 0 -39.5 -8t-32.5 -17.5t-22.5 -18l-9.5 -9.5l26 78q14 18 32 32q16 13 35.5 22.5t44.5 9.5q30 0 49.5 -9.5t35 -20.5t31 -20.5t37.5 -9.5q21 0 39.5 8t33 17.5t23 18l8.5 8.5l-26 -78q-14 -17 -31 -31
q-16 -13 -36 -22t-46 -9zM237 -11q-45 0 -82.5 10.5t-64 33t-41.5 57.5t-15 83q0 69 21.5 131.5t62 110t98.5 75t130 27.5q44 0 80.5 -9.5t62.5 -30.5t40.5 -54.5t14.5 -80.5q0 -70 -20.5 -134t-60 -113t-96.5 -77.5t-130 -28.5zM256 79q38 0 66 25.5t46.5 63.5t28 83.5
t9.5 85.5q0 48 -20 68.5t-56 20.5q-37 0 -65 -25t-47 -63t-28.5 -83t-9.5 -85q0 -48 20 -69.5t56 -21.5z" />
    <glyph glyph-name="odieresis" unicode="&#xf6;" horiz-adv-x="578" 
d="M246 706h114l-27 -126h-114zM416 706h114l-27 -126h-114zM237 -11q-45 0 -82.5 10.5t-64 33t-41.5 57.5t-15 83q0 69 21.5 131.5t62 110t98.5 75t130 27.5q44 0 80.5 -9.5t62.5 -30.5t40.5 -54.5t14.5 -80.5q0 -70 -20.5 -134t-60 -113t-96.5 -77.5t-130 -28.5zM256 79
q38 0 66 25.5t46.5 63.5t28 83.5t9.5 85.5q0 48 -20 68.5t-56 20.5q-37 0 -65 -25t-47 -63t-28.5 -83t-9.5 -85q0 -48 20 -69.5t56 -21.5z" />
    <glyph glyph-name="divide" unicode="&#xf7;" 
d="M244 513h121v-128h-121v128zM69 329h471v-101h-471v101zM244 171h121v-128h-121v128z" />
    <glyph glyph-name="oslash" unicode="&#xf8;" horiz-adv-x="578" 
d="M487 479q27 -21 42 -55t15 -82q0 -70 -20.5 -134t-60 -113t-96.5 -77.5t-130 -28.5q-40 0 -75 9l-43 -64h-73l59 88q-33 22 -52 59t-19 92q0 69 21.5 131.5t62 110t98.5 75t130 27.5q24 0 45.5 -2.5t41.5 -8.5l47 70h73zM180 170q0 -19 3 -34l189 280q-16 10 -42 10
q-37 0 -65 -25t-47 -63t-28.5 -83t-9.5 -85zM256 79q38 0 66 25.5t46.5 63.5t28 83.5t9.5 85.5v10t-1 10l-183 -272q15 -6 34 -6z" />
    <glyph glyph-name="ugrave" unicode="&#xf9;" horiz-adv-x="559" 
d="M336 562l-134 137h152l91 -137h-109zM554 507l-108 -507h-135l16 73q-35 -38 -80.5 -60.5t-101.5 -22.5q-73 0 -100.5 40.5t-12.5 114.5l78 362h140l-71 -332q-7 -32 2.5 -52t44.5 -20q42 0 78.5 31t50.5 98l59 275h140z" />
    <glyph glyph-name="uacute" unicode="&#xfa;" horiz-adv-x="559" 
d="M369 562h-109l126 137h152zM554 507l-108 -507h-135l16 73q-35 -38 -80.5 -60.5t-101.5 -22.5q-73 0 -100.5 40.5t-12.5 114.5l78 362h140l-71 -332q-7 -32 2.5 -52t44.5 -20q42 0 78.5 31t50.5 98l59 275h140z" />
    <glyph glyph-name="ucircumflex" unicode="&#xfb;" horiz-adv-x="559" 
d="M203 554l-39 42l174 109h78l128 -109l-45 -42l-135 64zM554 507l-108 -507h-135l16 73q-35 -38 -80.5 -60.5t-101.5 -22.5q-73 0 -100.5 40.5t-12.5 114.5l78 362h140l-71 -332q-7 -32 2.5 -52t44.5 -20q42 0 78.5 31t50.5 98l59 275h140z" />
    <glyph glyph-name="udieresis" unicode="&#xfc;" horiz-adv-x="559" 
d="M322 580h-114l27 126h114zM492 580h-114l27 126h114zM554 507l-108 -507h-135l16 73q-35 -38 -80.5 -60.5t-101.5 -22.5q-73 0 -100.5 40.5t-12.5 114.5l78 362h140l-71 -332q-7 -32 2.5 -52t44.5 -20q42 0 78.5 31t50.5 98l59 275h140z" />
    <glyph glyph-name="yacute" unicode="&#xfd;" horiz-adv-x="539" 
d="M383 699h152l-169 -137h-109zM20 -202q-19 0 -33 3t-24 6q-11 5 -19 10l10 95q8 -4 19 -8q10 -3 23 -5t30 -2q45 0 73 29.5t60 87.5l-82 493h151l39 -330l170 330h133l-304 -533q-51 -91 -108.5 -133.5t-137.5 -42.5z" />
    <glyph glyph-name="thorn" unicode="&#xfe;" horiz-adv-x="572" 
d="M393 517q67 0 106 -43t39 -130q0 -62 -18.5 -125t-52.5 -113.5t-82.5 -82.5t-108.5 -32q-47 0 -77 18t-47 49l-53 -250h-136l193 907h136l-57 -270q30 33 70 52.5t88 19.5zM256 95q34 0 59.5 23.5t42.5 59.5t25.5 78t8.5 79q0 78 -66 78q-39 0 -73.5 -31t-54.5 -106
l-10 -50q-2 -12 -3 -23t-1 -21q0 -46 20 -66.5t52 -20.5z" />
    <glyph glyph-name="ydieresis" unicode="&#xff;" horiz-adv-x="539" 
d="M232 706h114l-27 -126h-114zM402 706h114l-27 -126h-114zM20 -202q-19 0 -33 3t-24 6q-11 5 -19 10l10 95q8 -4 19 -8q10 -3 23 -5t30 -2q45 0 73 29.5t60 87.5l-82 493h151l39 -330l170 330h133l-304 -533q-51 -91 -108.5 -133.5t-137.5 -42.5z" />
    <glyph glyph-name="Amacron" unicode="&#x100;" horiz-adv-x="704" 
d="M636 860l-10 -88h-331l29 88h312zM541 715l84 -715h-154l-17 198h-229l-98 -198h-156l385 715h185zM446 291l-27 298l-148 -298h175z" />
    <glyph glyph-name="amacron" unicode="&#x101;" horiz-adv-x="575" 
d="M526 584h-331l29 88h312zM570 507l-108 -507h-131l15 70q-32 -36 -73.5 -57.5t-93.5 -21.5q-67 0 -106 42.5t-39 127.5q0 60 18.5 122t52.5 111.5t82.5 81t108.5 31.5q50 0 81 -20t46 -53l16 73h131zM246 93q42 0 78.5 36t54.5 121h1h-1q9 41 9 70q0 45 -20 65t-52 20
q-34 0 -59.5 -23t-42.5 -58t-25.5 -76.5t-8.5 -77.5q0 -77 66 -77z" />
    <glyph glyph-name="Abreve" unicode="&#x102;" horiz-adv-x="704" 
d="M472 835q39 0 71 9t56 21q28 12 50 29l-22 -64q-21 -22 -47 -40q-24 -16 -54.5 -28t-69.5 -12t-65.5 12.5t-42.5 27.5q-19 18 -31 40l5 64q15 -17 37 -29q20 -13 47.5 -21.5t65.5 -8.5zM541 715l84 -715h-154l-17 198h-229l-98 -198h-156l385 715h185zM446 291l-27 298
l-148 -298h175z" />
    <glyph glyph-name="abreve" unicode="&#x103;" horiz-adv-x="575" 
d="M356 562q-39 0 -65.5 12.5t-42.5 27.5q-19 18 -31 40l5 64q15 -17 37 -29q20 -13 47.5 -21.5t65.5 -8.5q39 0 71 9t56 21q28 12 50 29l-22 -64q-21 -22 -47 -40q-24 -16 -54.5 -28t-69.5 -12zM570 507l-108 -507h-131l15 70q-32 -36 -73.5 -57.5t-93.5 -21.5
q-67 0 -106 42.5t-39 127.5q0 60 18.5 122t52.5 111.5t82.5 81t108.5 31.5q50 0 81 -20t46 -53l16 73h131zM246 93q42 0 78.5 36t54.5 121h1h-1q9 41 9 70q0 45 -20 65t-52 20q-34 0 -59.5 -23t-42.5 -58t-25.5 -76.5t-8.5 -77.5q0 -77 66 -77z" />
    <glyph glyph-name="Aogonek" unicode="&#x104;" horiz-adv-x="704" 
d="M539 -133q18 0 34 3.5t29 7.5q14 6 26 12l-19 -71q-13 -7 -29 -13q-15 -5 -34 -8.5t-43 -3.5q-53 0 -78.5 20.5t-25.5 55.5q0 26 12 47t31 37.5t43.5 28t49.5 17.5h-64l-17 198h-229l-98 -198h-156l385 715h185l84 -715h-19q-21 -10 -41 -20.5t-35.5 -22.5t-25 -26.5
t-9.5 -32.5q0 -31 44 -31zM446 291l-27 298l-148 -298h175z" />
    <glyph glyph-name="aogonek" unicode="&#x105;" horiz-adv-x="575" 
d="M333 -102q0 -31 44 -31q18 0 34 3.5t29 7.5q14 6 26 12l-19 -71q-13 -7 -29 -13q-15 -5 -34 -8.5t-43 -3.5q-53 0 -78.5 20.5t-25.5 55.5q0 26 12 47t31 37.5t43.5 28t49.5 17.5h-42l15 70q-32 -36 -73.5 -57.5t-93.5 -21.5q-67 0 -106 42.5t-39 127.5q0 60 18.5 122
t52.5 111.5t82.5 81t108.5 31.5q50 0 81 -20t46 -53l16 73h131l-108 -507h-18q-21 -10 -41 -20.5t-35.5 -22.5t-25 -26.5t-9.5 -32.5zM246 93q42 0 78.5 36t54.5 121h1h-1q9 41 9 70q0 45 -20 65t-52 20q-34 0 -59.5 -23t-42.5 -58t-25.5 -76.5t-8.5 -77.5q0 -77 66 -77z
" />
    <glyph glyph-name="Cacute" unicode="&#x106;" horiz-adv-x="650" 
d="M509 887h152l-169 -137h-109zM303 -9q-52 0 -97 15t-78 46.5t-52 79.5t-19 114q0 96 28 182.5t80.5 152.5t128 105t170.5 39q58 0 98.5 -9.5t66.5 -20.5q30 -13 49 -30l-15 -146q-19 25 -46 45q-25 18 -59.5 31.5t-83.5 13.5q-62 0 -108.5 -30.5t-77.5 -79t-46.5 -110
t-15.5 -124.5q0 -83 41.5 -118t109.5 -35q43 0 81.5 9t67.5 20q34 13 63 29l-34 -102q-28 -22 -65 -38q-35 -16 -80.5 -27.5t-106.5 -11.5z" />
    <glyph glyph-name="cacute" unicode="&#x107;" horiz-adv-x="487" 
d="M375 699h152l-169 -137h-109zM216 -9q-82 0 -132.5 44t-50.5 138q0 70 21 132.5t60 109t95 74t126 27.5q40 0 67.5 -6t45.5 -14q21 -9 34 -20l-14 -128q-13 17 -31 30q-17 12 -39.5 20.5t-52.5 8.5q-41 0 -71 -17.5t-50 -47t-30 -67t-10 -77.5q0 -50 25.5 -71.5
t72.5 -21.5q30 0 56 5.5t45 11.5q23 7 42 17l-34 -97q-20 -14 -46 -25q-24 -11 -55.5 -18.5t-73.5 -7.5z" />
    <glyph glyph-name="Cdotaccent" unicode="&#x10a;" horiz-adv-x="650" 
d="M431 894h138l-26 -126h-139zM303 -9q-52 0 -97 15t-78 46.5t-52 79.5t-19 114q0 96 28 182.5t80.5 152.5t128 105t170.5 39q58 0 98.5 -9.5t66.5 -20.5q30 -13 49 -30l-15 -146q-19 25 -46 45q-25 18 -59.5 31.5t-83.5 13.5q-62 0 -108.5 -30.5t-77.5 -79t-46.5 -110
t-15.5 -124.5q0 -83 41.5 -118t109.5 -35q43 0 81.5 9t67.5 20q34 13 63 29l-34 -102q-28 -22 -65 -38q-35 -16 -80.5 -27.5t-106.5 -11.5z" />
    <glyph glyph-name="cdotaccent" unicode="&#x10b;" horiz-adv-x="487" 
d="M297 706h138l-26 -126h-139zM216 -9q-82 0 -132.5 44t-50.5 138q0 70 21 132.5t60 109t95 74t126 27.5q40 0 67.5 -6t45.5 -14q21 -9 34 -20l-14 -128q-13 17 -31 30q-17 12 -39.5 20.5t-52.5 8.5q-41 0 -71 -17.5t-50 -47t-30 -67t-10 -77.5q0 -50 25.5 -71.5
t72.5 -21.5q30 0 56 5.5t45 11.5q23 7 42 17l-34 -97q-20 -14 -46 -25q-24 -11 -55.5 -18.5t-73.5 -7.5z" />
    <glyph glyph-name="Ccaron" unicode="&#x10c;" horiz-adv-x="650" 
d="M300 856l46 41l134 -64l162 64l38 -41l-174 -110h-79zM303 -9q-52 0 -97 15t-78 46.5t-52 79.5t-19 114q0 96 28 182.5t80.5 152.5t128 105t170.5 39q58 0 98.5 -9.5t66.5 -20.5q30 -13 49 -30l-15 -146q-19 25 -46 45q-25 18 -59.5 31.5t-83.5 13.5q-62 0 -108.5 -30.5
t-77.5 -79t-46.5 -110t-15.5 -124.5q0 -83 41.5 -118t109.5 -35q43 0 81.5 9t67.5 20q34 13 63 29l-34 -102q-28 -22 -65 -38q-35 -16 -80.5 -27.5t-106.5 -11.5z" />
    <glyph glyph-name="ccaron" unicode="&#x10d;" horiz-adv-x="487" 
d="M166 668l46 41l134 -64l162 64l38 -41l-174 -110h-79zM216 -9q-82 0 -132.5 44t-50.5 138q0 70 21 132.5t60 109t95 74t126 27.5q40 0 67.5 -6t45.5 -14q21 -9 34 -20l-14 -128q-13 17 -31 30q-17 12 -39.5 20.5t-52.5 8.5q-41 0 -71 -17.5t-50 -47t-30 -67t-10 -77.5
q0 -50 25.5 -71.5t72.5 -21.5q30 0 56 5.5t45 11.5q23 7 42 17l-34 -97q-20 -14 -46 -25q-24 -11 -55.5 -18.5t-73.5 -7.5z" />
    <glyph glyph-name="Dcaron" unicode="&#x10e;" horiz-adv-x="696" 
d="M254 856l46 41l134 -64l162 64l38 -41l-174 -110h-79zM161 715h262q122 0 191.5 -59.5t69.5 -182.5q0 -98 -29 -184t-83.5 -150.5t-132 -101.5t-174.5 -37h-256zM267 96q63 0 111 33.5t80.5 87.5t49 121t16.5 133q0 79 -37.5 114t-105.5 35h-82l-112 -524h80z" />
    <glyph glyph-name="dcaron" unicode="&#x10f;" horiz-adv-x="700" 
d="M805 725l-119 -253h-81l78 253h122zM612 715l-152 -715h-131l14 70q-32 -36 -73 -57.5t-92 -21.5q-67 0 -106 43t-39 130q0 62 18 125t52 113.5t82.5 82.5t109.5 32q48 0 78 -18.5t46 -50.5l57 267h136zM245 95q41 0 77.5 36.5t54.5 123.5h1h-1q5 21 7 38.5t2 32.5
q0 46 -19.5 66.5t-51.5 20.5q-34 0 -59.5 -23.5t-42.5 -59.5t-25.5 -78t-8.5 -79q0 -78 66 -78z" />
    <glyph glyph-name="Dcroat" unicode="&#x110;" horiz-adv-x="720" 
d="M447 715q122 0 191.5 -59.5t69.5 -182.5q0 -98 -29 -184t-83.5 -150.5t-132 -101.5t-174.5 -37h-256l68 318h-61l20 90h60l65 307h262zM291 96q63 0 110.5 33.5t80 87.5t49 121t16.5 133q0 79 -37 114t-106 35h-82l-45 -212h148l-19 -90h-148l-47 -222h80z" />
    <glyph glyph-name="dcroat" unicode="&#x111;" horiz-adv-x="589" 
d="M645 589h-60l-125 -589h-131l14 70q-32 -36 -73 -57.5t-92 -21.5q-67 0 -106 43t-39 130q0 62 18 125t52 113.5t82.5 82.5t109.5 32q48 0 78 -18.5t46 -50.5l30 141h-192l14 72h194l11 54h136l-11 -54h53zM245 95q41 0 77.5 36.5t54.5 123.5h1h-1q5 21 7 38.5t2 32.5
q0 46 -19.5 66.5t-51.5 20.5q-34 0 -59.5 -23.5t-42.5 -59.5t-25.5 -78t-8.5 -79q0 -78 66 -78z" />
    <glyph glyph-name="Emacron" unicode="&#x112;" horiz-adv-x="575" 
d="M269 860h312l-10 -88h-331zM161 715h458l-9 -100h-314l-44 -204h274l-20 -92h-273l-47 -219h319l-34 -100h-462z" />
    <glyph glyph-name="emacron" unicode="&#x113;" horiz-adv-x="529" 
d="M523 672l-10 -88h-331l29 88h312zM335 516q81 0 125.5 -36t44.5 -99q0 -73 -58 -117t-181 -44h-87v-13q0 -56 31 -81.5t92 -25.5q32 0 61 5.5t52 12.5q26 7 48 17l-33 -93q-21 -14 -49 -25q-26 -11 -60 -18.5t-79 -7.5q-95 0 -151.5 46.5t-56.5 145.5q0 68 21 128t60 106
t94.5 72.5t125.5 26.5zM276 293q60 0 87.5 21t27.5 54q0 29 -16.5 44.5t-50.5 15.5q-26 0 -47.5 -11t-38 -29.5t-28.5 -43t-20 -51.5h86z" />
    <glyph glyph-name="Edotaccent" unicode="&#x116;" horiz-adv-x="575" 
d="M363 894h138l-26 -126h-139zM161 715h458l-9 -100h-314l-44 -204h274l-20 -92h-273l-47 -219h319l-34 -100h-462z" />
    <glyph glyph-name="edotaccent" unicode="&#x117;" horiz-adv-x="529" 
d="M417 580h-139l27 126h138zM179 220v-13q0 -56 31 -81.5t92 -25.5q32 0 61 5.5t52 12.5q26 7 48 17l-33 -93q-21 -14 -49 -25q-26 -11 -60 -18.5t-79 -7.5q-95 0 -151.5 46.5t-56.5 145.5q0 68 21 128t60 106t94.5 72.5t125.5 26.5q81 0 125.5 -36t44.5 -99
q0 -73 -58 -117t-181 -44h-87zM324 428q-26 0 -47.5 -11t-38 -29.5t-28.5 -43t-20 -51.5h86q60 0 87.5 21t27.5 54q0 29 -16.5 44.5t-50.5 15.5z" />
    <glyph glyph-name="Eogonek" unicode="&#x118;" horiz-adv-x="575" 
d="M296 615l-44 -204h274l-20 -92h-273l-47 -219h319l-34 -100h-20q-21 -10 -41 -20.5t-35.5 -22.5t-25 -26.5t-9.5 -32.5q0 -31 44 -31q18 0 34 3.5t29 7.5q14 6 26 12l-19 -71q-13 -7 -29 -13q-15 -5 -34 -8.5t-43 -3.5q-53 0 -78.5 20.5t-25.5 55.5q0 26 12 47t31 37.5
t43.5 28t49.5 17.5h-371l152 715h458l-9 -100h-314z" />
    <glyph glyph-name="eogonek" unicode="&#x119;" horiz-adv-x="529" 
d="M179 220v-13q0 -56 31 -81.5t92 -25.5q32 0 61 5.5t52 12.5q26 7 48 17l-33 -93q-5 -3 -11 -7q-6 -3 -13.5 -7t-17.5 -9q-22 -10 -42 -20.5t-36 -22.5t-25.5 -27t-9.5 -33q0 -31 44 -31q18 0 34 3.5t29 7.5q14 6 26 12l-19 -71q-13 -7 -29 -13q-15 -5 -34 -8.5t-43 -3.5
q-53 0 -78.5 20.5t-25.5 55.5q0 33 19.5 59t48.5 44h-5q-95 0 -151.5 46.5t-56.5 145.5q0 68 21 128t60 106t94.5 72.5t125.5 26.5q81 0 125.5 -36t44.5 -99q0 -73 -58 -117t-181 -44h-87zM324 428q-26 0 -47.5 -11t-38 -29.5t-28.5 -43t-20 -51.5h86q60 0 87.5 21t27.5 54
q0 29 -16.5 44.5t-50.5 15.5z" />
    <glyph glyph-name="Ecaron" unicode="&#x11a;" horiz-adv-x="575" 
d="M232 856l46 41l134 -64l162 64l38 -41l-174 -110h-79zM161 715h458l-9 -100h-314l-44 -204h274l-20 -92h-273l-47 -219h319l-34 -100h-462z" />
    <glyph glyph-name="ecaron" unicode="&#x11b;" horiz-adv-x="529" 
d="M301 558l-127 110l46 41l134 -64l162 64l38 -41l-174 -110h-79zM335 516q81 0 125.5 -36t44.5 -99q0 -73 -58 -117t-181 -44h-87v-13q0 -56 31 -81.5t92 -25.5q32 0 61 5.5t52 12.5q26 7 48 17l-33 -93q-21 -14 -49 -25q-26 -11 -60 -18.5t-79 -7.5q-95 0 -151.5 46.5
t-56.5 145.5q0 68 21 128t60 106t94.5 72.5t125.5 26.5zM276 293q60 0 87.5 21t27.5 54q0 29 -16.5 44.5t-50.5 15.5q-26 0 -47.5 -11t-38 -29.5t-28.5 -43t-20 -51.5h86z" />
    <glyph glyph-name="Gbreve" unicode="&#x11e;" horiz-adv-x="698" 
d="M480 750q-39 0 -65.5 12.5t-42.5 27.5q-19 18 -31 40l5 64q15 -17 37 -29q20 -13 47.5 -21.5t65.5 -8.5q39 0 71 9t56 21q28 12 50 29l-22 -64q-21 -22 -47 -40q-24 -16 -54.5 -28t-69.5 -12zM317 -9q-56 0 -103.5 15.5t-82 47.5t-54 81t-19.5 116q0 98 29 184t83 150.5
t132 102t176 37.5q63 0 105.5 -10t69.5 -21q31 -14 50 -32l-13 -143q-20 25 -49 45q-26 18 -62.5 31.5t-87.5 13.5q-66 0 -116.5 -29t-84.5 -77t-51 -110t-17 -129q0 -88 45 -126t117 -38q19 0 34.5 2t26.5 4q13 3 24 6l32 150h-119l18 88h260l-61 -287q-33 -20 -75 -36
q-39 -15 -90 -25.5t-117 -10.5z" />
    <glyph glyph-name="gbreve" unicode="&#x11f;" horiz-adv-x="571" 
d="M371 562q-39 0 -65.5 12.5t-42.5 27.5q-19 18 -31 40l5 64q15 -17 37 -29q20 -13 47.5 -21.5t65.5 -8.5q39 0 71 9t56 21q28 12 50 29l-22 -64q-21 -22 -47 -40q-24 -16 -54.5 -28t-69.5 -12zM567 507l-108 -506q-8 -38 -27 -74.5t-53 -65t-83.5 -46t-119.5 -17.5
q-46 0 -79.5 9t-54.5 19q-25 13 -42 29v103q21 -16 48 -29q25 -12 56.5 -20.5t72.5 -8.5q66 0 101 28.5t46 78.5l16 75q-31 -32 -70.5 -51t-87.5 -19q-68 0 -107.5 42t-39.5 127q0 60 18 120t51.5 108t81 78t107.5 30q51 0 81.5 -19.5t47.5 -52.5l13 62h132zM247 113
q40 0 75 31.5t54 108.5l5 25q6 32 6 53q0 46 -20.5 66t-52.5 20q-33 0 -58 -22t-41.5 -56t-25 -74.5t-8.5 -76.5q0 -75 66 -75z" />
    <glyph glyph-name="Gdotaccent" unicode="&#x120;" horiz-adv-x="698" 
d="M442 894h138l-26 -126h-139zM317 -9q-56 0 -103.5 15.5t-82 47.5t-54 81t-19.5 116q0 98 29 184t83 150.5t132 102t176 37.5q63 0 105.5 -10t69.5 -21q31 -14 50 -32l-13 -143q-20 25 -49 45q-26 18 -62.5 31.5t-87.5 13.5q-66 0 -116.5 -29t-84.5 -77t-51 -110t-17 -129
q0 -88 45 -126t117 -38q19 0 34.5 2t26.5 4q13 3 24 6l32 150h-119l18 88h260l-61 -287q-33 -20 -75 -36q-39 -15 -90 -25.5t-117 -10.5z" />
    <glyph glyph-name="gdotaccent" unicode="&#x121;" horiz-adv-x="571" 
d="M445 580h-139l27 126h138zM567 507l-108 -506q-8 -38 -27 -74.5t-53 -65t-83.5 -46t-119.5 -17.5q-46 0 -79.5 9t-54.5 19q-25 13 -42 29v103q21 -16 48 -29q25 -12 56.5 -20.5t72.5 -8.5q66 0 101 28.5t46 78.5l16 75q-31 -32 -70.5 -51t-87.5 -19q-68 0 -107.5 42
t-39.5 127q0 60 18 120t51.5 108t81 78t107.5 30q51 0 81.5 -19.5t47.5 -52.5l13 62h132zM247 113q40 0 75 31.5t54 108.5l5 25q6 32 6 53q0 46 -20.5 66t-52.5 20q-33 0 -58 -22t-41.5 -56t-25 -74.5t-8.5 -76.5q0 -75 66 -75z" />
    <glyph glyph-name="Gcommaaccent" unicode="&#x122;" horiz-adv-x="698" 
d="M317 -9q-56 0 -103.5 15.5t-82 47.5t-54 81t-19.5 116q0 98 29 184t83 150.5t132 102t176 37.5q63 0 105.5 -10t69.5 -21q31 -14 50 -32l-13 -143q-20 25 -49 45q-26 18 -62.5 31.5t-87.5 13.5q-66 0 -116.5 -29t-84.5 -77t-51 -110t-17 -129q0 -88 45 -126t117 -38
q19 0 34.5 2t26.5 4q13 3 24 6l32 150h-119l18 88h260l-61 -287q-33 -20 -75 -36q-39 -15 -90 -25.5t-117 -10.5zM245 -52h129l-100 -179h-88z" />
    <glyph glyph-name="gcommaaccent" unicode="&#x123;" horiz-adv-x="576" 
d="M421 578h-129l107 179h88zM567 507l-108 -506q-8 -38 -27 -74.5t-53 -65t-83.5 -46t-119.5 -17.5q-46 0 -79.5 9t-54.5 19q-25 13 -42 29v103q21 -16 48 -29q25 -12 56.5 -20.5t72.5 -8.5q66 0 101 28.5t46 78.5l16 75q-31 -32 -70.5 -51t-87.5 -19q-68 0 -107.5 42
t-39.5 127q0 60 18 120t51.5 108t81 78t107.5 30q51 0 81.5 -19.5t47.5 -52.5l13 62h132zM247 113q40 0 75 31.5t54 108.5l5 25q6 32 6 53q0 46 -20.5 66t-52.5 20q-33 0 -58 -22t-41.5 -56t-25 -74.5t-8.5 -76.5q0 -75 66 -75z" />
    <glyph glyph-name="Hbar" unicode="&#x126;" horiz-adv-x="741" 
d="M779 530h-72l-113 -530h-159l68 319h-253l-68 -319h-158l113 530h-58l15 74h58l24 111h158l-24 -111h253l24 111h159l-24 -111h73zM548 530h-253l-26 -120h253z" />
    <glyph glyph-name="hbar" unicode="&#x127;" horiz-adv-x="570" 
d="M428 517q73 0 99 -40t11 -114l-78 -363h-139l71 332q6 32 -3.5 52.5t-44.5 20.5q-42 0 -78.5 -31.5t-50.5 -98.5h-1l-58 -275h-140l124 584h-54l14 72h56l12 59h140l-12 -59h184l-6 -72h-194l-31 -144q35 35 80 56t99 21z" />
    <glyph glyph-name="Imacron" unicode="&#x12a;" horiz-adv-x="286" 
d="M117 860h312l-10 -88h-331zM161 715h160l-152 -715h-160z" />
    <glyph glyph-name="imacron" unicode="&#x12b;" horiz-adv-x="264" 
d="M65 672h312l-10 -88h-331zM112 507h148l-108 -507h-148z" />
    <glyph glyph-name="Iogonek" unicode="&#x12e;" horiz-adv-x="286" 
d="M40 -102q0 -31 44 -31q18 0 34 3.5t29 7.5q14 6 26 12l-19 -71q-13 -7 -29 -13q-15 -5 -34 -8.5t-43 -3.5q-53 0 -78.5 20.5t-25.5 55.5q0 26 12 47t31 37.5t43.5 28t49.5 17.5h-71l152 715h160l-152 -715h-18q-21 -10 -41 -20.5t-35.5 -22.5t-25 -26.5t-9.5 -32.5z" />
    <glyph glyph-name="iogonek" unicode="&#x12f;" horiz-adv-x="264" 
d="M297 706l-26 -126h-139l27 126h138zM260 507l-108 -507h1q-22 -10 -42 -20.5t-36 -22.5t-25.5 -27t-9.5 -33q0 -31 44 -31q18 0 34 3.5t29 7.5q14 6 26 12l-19 -71q-13 -7 -29 -13q-15 -5 -34 -8.5t-43 -3.5q-53 0 -78.5 20.5t-25.5 55.5q0 26 12.5 48t32.5 38.5t45 27.5
t51 17h-81l108 507h148z" />
    <glyph glyph-name="Idotaccent" unicode="&#x130;" horiz-adv-x="286" 
d="M211 894h138l-26 -126h-139zM161 715h160l-152 -715h-160z" />
    <glyph glyph-name="dotlessi" unicode="&#x131;" horiz-adv-x="264" 
d="M112 507h148l-108 -507h-148z" />
    <glyph glyph-name="IJ" unicode="&#x132;" horiz-adv-x="666" 
d="M161 715h160l-152 -715h-160zM370 -9q-25 0 -42.5 3t-29.5 7q-13 4 -22 10l8 103q8 -4 19 -7q9 -3 21 -5t27 -2q32 0 53.5 19t31.5 64l113 532h155l-113 -534q-22 -101 -81.5 -145.5t-139.5 -44.5z" />
    <glyph glyph-name="ij" unicode="&#x133;" horiz-adv-x="529" 
d="M155 705h148l-27 -126h-148zM418 705h149l-27 -126h-148zM113 507h148l-108 -507h-148zM210 -202q-18 0 -31.5 2.5t-21.5 4.5q-11 4 -18 8l10 90q5 -2 12 -3q5 -1 11.5 -2t14.5 -1q32 0 50 18t26 57l114 535h147l-113 -534q-20 -92 -74.5 -133.5t-126.5 -41.5z" />
    <glyph glyph-name="Kcommaaccent" unicode="&#x136;" horiz-adv-x="670" 
d="M440 426l148 -426h-177l-97 303l-102 -101l-43 -202h-160l152 715h160l-75 -350l308 350h180zM213 -52h129l-100 -179h-88z" />
    <glyph glyph-name="kcommaaccent" unicode="&#x137;" horiz-adv-x="539" 
d="M361 317l104 -317h-154l-61 214l-77 -71l-30 -143h-139l152 715h139l-94 -441l211 233h155zM154 -52h129l-100 -179h-88z" />
    <glyph glyph-name="Lacute" unicode="&#x139;" horiz-adv-x="551" 
d="M430 887h152l-169 -137h-109zM161 715h157l-130 -614h298l-33 -101h-444z" />
    <glyph glyph-name="lacute" unicode="&#x13a;" horiz-adv-x="262" 
d="M277 887h152l-169 -137h-109zM156 715h146l-152 -715h-146z" />
    <glyph glyph-name="Lcommaaccent" unicode="&#x13b;" horiz-adv-x="551" 
d="M161 715h157l-130 -614h298l-33 -101h-444zM165 -52h129l-100 -179h-88z" />
    <glyph glyph-name="lcommaaccent" unicode="&#x13c;" horiz-adv-x="262" 
d="M156 715h146l-152 -715h-146zM4 -52h129l-100 -179h-88z" />
    <glyph glyph-name="Lcaron" unicode="&#x13d;" horiz-adv-x="556" 
d="M161 715h157l-130 -614h298l-33 -101h-444zM440 715h137l-133 -270h-93z" />
    <glyph glyph-name="lcaron" unicode="&#x13e;" horiz-adv-x="391" 
d="M374 725h122l-119 -253h-81zM156 715h146l-152 -715h-146z" />
    <glyph glyph-name="Ldot" unicode="&#x13f;" horiz-adv-x="551" 
d="M161 715h157l-130 -614h298l-33 -101h-444zM347 400h124l-30 -143h-124z" />
    <glyph glyph-name="ldot" unicode="&#x140;" horiz-adv-x="407" 
d="M156 715h146l-152 -715h-146zM289 378h125l-31 -143h-124z" />
    <glyph glyph-name="Lslash" unicode="&#x141;" horiz-adv-x="566" 
d="M501 101l-32 -101h-445l61 285l-61 -24l20 96l61 25l71 333h158l-56 -264l188 75l-21 -97l-188 -75l-54 -253h298z" />
    <glyph glyph-name="lslash" unicode="&#x142;" horiz-adv-x="279" 
d="M292 400l-59 -30l-79 -370h-146l61 287l-50 -25l23 107l50 25l68 321h146l-51 -238l60 30z" />
    <glyph glyph-name="Nacute" unicode="&#x143;" horiz-adv-x="704" 
d="M503 887h152l-169 -137h-109zM161 715h210l140 -506l107 506h122l-152 -715h-193l-154 521l-111 -521h-121z" />
    <glyph glyph-name="nacute" unicode="&#x144;" horiz-adv-x="560" 
d="M378 562h-109l126 137h152zM412 517q73 0 101.5 -40t13.5 -114l-78 -363h-140l71 332q7 32 -2 52.5t-44 20.5q-41 0 -77.5 -30t-51.5 -94l-59 -281h-141l108 507h135l-15 -71q34 38 79 59.5t100 21.5z" />
    <glyph glyph-name="Ncommaaccent" unicode="&#x145;" horiz-adv-x="704" 
d="M161 715h210l140 -506l107 506h122l-152 -715h-193l-154 521l-111 -521h-121zM227 -52h129l-100 -179h-88z" />
    <glyph glyph-name="ncommaaccent" unicode="&#x146;" horiz-adv-x="560" 
d="M412 517q73 0 101.5 -40t13.5 -114l-78 -363h-140l71 332q7 32 -2 52.5t-44 20.5q-41 0 -77.5 -30t-51.5 -94l-59 -281h-141l108 507h135l-15 -71q34 38 79 59.5t100 21.5zM157 -52h129l-100 -179h-88z" />
    <glyph glyph-name="Ncaron" unicode="&#x147;" horiz-adv-x="704" 
d="M294 856l46 41l134 -64l162 64l38 -41l-174 -110h-79zM161 715h210l140 -506l107 506h122l-152 -715h-193l-154 521l-111 -521h-121z" />
    <glyph glyph-name="ncaron" unicode="&#x148;" horiz-adv-x="560" 
d="M313 558l-127 110l46 41l134 -64l162 64l38 -41l-174 -110h-79zM412 517q73 0 101.5 -40t13.5 -114l-78 -363h-140l71 332q7 32 -2 52.5t-44 20.5q-41 0 -77.5 -30t-51.5 -94l-59 -281h-141l108 507h135l-15 -71q34 38 79 59.5t100 21.5z" />
    <glyph glyph-name="Eng" unicode="&#x14a;" horiz-adv-x="692" 
d="M390 -202q-17 0 -29.5 2.5t-20.5 4.5q-10 4 -16 8l7 82q4 -2 10 -3q5 -1 12 -2t16 -1q29 0 48.5 17.5t27.5 56.5l8 37l-215 518l-111 -518h-118l152 715h174l177 -451l96 451h120l-160 -751q-19 -88 -66 -127t-112 -39z" />
    <glyph glyph-name="eng" unicode="&#x14b;" horiz-adv-x="558" 
d="M416 517q73 0 99 -40t11 -114l-85 -396q-19 -89 -71.5 -129t-120.5 -40q-18 0 -31 2.5t-21 4.5q-10 4 -17 8l9 85q5 -1 11 -3q5 -1 11.5 -1.5t14.5 -0.5q31 0 49.5 17.5t26.5 55.5l77 366q7 32 -2 52.5t-44 20.5q-42 0 -78.5 -31.5t-50.5 -98.5h-1l-58 -275h-141l108 507
h135l-16 -75q35 39 81.5 62t103.5 23z" />
    <glyph glyph-name="Omacron" unicode="&#x14c;" horiz-adv-x="761" 
d="M356 860h312l-10 -88h-331zM323 -10q-61 0 -110 15.5t-83.5 47t-53.5 79.5t-19 114q0 99 29 186t84 152t134 103t178 38q60 0 109.5 -14.5t84 -45t53.5 -78t19 -112.5q0 -99 -29 -187.5t-83.5 -154.5t-133.5 -104.5t-179 -38.5zM346 85q59 0 104 38.5t75.5 97.5t46.5 130
t16 136q0 75 -33 108t-93 33q-58 0 -103 -38t-76 -97t-46.5 -129.5t-15.5 -135.5q0 -75 33 -109t92 -34z" />
    <glyph glyph-name="omacron" unicode="&#x14d;" horiz-adv-x="578" 
d="M225 672h312l-10 -88h-331zM237 -11q-45 0 -82.5 10.5t-64 33t-41.5 57.5t-15 83q0 69 21.5 131.5t62 110t98.5 75t130 27.5q44 0 80.5 -9.5t62.5 -30.5t40.5 -54.5t14.5 -80.5q0 -70 -20.5 -134t-60 -113t-96.5 -77.5t-130 -28.5zM256 79q38 0 66 25.5t46.5 63.5
t28 83.5t9.5 85.5q0 48 -20 68.5t-56 20.5q-37 0 -65 -25t-47 -63t-28.5 -83t-9.5 -85q0 -48 20 -69.5t56 -21.5z" />
    <glyph glyph-name="Ohungarumlaut" unicode="&#x150;" horiz-adv-x="761" 
d="M454 892h128l-115 -142h-91zM635 892h135l-155 -142h-91zM323 -10q-61 0 -110 15.5t-83.5 47t-53.5 79.5t-19 114q0 99 29 186t84 152t134 103t178 38q60 0 109.5 -14.5t84 -45t53.5 -78t19 -112.5q0 -99 -29 -187.5t-83.5 -154.5t-133.5 -104.5t-179 -38.5zM346 85
q59 0 104 38.5t75.5 97.5t46.5 130t16 136q0 75 -33 108t-93 33q-58 0 -103 -38t-76 -97t-46.5 -129.5t-15.5 -135.5q0 -75 33 -109t92 -34z" />
    <glyph glyph-name="ohungarumlaut" unicode="&#x151;" horiz-adv-x="578" 
d="M323 704h128l-115 -142h-91zM504 704h135l-155 -142h-91zM237 -11q-45 0 -82.5 10.5t-64 33t-41.5 57.5t-15 83q0 69 21.5 131.5t62 110t98.5 75t130 27.5q44 0 80.5 -9.5t62.5 -30.5t40.5 -54.5t14.5 -80.5q0 -70 -20.5 -134t-60 -113t-96.5 -77.5t-130 -28.5zM256 79
q38 0 66 25.5t46.5 63.5t28 83.5t9.5 85.5q0 48 -20 68.5t-56 20.5q-37 0 -65 -25t-47 -63t-28.5 -83t-9.5 -85q0 -48 20 -69.5t56 -21.5z" />
    <glyph glyph-name="OE" unicode="&#x152;" horiz-adv-x="977" 
d="M330 0q-122 0 -192.5 61.5t-70.5 185.5q0 98 29 183t83 148.5t131.5 100t174.5 36.5h536l-10 -100h-314l-43 -204h273l-19 -92h-273l-48 -219h319l-34 -100h-542zM431 95l112 525h-62q-62 0 -109.5 -34t-79.5 -87.5t-48.5 -120t-16.5 -132.5q0 -80 37.5 -115.5
t105.5 -35.5h61z" />
    <glyph glyph-name="oe" unicode="&#x153;" horiz-adv-x="897" 
d="M546 220v-13q0 -56 31.5 -81.5t91.5 -25.5q33 0 62 5.5t51 12.5q26 7 48 17l-32 -93q-21 -14 -49 -25q-26 -11 -60.5 -18.5t-79.5 -7.5q-59 0 -103.5 19t-69.5 61q-38 -38 -88 -60t-111 -22q-45 0 -82.5 10.5t-64 33t-41.5 57.5t-15 83q0 69 21.5 131.5t62 110t98.5 75
t130 27.5q57 0 100 -17.5t67 -56.5q37 35 85 54t105 19q80 0 125 -36t45 -99q0 -73 -58 -117t-181 -44h-88zM692 428q-26 0 -47.5 -11t-38 -29.5t-28.5 -43t-20 -51.5h85q60 0 88 21t28 54q0 29 -17 44.5t-50 15.5zM256 79q38 0 66 25.5t46.5 63.5t28 83.5t9.5 85.5
q0 48 -20 68.5t-56 20.5q-37 0 -65 -25t-47 -63t-28.5 -83t-9.5 -85q0 -48 20 -69.5t56 -21.5z" />
    <glyph glyph-name="Racute" unicode="&#x154;" horiz-adv-x="648" 
d="M453 750h-109l126 137h152zM663 567q0 -48 -15 -88.5t-42.5 -71t-65.5 -51t-85 -29.5l113 -327h-157l-98 313h-83l-66 -313h-155l152 715h326q82 0 129 -37.5t47 -110.5zM376 404q31 0 56.5 11.5t43.5 30.5t28 45t10 54q0 38 -23 57t-67 19h-129l-46 -217h127z" />
    <glyph glyph-name="racute" unicode="&#x155;" horiz-adv-x="419" 
d="M316 562h-109l126 137h152zM225 397q35 54 80.5 87t95.5 33q10 0 17.5 -1t12.5 -1q6 -2 10 -3l-25 -135q-5 2 -13 4q-7 1 -16 2t-22 1q-26 0 -52.5 -10t-49.5 -30.5t-41 -50.5t-29 -70l-47 -223h-141l108 507h135z" />
    <glyph glyph-name="Rcommaaccent" unicode="&#x156;" horiz-adv-x="648" 
d="M663 567q0 -48 -15 -88.5t-42.5 -71t-65.5 -51t-85 -29.5l113 -327h-157l-98 313h-83l-66 -313h-155l152 715h326q82 0 129 -37.5t47 -110.5zM376 404q31 0 56.5 11.5t43.5 30.5t28 45t10 54q0 38 -23 57t-67 19h-129l-46 -217h127zM202 -52h129l-100 -179h-88z" />
    <glyph glyph-name="rcommaaccent" unicode="&#x157;" horiz-adv-x="419" 
d="M401 517q10 0 17.5 -1t12.5 -1q6 -2 10 -3l-25 -135q-5 2 -13 4q-7 1 -16 2t-22 1q-26 0 -52.5 -10t-49.5 -30.5t-41 -50.5t-29 -70l-47 -223h-141l108 507h135l-23 -110q35 54 80.5 87t95.5 33zM3 -52h129l-100 -179h-88z" />
    <glyph glyph-name="Rcaron" unicode="&#x158;" horiz-adv-x="648" 
d="M388 746l-127 110l46 41l134 -64l162 64l38 -41l-174 -110h-79zM663 567q0 -48 -15 -88.5t-42.5 -71t-65.5 -51t-85 -29.5l113 -327h-157l-98 313h-83l-66 -313h-155l152 715h326q82 0 129 -37.5t47 -110.5zM376 404q31 0 56.5 11.5t43.5 30.5t28 45t10 54q0 38 -23 57
t-67 19h-129l-46 -217h127z" />
    <glyph glyph-name="rcaron" unicode="&#x159;" horiz-adv-x="419" 
d="M251 558l-127 110l46 41l134 -64l162 64l38 -41l-174 -110h-79zM225 397q35 54 80.5 87t95.5 33q10 0 17.5 -1t12.5 -1q6 -2 10 -3l-25 -135q-5 2 -13 4q-7 1 -16 2t-22 1q-26 0 -52.5 -10t-49.5 -30.5t-41 -50.5t-29 -70l-47 -223h-141l108 507h135z" />
    <glyph glyph-name="Sacute" unicode="&#x15a;" horiz-adv-x="606" 
d="M455 887h152l-169 -137h-109zM245 -9q-59 0 -102.5 10t-72.5 23q-34 14 -58 32l17 134q26 -26 60 -46q31 -19 72.5 -33t95.5 -14q61 0 101 27.5t40 80.5q0 32 -25 49.5t-68 32.5l-71 24q-61 20 -97 58t-36 102q0 60 23 107t63.5 80t96 50t121.5 17q59 0 100 -9.5
t68 -20.5q30 -13 50 -30l-16 -143q-22 26 -53 47q-29 18 -68 32t-93 14q-63 0 -99.5 -29.5t-36.5 -78.5q0 -29 22 -46.5t59 -30.5l72 -22q66 -21 106.5 -58.5t40.5 -105.5q0 -60 -24 -107.5t-66 -79.5t-99 -49t-123 -17z" />
    <glyph glyph-name="sacute" unicode="&#x15b;" horiz-adv-x="495" 
d="M357 699h152l-169 -137h-109zM189 -10q-47 0 -80.5 7t-55.5 15q-26 10 -44 22l12 115q19 -18 45 -33q23 -13 54 -23t72 -10q44 0 69 16.5t25 48.5q0 21 -16 33t-45 20l-51 15q-54 16 -82 44.5t-28 79.5q0 41 17.5 74t49 55.5t75 34.5t95.5 12q46 0 78.5 -5.5t53.5 -12.5
q24 -8 40 -18l-9 -116q-19 17 -44 30q-23 12 -52.5 20.5t-68.5 8.5q-40 0 -64.5 -17t-24.5 -46q0 -22 16 -33.5t45 -20.5l52 -16q54 -16 82 -44.5t28 -79.5q0 -42 -18.5 -74.5t-51 -55t-77 -34.5t-97.5 -12z" />
    <glyph glyph-name="Scedilla" unicode="&#x15e;" horiz-adv-x="606" 
d="M405 725q59 0 100 -9.5t68 -20.5q30 -13 50 -30l-16 -143q-22 26 -53 47q-29 18 -68 32t-93 14q-63 0 -99.5 -29.5t-36.5 -78.5q0 -29 22 -46.5t59 -30.5l72 -22q66 -21 106.5 -58.5t40.5 -105.5q0 -57 -21.5 -102t-59.5 -77.5t-90 -51t-113 -22.5l-30 -37l30 -8
q22 -5 39.5 -17.5t17.5 -38.5q0 -47 -39.5 -70t-98.5 -23q-25 0 -43.5 3t-30.5 7q-14 4 -23 10v65q12 -9 27 -17q14 -6 31 -11t37 -5q24 0 37.5 10t13.5 26q0 14 -10.5 20t-26.5 11l-42 13l49 63q-51 3 -88 13.5t-62 21.5q-29 13 -49 29l17 134q26 -26 60 -46
q31 -19 72.5 -33t95.5 -14q61 0 101 27.5t40 80.5q0 32 -25 49.5t-68 32.5l-71 24q-61 20 -97 58t-36 102q0 60 23 107t63.5 80t96 50t121.5 17z" />
    <glyph glyph-name="scedilla" unicode="&#x15f;" horiz-adv-x="495" 
d="M299 423q-40 0 -64.5 -17t-24.5 -46q0 -22 16 -33.5t45 -20.5l52 -16q54 -16 82 -44.5t28 -79.5q0 -39 -16 -70t-44.5 -53.5t-67.5 -35.5t-86 -16l-30 -37l30 -8q22 -5 39.5 -17.5t17.5 -38.5q0 -47 -39.5 -70t-98.5 -23q-25 0 -43.5 3t-30.5 7q-14 4 -23 10v65
q12 -9 27 -17q14 -6 31 -11t37 -5q24 0 37.5 10t13.5 26q0 14 -10.5 20t-26.5 11l-42 13l48 62q-38 2 -65.5 9t-45.5 15q-22 9 -36 19l12 115q19 -18 45 -33q23 -13 54 -23t72 -10q44 0 69 16.5t25 48.5q0 21 -16 33t-45 20l-51 15q-54 16 -82 44.5t-28 79.5q0 41 17.5 74
t49 55.5t75 34.5t95.5 12q46 0 78.5 -5.5t53.5 -12.5q24 -8 40 -18l-9 -116q-19 17 -44 30q-23 12 -52.5 20.5t-68.5 8.5z" />
    <glyph glyph-name="Scaron" unicode="&#x160;" horiz-adv-x="606" 
d="M246 856l46 41l134 -64l162 64l38 -41l-174 -110h-79zM245 -9q-59 0 -102.5 10t-72.5 23q-34 14 -58 32l17 134q26 -26 60 -46q31 -19 72.5 -33t95.5 -14q61 0 101 27.5t40 80.5q0 32 -25 49.5t-68 32.5l-71 24q-61 20 -97 58t-36 102q0 60 23 107t63.5 80t96 50
t121.5 17q59 0 100 -9.5t68 -20.5q30 -13 50 -30l-16 -143q-22 26 -53 47q-29 18 -68 32t-93 14q-63 0 -99.5 -29.5t-36.5 -78.5q0 -29 22 -46.5t59 -30.5l72 -22q66 -21 106.5 -58.5t40.5 -105.5q0 -60 -24 -107.5t-66 -79.5t-99 -49t-123 -17z" />
    <glyph glyph-name="scaron" unicode="&#x161;" horiz-adv-x="495" 
d="M148 668l46 41l134 -64l162 64l38 -41l-174 -110h-79zM189 -10q-47 0 -80.5 7t-55.5 15q-26 10 -44 22l12 115q19 -18 45 -33q23 -13 54 -23t72 -10q44 0 69 16.5t25 48.5q0 21 -16 33t-45 20l-51 15q-54 16 -82 44.5t-28 79.5q0 41 17.5 74t49 55.5t75 34.5t95.5 12
q46 0 78.5 -5.5t53.5 -12.5q24 -8 40 -18l-9 -116q-19 17 -44 30q-23 12 -52.5 20.5t-68.5 8.5q-40 0 -64.5 -17t-24.5 -46q0 -22 16 -33.5t45 -20.5l52 -16q54 -16 82 -44.5t28 -79.5q0 -42 -18.5 -74.5t-51 -55t-77 -34.5t-97.5 -12z" />
    <glyph glyph-name="uni0162" unicode="&#x162;" horiz-adv-x="633" 
d="M688 715l-10 -96h-205l-132 -619h-45l-37 -46l30 -8q22 -5 39.5 -17.5t17.5 -38.5q0 -47 -39.5 -70t-98.5 -23q-25 0 -43.5 3t-30.5 7q-14 4 -23 10v65q12 -9 27 -17q14 -6 31 -11t37 -5q24 0 37.5 10t13.5 26q0 14 -10.5 20t-26.5 11l-42 13l56 71h-50l132 619h-206
l30 96h548z" />
    <glyph glyph-name="uni0163" unicode="&#x163;" horiz-adv-x="410" 
d="M213 155q-15 -67 50 -67q17 0 32 3.5t27 7.5q13 4 25 10l-27 -84q-12 -9 -29 -16q-15 -7 -35 -12.5t-48 -6.5l-30 -36l30 -8q22 -5 39.5 -17.5t17.5 -38.5q0 -47 -39.5 -70t-98.5 -23q-25 0 -43.5 3t-30.5 7q-14 4 -23 10v65q12 -9 27 -17q14 -6 31 -11t37 -5
q24 0 37.5 10t13.5 26q0 14 -10.5 20t-26.5 11l-42 13l52 66q-54 13 -73.5 53.5t-6.5 101.5l57 269h-66l18 88h67l29 137h142l-29 -137h132l-9 -88h-141z" />
    <glyph glyph-name="Tcaron" unicode="&#x164;" horiz-adv-x="633" 
d="M253 856l46 41l134 -64l162 64l38 -41l-174 -110h-79zM316 619h-206l30 96h548l-10 -96h-205l-132 -619h-157z" />
    <glyph glyph-name="tcaron" unicode="&#x165;" horiz-adv-x="412" 
d="M508 725l-85 -166h-77l48 166h114zM287 507h132l-9 -88h-141l-56 -264q-15 -67 50 -67q17 0 32 3.5t27 7.5q13 4 25 10l-27 -84q-13 -10 -32 -17q-16 -8 -38.5 -13t-53.5 -5q-80 0 -111.5 43.5t-15.5 116.5l57 269h-66l18 88h67l29 137h142z" />
    <glyph glyph-name="Tbar" unicode="&#x166;" horiz-adv-x="633" 
d="M473 619l-44 -209h148l-19 -90h-148l-69 -320h-157l68 320h-142l19 90h142l45 209h-206l30 96h548l-10 -96h-205z" />
    <glyph glyph-name="tbar" unicode="&#x167;" horiz-adv-x="412" 
d="M269 419l-18 -83h136l-9 -87h-146l-19 -94q-15 -67 50 -67q17 0 32 3.5t27 7.5q13 4 25 10l-27 -84q-13 -10 -32 -17q-16 -8 -38.5 -13t-53.5 -5q-80 0 -111.5 43.5t-15.5 116.5l21 99h-67l19 87h66l18 83h-66l18 88h67l29 137h142l-29 -137h132l-9 -88h-141z" />
    <glyph glyph-name="Umacron" unicode="&#x16a;" horiz-adv-x="661" 
d="M317 860h312l-10 -88h-331zM274 -10q-127 0 -186 66.5t-33 190.5l101 468h162l-100 -472q-14 -66 12 -98t86 -32q59 0 98.5 32.5t53.5 98.5l100 471h133l-100 -471q-27 -126 -111.5 -190t-215.5 -64z" />
    <glyph glyph-name="umacron" unicode="&#x16b;" horiz-adv-x="559" 
d="M516 584h-331l29 88h312zM554 507l-108 -507h-135l16 73q-35 -38 -80.5 -60.5t-101.5 -22.5q-73 0 -100.5 40.5t-12.5 114.5l78 362h140l-71 -332q-7 -32 2.5 -52t44.5 -20q42 0 78.5 31t50.5 98l59 275h140z" />
    <glyph glyph-name="Uring" unicode="&#x16e;" horiz-adv-x="661" 
d="M447 735q-43 0 -68.5 23t-25.5 59q0 26 10.5 47t28.5 37t43 24.5t54 8.5q42 0 67 -22.5t25 -59.5q0 -25 -10.5 -46.5t-28.5 -37t-42.5 -24.5t-52.5 -9zM459 793q21 0 36 14.5t15 37.5q0 15 -9 23t-24 8q-20 0 -36 -14t-16 -37q0 -14 8.5 -23t25.5 -9zM274 -10
q-127 0 -186 66.5t-33 190.5l101 468h162l-100 -472q-14 -66 12 -98t86 -32q59 0 98.5 32.5t53.5 98.5l100 471h133l-100 -471q-27 -126 -111.5 -190t-215.5 -64z" />
    <glyph glyph-name="uring" unicode="&#x16f;" horiz-adv-x="559" 
d="M344 547q-43 0 -68.5 23t-25.5 59q0 26 10.5 47t28.5 37t43 24.5t54 8.5q42 0 67 -22.5t25 -59.5q0 -25 -10.5 -46.5t-28.5 -37t-42.5 -24.5t-52.5 -9zM374 688q-20 0 -36 -14t-16 -37q0 -14 8.5 -23t25.5 -9q21 0 36 14.5t15 37.5q0 15 -9 23t-24 8zM554 507l-108 -507
h-135l16 73q-35 -38 -80.5 -60.5t-101.5 -22.5q-73 0 -100.5 40.5t-12.5 114.5l78 362h140l-71 -332q-7 -32 2.5 -52t44.5 -20q42 0 78.5 31t50.5 98l59 275h140z" />
    <glyph glyph-name="Uhungarumlaut" unicode="&#x170;" horiz-adv-x="661" 
d="M415 892h128l-115 -142h-91zM596 892h135l-155 -142h-91zM274 -10q-127 0 -186 66.5t-33 190.5l101 468h162l-100 -472q-14 -66 12 -98t86 -32q59 0 98.5 32.5t53.5 98.5l100 471h133l-100 -471q-27 -126 -111.5 -190t-215.5 -64z" />
    <glyph glyph-name="uhungarumlaut" unicode="&#x171;" horiz-adv-x="559" 
d="M325 562h-91l78 142h128zM382 562l111 142h135l-155 -142h-91zM414 507h140l-108 -507h-135l16 73q-35 -38 -80.5 -60.5t-101.5 -22.5q-73 0 -100.5 40.5t-12.5 114.5l78 362h140l-71 -332q-7 -32 2.5 -52t44.5 -20q42 0 78.5 31t50.5 98z" />
    <glyph glyph-name="Uogonek" unicode="&#x172;" horiz-adv-x="661" 
d="M701 715l-100 -471q-20 -92 -71 -150.5t-129 -84.5q-32 -17 -54.5 -37t-22.5 -49q0 -31 44 -31q18 0 34 3.5t29 7.5q14 6 26 12l-19 -71q-13 -7 -29 -13q-15 -5 -34 -8.5t-43 -3.5q-53 0 -78.5 20.5t-25.5 55.5q0 30 15.5 54t40.5 41h-10q-127 0 -186 66.5t-33 190.5
l101 468h162l-100 -472q-14 -66 12 -98t86 -32q59 0 98.5 32.5t53.5 98.5l100 471h133z" />
    <glyph glyph-name="uogonek" unicode="&#x173;" horiz-adv-x="559" 
d="M314 -102q0 -31 44 -31q18 0 34 3.5t29 7.5q14 6 26 12l-19 -71q-13 -7 -29 -13q-15 -5 -34 -8.5t-43 -3.5q-53 0 -78.5 20.5t-25.5 55.5q0 26 12 47t31 37.5t43.5 28t49.5 17.5h-43l16 73q-35 -38 -80.5 -60.5t-101.5 -22.5q-73 0 -100.5 40.5t-12.5 114.5l78 362h140
l-71 -332q-7 -32 2.5 -52t44.5 -20q42 0 78.5 31t50.5 98l59 275h140l-108 -507h-21q-21 -10 -41 -20.5t-35.5 -22.5t-25 -26.5t-9.5 -32.5z" />
    <glyph glyph-name="Wcircumflex" unicode="&#x174;" horiz-adv-x="955" 
d="M407 784l174 109h78l128 -109l-45 -42l-135 64l-161 -64zM123 715h167l-20 -550l247 550h132l11 -550l216 550h151l-317 -715h-170l-16 488l-223 -488h-172z" />
    <glyph glyph-name="wcircumflex" unicode="&#x175;" horiz-adv-x="763" 
d="M274 596l174 109h78l128 -109l-45 -42l-135 64l-161 -64zM76 507h148l-7 -363l169 363h117l8 -364l149 364h134l-240 -507h-149l-15 309l-147 -309h-148z" />
    <glyph glyph-name="Ycircumflex" unicode="&#x176;" horiz-adv-x="675" 
d="M269 784l174 109h78l128 -109l-45 -42l-135 64l-161 -64zM269 305l-146 410h179l84 -282l204 282h157l-322 -407l-65 -308h-156z" />
    <glyph glyph-name="ycircumflex" unicode="&#x177;" horiz-adv-x="539" 
d="M160 596l174 109h78l128 -109l-45 -42l-135 64l-161 -64zM20 -202q-19 0 -33 3t-24 6q-11 5 -19 10l10 95q8 -4 19 -8q10 -3 23 -5t30 -2q45 0 73 29.5t60 87.5l-82 493h151l39 -330l170 330h133l-304 -533q-51 -91 -108.5 -133.5t-137.5 -42.5z" />
    <glyph glyph-name="Ydieresis" unicode="&#x178;" horiz-adv-x="675" 
d="M341 894h114l-27 -126h-114zM511 894h114l-27 -126h-114zM269 305l-146 410h179l84 -282l204 282h157l-322 -407l-65 -308h-156z" />
    <glyph glyph-name="Zacute" unicode="&#x179;" horiz-adv-x="618" 
d="M458 887h152l-169 -137h-109zM9 96l452 522h-342l30 97h514l-21 -97l-447 -522h357l-35 -96h-529z" />
    <glyph glyph-name="zacute" unicode="&#x17a;" horiz-adv-x="508" 
d="M364 699h152l-169 -137h-109zM4 87l313 334h-241l29 86h406l-19 -86l-309 -334h255l-30 -87h-423z" />
    <glyph glyph-name="Zdotaccent" unicode="&#x17b;" horiz-adv-x="618" 
d="M380 894h138l-26 -126h-139zM9 96l452 522h-342l30 97h514l-21 -97l-447 -522h357l-35 -96h-529z" />
    <glyph glyph-name="zdotaccent" unicode="&#x17c;" horiz-adv-x="508" 
d="M286 706h138l-26 -126h-139zM4 87l313 334h-241l29 86h406l-19 -86l-309 -334h255l-30 -87h-423z" />
    <glyph glyph-name="Zcaron" unicode="&#x17d;" horiz-adv-x="618" 
d="M249 856l46 41l134 -64l162 64l38 -41l-174 -110h-79zM9 96l452 522h-342l30 97h514l-21 -97l-447 -522h357l-35 -96h-529z" />
    <glyph glyph-name="zcaron" unicode="&#x17e;" horiz-adv-x="508" 
d="M155 668l46 41l134 -64l162 64l38 -41l-174 -110h-79zM4 87l313 334h-241l29 86h406l-19 -86l-309 -334h255l-30 -87h-423z" />
    <glyph glyph-name="florin" unicode="&#x192;" horiz-adv-x="519" 
d="M454 635q-32 0 -53 -18t-31 -66l-9 -44h122v-88h-140l-92 -452q-15 -78 -62.5 -124.5t-132.5 -46.5q-27 0 -47 5t-33 11q-15 7 -26 16v83q9 -7 20 -13q10 -5 23 -8.5t30 -3.5q33 0 54.5 18.5t32.5 66.5l92 448h-73l9 88h82l9 48q16 78 63 124t133 46q27 0 46.5 -5
t33.5 -11q15 -7 26 -16v-83q-9 7 -20 13q-11 5 -25 8.5t-32 3.5z" />
    <glyph glyph-name="Scommaaccent" unicode="&#x218;" horiz-adv-x="606" 
d="M245 -9q-59 0 -102.5 10t-72.5 23q-34 14 -58 32l17 134q26 -26 60 -46q31 -19 72.5 -33t95.5 -14q61 0 101 27.5t40 80.5q0 32 -25 49.5t-68 32.5l-71 24q-61 20 -97 58t-36 102q0 60 23 107t63.5 80t96 50t121.5 17q59 0 100 -9.5t68 -20.5q30 -13 50 -30l-16 -143
q-22 26 -53 47q-29 18 -68 32t-93 14q-63 0 -99.5 -29.5t-36.5 -78.5q0 -29 22 -46.5t59 -30.5l72 -22q66 -21 106.5 -58.5t40.5 -105.5q0 -60 -24 -107.5t-66 -79.5t-99 -49t-123 -17zM177 -52h129l-100 -179h-88z" />
    <glyph glyph-name="scommaaccent" unicode="&#x219;" horiz-adv-x="495" 
d="M189 -10q-47 0 -80.5 7t-55.5 15q-26 10 -44 22l12 115q19 -18 45 -33q23 -13 54 -23t72 -10q44 0 69 16.5t25 48.5q0 21 -16 33t-45 20l-51 15q-54 16 -82 44.5t-28 79.5q0 41 17.5 74t49 55.5t75 34.5t95.5 12q46 0 78.5 -5.5t53.5 -12.5q24 -8 40 -18l-9 -116
q-19 17 -44 30q-23 12 -52.5 20.5t-68.5 8.5q-40 0 -64.5 -17t-24.5 -46q0 -22 16 -33.5t45 -20.5l52 -16q54 -16 82 -44.5t28 -79.5q0 -42 -18.5 -74.5t-51 -55t-77 -34.5t-97.5 -12zM123 -52h129l-100 -179h-88z" />
    <glyph glyph-name="uni021A" unicode="&#x21a;" horiz-adv-x="633" 
d="M316 619h-206l30 96h548l-10 -96h-205l-132 -619h-157zM193 -52h129l-100 -179h-88z" />
    <glyph glyph-name="uni021B" unicode="&#x21b;" horiz-adv-x="410" 
d="M213 155q-15 -67 50 -67q17 0 32 3.5t27 7.5q13 4 25 10l-27 -84q-13 -10 -32 -17q-16 -8 -38.5 -13t-53.5 -5q-80 0 -111.5 43.5t-15.5 116.5l57 269h-66l18 88h67l29 137h142l-29 -137h132l-9 -88h-141zM112 -52h129l-100 -179h-88z" />
    <glyph glyph-name="circumflex" unicode="&#x2c6;" horiz-adv-x="510" 
d="M85 596l174 109h78l128 -109l-45 -42l-135 64l-161 -64z" />
    <glyph glyph-name="caron" unicode="&#x2c7;" horiz-adv-x="510" 
d="M97 668l46 41l134 -64l162 64l38 -41l-174 -110h-79z" />
    <glyph glyph-name="breve" unicode="&#x2d8;" horiz-adv-x="510" 
d="M266 562q-39 0 -65.5 12.5t-42.5 27.5q-19 18 -31 40l5 64q15 -17 37 -29q20 -13 47.5 -21.5t65.5 -8.5q39 0 71 9t56 21q28 12 50 29l-22 -64q-21 -22 -47 -40q-24 -16 -54.5 -28t-69.5 -12z" />
    <glyph glyph-name="dotaccent" unicode="&#x2d9;" horiz-adv-x="510" 
d="M228 706h138l-26 -126h-139z" />
    <glyph glyph-name="ring" unicode="&#x2da;" horiz-adv-x="510" 
d="M264 547q-43 0 -68.5 23t-25.5 59q0 26 10.5 47t28.5 37t43 24.5t54 8.5q42 0 67 -22.5t25 -59.5q0 -25 -10.5 -46.5t-28.5 -37t-42.5 -24.5t-52.5 -9zM276 605q21 0 36 14.5t15 37.5q0 15 -9 23t-24 8q-20 0 -36 -14t-16 -37q0 -14 8.5 -23t25.5 -9z" />
    <glyph glyph-name="ogonek" unicode="&#x2db;" horiz-adv-x="510" 
d="M192 -207q-53 0 -78.5 20.5t-25.5 55.5q0 28 14.5 51.5t37 40.5t51 27.5t55.5 14.5l34 5l17 -8q-22 -10 -42 -20.5t-36 -22.5t-25.5 -27t-9.5 -33q0 -31 44 -31q18 0 34 3.5t29 7.5q14 6 26 12l-19 -71q-13 -7 -29 -13q-15 -5 -34 -8.5t-43 -3.5z" />
    <glyph glyph-name="tilde" unicode="&#x2dc;" horiz-adv-x="510" 
d="M341 561q-30 0 -48.5 9t-34 20.5t-31 20.5t-38.5 9q-21 0 -39.5 -8t-32.5 -17.5t-22.5 -18l-9.5 -9.5l26 78q14 18 32 32q16 13 35.5 22.5t44.5 9.5q30 0 49.5 -9.5t35 -20.5t31 -20.5t37.5 -9.5q21 0 39.5 8t33 17.5t23 18l8.5 8.5l-26 -78q-14 -17 -31 -31
q-16 -13 -36 -22t-46 -9z" />
    <glyph glyph-name="hungarumlaut" unicode="&#x2dd;" horiz-adv-x="510" 
d="M232 704h128l-115 -142h-91zM413 704h135l-155 -142h-91z" />
    <glyph glyph-name="gravecomb" unicode="&#x300;" horiz-adv-x="0" 
d="M-388 699h152l91 -137h-109z" />
    <glyph glyph-name="acutecomb" unicode="&#x301;" horiz-adv-x="0" 
d="M-204 699h152l-169 -137h-109z" />
    <glyph glyph-name="uni0302" unicode="&#x302;" horiz-adv-x="0" 
d="M-425 596l174 109h78l128 -109l-45 -42l-135 64l-161 -64z" />
    <glyph glyph-name="tildecomb" unicode="&#x303;" horiz-adv-x="0" 
d="M-169 561q-30 0 -48.5 9t-34 20.5t-31 20.5t-38.5 9q-21 0 -39.5 -8t-32.5 -17.5t-22.5 -18l-9.5 -9.5l26 78q14 18 32 32q16 13 35.5 22.5t44.5 9.5q30 0 49.5 -9.5t35 -20.5t31 -20.5t37.5 -9.5q21 0 39.5 8t33 17.5t23 18l8.5 8.5l-26 -78q-14 -17 -31 -31
q-16 -13 -36 -22t-46 -9z" />
    <glyph glyph-name="uni0304" unicode="&#x304;" horiz-adv-x="0" 
d="M-376 672h312l-10 -88h-331z" />
    <glyph glyph-name="uni0306" unicode="&#x306;" horiz-adv-x="0" 
d="M-244 562q-39 0 -65.5 12.5t-42.5 27.5q-19 18 -31 40l5 64q15 -17 37 -29q20 -13 47.5 -21.5t65.5 -8.5q39 0 71 9t56 21q28 12 50 29l-22 -64q-21 -22 -47 -40q-24 -16 -54.5 -28t-69.5 -12z" />
    <glyph glyph-name="uni0307" unicode="&#x307;" horiz-adv-x="0" 
d="M-282 706h138l-26 -126h-139z" />
    <glyph glyph-name="uni0308" unicode="&#x308;" horiz-adv-x="0" 
d="M-355 706h114l-27 -126h-114zM-185 706h114l-27 -126h-114z" />
    <glyph glyph-name="uni030A" unicode="&#x30a;" horiz-adv-x="0" 
d="M-246 547q-43 0 -68.5 23t-25.5 59q0 26 10.5 47t28.5 37t43 24.5t54 8.5q42 0 67 -22.5t25 -59.5q0 -25 -10.5 -46.5t-28.5 -37t-42.5 -24.5t-52.5 -9zM-234 605q21 0 36 14.5t15 37.5q0 15 -9 23t-24 8q-20 0 -36 -14t-16 -37q0 -14 8.5 -23t25.5 -9z" />
    <glyph glyph-name="uni030B" unicode="&#x30b;" horiz-adv-x="0" 
d="M-278 704h128l-115 -142h-91zM-97 704h135l-155 -142h-91z" />
    <glyph glyph-name="uni030C" unicode="&#x30c;" horiz-adv-x="0" 
d="M-413 668l46 41l134 -64l162 64l38 -41l-174 -110h-79z" />
    <glyph glyph-name="uni0326" unicode="&#x326;" horiz-adv-x="0" 
d="M-327 -52h129l-100 -179h-88z" />
    <glyph glyph-name="uni0327" unicode="&#x327;" horiz-adv-x="0" 
d="M-312 -203q-25 0 -43.5 3t-30.5 7q-14 4 -23 10v65q12 -9 27 -17q14 -6 31 -11t37 -5q24 0 37.5 10t13.5 26q0 14 -10.5 20t-26.5 11l-42 13l62 79h63l-44 -54l30 -8q22 -5 39.5 -17.5t17.5 -38.5q0 -47 -40 -70t-98 -23z" />
    <glyph glyph-name="uni0328" unicode="&#x328;" horiz-adv-x="0" 
d="M-318 -207q-53 0 -78.5 20.5t-25.5 55.5q0 28 14.5 51.5t37 40.5t51 27.5t55.5 14.5l34 5l17 -8q-22 -10 -42.5 -20.5t-36 -22.5t-25 -27t-9.5 -33q0 -31 44 -31q18 0 34 3.5t28 7.5q15 6 27 12l-19 -71q-13 -7 -29 -13q-15 -5 -34 -8.5t-43 -3.5z" />
    <glyph glyph-name="uni0394" unicode="&#x394;" horiz-adv-x="620" 
d="M229 715h159l208 -715h-570zM446 93l-142 487l-137 -487h279z" />
    <glyph glyph-name="uni03A9" unicode="&#x3a9;" horiz-adv-x="773" 
d="M41 101h134q-9 8 -30 28t-42.5 54t-38.5 81.5t-17 110.5q0 83 24 148t68.5 110t107.5 68.5t141 23.5t141 -23t106.5 -67t67 -109.5t23.5 -150.5q0 -62 -17.5 -110t-40 -82t-44 -54t-30.5 -28h137l-11 -101h-309q19 19 44.5 48.5t48 73.5t38.5 104t16 140q0 134 -44.5 195
t-126.5 61q-80 0 -126 -62t-46 -195q0 -80 15.5 -140t38.5 -103.5t48.5 -73t44.5 -48.5h-309z" />
    <glyph glyph-name="uni03BC" unicode="&#x3bc;" horiz-adv-x="569" 
d="M510 507v-507h-136v77q-28 -38 -71 -60.5t-100 -22.5q-2 0 -2.5 0.5t-1.5 0.5v-189h-142v389v312h142v-332q0 -32 13.5 -52t50.5 -20q43 0 74 31t31 98v275h142z" />
    <glyph glyph-name="pi" unicode="&#x3c0;" horiz-adv-x="725" 
d="M550 -10q-81 0 -118.5 39.5t-37.5 112.5v277h-134v-419h-142v420h-81v87h639l2 -88h-141v-265q0 -67 67 -67q17 0 32 3.5t26 8.5q13 5 24 12l-9 -86q-14 -10 -33 -17q-17 -8 -40 -13t-54 -5z" />
    <glyph glyph-name="Wgrave" unicode="&#x1e80;" horiz-adv-x="955" 
d="M446 887h152l91 -137h-109zM123 715h167l-20 -550l247 550h132l11 -550l216 550h151l-317 -715h-170l-16 488l-223 -488h-172z" />
    <glyph glyph-name="wgrave" unicode="&#x1e81;" horiz-adv-x="763" 
d="M312 699h152l91 -137h-109zM76 507h148l-7 -363l169 363h117l8 -364l149 364h134l-240 -507h-149l-15 309l-147 -309h-148z" />
    <glyph glyph-name="Wacute" unicode="&#x1e82;" horiz-adv-x="955" 
d="M630 887h152l-169 -137h-109zM123 715h167l-20 -550l247 550h132l11 -550l216 550h151l-317 -715h-170l-16 488l-223 -488h-172z" />
    <glyph glyph-name="wacute" unicode="&#x1e83;" horiz-adv-x="763" 
d="M496 699h152l-169 -137h-109zM76 507h148l-7 -363l169 363h117l8 -364l149 364h134l-240 -507h-149l-15 309l-147 -309h-148z" />
    <glyph glyph-name="Wdieresis" unicode="&#x1e84;" horiz-adv-x="955" 
d="M479 894h114l-27 -126h-114zM649 894h114l-27 -126h-114zM123 715h167l-20 -550l247 550h132l11 -550l216 550h151l-317 -715h-170l-16 488l-223 -488h-172z" />
    <glyph glyph-name="wdieresis" unicode="&#x1e85;" horiz-adv-x="763" 
d="M345 706h114l-27 -126h-114zM515 706h114l-27 -126h-114zM76 507h148l-7 -363l169 363h117l8 -364l149 364h134l-240 -507h-149l-15 309l-147 -309h-148z" />
    <glyph glyph-name="Ygrave" unicode="&#x1ef2;" horiz-adv-x="675" 
d="M308 887h152l91 -137h-109zM269 305l-146 410h179l84 -282l204 282h157l-322 -407l-65 -308h-156z" />
    <glyph glyph-name="ygrave" unicode="&#x1ef3;" horiz-adv-x="539" 
d="M199 699h152l91 -137h-109zM20 -202q-19 0 -33 3t-24 6q-11 5 -19 10l10 95q8 -4 19 -8q10 -3 23 -5t30 -2q45 0 73 29.5t60 87.5l-82 493h151l39 -330l170 330h133l-304 -533q-51 -91 -108.5 -133.5t-137.5 -42.5z" />
    <glyph glyph-name="endash" unicode="&#x2013;" 
d="M90 330h461l-21 -103h-462z" />
    <glyph glyph-name="emdash" unicode="&#x2014;" horiz-adv-x="813" 
d="M70 330h704l-22 -103h-703z" />
    <glyph glyph-name="quoteleft" unicode="&#x2018;" horiz-adv-x="249" 
d="M224 715h89l-106 -269h-133z" />
    <glyph glyph-name="quoteright" unicode="&#x2019;" horiz-adv-x="249" 
d="M179 715l134 -1l-150 -268h-89z" />
    <glyph glyph-name="quotesinglbase" unicode="&#x201a;" horiz-adv-x="249" 
d="M44 144h142l-150 -275h-99z" />
    <glyph glyph-name="quotedblleft" unicode="&#x201c;" horiz-adv-x="436" 
d="M225 715h91l-106 -268h-135zM405 715h90l-105 -269h-134z" />
    <glyph glyph-name="quotedblright" unicode="&#x201d;" horiz-adv-x="436" 
d="M179 715h134l-150 -269h-90zM359 715h134l-150 -269h-90z" />
    <glyph glyph-name="quotedblbase" unicode="&#x201e;" horiz-adv-x="430" 
d="M54 144h134l-151 -275h-90zM234 144h134l-151 -275h-90z" />
    <glyph glyph-name="dagger" unicode="&#x2020;" 
d="M290 393l-207 -16l25 118l200 -15l35 235h118l-65 -235l207 15l-25 -118l-201 16l-110 -585h-116z" />
    <glyph glyph-name="daggerdbl" unicode="&#x2021;" 
d="M213 31l-207 -15l25 118l200 -16l18 143l44 146l-207 -16l25 119l200 -16l32 221h118l-63 -221l208 16l-25 -119l-202 16l-18 -146l-43 -143l208 16l-25 -118l-201 15l-32 -223h-118z" />
    <glyph glyph-name="bullet" unicode="&#x2022;" horiz-adv-x="393" 
d="M197 146q-60 0 -97 36.5t-37 97.5t37.5 98t95.5 37q62 0 97 -36t35 -97t-36 -98.5t-95 -37.5z" />
    <glyph glyph-name="ellipsis" unicode="&#x2026;" horiz-adv-x="726" 
d="M35 154h135l-32 -154h-135zM274 154h135l-33 -154h-135zM512 154h135l-32 -154h-135z" />
    <glyph glyph-name="perthousand" unicode="&#x2030;" horiz-adv-x="921" 
d="M187 361q-51 0 -74.5 29t-23.5 83q0 47 11 92.5t33.5 81t55.5 57t76 21.5q51 0 74.5 -29t23.5 -81q0 -47 -11 -92.5t-33.5 -81.5t-55 -58t-76.5 -22zM549 715h89l-506 -715h-90zM200 421q20 0 35 22t26 52.5t16.5 64t5.5 56.5q0 49 -31 49q-20 0 -36 -21.5t-26.5 -52
t-16 -63.5t-5.5 -56q0 -27 7.5 -39t24.5 -12zM416 -10q-51 0 -74.5 29t-23.5 83q0 47 11 92.5t33.5 80.5t55.5 56.5t76 21.5q51 0 74.5 -28.5t23.5 -80.5q0 -48 -11 -93.5t-33.5 -81t-55 -57.5t-76.5 -22zM703 -10q-51 0 -74.5 29t-23.5 83q0 47 11 92.5t33 80.5t55 56.5
t76 21.5q52 0 75.5 -28.5t23.5 -80.5q0 -48 -11 -93.5t-33.5 -81t-55 -57.5t-76.5 -22zM429 50q20 0 35 22t26 52.5t16.5 64t5.5 56.5q0 49 -31 49q-20 0 -36 -21.5t-26.5 -52t-16 -63.5t-5.5 -57q0 -50 32 -50zM716 50q20 0 35 22t26 52.5t16.5 64t5.5 56.5q0 49 -31 49
q-20 0 -36 -21.5t-26.5 -52t-16 -63.5t-5.5 -57q0 -50 32 -50z" />
    <glyph glyph-name="guilsinglleft" unicode="&#x2039;" horiz-adv-x="341" 
d="M51 281l243 235l48 -48l-155 -188l73 -194l-66 -41z" />
    <glyph glyph-name="guilsinglright" unicode="&#x203a;" horiz-adv-x="341" 
d="M10 89l154 191l-73 191l68 45l143 -235l-244 -236z" />
    <glyph glyph-name="fraction" unicode="&#x2044;" horiz-adv-x="29" 
d="M247 715h89l-509 -715h-90z" />
    <glyph glyph-name="Euro" unicode="&#x20ac;" 
d="M479 723q43 0 72.5 -7t47.5 -16q22 -10 36 -23l-14 -120q-16 16 -37 29q-20 12 -46 20.5t-60 8.5q-58 0 -100.5 -42t-69.5 -106h224l-17 -80h-233q-7 -31 -12 -63h232l-17 -81h-220v-1q0 -67 28 -103t90 -36q34 0 62 5.5t49 12.5q25 8 45 18l-32 -98q-19 -14 -46 -25
q-25 -11 -58.5 -18.5t-78.5 -7.5q-51 0 -89 17t-63.5 48.5t-38 75t-12.5 97.5q0 4 0.5 7.5t0.5 7.5h-85l17 81h74q5 32 12 63h-73l17 80h80q21 55 52 102t70.5 81t88 53.5t104.5 19.5z" />
    <glyph glyph-name="trademark" unicode="&#x2122;" horiz-adv-x="861" 
d="M211 648h-108l7 67h299l7 -67h-107v-295h-98v295zM458 715h129l66 -241l67 241h127v-362h-89v256l-71 -256h-81l-71 255v-255h-77v362z" />
    <glyph glyph-name="partialdiff" unicode="&#x2202;" 
d="M235 -10q-42 0 -77.5 12.5t-60.5 36.5t-39 58t-14 77q0 57 18.5 109.5t52 92t80.5 63.5t104 24q35 0 59 -9.5t40.5 -23t26 -29.5t13.5 -30q5 23 7.5 44.5t2.5 40.5q0 43 -10.5 73.5t-29 50t-44 28.5t-54.5 9q-34 0 -62 -7.5t-48 -16.5q-24 -11 -43 -24l35 116
q19 11 45 20q23 8 53 14t69 6q108 0 169.5 -66t61.5 -191q0 -89 -23.5 -175t-69 -153.5t-111.5 -108.5t-151 -41zM262 90q32 0 58.5 17t45.5 44t29.5 59.5t10.5 63.5q0 44 -24.5 69t-62.5 25q-33 0 -58 -16.5t-42.5 -42.5t-26 -59t-8.5 -66q0 -46 21 -70t57 -24z" />
    <glyph glyph-name="product" unicode="&#x220f;" horiz-adv-x="620" 
d="M114 618h-80l10 97h532l10 -97h-80v-618h-137v618h-117v-618h-138v618z" />
    <glyph glyph-name="summation" unicode="&#x2211;" horiz-adv-x="623" 
d="M56 -18l236 311l-236 318v104h512v-201h-104v101h-260l233 -322l-233 -317h260v101h104v-200h-512v105z" />
    <glyph glyph-name="minus" unicode="&#x2212;" 
d="M69 330h471v-103h-471v103z" />
    <glyph glyph-name="radical" unicode="&#x221a;" horiz-adv-x="619" 
d="M99 406h-79l9 101h171l92 -372l140 590h182v-102h-88l-164 -623h-148z" />
    <glyph glyph-name="infinity" unicode="&#x221e;" horiz-adv-x="849" 
d="M610 490q45 0 81.5 -15t63 -42.5t40.5 -66.5t14 -87t-15 -87t-42 -67t-64.5 -43t-82.5 -15q-37 0 -65.5 10.5t-50.5 28t-38 40.5t-30 48q-14 -25 -30.5 -48t-37.5 -40.5t-48.5 -28t-63.5 -10.5q-45 0 -82 15t-63.5 42.5t-41 67t-14.5 87.5t14.5 87t41 66.5t63 42.5
t81.5 15q38 0 66.5 -10t50.5 -27t39 -39.5t30 -46.5q15 24 32 46.5t39 39.5t50 27t63 10zM253 178q44 0 72.5 30t52.5 72q-22 41 -50 70t-75 29t-74 -26t-27 -74t26.5 -74.5t74.5 -26.5zM595 178q47 0 74 26.5t27 74.5t-26.5 74t-73.5 26t-76 -28t-52 -68q11 -22 23 -41
t27 -33t34 -22.5t43 -8.5z" />
    <glyph glyph-name="integral" unicode="&#x222b;" horiz-adv-x="438" 
d="M125 -202q-26 0 -45.5 4t-33.5 9q-16 6 -27 13l-6 77q8 -4 17 -7q8 -2 18 -4t21 -2q64 0 64 72v600q0 75 41.5 118t123.5 43q28 0 49.5 -4t36.5 -9q18 -6 31 -14l8 -83q-10 6 -22 10q-11 4 -25 7t-31 3q-29 0 -48.5 -15t-19.5 -56v-598q0 -80 -38.5 -122t-113.5 -42z" />
    <glyph glyph-name="approxequal" unicode="&#x2248;" 
d="M406 284q-37 0 -62 11.5t-45.5 25.5t-41 25.5t-49.5 11.5q-28 0 -51 -11t-40 -24q-20 -16 -36 -36l21 97q19 21 43 38q21 16 48 27t59 11q37 0 61.5 -11.5t45.5 -26t41.5 -26t49.5 -11.5q28 0 51.5 11t40.5 25q20 16 36 36l-20 -97q-20 -21 -43 -38q-22 -16 -49 -27
t-60 -11zM367 102q-37 0 -61.5 11.5t-45 26t-41 26t-50.5 11.5q-28 0 -51 -11t-40 -25q-20 -16 -36 -36l21 98q19 21 43 38q21 16 48 27t59 11q37 0 62 -12t46 -26t41.5 -26t49.5 -12q28 0 51 11.5t40 25.5q21 16 37 36l-21 -98q-20 -21 -43 -38q-22 -16 -49 -27t-60 -11z
" />
    <glyph glyph-name="notequal" unicode="&#x2260;" 
d="M369 315l-24 -74h195v-102h-229l-32 -97h-101l32 97h-141v102h174l25 74h-199v103h232l32 96h101l-31 -96h137v-103h-171z" />
    <glyph glyph-name="lessequal" unicode="&#x2264;" 
d="M65 280v112l470 152v-107l-334 -100l334 -97v-107zM65 97h470v-97h-470v97z" />
    <glyph glyph-name="greaterequal" unicode="&#x2265;" 
d="M69 240l334 97l-334 100v107l471 -152v-112l-471 -147v107zM69 97h471v-97h-471v97z" />
    <glyph glyph-name="lozenge" unicode="&#x25ca;" 
d="M23 289l282 287l282 -287l-282 -285zM447 289l-142 147l-142 -147l142 -146z" />
    <glyph glyph-name="eight.dnom" horiz-adv-x="312" 
d="M120 -10q-51 0 -81 21.5t-30 59.5q0 42 24.5 67.5t53.5 36.5q-16 8 -25.5 23.5t-9.5 36.5q0 27 11 49t29.5 37t44 23.5t55.5 8.5q50 0 76.5 -20.5t26.5 -55.5q0 -33 -18.5 -59.5t-49.5 -41.5q20 -8 31.5 -24t11.5 -42q0 -28 -12 -50.5t-32.5 -38t-48 -23.5t-57.5 -8z
M163 199q21 0 37 19t16 45q0 34 -34 34q-24 0 -39 -16t-15 -45q0 -37 35 -37zM132 47q27 0 43.5 18t16.5 43q0 38 -41 38q-27 0 -45 -18t-18 -44q0 -37 44 -37z" />
    <glyph glyph-name="eight.osf" 
d="M255 -10q-50 0 -91 11t-70 32t-45 52t-16 71q0 79 45.5 131t120.5 78q-13 6 -27 16t-25.5 25t-19 35.5t-7.5 47.5q0 53 20.5 96.5t57.5 74.5t88.5 48t112.5 17q98 0 151 -40.5t53 -112.5t-39.5 -126.5t-104.5 -80.5q15 -6 32 -15.5t31.5 -25t24 -38t9.5 -53.5
q0 -54 -23 -98.5t-63 -77t-95 -50t-120 -17.5zM341 409q24 0 45.5 11t37 30t25 44.5t9.5 53.5q0 35 -19.5 55t-59.5 20q-28 0 -50 -11t-37 -29t-23 -42t-8 -51q0 -38 22 -59.5t58 -21.5zM276 92q31 0 56 11t42.5 29.5t27 43.5t9.5 53q0 42 -25.5 62.5t-67.5 20.5
q-30 0 -55 -10.5t-43 -28.5t-28.5 -43t-10.5 -55q0 -39 24.5 -61t70.5 -22z" />
    <glyph glyph-name="five.dnom" horiz-adv-x="312" 
d="M118 -10q-30 0 -51 6t-34 13q-16 8 -26 18l4 63q14 -11 31 -20q16 -8 36 -14t45 -6q30 0 46.5 18t16.5 47q0 26 -24 38.5t-72 18.5l-45 6l59 164h190l-7 -62h-137l-18 -55l15 -2q123 -15 123 -98q0 -31 -12 -56t-32.5 -42.5t-48 -27t-59.5 -9.5z" />
    <glyph glyph-name="five.osf" 
d="M211 -202q-61 0 -103.5 11.5t-69.5 24.5q-32 17 -53 37l10 117q27 -22 62 -40q31 -16 70.5 -28t89.5 -12q34 0 60 11t43.5 30.5t26.5 45t9 54.5q0 31 -14.5 52.5t-41.5 35.5t-66 22.5t-89 13.5l-76 7l124 328h370l-13 -116h-277l-44 -124l39 -4q124 -13 184.5 -59.5
t60.5 -133.5q0 -61 -23 -111t-63.5 -86t-96 -56t-119.5 -20z" />
    <glyph glyph-name="four.dnom" horiz-adv-x="312" 
d="M152 75h-152l12 54l170 213h104l-45 -209h43l-12 -58h-43l-16 -75h-77zM164 133l26 123l-99 -123h73z" />
    <glyph glyph-name="four.osf" 
d="M292 0h-310l22 102l345 405h191l-85 -400h89l-23 -107h-89l-41 -192h-140zM315 107l53 253l-226 -253h173z" />
    <glyph glyph-name="i.loclTRK" horiz-adv-x="264" 
d="M159 706h138l-26 -126h-139zM112 507h148l-108 -507h-148z" />
    <glyph glyph-name="nine.dnom" horiz-adv-x="312" 
d="M96 -10q-19 0 -33 3t-23 7q-11 4 -18 10l7 62q7 -6 16 -11t21.5 -8.5t29.5 -3.5q34 0 63.5 27t43.5 77q-13 -14 -33.5 -25.5t-48.5 -11.5q-39 0 -59.5 22t-20.5 61q0 33 11 61t30.5 48.5t45.5 32t55 11.5q54 0 81 -32.5t27 -90.5q0 -48 -13.5 -91t-39 -76t-61.5 -52.5
t-81 -19.5zM153 169q27 0 44.5 23.5t17.5 56.5q0 22 -10.5 34.5t-28.5 12.5q-14 0 -25 -8t-18.5 -20t-11 -27t-3.5 -30q0 -42 35 -42z" />
    <glyph glyph-name="nine.osf" 
d="M158 -202q-39 0 -67 6t-46 13q-22 8 -36 19l14 119q14 -13 34 -24q17 -10 41.5 -17t57.5 -7q36 0 72 13t68 41t57 72.5t38 108.5q-9 -13 -25 -28.5t-38.5 -29t-51 -22.5t-63.5 -9q-73 0 -117.5 40.5t-44.5 121.5q0 63 21.5 118t59.5 96t90 64.5t112 23.5q105 0 160.5 -60
t55.5 -178q0 -96 -27.5 -183t-78.5 -153t-123.5 -105.5t-162.5 -39.5zM274 149q30 0 55 13t43 35.5t28 52t10 62.5q0 49 -23.5 76t-65.5 27q-30 0 -54 -16t-40.5 -41t-25 -56.5t-8.5 -63.5q0 -43 20 -66t61 -23z" />
    <glyph glyph-name="one.dnom" horiz-adv-x="312" 
d="M2 56h96l43 203l-86 -37l22 67l102 53h60l-61 -286h80l-18 -56h-244z" />
    <glyph glyph-name="one.osf" horiz-adv-x="404" 
d="M218 366l-172 -83l38 118l201 106h108l-108 -507h-145z" />
    <glyph glyph-name="seven.dnom" horiz-adv-x="324" 
d="M225 281h-172l19 61h253l-13 -58l-187 -284h-82z" />
    <glyph glyph-name="seven.osf" horiz-adv-x="608" 
d="M432 394h-352l36 113h493l-24 -111l-374 -588h-147z" />
    <glyph glyph-name="six.dnom" horiz-adv-x="312" 
d="M131 -10q-54 0 -80.5 32.5t-26.5 90.5q0 48 13.5 91t39 75.5t61 52t80.5 19.5q19 0 33 -3t23 -6q11 -5 18 -10l-7 -63q-7 7 -16 12t-21.5 8.5t-29.5 3.5q-34 0 -63.5 -27t-42.5 -77q12 14 33 25.5t48 11.5q39 0 60 -22t21 -62q0 -32 -11.5 -60t-31 -48.5t-45.5 -32
t-55 -11.5zM138 46q15 0 26 8t18.5 20t11 27t3.5 30q0 42 -36 42q-26 0 -43.5 -23.5t-17.5 -56.5q0 -22 10 -34.5t28 -12.5z" />
    <glyph glyph-name="six.osf" 
d="M276 -10q-104 0 -159.5 61t-55.5 182q0 96 27.5 185t78.5 157t124 109t164 41q39 0 67 -6t47 -14q21 -9 35 -20l-14 -116q-14 13 -33 24q-18 10 -42 17t-58 7q-35 0 -71 -13.5t-68 -43t-57.5 -76t-39.5 -113.5q9 14 25 30t39 29.5t52 23t63 9.5q73 0 116 -41t43 -121
q0 -63 -21 -119.5t-59 -99t-89.5 -67.5t-113.5 -25zM289 90q31 0 55.5 17t41 44t25 60t8.5 65q0 45 -20.5 68.5t-60.5 23.5q-29 0 -54.5 -13.5t-44 -36t-29 -53t-10.5 -65.5q0 -51 24 -80.5t65 -29.5z" />
    <glyph glyph-name="three.dnom" horiz-adv-x="312" 
d="M120 -10q-31 0 -52 6t-35 13q-15 8 -25 19l4 62q14 -11 31 -20q15 -8 35 -14t45 -6q32 0 49 17.5t17 43.5q0 35 -41 35h-60l11 55h58q23 0 40.5 16t17.5 43q0 32 -41 32q-25 0 -47.5 -6t-39.5 -13q-20 -9 -37 -20l17 62q16 11 36 19q18 8 41 13.5t52 5.5q49 0 75 -21
t26 -57q0 -20 -6.5 -36.5t-16.5 -29t-21.5 -21t-22.5 -14.5q15 -6 28 -20.5t13 -40.5q0 -28 -11.5 -51t-32 -39t-48 -24.5t-59.5 -8.5z" />
    <glyph glyph-name="three.osf" 
d="M209 -202q-61 0 -104 11t-70 25q-31 16 -51 36l11 119q25 -22 59 -40q30 -16 69.5 -27.5t90.5 -11.5q65 0 102.5 36t37.5 92q0 37 -24 55t-68 18h-115l21 102h110q28 0 52 9.5t42 26t28 39.5t10 49q0 32 -22 50.5t-70 18.5t-91 -12t-76 -26q-38 -17 -71 -39l30 115
q32 20 71 37q36 14 80.5 25t99.5 11q98 0 150 -40t52 -111q0 -36 -12.5 -67.5t-33 -57t-48 -44.5t-57.5 -32q14 -4 30.5 -12.5t31 -23t24.5 -36t10 -52.5q0 -56 -24 -100.5t-65 -76.5t-95 -49t-115 -17z" />
    <glyph glyph-name="two.dnom" horiz-adv-x="312" 
d="M-4 10q10 45 36.5 77t76.5 63l31 19q32 19 53 39t21 49q0 17 -9.5 26t-32.5 9q-25 0 -47.5 -6t-39.5 -13q-19 -9 -36 -20l18 63q15 10 35 19q18 7 41 12.5t52 5.5q48 0 74.5 -21t26.5 -62q0 -25 -8.5 -45.5t-22.5 -37t-32.5 -30t-38.5 -25.5l-33 -19q-29 -17 -45.5 -31
t-24.5 -27h167l-17 -55h-247z" />
    <glyph glyph-name="two.osf" 
d="M7 23q9 41 29 72t47.5 55t62 40.5t71.5 27.5l64 20q28 9 53.5 18.5t44.5 22.5t30 30.5t11 42.5q0 60 -97 60q-50 0 -93.5 -11.5t-76.5 -25.5q-38 -17 -70 -38l30 110q32 20 72 36q37 14 82.5 24.5t101.5 10.5q100 0 152 -34.5t52 -106.5q0 -42 -15.5 -74t-43 -56
t-64.5 -40.5t-80 -26.5l-65 -16q-46 -11 -79.5 -28t-49.5 -38h352l-33 -98h-492z" />
    <glyph glyph-name="zero.dnom" horiz-adv-x="312" 
d="M118 -10q-51 0 -75 29t-24 83q0 47 11 92.5t33.5 80.5t55.5 56.5t76 21.5q51 0 74.5 -28.5t23.5 -80.5q0 -48 -11 -93.5t-33 -81t-54.5 -57.5t-76.5 -22zM130 50q20 0 35.5 22t26 52.5t16.5 64t6 56.5q0 49 -32 49q-20 0 -35.5 -21.5t-26.5 -52t-16.5 -63.5t-5.5 -57
q0 -50 32 -50z" />
    <glyph glyph-name="zero.osf" 
d="M248 -10q-103 0 -153.5 49.5t-50.5 137.5q0 74 22 136.5t63.5 107.5t100.5 70.5t134 25.5q104 0 153 -47t49 -134q0 -75 -21.5 -138t-62.5 -109.5t-100 -72.5t-134 -26zM268 79q38 0 67.5 25t49.5 63t30 83.5t10 86.5q0 48 -21 69.5t-62 21.5q-39 0 -68.5 -24.5
t-49.5 -62.5t-30 -83.5t-10 -87.5q0 -48 21 -69.5t63 -21.5z" />
    </font>
</defs>
</svg>
