<?xml version="1.0" standalone="no"?>
<!DOCTYPE svg PUBLIC "-//W3C//DTD SVG 1.1//EN" "http://www.w3.org/Graphics/SVG/1.1/DTD/svg11.dtd" >
<svg xmlns="http://www.w3.org/2000/svg" width="100%" height="100%">
<metadata>
Created Thu Feb 25 12:50:09 2016 by PreussType
Copyright (c) 2016 by Hubert Jocham. All rights reserved.
</metadata>
<defs>
<font id="HamburgSans-Bold" horiz-adv-x="628" >
  <font-face 
    font-family="HamburgSans"
    font-weight="700"
    font-stretch="normal"
    units-per-em="1000"
    panose-1="2 11 8 3 4 0 0 2 0 3"
    ascent="800"
    descent="-200"
    x-height="508"
    cap-height="715"
    bbox="-452 -300 963 934"
    underline-thickness="50"
    underline-position="-50"
    unicode-range="U+000D-FB02"
  />
<missing-glyph horiz-adv-x="500" 
d="M410 -250h-317v1000h317v-1000zM168 683v-33h65v-37h-66v-33h166v33h-66v37h66v33h-165zM167 554v-104h166v34h-66v70h-100zM233 484h-33v36h33v-36zM167 423v-33h66v-37h-66v-33h100v70h66v33h-166zM300 363v-66h-133v-34h166v100h-33zM233 241v-56h34v23h33v-47h-100
v80h-33v-113h166v113h-100zM167 68v-113h166v113h-166zM300 -12h-100v47h100v-47zM167 -68v-33h70l-70 -47v-33h166v33h-102l70 47h32v33h-166z" />
    <glyph glyph-name="fi" unicode="fi" horiz-adv-x="637" 
d="M242 508h332v-508h-143v419h-189v-419h-142v419h-72v89h72v36q0 80 58 130.5t182 50.5q55 0 97 -7t71 -16q33 -10 58 -23l9 -97q-24 15 -55 27q-28 11 -64 19t-82 8q-73 0 -102.5 -23.5t-29.5 -65.5v-39z" />
    <glyph glyph-name="fl" unicode="fl" horiz-adv-x="642" 
d="M346 725q57 0 101 -8t75 -17q35 -11 62 -25v-675h-142v627q-10 4 -22 8q-11 3 -24.5 5.5t-30.5 2.5q-69 0 -96 -24.5t-27 -72.5v-38h124l11 -89h-135v-419h-142v419h-69v89h69v36q0 83 60 132t186 49z" />
    <glyph glyph-name=".notdef" horiz-adv-x="500" 
d="M410 -250h-317v1000h317v-1000zM168 683v-33h65v-37h-66v-33h166v33h-66v37h66v33h-165zM167 554v-104h166v34h-66v70h-100zM233 484h-33v36h33v-36zM167 423v-33h66v-37h-66v-33h100v70h66v33h-166zM300 363v-66h-133v-34h166v100h-33zM233 241v-56h34v23h33v-47h-100
v80h-33v-113h166v113h-100zM167 68v-113h166v113h-166zM300 -12h-100v47h100v-47zM167 -68v-33h70l-70 -47v-33h166v33h-102l70 47h32v33h-166z" />
    <glyph glyph-name=".null" horiz-adv-x="0" 
 />
    <glyph glyph-name=".null" horiz-adv-x="0" 
 />
    <glyph glyph-name="nonmarkingreturn" unicode="&#xd;" horiz-adv-x="250" 
 />
    <glyph glyph-name="space" unicode=" " horiz-adv-x="269" 
 />
    <glyph glyph-name="exclam" unicode="!" horiz-adv-x="280" 
d="M67 715h145l-13 -486h-120zM70 145h137v-145h-137v145z" />
    <glyph glyph-name="quotedbl" unicode="&#x22;" horiz-adv-x="428" 
d="M64 715h118l-11 -251h-97zM243 715h121l-11 -251h-101z" />
    <glyph glyph-name="numbersign" unicode="#" horiz-adv-x="626" 
d="M480 406l-12 -94h101v-96h-113l-26 -216h-114l27 216h-96l-27 -216h-114l27 216h-85v96h97l12 94h-101v95h113l26 214h113l-26 -214h97l26 214h113l-26 -214h86v-95h-98zM367 406h-97l-11 -94h96z" />
    <glyph glyph-name="dollar" unicode="$" 
d="M578 211q0 -83 -53 -139.5t-161 -68.5v-144h-103v143q-49 4 -86 14t-63 21q-31 13 -53 27l-11 130q32 -25 71 -45q36 -18 81 -31.5t100 -13.5q62 0 92.5 22.5t30.5 64.5q0 41 -30.5 60.5t-84.5 36.5l-77 22q-39 12 -71.5 28t-55.5 39t-36 54.5t-13 73.5q0 81 50.5 137.5
t155.5 69.5v138h103v-137q48 -4 82.5 -13t57.5 -19q27 -11 46 -24l15 -140q-28 26 -65 46q-33 19 -76 32.5t-98 13.5q-60 0 -88.5 -23.5t-28.5 -63.5q0 -38 27.5 -58t73.5 -34l78 -21q42 -12 76.5 -28t60 -39t39.5 -55t14 -76z" />
    <glyph glyph-name="percent" unicode="%" horiz-adv-x="654" 
d="M170 361q-69 0 -100.5 47.5t-31.5 133.5q0 89 33 136t100 47q69 0 99.5 -47.5t30.5 -134.5q0 -88 -32.5 -135t-98.5 -47zM463 715h90l-360 -715h-91zM170 421q25 0 37 29.5t12 92.5q0 64 -11.5 93t-37.5 29t-38 -29t-12 -93q0 -63 12 -92.5t38 -29.5zM484 -9
q-69 0 -100 48t-31 133q0 89 33 136t100 47q69 0 99.5 -47.5t30.5 -134.5q0 -88 -33 -135t-99 -47zM484 52q26 0 37.5 29t11.5 93q0 63 -11 92t-37 29t-38 -29t-12 -92q0 -64 11.5 -93t37.5 -29z" />
    <glyph glyph-name="ampersand" unicode="&#x26;" horiz-adv-x="796" 
d="M757 96l-16 -93q-8 -4 -19 -7q-9 -2 -22 -4t-30 -2q-36 0 -78.5 15.5t-88.5 44.5q-46 -29 -100.5 -44.5t-116.5 -15.5q-52 0 -95 13t-74.5 37.5t-49 61t-17.5 83.5q0 40 12.5 70t34.5 52.5t50.5 39.5t59.5 31q-17 37 -26 73t-9 71q0 41 13.5 76.5t39.5 61.5t63.5 40.5
t85.5 14.5q88 0 135.5 -44t47.5 -114q0 -45 -18 -76.5t-47 -54.5t-65.5 -39.5t-73.5 -31.5q32 -50 74.5 -96t91.5 -82q42 45 65.5 104t23.5 122q0 16 -1 29.5t-3 22.5q-2 11 -4 20l104 -20q1 -8 3 -16q1 -8 1.5 -16.5t0.5 -17.5q0 -74 -28.5 -145.5t-81.5 -130.5
q32 -16 64.5 -24.5t64.5 -8.5h29zM294 530q0 -50 25 -108q26 11 48.5 23t39.5 27.5t27 35t10 44.5q0 36 -17.5 57.5t-51.5 21.5q-39 0 -60 -28t-21 -73zM311 88q61 0 110 21q-49 41 -93 89.5t-79 102.5q-26 -20 -41.5 -45t-15.5 -62q0 -48 32 -77t87 -29z" />
    <glyph glyph-name="quotesingle" unicode="'" horiz-adv-x="252" 
d="M64 715h124l-11 -251h-103z" />
    <glyph glyph-name="parenleft" unicode="(" horiz-adv-x="346" 
d="M225 -123q-27 26 -57 67t-55.5 95t-42 119.5t-16.5 138.5q0 74 16.5 138.5t42 118t55.5 94.5t57 67h93q-20 -23 -41.5 -63t-39 -93.5t-29 -119.5t-11.5 -142q0 -77 11.5 -143.5t29 -120t39 -93.5t41.5 -63h-93z" />
    <glyph glyph-name="parenright" unicode=")" horiz-adv-x="346" 
d="M28 -123q20 23 41.5 63t39 93.5t29 120t11.5 143.5q0 76 -11.5 142t-29 119.5t-39 93.5t-41.5 63h93q27 -26 57 -67t55.5 -94.5t42 -118t16.5 -138.5q0 -73 -16.5 -138.5t-42 -119.5t-55.5 -95t-57 -67h-93z" />
    <glyph glyph-name="asterisk" unicode="*" horiz-adv-x="538" 
d="M115 418l90 94l-127 27l32 102l119 -56l-15 130h107l-16 -131l121 57l31 -102l-127 -26l89 -95l-89 -62l-62 112l-64 -112z" />
    <glyph glyph-name="plus" unicode="+" 
d="M263 227h-184v103h184v184h101v-184h185v-103h-185v-185h-101v185z" />
    <glyph glyph-name="comma" unicode="," horiz-adv-x="259" 
d="M73 144h144l-95 -275h-99z" />
    <glyph glyph-name="hyphen" unicode="-" horiz-adv-x="387" 
d="M54 332h279v-107h-279v107z" />
    <glyph glyph-name="period" unicode="." horiz-adv-x="259" 
d="M61 154h137v-154h-137v154z" />
    <glyph glyph-name="slash" unicode="/" horiz-adv-x="461" 
d="M304 725h120l-266 -735h-121z" />
    <glyph glyph-name="zero" unicode="0" 
d="M314 -10q-128 0 -192.5 92t-64.5 274q0 186 67 277.5t193 91.5q132 0 193 -92.5t61 -273.5q0 -187 -66 -278t-191 -91zM314 97q56 0 84 59.5t28 201.5q0 140 -27 200t-84 60q-56 0 -84.5 -60t-28.5 -200q0 -142 27.5 -201.5t84.5 -59.5z" />
    <glyph glyph-name="one" unicode="1" 
d="M58 100h201v470l-159 -79l13 118l183 106h109v-615h170l-8 -100h-500z" />
    <glyph glyph-name="two" unicode="2" 
d="M579 100l-12 -100h-504v18q0 46 13.5 85.5t37 74t55.5 64.5t69 58l56 41q55 41 87 79.5t32 93.5q0 45 -26 72.5t-85 27.5q-51 0 -93.5 -13t-73.5 -28q-36 -19 -65 -42l11 117q29 22 67 39q35 15 79.5 26.5t102.5 11.5q115 0 175 -52.5t60 -151.5q0 -42 -12 -77.5
t-32.5 -66t-48.5 -56.5t-61 -48l-58 -39q-44 -29 -80.5 -63.5t-48.5 -70.5h355z" />
    <glyph glyph-name="three" unicode="3" 
d="M443 367q20 -5 42.5 -16.5t41.5 -31t31.5 -48.5t12.5 -70q0 -47 -19 -86t-54 -66.5t-84 -43t-108 -15.5q-62 0 -107 11.5t-75 26.5q-35 16 -58 37l-10 117q30 -23 66 -41q34 -17 76.5 -29t94.5 -12q61 0 92.5 31t31.5 79q0 52 -31.5 76t-83.5 24h-118v102h112
q48 0 79 27.5t31 78.5q0 45 -27 71t-84 26q-49 0 -91 -12.5t-73 -26.5q-36 -18 -65 -40l11 114q28 21 65 38q34 15 77.5 26t99.5 11q112 0 174 -50t62 -139q0 -35 -11 -62.5t-27.5 -48.5t-36.5 -35t-37 -23z" />
    <glyph glyph-name="four" unicode="4" 
d="M591 158h-91v-158h-142v158h-318v105l266 452h194v-447h91v-110zM358 268v301l-175 -301h175z" />
    <glyph glyph-name="five" unicode="5" 
d="M274 464q146 -17 222 -75.5t76 -167.5q0 -52 -18.5 -94.5t-53 -73t-83 -47t-107.5 -16.5q-62 0 -107.5 11t-75.5 25q-36 15 -61 35l-11 119q32 -22 70 -39q35 -17 77.5 -28.5t93.5 -11.5q63 0 91.5 31.5t28.5 81.5q0 39 -16 66t-47 45.5t-74.5 29.5t-99.5 17l-89 11
l50 332h385l10 -117h-286l-17 -128z" />
    <glyph glyph-name="six" unicode="6" 
d="M373 463q44 0 80.5 -13.5t63 -41.5t41 -70t14.5 -98q0 -57 -18.5 -103t-51 -79t-76 -50.5t-94.5 -17.5q-127 0 -199.5 89t-72.5 267q0 91 22.5 161.5t62.5 119t96.5 73.5t123.5 25q40 0 70 -6t50 -14q24 -9 41 -20l10 -116q-16 13 -38 24q-20 10 -46.5 17t-60.5 7
q-36 0 -69 -13.5t-58 -42t-40.5 -74t-17.5 -109.5q8 12 22 27t35 28t48.5 21.5t61.5 8.5zM329 90q46 0 75 37.5t29 106.5q0 65 -27.5 99.5t-78.5 34.5q-48 0 -81 -35t-33 -93q0 -69 33 -109.5t83 -40.5z" />
    <glyph glyph-name="seven" unicode="7" 
d="M570 715v-112l-261 -603h-149l255 601h-360l11 114h504z" />
    <glyph glyph-name="eight" unicode="8" 
d="M314 -10q-58 0 -106 13t-83 38.5t-54.5 63t-19.5 86.5q0 41 13.5 69.5t33.5 48.5t43 32.5t42 19.5q-17 7 -36.5 19.5t-36 32.5t-27.5 48t-11 67q0 92 64.5 144.5t177.5 52.5q114 0 178 -50t64 -141q0 -37 -11 -64.5t-28 -47t-36 -32.5t-36 -21q19 -7 42 -19t43 -32.5
t33.5 -50t13.5 -72.5q0 -49 -19.5 -87t-54.5 -64t-83.5 -40t-105.5 -14zM317 409q39 0 67.5 30.5t28.5 79.5q0 48 -25 76t-74 28q-48 0 -73.5 -28.5t-25.5 -76.5q0 -52 29 -80.5t73 -28.5zM314 92q55 0 85.5 29.5t30.5 81.5q0 54 -33 81.5t-82 27.5t-83 -27.5t-34 -81.5
q0 -52 30.5 -81.5t85.5 -29.5z" />
    <glyph glyph-name="nine" unicode="9" 
d="M295 725q130 0 201.5 -88.5t71.5 -267.5q0 -91 -22.5 -161.5t-63 -119t-96.5 -73.5t-124 -25q-40 0 -70 6t-50 14q-23 9 -40 20l-11 116q17 -14 39 -24q20 -10 46.5 -17.5t60.5 -7.5q36 0 69 13.5t58 42.5t40.5 74.5t17.5 109.5q-7 -12 -21.5 -27t-35.5 -28t-48.5 -22
t-62.5 -9q-43 0 -79.5 14t-63 42t-41 70t-14.5 98q0 57 18.5 103.5t51 79t76 50t93.5 17.5zM300 346q24 0 44.5 9.5t36 26.5t24.5 40.5t9 52.5q0 69 -31 109.5t-83 40.5q-46 0 -74.5 -37t-28.5 -108q0 -65 26.5 -99.5t76.5 -34.5z" />
    <glyph glyph-name="colon" unicode=":" horiz-adv-x="259" 
d="M61 507h137v-153h-137v153zM61 154h137v-154h-137v154z" />
    <glyph glyph-name="semicolon" unicode=";" horiz-adv-x="260" 
d="M66 507h137v-153h-137v153zM65 144h144l-90 -275h-100z" />
    <glyph glyph-name="less" unicode="&#x3c;" 
d="M79 219v117l470 178v-109l-344 -127l344 -124v-109z" />
    <glyph glyph-name="equal" unicode="=" 
d="M79 418h470v-103h-470v103zM79 241h470v-102h-470v102z" />
    <glyph glyph-name="greater" unicode="&#x3e;" horiz-adv-x="627" 
d="M80 154l345 124l-345 127v109l472 -178v-117l-472 -174v109z" />
    <glyph glyph-name="question" unicode="?" horiz-adv-x="457" 
d="M141 229q-3 9 -5 19q-3 10 -4.5 20.5t-1.5 21.5q0 32 11.5 56t29.5 44t38 37.5t38 36t29.5 39.5t11.5 48q0 32 -19 50.5t-61 18.5q-40 0 -72.5 -9t-56.5 -20q-28 -13 -51 -30l11 112q23 15 53 26q27 11 62.5 18.5t82.5 7.5q91 0 138.5 -44t47.5 -118q0 -40 -12.5 -70
t-32 -54t-41.5 -43.5t-41.5 -39.5t-32 -42.5t-12.5 -51.5v-33h-110zM126 145h137v-145h-137v145z" />
    <glyph glyph-name="at" unicode="@" horiz-adv-x="938" 
d="M487 -79q-91 0 -169.5 25.5t-136 76t-90.5 124.5t-33 171q0 98 33 173.5t90.5 127t135.5 78.5t168 27q97 0 171 -29t123.5 -77.5t75 -111.5t25.5 -131q0 -61 -17 -110.5t-47 -84.5t-70.5 -53.5t-87.5 -18.5q-41 0 -69 16.5t-38 47.5q-13 -19 -33 -33q-18 -14 -44.5 -24
t-65.5 -10q-60 0 -94.5 31t-34.5 82q0 33 12.5 59t42.5 45.5t79.5 32t122.5 18.5v26q0 29 -14.5 45t-56.5 16q-35 0 -65 -8.5t-53 -17.5q-26 -12 -48 -27l8 85q23 16 51 28q26 12 58.5 20.5t73.5 8.5q83 -1 119.5 -37t36.5 -108v-183q0 -19 9.5 -31t26.5 -12q40 0 68.5 46.5
t28.5 134.5q0 59 -19.5 109.5t-57 88.5t-93 59.5t-127.5 21.5q-65 0 -121.5 -20.5t-98.5 -60.5t-66 -98.5t-24 -135.5q0 -85 25.5 -144.5t69.5 -97.5t102.5 -55.5t123.5 -17.5q75 0 129 12t90 27q42 16 70 38l-16 -80q-28 -24 -69 -42q-37 -17 -88 -29.5t-122 -12.5z
M442 181q46 0 70 28.5t24 65.5v32q-66 -6 -105 -22t-39 -56q0 -48 50 -48z" />
    <glyph glyph-name="A" unicode="A" horiz-adv-x="725" 
d="M473 198h-237l-57 -198h-150l238 715h187l242 -715h-163zM445 291l-94 309l-88 -309h182z" />
    <glyph glyph-name="B" unicode="B" horiz-adv-x="667" 
d="M471 374q24 -4 49.5 -15t46.5 -31t34.5 -51.5t13.5 -76.5q0 -49 -17.5 -86.5t-48 -62.5t-71 -38t-87.5 -13h-323v715h314q44 0 82 -10.5t65.5 -32.5t43 -55.5t15.5 -80.5q0 -34 -10.5 -61.5t-27.5 -47.5t-38 -33t-41 -20zM439 518q0 103 -110 103h-111v-213h116
q51 0 78 30t27 80zM344 96q54 0 85.5 28.5t31.5 86.5q0 59 -32 85t-88 26h-123v-226h126z" />
    <glyph glyph-name="C" unicode="C" horiz-adv-x="670" 
d="M365 -9q-63 0 -120 21t-100 65.5t-68 114t-25 165.5q0 97 25.5 166.5t69.5 114.5t102.5 66t125.5 21q60 0 103.5 -9t72.5 -20q33 -13 56 -30l16 -147q-25 25 -57 45q-30 18 -68.5 31.5t-88.5 13.5q-42 0 -77 -13.5t-60 -43t-39 -77t-14 -115.5q0 -69 15 -116.5
t41.5 -77.5t63.5 -43t80 -13q45 0 82 9t64 20q32 12 58 28l-13 -102q-25 -21 -61 -37q-32 -15 -77 -26t-107 -11z" />
    <glyph glyph-name="D" unicode="D" horiz-adv-x="717" 
d="M335 715q75 0 136 -21t104 -64.5t66.5 -109.5t23.5 -157q0 -93 -25 -161.5t-70 -113t-106.5 -66.5t-134.5 -22h-261v715h267zM313 96q89 0 140 62t51 201q0 71 -13 120t-37.5 80.5t-60 45.5t-79.5 14h-88v-523h87z" />
    <glyph glyph-name="E" unicode="E" horiz-adv-x="594" 
d="M552 100l-13 -100h-471v715h467l12 -100h-323v-205h282v-90h-282v-220h328z" />
    <glyph glyph-name="F" unicode="F" horiz-adv-x="570" 
d="M227 402h277v-90h-277v-312h-159v715h456l11 -101h-308v-212z" />
    <glyph glyph-name="G" unicode="G" horiz-adv-x="719" 
d="M379 -9q-68 0 -127.5 21t-104 65t-70 113.5t-25.5 166.5t26 166.5t71.5 114.5t107 66t132.5 21q64 0 109.5 -9.5t75.5 -21.5q35 -14 59 -31l17 -143q-26 25 -59 45q-31 18 -71.5 31t-92.5 13q-46 0 -84.5 -13.5t-66 -43t-42.5 -77t-16 -115.5q-1 -71 15 -120.5t44.5 -80
t67 -44.5t83.5 -14q20 0 35.5 2t27.5 4q13 3 23 6v152h-122v85h265v-286q-30 -20 -72 -36q-38 -15 -88 -26t-118 -11z" />
    <glyph glyph-name="H" unicode="H" horiz-adv-x="715" 
d="M647 715v-715h-159v320h-261v-320h-159v715h159v-305h261v305h159z" />
    <glyph glyph-name="I" unicode="I" horiz-adv-x="296" 
d="M68 715h161v-715h-161v715z" />
    <glyph glyph-name="J" unicode="J" horiz-adv-x="395" 
d="M145 -9q-26 0 -44.5 3t-30.5 7q-15 4 -25 10l-14 103q9 -4 21 -7q10 -3 22.5 -5t27.5 -2q33 0 51.5 19t18.5 65v531h158v-534q0 -51 -13.5 -87t-38.5 -59t-58.5 -33.5t-74.5 -10.5z" />
    <glyph glyph-name="K" unicode="K" horiz-adv-x="690" 
d="M312 301l-83 -101v-200h-161v715h160l1 -365l250 365h173l-235 -286l241 -429h-184z" />
    <glyph glyph-name="L" unicode="L" horiz-adv-x="568" 
d="M532 100l-11 -100h-453v715h157v-615h307z" />
    <glyph glyph-name="M" unicode="M" horiz-adv-x="860" 
d="M793 715v-715h-148v571l-167 -571h-130l-163 570v-570h-118v715h210l152 -535l152 535h212z" />
    <glyph glyph-name="N" unicode="N" horiz-adv-x="725" 
d="M658 715v-715h-199l-267 534v-534h-124v715h216l249 -523v523h125z" />
    <glyph glyph-name="O" unicode="O" horiz-adv-x="783" 
d="M389 -10q-75 0 -137 21.5t-106.5 66.5t-69 114.5t-24.5 166.5q0 95 25.5 164t71.5 114t108.5 66.5t136.5 21.5q75 0 137 -20t106.5 -64t69 -113.5t24.5 -167.5q0 -99 -26.5 -169t-73 -114.5t-108.5 -65.5t-134 -21zM391 86q41 0 73 15t54.5 47.5t34 84.5t11.5 127
q0 74 -11.5 125t-34 83t-54.5 46.5t-73 14.5q-40 0 -72 -15t-54 -47t-34 -83.5t-12 -124.5q0 -74 12 -126t34 -84.5t54 -47.5t72 -15z" />
    <glyph glyph-name="P" unicode="P" horiz-adv-x="649" 
d="M389 715q100 0 158 -48t58 -148q0 -47 -16 -84t-45.5 -63t-69.5 -39.5t-88 -13.5l-162 -1v-318h-156v715h321zM343 407q53 0 82 26t29 82q0 55 -29 80t-83 25h-118v-214z" />
    <glyph glyph-name="Q" unicode="Q" horiz-adv-x="783" 
d="M473 7q23 -38 50.5 -53.5t72.5 -15.5q23 0 41.5 3t32.5 7q16 4 29 10l-16 -93q-10 -9 -24 -16t-32 -11.5t-44 -4.5q-68 0 -122.5 38t-89.5 129q-71 3 -129.5 25.5t-100.5 66.5t-65.5 111.5t-23.5 160.5q0 94 25.5 162t71.5 112.5t108.5 65.5t136.5 21q75 0 137 -20
t106.5 -63t69 -111.5t24.5 -165.5q0 -83 -19.5 -145.5t-54 -106t-81.5 -69.5t-103 -37zM219 364q0 -73 11.5 -124.5t34 -83t54.5 -46t72 -14.5q41 0 73.5 14.5t54.5 46.5t33.5 83t11.5 125q0 72 -11.5 122.5t-33.5 81.5t-54.5 45t-73.5 14q-40 0 -72 -14.5t-54.5 -46
t-34 -81.5t-11.5 -122z" />
    <glyph glyph-name="R" unicode="R" horiz-adv-x="667" 
d="M308 313h-84v-313h-156v715h332q98 0 157.5 -48.5t59.5 -146.5q0 -80 -45.5 -129t-118.5 -64l185 -327h-164zM224 405h130q48 0 80 28.5t32 80.5q0 54 -29 80.5t-83 26.5h-130v-216z" />
    <glyph glyph-name="S" unicode="S" horiz-adv-x="625" 
d="M310 -9q-60 0 -106.5 10t-78.5 23q-38 14 -66 32l-12 134q32 -26 71 -46q36 -19 81 -33t100 -14q65 0 96 23.5t31 65.5t-31 62.5t-88 37.5l-77 23q-39 12 -71 28.5t-55.5 40.5t-36 56t-12.5 75q0 47 15.5 86.5t47.5 68t81 45t115 16.5q60 0 104 -9.5t74 -20.5
q34 -13 57 -30l15 -143q-28 26 -64 47q-34 19 -77 33t-98 14q-60 0 -89 -24t-29 -65q0 -39 27.5 -59.5t74.5 -34.5l78 -22q42 -12 77 -28.5t60.5 -40.5t39.5 -57t14 -78q0 -48 -17 -87.5t-50.5 -68t-83.5 -44.5t-117 -16z" />
    <glyph glyph-name="T" unicode="T" horiz-adv-x="652" 
d="M406 619v-619h-159v619h-210l9 96h560l10 -96h-210z" />
    <glyph glyph-name="U" unicode="U" horiz-adv-x="681" 
d="M336 -10q-133 0 -203 63t-70 188v474h162v-472q0 -67 35 -98.5t97 -31.5q60 0 93.5 32t33.5 98v472h135v-470q0 -126 -74.5 -190.5t-208.5 -64.5z" />
    <glyph glyph-name="V" unicode="V" horiz-adv-x="704" 
d="M675 715l-231 -715h-185l-230 715h179l161 -570l157 570h149z" />
    <glyph glyph-name="W" unicode="W" horiz-adv-x="981" 
d="M952 715l-169 -715h-172l-124 504l-123 -504h-174l-161 715h175l100 -567l134 567h134l132 -569l102 569h146z" />
    <glyph glyph-name="X" unicode="X" horiz-adv-x="697" 
d="M664 0h-190l-142 275l-144 -275h-156l199 358l-197 357h190l138 -272l140 272h157l-197 -353z" />
    <glyph glyph-name="Y" unicode="Y" horiz-adv-x="695" 
d="M666 715l-241 -407v-308h-159v305l-237 410h187l149 -295l148 295h153z" />
    <glyph glyph-name="Z" unicode="Z" horiz-adv-x="638" 
d="M601 98l-15 -98h-540v98l350 519h-351l10 98h525v-98l-345 -519h366z" />
    <glyph glyph-name="bracketleft" unicode="[" horiz-adv-x="364" 
d="M68 715h251l11 -93h-125v-653h125l-11 -92h-251v838z" />
    <glyph glyph-name="backslash" unicode="\" horiz-adv-x="457" 
d="M37 725h118l264 -735h-118z" />
    <glyph glyph-name="bracketright" unicode="]" horiz-adv-x="364" 
d="M35 -31h124v653h-124l11 93h250v-838h-250z" />
    <glyph glyph-name="asciicircum" unicode="^" horiz-adv-x="633" 
d="M260 509h116l175 -463h-112l-122 336l-124 -336h-111z" />
    <glyph glyph-name="underscore" unicode="_" horiz-adv-x="516" 
d="M7 -63h502v-86h-502v86z" />
    <glyph glyph-name="grave" unicode="`" horiz-adv-x="516" 
d="M86 699h154l113 -137h-111z" />
    <glyph glyph-name="a" unicode="a" horiz-adv-x="553" 
d="M292 517q55 0 93 -13t62 -36t35 -55t11 -70v-343h-130v64q-26 -33 -66.5 -53.5t-97.5 -20.5q-76 0 -116.5 37.5t-40.5 101.5q0 45 21 75.5t60 51t95 32t126 17.5l14 1v30q0 38 -21 57.5t-73 19.5q-40 0 -76 -9.5t-64 -21.5q-33 -14 -61 -31l14 104q24 17 56 31
q29 13 68 22t91 9zM245 84q27 0 48.5 9.5t35.5 25t21.5 36.5t7.5 44v30l-8 -1q-37 -4 -68.5 -9t-54.5 -14.5t-35.5 -25t-12.5 -39.5q0 -56 66 -56z" />
    <glyph glyph-name="b" unicode="b" horiz-adv-x="589" 
d="M349 517q86 0 139.5 -66.5t53.5 -194.5q0 -65 -15.5 -114.5t-42.5 -83t-63 -50.5t-78 -17q-51 0 -86.5 20t-58.5 55v-66h-135v715h140v-272q24 34 60 54t86 20zM301 96q46 0 69.5 37.5t23.5 119.5q0 81 -21 120t-70 39q-41 0 -70.5 -36.5t-29.5 -122.5t28.5 -121.5
t69.5 -35.5z" />
    <glyph glyph-name="c" unicode="c" horiz-adv-x="503" 
d="M278 -9q-49 0 -91.5 14.5t-73.5 46t-48.5 81t-17.5 119.5q0 69 18.5 118.5t51.5 82t77.5 48t96.5 15.5q39 0 68.5 -6t49.5 -14q23 -9 40 -20l12 -128q-17 17 -39 30q-20 12 -45.5 20.5t-57.5 8.5q-59 0 -93 -36t-34 -117t35 -116.5t95 -35.5q31 0 56.5 5.5t43.5 12.5
q22 7 39 17l-13 -95q-17 -14 -42 -25q-22 -11 -53.5 -18.5t-74.5 -7.5z" />
    <glyph glyph-name="d" unicode="d" horiz-adv-x="589" 
d="M526 715v-715h-135v71q-25 -36 -62.5 -58t-88.5 -22q-86 0 -139.5 66t-53.5 195q0 65 15.5 114.5t42.5 83t63 50.5t78 17q48 0 82.5 -18.5t57.5 -49.5v266h140zM285 96q21 0 39.5 8.5t32 27.5t21.5 49.5t8 73.5t-7.5 73t-21 48.5t-31.5 27t-38 8.5q-47 0 -70 -38
t-23 -119t21 -120t69 -39z" />
    <glyph glyph-name="e" unicode="e" horiz-adv-x="545" 
d="M189 235q7 -71 46 -104t109 -33q33 0 61 5.5t49 12.5q25 7 45 17l-12 -91q-19 -14 -46 -25q-25 -11 -58.5 -18.5t-79.5 -7.5q-58 0 -105 15t-80.5 47t-52 81.5t-18.5 119.5q0 66 17.5 115t49 81.5t75.5 49t98 16.5q99 0 156 -54t57 -169q0 -11 -0.5 -21.5t-0.5 -18.5
q0 -9 -1 -18h-309zM291 428q-89 0 -101 -120h194q0 120 -93 120z" />
    <glyph glyph-name="f" unicode="f" horiz-adv-x="407" 
d="M384 419h-142v-419h-142v419h-69v89h69v49q0 75 43 120t127 45q54 0 82.5 -11t29.5 -11l7 -89q-10 6 -23 10q-11 4 -25 7t-31 3q-30 0 -49 -15t-19 -56v-52h134z" />
    <glyph glyph-name="g" unicode="g" horiz-adv-x="589" 
d="M526 507v-505q0 -38 -12 -74t-40.5 -64.5t-76 -46t-119.5 -17.5q-48 0 -83.5 9t-59.5 20q-28 13 -48 29l-17 104q24 -17 53 -30q27 -12 61 -20.5t76 -8.5q66 0 96 27t30 78v75q-24 -32 -60.5 -51.5t-86.5 -19.5q-86 0 -139 63.5t-53 187.5q0 63 15.5 110.5t42 79.5
t62.5 48t78 16q51 0 87 -19.5t59 -52.5v62h135zM284 112q43 0 72.5 34.5t29.5 118.5q0 42 -7.5 71t-21 46.5t-32 25.5t-39.5 8q-47 0 -70.5 -36t-23.5 -115q0 -78 21 -115.5t71 -37.5z" />
    <glyph glyph-name="h" unicode="h" horiz-adv-x="576" 
d="M370 517q75 0 110.5 -40.5t35.5 -114.5v-362h-142v333q0 32 -14 52t-51 20q-42 0 -73 -31.5t-31 -98.5v-275h-142v715h142v-275q28 35 69.5 56t95.5 21z" />
    <glyph glyph-name="i" unicode="i" horiz-adv-x="268" 
d="M63 705h142v-126h-142v126zM63 507h142v-507h-142v507z" />
    <glyph glyph-name="j" unicode="j" horiz-adv-x="268" 
d="M62 705h144v-126h-144v126zM46 -202q-19 0 -33 2.5t-24 4.5q-11 4 -19 8l-10 90q6 -2 13 -3q6 -1 13 -2t15 -1q32 0 47 18t15 57v535h142v-534q0 -46 -12 -79t-33.5 -54.5t-50.5 -31.5t-63 -10z" />
    <glyph glyph-name="k" unicode="k" horiz-adv-x="557" 
d="M268 214l-63 -72v-142h-142v715h141l1 -448l170 240h153l-166 -187l172 -320h-159z" />
    <glyph glyph-name="l" unicode="l" horiz-adv-x="268" 
d="M63 715h142v-715h-142v715z" />
    <glyph glyph-name="m" unicode="m" horiz-adv-x="857" 
d="M655 517q73 0 107.5 -40.5t34.5 -114.5v-362h-140v332q0 32 -12.5 52t-46.5 20q-42 0 -70 -31t-28 -98v-275h-140v332q0 32 -13.5 52t-45.5 20q-42 0 -70 -31t-28 -98v-275h-140v507h134v-73q26 38 66.5 60.5t94.5 22.5q107 0 133 -88q26 40 67 64t97 24z" />
    <glyph glyph-name="n" unicode="n" horiz-adv-x="577" 
d="M370 517q76 0 111.5 -40.5t35.5 -114.5v-362h-143v332q0 32 -13.5 52t-49.5 20q-43 0 -74.5 -31t-31.5 -98v-275h-142v507h136v-76q27 39 70.5 62.5t100.5 23.5z" />
    <glyph glyph-name="o" unicode="o" horiz-adv-x="594" 
d="M299 -11q-55 0 -101 15t-79.5 47.5t-52.5 82.5t-19 120q0 69 19 118.5t53 81.5t80.5 47.5t100.5 15.5q55 0 100.5 -14t78 -45.5t50.5 -81.5t18 -121t-19 -121.5t-52 -82.5t-78.5 -47t-98.5 -15zM297 81q50 0 77.5 39.5t27.5 133.5t-27.5 132.5t-77.5 38.5t-77.5 -39
t-27.5 -132q0 -94 27.5 -133.5t77.5 -39.5z" />
    <glyph glyph-name="p" unicode="p" horiz-adv-x="589" 
d="M349 516q86 1 139.5 -65.5t53.5 -195.5q0 -65 -15.5 -114.5t-42.5 -83t-63 -50.5t-78 -17q-48 0 -83 18t-58 50v-249h-139v698h134v-70q25 36 62.5 57.5t89.5 21.5zM302 95q47 0 70.5 38t23.5 120q0 81 -21.5 119.5t-70.5 38.5q-43 0 -72.5 -36t-29.5 -122q0 -43 8 -73.5
t21.5 -49t31.5 -27t39 -8.5z" />
    <glyph glyph-name="q" unicode="q" horiz-adv-x="589" 
d="M526 507v-699h-139v256q-25 -34 -61 -54t-86 -20q-86 0 -139.5 66.5t-53.5 195.5q0 65 15.5 114.5t42.5 82.5t63 50t78 17q51 0 86.5 -20t58.5 -55v66h135zM286 95q43 0 72 36.5t29 122.5t-28 121.5t-71 35.5q-46 0 -69.5 -37.5t-23.5 -119.5q0 -81 21 -120t70 -39z" />
    <glyph glyph-name="r" unicode="r" horiz-adv-x="431" 
d="M405 376q-6 2 -14 4q-8 1 -18.5 2t-25.5 1q-28 0 -54 -11t-45.5 -33.5t-31 -55.5t-11.5 -77v-206h-142v507h137v-111q25 54 64 87.5t90 33.5q9 0 16 -1t12 -1q5 -2 9 -3z" />
    <glyph glyph-name="s" unicode="s" horiz-adv-x="511" 
d="M253 -10q-48 0 -83.5 7t-60.5 15q-28 10 -49 22l-13 116q24 -18 54 -33q27 -13 60.5 -23t73.5 -10q86 0 86 56q0 27 -20.5 39.5t-56.5 22.5l-55 13q-31 8 -56.5 18.5t-44 27t-28.5 40t-10 56.5q0 70 49.5 114.5t154.5 44.5q47 0 81 -6t57 -12q27 -9 45 -19l16 -115
q-23 16 -51 29q-25 12 -57 20.5t-71 8.5q-42 0 -61 -15t-19 -42q0 -26 19.5 -38.5t54.5 -21.5l56 -14q31 -7 56.5 -18.5t44 -28t29 -40t10.5 -56.5q0 -69 -52 -113.5t-159 -44.5z" />
    <glyph glyph-name="t" unicode="t" horiz-adv-x="423" 
d="M308 88q18 0 32.5 3.5t25.5 7.5q13 4 23 10l-9 -84q-14 -10 -32 -17q-17 -8 -40.5 -13t-54.5 -5q-81 0 -118.5 39.5t-37.5 112.5v276h-69v90h69v136h144v-136h134l10 -90h-144v-263q0 -67 67 -67z" />
    <glyph glyph-name="u" unicode="u" horiz-adv-x="575" 
d="M513 508v-508h-137v75q-27 -39 -70 -62t-100 -23q-75 0 -110.5 40.5t-35.5 114.5v363h142v-334q0 -32 14.5 -52t50.5 -20q42 0 72.5 31.5t30.5 98.5v276h143z" />
    <glyph glyph-name="v" unicode="v" horiz-adv-x="553" 
d="M527 508l-172 -508h-161l-168 508h153l107 -381l108 381h133z" />
    <glyph glyph-name="w" unicode="w" horiz-adv-x="785" 
d="M759 508l-136 -508h-150l-83 326l-85 -326h-149l-130 508h153l73 -383l95 383h118l88 -386l75 386h131z" />
    <glyph glyph-name="x" unicode="x" horiz-adv-x="557" 
d="M531 0h-169l-93 178l-95 -178h-148l147 251l-146 257h168l92 -179l93 179h149l-148 -251z" />
    <glyph glyph-name="y" unicode="y" horiz-adv-x="556" 
d="M530 508l-196 -534q-32 -90 -83 -132t-131 -42q-19 0 -34 3t-25 7q-12 4 -21 10l-10 95q9 -4 21 -8q11 -3 24.5 -5t31.5 -2q45 0 69 28.5t44 85.5l-194 494h158l112 -343l103 343h131z" />
    <glyph glyph-name="z" unicode="z" horiz-adv-x="524" 
d="M487 88l-12 -88h-432v87l249 332h-247l10 89h414v-87l-243 -333h261z" />
    <glyph glyph-name="braceleft" unicode="{" horiz-adv-x="360" 
d="M255 -123q-38 0 -71 8.5t-57 25t-38 42t-14 59.5q0 29 10 52t22 44t22 41.5t10 44.5q0 38 -26 51t-63 13v74q38 0 63.5 13t25.5 51q0 24 -10 44.5t-22 41.5t-22 44t-10 53q0 34 13.5 59.5t37.5 43t57 25.5t72 8h60l11 -93h-37q-75 0 -75 -62q0 -23 6 -42t13 -37.5
t13 -37.5t6 -43q0 -42 -20.5 -68t-46.5 -37q26 -11 46.5 -36.5t20.5 -67.5q0 -24 -6 -43.5t-13 -37.5t-13 -36.5t-6 -41.5q0 -63 75 -63h37l-11 -92h-60z" />
    <glyph glyph-name="bar" unicode="|" horiz-adv-x="306" 
d="M101 900h103v-1200h-103v1200z" />
    <glyph glyph-name="braceright" unicode="}" horiz-adv-x="360" 
d="M35 -31h36q76 0 76 63q0 23 -6 41.5t-13.5 36.5t-13.5 37.5t-6 43.5q0 42 20.5 67.5t46.5 36.5q-26 11 -46.5 37t-20.5 68q0 24 6 43t13.5 37.5t13.5 37.5t6 42q0 62 -76 62h-36l10 93h60q39 0 72 -8t57 -25.5t37.5 -43t13.5 -59.5q0 -30 -10 -53t-22 -44t-22 -41.5
t-10 -44.5q0 -38 26 -51t64 -13v-74q-38 0 -64 -13t-26 -51q0 -24 10 -44.5t22 -41.5t22 -44t10 -52q0 -34 -13.5 -59.5t-37.5 -42t-57 -25t-72 -8.5h-60z" />
    <glyph glyph-name="asciitilde" unicode="~" 
d="M411 188q-39 0 -66.5 12t-51 26t-47 26t-53.5 12q-28 0 -49.5 -11t-35.5 -24q-17 -16 -29 -36v101q15 22 35 39q18 15 43 26.5t58 11.5q39 0 67 -12t52 -26t47.5 -26t52.5 -12q28 0 49.5 11t36.5 25q17 15 29 35v-101q-15 -22 -36 -38q-18 -16 -43 -27.5t-59 -11.5z" />
    <glyph glyph-name="exclamdown" unicode="&#xa1;" horiz-adv-x="280" 
d="M70 508h137v-145h-137v145zM79 279h120l13 -471h-145z" />
    <glyph glyph-name="cent" unicode="&#xa2;" horiz-adv-x="563" 
d="M216 255q0 -81 34.5 -115.5t97.5 -34.5q32 0 60 5.5t49 11.5q24 7 45 17l-14 -96q-13 -10 -31 -19q-17 -9 -39 -16.5t-53 -12.5v-133h-103v131q-44 6 -81 23.5t-63.5 49t-41 77.5t-14.5 109q0 60 15 105.5t42 77.5t63.5 51t79.5 26v134h103v-132q31 -3 54 -9.5t38 -12.5
q18 -8 31 -16l14 -128q-20 17 -45 30q-22 12 -49.5 20.5t-60.5 8.5q-63 0 -97 -35t-34 -117z" />
    <glyph glyph-name="sterling" unicode="&#xa3;" horiz-adv-x="627" 
d="M582 155v-18q0 -28 -9.5 -55t-29 -47t-49.5 -32.5t-70 -12.5q-38 0 -71 7t-66 15.5t-68 15.5t-76 7q-21 0 -37 -2t-28 -5q-13 -3 -23 -7v93q10 5 24 9q12 3 28 5.5t37 2.5q28 0 48.5 21t20.5 56q0 27 -9 51h-154v80h108q-13 19 -26 38.5t-23.5 41.5t-17 47t-6.5 54
q0 44 15.5 81.5t46 65t75 43t102.5 15.5q52 0 92 -8.5t67 -17.5q32 -12 55 -27l12 -131q-25 21 -56 37q-29 15 -65.5 26t-83.5 11q-60 0 -87.5 -29t-27.5 -77q0 -24 6.5 -46t17 -42t22.5 -40.5t22 -41.5h158v-80h-133q1 -5 1.5 -10.5t0.5 -10.5q0 -41 -16.5 -69.5
t-42.5 -47.5q39 -7 72.5 -14t77.5 -7q31 0 50 10.5t29.5 25.5t14 32t3.5 30z" />
    <glyph glyph-name="yen" unicode="&#xa5;" 
d="M454 436h116v-79h-158l-20 -39v-28h178v-80h-178v-210h-156l-1 210h-177v80h177v27l-21 40h-156v79h115l-144 279h166l127 -304l125 304h153z" />
    <glyph glyph-name="brokenbar" unicode="&#xa6;" horiz-adv-x="312" 
d="M104 900h105v-496h-105v496zM104 195h105v-495h-105v495z" />
    <glyph glyph-name="section" unicode="&#xa7;" 
d="M580 207q0 -56 -27.5 -93t-69.5 -56q14 -20 21 -41.5t7 -47.5q0 -75 -53.5 -123.5t-158.5 -47.5q-48 0 -83 6.5t-58 14.5q-28 10 -46 22l-13 109q22 -17 50 -30q25 -12 57 -20.5t72 -8.5q48 0 71.5 20.5t23.5 55.5q0 42 -31.5 69.5t-79.5 52.5l-73 41q-63 33 -102 76.5
t-39 107.5q0 56 27.5 93t69.5 56q-28 40 -28 89q0 75 53.5 123.5t158.5 47.5q48 0 83 -6.5t58 -14.5q27 -10 46 -22l13 -108q-22 16 -50 29q-25 12 -57 20.5t-72 8.5q-48 0 -71.5 -20.5t-23.5 -55.5q0 -42 32 -69t79 -53l73 -41q63 -33 102 -76.5t39 -107.5zM351 160
q23 -12 43 -24.5t38 -25.5q17 9 28 28.5t11 47.5q0 42 -31 74t-88 62l-75 39q-23 13 -43.5 25t-37.5 26q-17 -10 -28 -30t-11 -47q0 -42 31 -74t88 -61z" />
    <glyph glyph-name="dieresis" unicode="&#xa8;" horiz-adv-x="516" 
d="M113 706h116v-126h-116v126zM287 706h115v-126h-115v126z" />
    <glyph glyph-name="copyright" unicode="&#xa9;" horiz-adv-x="928" 
d="M465 -38q-84 0 -157 26.5t-127.5 76t-85.5 119.5t-31 157t30.5 158t84 121t126.5 77.5t158 27.5q87 0 160.5 -28t127 -78t83.5 -119.5t30 -152.5q0 -87 -30.5 -158.5t-84 -121.5t-126.5 -77.5t-158 -27.5zM468 36q66 0 122.5 22t97 62t63.5 97t23 126q0 76 -24.5 133.5
t-67 96t-100 58t-122.5 19.5q-67 0 -123.5 -22t-97 -62t-63.5 -96.5t-23 -126.5q0 -76 24.5 -133.5t67 -96t100 -58t123.5 -19.5zM467 127q-41 0 -77 12t-62.5 38t-42 67.5t-15.5 99.5q0 57 16.5 98.5t44.5 68.5t65.5 39.5t78.5 12.5q37 0 63.5 -5.5t44.5 -11.5
q20 -8 34 -18l12 -99q-15 13 -34 23q-18 9 -40 16t-49 7q-52 0 -80 -29.5t-28 -99.5q0 -69 30 -98t82 -29q27 0 48.5 4.5t37.5 10.5q18 7 33 15l-10 -78q-16 -12 -38 -22q-20 -9 -48 -15.5t-66 -6.5z" />
    <glyph glyph-name="ordfeminine" unicode="&#xaa;" horiz-adv-x="475" 
d="M184 359q-48 0 -76 26.5t-28 68.5q0 33 15 55.5t43 36.5t68 22t89 12v19q0 25 -14 38.5t-46 13.5q-29 0 -54 -6.5t-43 -14.5q-22 -9 -40 -21l7 73q16 12 38 22q20 8 46 14.5t60 6.5q68 0 103 -29.5t35 -92.5v-237h-89v41q-12 -15 -39.5 -31.5t-74.5 -16.5zM215 427
q38 0 59 22.5t21 56.5v18q-56 -5 -87.5 -17t-31.5 -44q0 -36 39 -36z" />
    <glyph glyph-name="guillemotleft" unicode="&#xab;" horiz-adv-x="532" 
d="M49 281l189 235l59 -39l-115 -197l115 -196l-59 -39zM231 281l195 215l58 -38l-124 -178l124 -177l-58 -38z" />
    <glyph glyph-name="logicalnot" unicode="&#xac;" 
d="M447 315h-368v103h470v-285h-102v182z" />
    <glyph glyph-name="registered" unicode="&#xae;" horiz-adv-x="935" 
d="M471 -38q-84 0 -157 26.5t-127 76t-85 119.5t-31 157t30.5 158t83.5 121t126.5 77.5t158.5 27.5q87 0 160.5 -28t127 -78t83.5 -119.5t30 -152.5q0 -87 -30.5 -158.5t-84 -121.5t-126.5 -77.5t-159 -27.5zM474 36q67 0 123 22t97 62t64 97t23 126q0 76 -24.5 133.5
t-67.5 96t-100 58t-123 19.5q-67 0 -123 -22t-96.5 -62t-63.5 -96.5t-23 -126.5q0 -76 24.5 -133.5t67 -96t99.5 -58t123 -19.5zM312 553h208q66 0 103 -33.5t37 -89.5q0 -47 -24.5 -76.5t-66.5 -40.5l95 -168h-110l-79 153h-61v-153h-102v408zM494 362q32 0 48 18.5
t16 46.5q0 29 -16.5 45t-49.5 16h-78v-126h80z" />
    <glyph glyph-name="macron" unicode="&#xaf;" horiz-adv-x="516" 
d="M98 672h319l9 -88h-338z" />
    <glyph glyph-name="degree" unicode="&#xb0;" horiz-adv-x="480" 
d="M242 386q-39 0 -72 12.5t-56.5 34.5t-36.5 53.5t-13 68.5q0 38 13 69t36.5 53.5t56.5 35t72 12.5t71 -12t55 -34.5t35.5 -54t12.5 -69.5q0 -37 -12.5 -68t-35.5 -53.5t-55 -35t-71 -12.5zM241 473q35 0 57 22t22 60q0 39 -22 61.5t-57 22.5t-57 -22.5t-22 -61.5
q0 -38 22 -60t57 -22z" />
    <glyph glyph-name="plusminus" unicode="&#xb1;" 
d="M263 286h-184v98h184v145h101v-145h185v-98h-185v-142h-101v142zM79 97h470v-97h-470v97z" />
    <glyph glyph-name="uni00B2" unicode="&#xb2;" horiz-adv-x="325" 
d="M34 383q0 45 20 76.5t65 62.5l29 19q28 20 42.5 36.5t14.5 42.5q0 44 -51 44q-26 0 -47.5 -6t-36.5 -13q-19 -9 -34 -20l7 63q14 10 33 19q17 7 39.5 12.5t51.5 5.5q56 0 88 -25.5t32 -75.5q0 -42 -21 -69.5t-56 -50.5l-29 -19q-26 -17 -40.5 -31t-19.5 -27h172l-6 -55
h-253v11z" />
    <glyph glyph-name="uni00B3" unicode="&#xb3;" horiz-adv-x="333" 
d="M160 362q-31 0 -54 6t-38 13q-18 8 -30 19l-6 62q16 -11 35 -20q17 -8 38.5 -14t47.5 -6q29 0 43 14t14 36q0 46 -50 46h-61v55h58q22 0 35 13t13 35q0 43 -50 43q-25 0 -46.5 -6t-37.5 -13q-19 -9 -34 -20l6 62q14 11 33 19q17 8 39.5 13.5t51.5 5.5q57 0 88.5 -25
t31.5 -70q0 -32 -16.5 -51.5t-33.5 -29.5q20 -8 38.5 -26.5t18.5 -54.5q0 -48 -36.5 -77t-97.5 -29z" />
    <glyph glyph-name="acute" unicode="&#xb4;" horiz-adv-x="516" 
d="M275 699h153l-153 -137h-111z" />
    <glyph glyph-name="paragraph" unicode="&#xb6;" horiz-adv-x="673" 
d="M345 285h-64q-51 0 -93 14.5t-72.5 42t-47.5 67t-17 89.5t16 90t45.5 68t71 43.5t93.5 15.5h334v-805h-105v709h-54v-709h-107v375zM345 383v235h-42q-57 0 -86 -30t-29 -86q0 -54 28.5 -86.5t84.5 -32.5h44z" />
    <glyph glyph-name="periodcentered" unicode="&#xb7;" horiz-adv-x="378" 
d="M121 356h137v-154h-137v154z" />
    <glyph glyph-name="cedilla" unicode="&#xb8;" horiz-adv-x="516" 
d="M244 -203q-26 0 -46 3t-33 7q-15 4 -26 10l-9 65q14 -9 30 -17q15 -6 32.5 -11t38.5 -5q46 0 46 31q0 17 -14.5 24t-32.5 12l-45 13l46 79h64l-33 -54l32 -8q27 -6 50 -20.5t23 -48.5q0 -38 -32 -59t-91 -21z" />
    <glyph glyph-name="uni00B9" unicode="&#xb9;" horiz-adv-x="333" 
d="M39 429h98v203l-80 -37l7 67l94 53h60v-286h82l-6 -56h-249z" />
    <glyph glyph-name="ordmasculine" unicode="&#xba;" horiz-adv-x="494" 
d="M248 356q-80 0 -127.5 45.5t-47.5 139.5q0 93 48 138.5t128 45.5q81 0 126.5 -43.5t45.5 -140.5q0 -95 -47.5 -140t-125.5 -45zM250 420q36 0 54.5 28.5t18.5 92.5q0 63 -18.5 90.5t-54.5 27.5q-35 0 -54 -28t-19 -90q0 -64 18.5 -92.5t54.5 -28.5z" />
    <glyph glyph-name="guillemotright" unicode="&#xbb;" horiz-adv-x="532" 
d="M236 84l115 196l-115 197l58 39l190 -235l-190 -236zM49 103l124 177l-124 178l58 38l195 -215l-195 -216z" />
    <glyph glyph-name="onequarter" unicode="&#xbc;" horiz-adv-x="650" 
d="M33 429h87v203l-80 -37l8 67l94 53h60v-286h72l-6 -56h-229zM475 715h91l-361 -715h-91zM492 75h-155v54l129 213h104v-209h45v-58h-45v-75h-78v75zM492 133v123l-76 -123h76z" />
    <glyph glyph-name="onehalf" unicode="&#xbd;" horiz-adv-x="661" 
d="M33 429h87v203l-80 -37l8 67l94 53h60v-286h72l-6 -56h-229zM466 715h90l-360 -715h-91zM372 10q0 45 20 77t65 63l28 19q29 20 43 36.5t14 42.5q0 44 -51 44q-26 0 -47 -6t-37 -13q-18 -9 -33 -20l6 63q14 10 33 19q17 7 39.5 12.5t52.5 5.5q56 0 87.5 -25.5t31.5 -75.5
q0 -42 -21 -69.5t-56 -50.5l-29 -19q-26 -17 -40.5 -31t-19.5 -27h172l-6 -55h-252v10z" />
    <glyph glyph-name="threequarters" unicode="&#xbe;" horiz-adv-x="650" 
d="M160 362q-31 0 -54 6t-38 13q-18 8 -30 19l-6 62q16 -11 35 -20q17 -8 38.5 -14t47.5 -6q29 0 43 14t14 36q0 46 -50 46h-61v55h58q22 0 35 13t13 35q0 43 -50 43q-25 0 -46.5 -6t-37.5 -13q-19 -9 -34 -20l6 62q14 11 33 19q17 8 39.5 13.5t51.5 5.5q57 0 88.5 -25
t31.5 -70q0 -32 -16.5 -51.5t-33.5 -29.5q20 -8 38.5 -26.5t18.5 -54.5q0 -48 -36.5 -77t-97.5 -29zM480 715h91l-361 -715h-91zM492 75h-155v54l129 213h104v-209h45v-58h-45v-75h-78v75zM492 133v123l-76 -123h76z" />
    <glyph glyph-name="questiondown" unicode="&#xbf;" horiz-adv-x="462" 
d="M187 507h136v-144h-136v144zM220 -204q-91 0 -138 44.5t-47 117.5q0 40 12 69.5t30.5 52t39.5 41t39.5 37t30.5 39t12 48.5v33h109q3 -9 6 -19q2 -9 3.5 -19.5t1.5 -22.5q0 -45 -23.5 -74.5t-51.5 -54.5t-51.5 -51.5t-23.5 -66.5q0 -32 19 -50.5t61 -18.5q40 0 72.5 9
t56.5 20q28 12 51 29l-11 -112q-22 -15 -52 -26q-27 -10 -63 -17.5t-83 -7.5z" />
    <glyph glyph-name="Agrave" unicode="&#xc0;" horiz-adv-x="725" 
d="M346 750l-156 137h154l113 -137h-111zM473 198h-237l-57 -198h-150l238 715h187l242 -715h-163zM445 291l-94 309l-88 -309h182z" />
    <glyph glyph-name="Aacute" unicode="&#xc1;" horiz-adv-x="725" 
d="M399 750h-111l111 137h153zM473 198h-237l-57 -198h-150l238 715h187l242 -715h-163zM445 291l-94 309l-88 -309h182z" />
    <glyph glyph-name="Acircumflex" unicode="&#xc2;" horiz-adv-x="725" 
d="M211 744l-43 41l154 109h80l154 -109l-43 -41l-151 63zM473 198h-237l-57 -198h-150l238 715h187l242 -715h-163zM445 291l-94 309l-88 -309h182z" />
    <glyph glyph-name="Atilde" unicode="&#xc3;" horiz-adv-x="725" 
d="M270 808q-21 0 -38 -8t-29.5 -17.5t-19.5 -18t-8 -9.5l10 78q11 18 25 32q14 13 32.5 22.5t43.5 9.5q31 0 52.5 -9.5t39.5 -20.5t36 -20.5t41 -9.5q21 0 38.5 8t30 17.5t19.5 18l7 8.5l-11 -78q-10 -17 -25 -31q-13 -13 -31.5 -22t-44.5 -9q-30 0 -51.5 9t-39.5 20.5
t-36 20.5t-41 9zM473 198h-237l-57 -198h-150l238 715h187l242 -715h-163zM445 291l-94 309l-88 -309h182z" />
    <glyph glyph-name="Adieresis" unicode="&#xc4;" horiz-adv-x="725" 
d="M333 768h-116v126h116v-126zM506 768h-115v126h115v-126zM473 198h-237l-57 -198h-150l238 715h187l242 -715h-163zM445 291l-94 309l-88 -309h182z" />
    <glyph glyph-name="Aring" unicode="&#xc5;" horiz-adv-x="725" 
d="M362 735q-50 0 -82.5 27t-32.5 72t32.5 72.5t82.5 27.5t82 -27.5t32 -72.5t-32 -72t-82 -27zM362 876q-20 0 -31.5 -11t-11.5 -31q0 -19 11.5 -30t31.5 -11q19 0 30.5 11t11.5 30q0 20 -11.5 31t-30.5 11zM473 198h-237l-57 -198h-150l238 715h187l242 -715h-163z
M445 291l-94 309l-88 -309h182z" />
    <glyph glyph-name="AE" unicode="&#xc6;" horiz-adv-x="1001" 
d="M955 99l-3 -99h-474v221h-212l-87 -221h-153l298 715h625l1 -99h-315v-206h279v-90h-279v-221h320zM478 314v302h-58l-118 -302h176z" />
    <glyph glyph-name="Ccedilla" unicode="&#xc7;" horiz-adv-x="670" 
d="M219 360q0 -69 15 -116.5t41.5 -77.5t63.5 -43t80 -13q45 0 82 9t64 20q32 12 58 28l-13 -102q-21 -18 -52 -33q-28 -15 -67 -26t-93 -14l-23 -38l32 -8q27 -6 50 -20.5t23 -48.5q0 -38 -32 -59t-91 -21q-26 0 -46 3t-33 7q-15 4 -26 10l-9 65q14 -9 30 -17
q15 -6 32.5 -11t38.5 -5q46 0 46 31q0 17 -14.5 24t-32.5 12l-45 13l37 63q-58 4 -110 28t-90 68.5t-60.5 111t-22.5 157.5q0 97 25.5 166.5t69.5 114.5t102.5 66t125.5 21q60 0 103.5 -9t72.5 -20q33 -13 56 -30l16 -147q-25 25 -57 45q-30 18 -68.5 31.5t-88.5 13.5
q-42 0 -77 -13.5t-60 -43t-39 -77t-14 -115.5z" />
    <glyph glyph-name="Egrave" unicode="&#xc8;" horiz-adv-x="594" 
d="M290 750l-156 137h154l113 -137h-111zM552 100l-13 -100h-471v715h467l12 -100h-323v-205h282v-90h-282v-220h328z" />
    <glyph glyph-name="Eacute" unicode="&#xc9;" horiz-adv-x="594" 
d="M343 750h-111l111 137h153zM552 100l-13 -100h-471v715h467l12 -100h-323v-205h282v-90h-282v-220h328z" />
    <glyph glyph-name="Ecircumflex" unicode="&#xca;" horiz-adv-x="594" 
d="M155 744l-43 41l154 109h80l154 -109l-43 -41l-151 63zM552 100l-13 -100h-471v715h467l12 -100h-323v-205h282v-90h-282v-220h328z" />
    <glyph glyph-name="Edieresis" unicode="&#xcb;" horiz-adv-x="594" 
d="M277 768h-116v126h116v-126zM450 768h-115v126h115v-126zM552 100l-13 -100h-471v715h467l12 -100h-323v-205h282v-90h-282v-220h328z" />
    <glyph glyph-name="Igrave" unicode="&#xcc;" horiz-adv-x="296" 
d="M-22 887h154l113 -137h-111zM68 715h161v-715h-161v715z" />
    <glyph glyph-name="Iacute" unicode="&#xcd;" horiz-adv-x="296" 
d="M187 887h153l-153 -137h-111zM68 715h161v-715h-161v715z" />
    <glyph glyph-name="Icircumflex" unicode="&#xce;" horiz-adv-x="296" 
d="M-44 785l154 109h80l154 -109l-43 -41l-151 63l-151 -63zM68 715h161v-715h-161v715z" />
    <glyph glyph-name="Idieresis" unicode="&#xcf;" horiz-adv-x="296" 
d="M5 894h116v-126h-116v126zM179 894h115v-126h-115v126zM68 715h161v-715h-161v715z" />
    <glyph glyph-name="Eth" unicode="&#xd0;" horiz-adv-x="742" 
d="M359 715q76 0 137 -21t104 -64.5t66.5 -109.5t23.5 -157q0 -93 -25.5 -161.5t-70.5 -113t-106.5 -66.5t-134.5 -22h-261v318h-61v90h61v307h267zM338 96q88 0 139.5 62t51.5 201q0 71 -13 120t-38 80.5t-60 45.5t-80 14h-87v-211h153v-90h-153v-222h87z" />
    <glyph glyph-name="Ntilde" unicode="&#xd1;" horiz-adv-x="725" 
d="M273 808q-21 0 -38 -8t-29.5 -17.5t-19.5 -18t-8 -9.5l10 78q11 18 25 32q14 13 32.5 22.5t43.5 9.5q31 0 52.5 -9.5t39.5 -20.5t36 -20.5t41 -9.5q21 0 38.5 8t30 17.5t19.5 18l7 8.5l-11 -78q-10 -17 -25 -31q-13 -13 -31.5 -22t-44.5 -9q-30 0 -51.5 9t-39.5 20.5
t-36 20.5t-41 9zM658 715v-715h-199l-267 534v-534h-124v715h216l249 -523v523h125z" />
    <glyph glyph-name="Ograve" unicode="&#xd2;" horiz-adv-x="783" 
d="M223 887h154l113 -137h-111zM389 -10q-75 0 -137 21.5t-106.5 66.5t-69 114.5t-24.5 166.5q0 95 25.5 164t71.5 114t108.5 66.5t136.5 21.5q75 0 137 -20t106.5 -64t69 -113.5t24.5 -167.5q0 -99 -26.5 -169t-73 -114.5t-108.5 -65.5t-134 -21zM391 86q41 0 73 15
t54.5 47.5t34 84.5t11.5 127q0 74 -11.5 125t-34 83t-54.5 46.5t-73 14.5q-40 0 -72 -15t-54 -47t-34 -83.5t-12 -124.5q0 -74 12 -126t34 -84.5t54 -47.5t72 -15z" />
    <glyph glyph-name="Oacute" unicode="&#xd3;" horiz-adv-x="783" 
d="M432 887h153l-153 -137h-111zM389 -10q-75 0 -137 21.5t-106.5 66.5t-69 114.5t-24.5 166.5q0 95 25.5 164t71.5 114t108.5 66.5t136.5 21.5q75 0 137 -20t106.5 -64t69 -113.5t24.5 -167.5q0 -99 -26.5 -169t-73 -114.5t-108.5 -65.5t-134 -21zM391 86q41 0 73 15
t54.5 47.5t34 84.5t11.5 127q0 74 -11.5 125t-34 83t-54.5 46.5t-73 14.5q-40 0 -72 -15t-54 -47t-34 -83.5t-12 -124.5q0 -74 12 -126t34 -84.5t54 -47.5t72 -15z" />
    <glyph glyph-name="Ocircumflex" unicode="&#xd4;" horiz-adv-x="783" 
d="M201 785l154 109h80l154 -109l-43 -41l-151 63l-151 -63zM389 -10q-75 0 -137 21.5t-106.5 66.5t-69 114.5t-24.5 166.5q0 95 25.5 164t71.5 114t108.5 66.5t136.5 21.5q75 0 137 -20t106.5 -64t69 -113.5t24.5 -167.5q0 -99 -26.5 -169t-73 -114.5t-108.5 -65.5
t-134 -21zM391 86q41 0 73 15t54.5 47.5t34 84.5t11.5 127q0 74 -11.5 125t-34 83t-54.5 46.5t-73 14.5q-40 0 -72 -15t-54 -47t-34 -83.5t-12 -124.5q0 -74 12 -126t34 -84.5t54 -47.5t72 -15z" />
    <glyph glyph-name="Otilde" unicode="&#xd5;" horiz-adv-x="783" 
d="M471 749q-30 0 -51.5 9t-39.5 20.5t-36 20.5t-41 9q-21 0 -38 -8t-29.5 -17.5t-19.5 -18t-8 -9.5l10 78q11 18 25 32q14 13 32.5 22.5t43.5 9.5q31 0 52.5 -9.5t39.5 -20.5t36 -20.5t41 -9.5q21 0 38.5 8t30 17.5t19.5 18l7 8.5l-11 -78q-10 -17 -25 -31
q-13 -13 -31.5 -22t-44.5 -9zM389 -10q-75 0 -137 21.5t-106.5 66.5t-69 114.5t-24.5 166.5q0 95 25.5 164t71.5 114t108.5 66.5t136.5 21.5q75 0 137 -20t106.5 -64t69 -113.5t24.5 -167.5q0 -99 -26.5 -169t-73 -114.5t-108.5 -65.5t-134 -21zM391 86q41 0 73 15
t54.5 47.5t34 84.5t11.5 127q0 74 -11.5 125t-34 83t-54.5 46.5t-73 14.5q-40 0 -72 -15t-54 -47t-34 -83.5t-12 -124.5q0 -74 12 -126t34 -84.5t54 -47.5t72 -15z" />
    <glyph glyph-name="Odieresis" unicode="&#xd6;" horiz-adv-x="783" 
d="M250 894h116v-126h-116v126zM424 894h115v-126h-115v126zM389 -10q-75 0 -137 21.5t-106.5 66.5t-69 114.5t-24.5 166.5q0 95 25.5 164t71.5 114t108.5 66.5t136.5 21.5q75 0 137 -20t106.5 -64t69 -113.5t24.5 -167.5q0 -99 -26.5 -169t-73 -114.5t-108.5 -65.5
t-134 -21zM391 86q41 0 73 15t54.5 47.5t34 84.5t11.5 127q0 74 -11.5 125t-34 83t-54.5 46.5t-73 14.5q-40 0 -72 -15t-54 -47t-34 -83.5t-12 -124.5q0 -74 12 -126t34 -84.5t54 -47.5t72 -15z" />
    <glyph glyph-name="multiply" unicode="&#xd7;" 
d="M103 139l140 139l-140 139l71 72l140 -140l140 140l71 -71l-140 -140l140 -140l-71 -71l-140 140l-141 -140z" />
    <glyph glyph-name="Oslash" unicode="&#xd8;" horiz-adv-x="783" 
d="M593 675q65 -40 101.5 -117t36.5 -198q0 -99 -26.5 -169t-73 -114.5t-108.5 -65.5t-134 -21q-59 0 -108 13l-33 -71h-90l47 101q-72 40 -112.5 120t-40.5 206q0 95 25.5 164t71.5 114t108.5 66.5t136.5 21.5q66 0 125 -17l34 74h89zM219 359q0 -72 11 -122t31 -83
l212 456q-34 19 -82 19q-40 0 -72 -15t-54 -47t-34 -83.5t-12 -124.5zM391 86q41 0 73 15t54.5 47.5t34 84.5t11.5 127q0 62 -8 107.5t-24 77.5l-207 -447q15 -7 31.5 -9.5t34.5 -2.5z" />
    <glyph glyph-name="Ugrave" unicode="&#xd9;" horiz-adv-x="681" 
d="M183 887h154l113 -137h-111zM336 -10q-133 0 -203 63t-70 188v474h162v-472q0 -67 35 -98.5t97 -31.5q60 0 93.5 32t33.5 98v472h135v-470q0 -126 -74.5 -190.5t-208.5 -64.5z" />
    <glyph glyph-name="Uacute" unicode="&#xda;" horiz-adv-x="681" 
d="M392 887h153l-153 -137h-111zM336 -10q-133 0 -203 63t-70 188v474h162v-472q0 -67 35 -98.5t97 -31.5q60 0 93.5 32t33.5 98v472h135v-470q0 -126 -74.5 -190.5t-208.5 -64.5z" />
    <glyph glyph-name="Ucircumflex" unicode="&#xdb;" horiz-adv-x="681" 
d="M161 785l154 109h80l154 -109l-43 -41l-151 63l-151 -63zM336 -10q-133 0 -203 63t-70 188v474h162v-472q0 -67 35 -98.5t97 -31.5q60 0 93.5 32t33.5 98v472h135v-470q0 -126 -74.5 -190.5t-208.5 -64.5z" />
    <glyph glyph-name="Udieresis" unicode="&#xdc;" horiz-adv-x="681" 
d="M210 894h116v-126h-116v126zM384 894h115v-126h-115v126zM336 -10q-133 0 -203 63t-70 188v474h162v-472q0 -67 35 -98.5t97 -31.5q60 0 93.5 32t33.5 98v472h135v-470q0 -126 -74.5 -190.5t-208.5 -64.5z" />
    <glyph glyph-name="Yacute" unicode="&#xdd;" horiz-adv-x="695" 
d="M398 750h-111l111 137h153zM666 715l-241 -407v-308h-159v305l-237 410h187l149 -295l148 295h153z" />
    <glyph glyph-name="Thorn" unicode="&#xde;" horiz-adv-x="655" 
d="M68 715h156v-142h170q99 0 155 -47t56 -145q0 -47 -15.5 -84t-44 -63t-67.5 -39.5t-87 -13.5h-167v-181h-156v715zM351 270q50 0 78 25.5t28 80.5t-27.5 79t-79.5 24h-126v-209h127z" />
    <glyph glyph-name="germandbls" unicode="&#xdf;" horiz-adv-x="585" 
d="M376 -9q-32 0 -55.5 6t-38.5 14q-19 9 -31 20l-7 85q11 -10 26 -18q13 -8 30.5 -13.5t39.5 -5.5q61 0 61 61q0 35 -21 56t-45.5 40t-45.5 40.5t-21 57.5q0 35 17.5 58.5t38 46t38 48.5t17.5 64q0 33 -19 51.5t-55 18.5q-45 0 -72.5 -32t-27.5 -93v-496h-143v487
q0 51 18 94.5t51.5 75.5t82.5 50t110 18q93 0 143.5 -40.5t50.5 -112.5q0 -45 -19.5 -75t-43 -53.5t-43 -44t-19.5 -45.5q0 -24 23.5 -40t51 -36t51 -49.5t23.5 -80.5q0 -34 -12.5 -63t-34.5 -50t-52.5 -32.5t-66.5 -11.5z" />
    <glyph glyph-name="agrave" unicode="&#xe0;" horiz-adv-x="553" 
d="M276 562l-156 137h154l113 -137h-111zM292 517q55 0 93 -13t62 -36t35 -55t11 -70v-343h-130v64q-26 -33 -66.5 -53.5t-97.5 -20.5q-76 0 -116.5 37.5t-40.5 101.5q0 45 21 75.5t60 51t95 32t126 17.5l14 1v30q0 38 -21 57.5t-73 19.5q-40 0 -76 -9.5t-64 -21.5
q-33 -14 -61 -31l14 104q24 17 56 31q29 13 68 22t91 9zM245 84q27 0 48.5 9.5t35.5 25t21.5 36.5t7.5 44v30l-8 -1q-37 -4 -68.5 -9t-54.5 -14.5t-35.5 -25t-12.5 -39.5q0 -56 66 -56z" />
    <glyph glyph-name="aacute" unicode="&#xe1;" horiz-adv-x="553" 
d="M329 562h-111l111 137h153zM292 517q55 0 93 -13t62 -36t35 -55t11 -70v-343h-130v64q-26 -33 -66.5 -53.5t-97.5 -20.5q-76 0 -116.5 37.5t-40.5 101.5q0 45 21 75.5t60 51t95 32t126 17.5l14 1v30q0 38 -21 57.5t-73 19.5q-40 0 -76 -9.5t-64 -21.5q-33 -14 -61 -31
l14 104q24 17 56 31q29 13 68 22t91 9zM245 84q27 0 48.5 9.5t35.5 25t21.5 36.5t7.5 44v30l-8 -1q-37 -4 -68.5 -9t-54.5 -14.5t-35.5 -25t-12.5 -39.5q0 -56 66 -56z" />
    <glyph glyph-name="acircumflex" unicode="&#xe2;" horiz-adv-x="553" 
d="M141 556l-43 41l154 109h80l154 -109l-43 -41l-151 63zM292 517q55 0 93 -13t62 -36t35 -55t11 -70v-343h-130v64q-26 -33 -66.5 -53.5t-97.5 -20.5q-76 0 -116.5 37.5t-40.5 101.5q0 45 21 75.5t60 51t95 32t126 17.5l14 1v30q0 38 -21 57.5t-73 19.5q-40 0 -76 -9.5
t-64 -21.5q-33 -14 -61 -31l14 104q24 17 56 31q29 13 68 22t91 9zM245 84q27 0 48.5 9.5t35.5 25t21.5 36.5t7.5 44v30l-8 -1q-37 -4 -68.5 -9t-54.5 -14.5t-35.5 -25t-12.5 -39.5q0 -56 66 -56z" />
    <glyph glyph-name="atilde" unicode="&#xe3;" horiz-adv-x="553" 
d="M200 620q-21 0 -38 -8t-29.5 -17.5t-19.5 -18t-8 -9.5l10 78q11 18 25 32q14 13 32.5 22.5t43.5 9.5q31 0 52.5 -9.5t39.5 -20.5t36 -20.5t41 -9.5q21 0 38.5 8t30 17.5t19.5 18l7 8.5l-11 -78q-10 -17 -25 -31q-13 -13 -31.5 -22t-44.5 -9q-30 0 -51.5 9t-39.5 20.5
t-36 20.5t-41 9zM292 517q55 0 93 -13t62 -36t35 -55t11 -70v-343h-130v64q-26 -33 -66.5 -53.5t-97.5 -20.5q-76 0 -116.5 37.5t-40.5 101.5q0 45 21 75.5t60 51t95 32t126 17.5l14 1v30q0 38 -21 57.5t-73 19.5q-40 0 -76 -9.5t-64 -21.5q-33 -14 -61 -31l14 104
q24 17 56 31q29 13 68 22t91 9zM245 84q27 0 48.5 9.5t35.5 25t21.5 36.5t7.5 44v30l-8 -1q-37 -4 -68.5 -9t-54.5 -14.5t-35.5 -25t-12.5 -39.5q0 -56 66 -56z" />
    <glyph glyph-name="adieresis" unicode="&#xe4;" horiz-adv-x="553" 
d="M263 580h-116v126h116v-126zM436 580h-115v126h115v-126zM292 517q55 0 93 -13t62 -36t35 -55t11 -70v-343h-130v64q-26 -33 -66.5 -53.5t-97.5 -20.5q-76 0 -116.5 37.5t-40.5 101.5q0 45 21 75.5t60 51t95 32t126 17.5l14 1v30q0 38 -21 57.5t-73 19.5q-40 0 -76 -9.5
t-64 -21.5q-33 -14 -61 -31l14 104q24 17 56 31q29 13 68 22t91 9zM245 84q27 0 48.5 9.5t35.5 25t21.5 36.5t7.5 44v30l-8 -1q-37 -4 -68.5 -9t-54.5 -14.5t-35.5 -25t-12.5 -39.5q0 -56 66 -56z" />
    <glyph glyph-name="aring" unicode="&#xe5;" horiz-adv-x="553" 
d="M292 547q-50 0 -82.5 27t-32.5 72t32.5 72.5t82.5 27.5t82 -27.5t32 -72.5t-32 -72t-82 -27zM292 688q-20 0 -31.5 -11t-11.5 -31q0 -19 11.5 -30t31.5 -11q19 0 30.5 11t11.5 30q0 20 -11.5 31t-30.5 11zM292 517q55 0 93 -13t62 -36t35 -55t11 -70v-343h-130v64
q-26 -33 -66.5 -53.5t-97.5 -20.5q-76 0 -116.5 37.5t-40.5 101.5q0 45 21 75.5t60 51t95 32t126 17.5l14 1v30q0 38 -21 57.5t-73 19.5q-40 0 -76 -9.5t-64 -21.5q-33 -14 -61 -31l14 104q24 17 56 31q29 13 68 22t91 9zM245 84q27 0 48.5 9.5t35.5 25t21.5 36.5t7.5 44v30
l-8 -1q-37 -4 -68.5 -9t-54.5 -14.5t-35.5 -25t-12.5 -39.5q0 -56 66 -56z" />
    <glyph glyph-name="ae" unicode="&#xe6;" horiz-adv-x="850" 
d="M496 233q7 -70 46 -101.5t105 -31.5q34 0 63 5.5t51 12.5q25 7 45 17l-13 -93q-19 -14 -46 -25q-24 -11 -58 -18.5t-80 -7.5q-75 0 -131 25t-88 79q-26 -47 -75 -76t-116 -29q-81 0 -119 38t-38 98q0 48 21.5 79.5t61.5 51.5t98 31t131 18v30q0 35 -21.5 56t-69.5 21
q-43 0 -79.5 -9.5t-63.5 -21.5q-31 -14 -57 -31l11 103q25 18 58 32q30 12 68.5 21.5t87.5 9.5q54 0 91 -13t60 -36q62 48 155 48q99 0 156 -54.5t57 -170.5q0 -11 -0.5 -21.5t-0.5 -18.5l-2 -18h-308zM598 426q-47 0 -71.5 -30t-30.5 -90h195q0 120 -93 120zM237 86
q59 0 88 33.5t29 80.5v29l-7 -1q-39 -4 -70.5 -9.5t-53 -15t-33.5 -24.5t-12 -39q0 -27 15.5 -40.5t43.5 -13.5z" />
    <glyph glyph-name="ccedilla" unicode="&#xe7;" horiz-adv-x="503" 
d="M192 254q0 -81 35 -116.5t95 -35.5q31 0 56.5 5.5t43.5 12.5q22 7 39 17l-13 -95q-15 -12 -36 -23q-19 -10 -46 -17.5t-64 -10.5l-23 -37l32 -8q27 -6 50 -20.5t23 -48.5q0 -38 -32 -59t-91 -21q-26 0 -46 3t-33 7q-15 4 -26 10l-9 65q14 -9 30 -17q15 -6 32.5 -11
t38.5 -5q46 0 46 31q0 17 -14.5 24t-32.5 12l-45 13l37 64q-42 5 -77 23t-60.5 49.5t-40 77.5t-14.5 109q0 69 18.5 118.5t51.5 82t77.5 48t96.5 15.5q39 0 68.5 -6t49.5 -14q23 -9 40 -20l12 -128q-17 17 -39 30q-20 12 -45.5 20.5t-57.5 8.5q-59 0 -93 -36t-34 -117z" />
    <glyph glyph-name="egrave" unicode="&#xe8;" horiz-adv-x="545" 
d="M270 562l-156 137h154l113 -137h-111zM189 235q7 -71 46 -104t109 -33q33 0 61 5.5t49 12.5q25 7 45 17l-12 -91q-19 -14 -46 -25q-25 -11 -58.5 -18.5t-79.5 -7.5q-58 0 -105 15t-80.5 47t-52 81.5t-18.5 119.5q0 66 17.5 115t49 81.5t75.5 49t98 16.5q99 0 156 -54
t57 -169q0 -11 -0.5 -21.5t-0.5 -18.5q0 -9 -1 -18h-309zM291 428q-89 0 -101 -120h194q0 120 -93 120z" />
    <glyph glyph-name="eacute" unicode="&#xe9;" horiz-adv-x="545" 
d="M323 562h-111l111 137h153zM189 235q7 -71 46 -104t109 -33q33 0 61 5.5t49 12.5q25 7 45 17l-12 -91q-19 -14 -46 -25q-25 -11 -58.5 -18.5t-79.5 -7.5q-58 0 -105 15t-80.5 47t-52 81.5t-18.5 119.5q0 66 17.5 115t49 81.5t75.5 49t98 16.5q99 0 156 -54t57 -169
q0 -11 -0.5 -21.5t-0.5 -18.5q0 -9 -1 -18h-309zM291 428q-89 0 -101 -120h194q0 120 -93 120z" />
    <glyph glyph-name="ecircumflex" unicode="&#xea;" horiz-adv-x="545" 
d="M135 556l-43 41l154 109h80l154 -109l-43 -41l-151 63zM189 235q7 -71 46 -104t109 -33q33 0 61 5.5t49 12.5q25 7 45 17l-12 -91q-19 -14 -46 -25q-25 -11 -58.5 -18.5t-79.5 -7.5q-58 0 -105 15t-80.5 47t-52 81.5t-18.5 119.5q0 66 17.5 115t49 81.5t75.5 49t98 16.5
q99 0 156 -54t57 -169q0 -11 -0.5 -21.5t-0.5 -18.5q0 -9 -1 -18h-309zM291 428q-89 0 -101 -120h194q0 120 -93 120z" />
    <glyph glyph-name="edieresis" unicode="&#xeb;" horiz-adv-x="545" 
d="M257 580h-116v126h116v-126zM430 580h-115v126h115v-126zM189 235q7 -71 46 -104t109 -33q33 0 61 5.5t49 12.5q25 7 45 17l-12 -91q-19 -14 -46 -25q-25 -11 -58.5 -18.5t-79.5 -7.5q-58 0 -105 15t-80.5 47t-52 81.5t-18.5 119.5q0 66 17.5 115t49 81.5t75.5 49
t98 16.5q99 0 156 -54t57 -169q0 -11 -0.5 -21.5t-0.5 -18.5q0 -9 -1 -18h-309zM291 428q-89 0 -101 -120h194q0 120 -93 120z" />
    <glyph glyph-name="igrave" unicode="&#xec;" horiz-adv-x="268" 
d="M-34 699h154l113 -137h-111zM63 508h142v-508h-142v508z" />
    <glyph glyph-name="iacute" unicode="&#xed;" horiz-adv-x="268" 
d="M175 699h153l-153 -137h-111zM63 508h142v-508h-142v508z" />
    <glyph glyph-name="icircumflex" unicode="&#xee;" horiz-adv-x="268" 
d="M-56 597l154 109h80l154 -109l-43 -41l-151 63l-151 -63zM63 508h142v-508h-142v508z" />
    <glyph glyph-name="idieresis" unicode="&#xef;" horiz-adv-x="268" 
d="M-7 706h116v-126h-116v126zM167 706h115v-126h-115v126zM63 508h142v-508h-142v508z" />
    <glyph glyph-name="eth" unicode="&#xf0;" horiz-adv-x="590" 
d="M439 609q20 -28 39 -63t33.5 -76t23 -87.5t8.5 -99.5q0 -72 -18.5 -127t-52.5 -91.5t-81.5 -55.5t-104.5 -19q-54 0 -98 16t-75.5 48t-48.5 79.5t-17 110.5q0 62 17.5 108t47 76.5t68.5 46t82 15.5q33 0 59.5 -8.5t47.5 -23.5q-10 29 -23 56t-27 50l-133 -49v83l84 31
q-24 29 -49.5 50t-50.5 36h158q25 -13 56 -43l141 52v-84zM293 89q49 0 79 38.5t30 129.5q0 39 -8.5 65.5t-23 43t-33.5 23.5t-41 7q-48 0 -75 -37.5t-27 -114.5q0 -81 26 -118t73 -37z" />
    <glyph glyph-name="ntilde" unicode="&#xf1;" horiz-adv-x="577" 
d="M207 620q-21 0 -38 -8t-29.5 -17.5t-19.5 -18t-8 -9.5l10 78q11 18 25 32q14 13 32.5 22.5t43.5 9.5q31 0 52.5 -9.5t39.5 -20.5t36 -20.5t41 -9.5q21 0 38.5 8t30 17.5t19.5 18l7 8.5l-11 -78q-10 -17 -25 -31q-13 -13 -31.5 -22t-44.5 -9q-30 0 -51.5 9t-39.5 20.5
t-36 20.5t-41 9zM370 517q76 0 111.5 -40.5t35.5 -114.5v-362h-143v332q0 32 -13.5 52t-49.5 20q-43 0 -74.5 -31t-31.5 -98v-275h-142v507h136v-76q27 39 70.5 62.5t100.5 23.5z" />
    <glyph glyph-name="ograve" unicode="&#xf2;" horiz-adv-x="594" 
d="M128 699h154l113 -137h-111zM299 -11q-55 0 -101 15t-79.5 47.5t-52.5 82.5t-19 120q0 69 19 118.5t53 81.5t80.5 47.5t100.5 15.5q55 0 100.5 -14t78 -45.5t50.5 -81.5t18 -121t-19 -121.5t-52 -82.5t-78.5 -47t-98.5 -15zM297 81q50 0 77.5 39.5t27.5 133.5
t-27.5 132.5t-77.5 38.5t-77.5 -39t-27.5 -132q0 -94 27.5 -133.5t77.5 -39.5z" />
    <glyph glyph-name="oacute" unicode="&#xf3;" horiz-adv-x="594" 
d="M337 699h153l-153 -137h-111zM299 -11q-55 0 -101 15t-79.5 47.5t-52.5 82.5t-19 120q0 69 19 118.5t53 81.5t80.5 47.5t100.5 15.5q55 0 100.5 -14t78 -45.5t50.5 -81.5t18 -121t-19 -121.5t-52 -82.5t-78.5 -47t-98.5 -15zM297 81q50 0 77.5 39.5t27.5 133.5
t-27.5 132.5t-77.5 38.5t-77.5 -39t-27.5 -132q0 -94 27.5 -133.5t77.5 -39.5z" />
    <glyph glyph-name="ocircumflex" unicode="&#xf4;" horiz-adv-x="594" 
d="M106 597l154 109h80l154 -109l-43 -41l-151 63l-151 -63zM299 -11q-55 0 -101 15t-79.5 47.5t-52.5 82.5t-19 120q0 69 19 118.5t53 81.5t80.5 47.5t100.5 15.5q55 0 100.5 -14t78 -45.5t50.5 -81.5t18 -121t-19 -121.5t-52 -82.5t-78.5 -47t-98.5 -15zM297 81
q50 0 77.5 39.5t27.5 133.5t-27.5 132.5t-77.5 38.5t-77.5 -39t-27.5 -132q0 -94 27.5 -133.5t77.5 -39.5z" />
    <glyph glyph-name="otilde" unicode="&#xf5;" horiz-adv-x="594" 
d="M376 561q-30 0 -51.5 9t-39.5 20.5t-36 20.5t-41 9q-21 0 -38 -8t-29.5 -17.5t-19.5 -18t-8 -9.5l10 78q11 18 25 32q14 13 32.5 22.5t43.5 9.5q31 0 52.5 -9.5t39.5 -20.5t36 -20.5t41 -9.5q21 0 38.5 8t30 17.5t19.5 18l7 8.5l-11 -78q-10 -17 -25 -31
q-13 -13 -31.5 -22t-44.5 -9zM299 -11q-55 0 -101 15t-79.5 47.5t-52.5 82.5t-19 120q0 69 19 118.5t53 81.5t80.5 47.5t100.5 15.5q55 0 100.5 -14t78 -45.5t50.5 -81.5t18 -121t-19 -121.5t-52 -82.5t-78.5 -47t-98.5 -15zM297 81q50 0 77.5 39.5t27.5 133.5t-27.5 132.5
t-77.5 38.5t-77.5 -39t-27.5 -132q0 -94 27.5 -133.5t77.5 -39.5z" />
    <glyph glyph-name="odieresis" unicode="&#xf6;" horiz-adv-x="594" 
d="M155 706h116v-126h-116v126zM329 706h115v-126h-115v126zM299 -11q-55 0 -101 15t-79.5 47.5t-52.5 82.5t-19 120q0 69 19 118.5t53 81.5t80.5 47.5t100.5 15.5q55 0 100.5 -14t78 -45.5t50.5 -81.5t18 -121t-19 -121.5t-52 -82.5t-78.5 -47t-98.5 -15zM297 81
q50 0 77.5 39.5t27.5 133.5t-27.5 132.5t-77.5 38.5t-77.5 -39t-27.5 -132q0 -94 27.5 -133.5t77.5 -39.5z" />
    <glyph glyph-name="divide" unicode="&#xf7;" 
d="M253 513h122v-128h-122v128zM79 329h470v-101h-470v101zM253 171h122v-128h-122v128z" />
    <glyph glyph-name="oslash" unicode="&#xf8;" horiz-adv-x="594" 
d="M447 482q48 -29 74 -84t26 -143q0 -71 -19 -121.5t-52 -82.5t-78.5 -47t-98.5 -15q-45 0 -81 10l-30 -65h-75l42 90q-50 29 -79 85.5t-29 144.5q0 69 19 118.5t53 81.5t80.5 47.5t100.5 15.5q48 0 85 -10l32 69h75zM192 254q0 -74 18 -115l131 277q-18 9 -44 9
q-50 0 -77.5 -39t-27.5 -132zM297 81q50 0 77.5 39.5t27.5 133.5q0 63 -14 103l-128 -270q17 -6 37 -6z" />
    <glyph glyph-name="ugrave" unicode="&#xf9;" horiz-adv-x="575" 
d="M274 562l-156 137h154l113 -137h-111zM513 508v-508h-137v75q-27 -39 -70 -62t-100 -23q-75 0 -110.5 40.5t-35.5 114.5v363h142v-334q0 -32 14.5 -52t50.5 -20q42 0 72.5 31.5t30.5 98.5v276h143z" />
    <glyph glyph-name="uacute" unicode="&#xfa;" horiz-adv-x="575" 
d="M327 562h-111l111 137h153zM513 508v-508h-137v75q-27 -39 -70 -62t-100 -23q-75 0 -110.5 40.5t-35.5 114.5v363h142v-334q0 -32 14.5 -52t50.5 -20q42 0 72.5 31.5t30.5 98.5v276h143z" />
    <glyph glyph-name="ucircumflex" unicode="&#xfb;" horiz-adv-x="575" 
d="M139 556l-43 41l154 109h80l154 -109l-43 -41l-151 63zM513 508v-508h-137v75q-27 -39 -70 -62t-100 -23q-75 0 -110.5 40.5t-35.5 114.5v363h142v-334q0 -32 14.5 -52t50.5 -20q42 0 72.5 31.5t30.5 98.5v276h143z" />
    <glyph glyph-name="udieresis" unicode="&#xfc;" horiz-adv-x="575" 
d="M261 580h-116v126h116v-126zM434 580h-115v126h115v-126zM513 508v-508h-137v75q-27 -39 -70 -62t-100 -23q-75 0 -110.5 40.5t-35.5 114.5v363h142v-334q0 -32 14.5 -52t50.5 -20q42 0 72.5 31.5t30.5 98.5v276h143z" />
    <glyph glyph-name="yacute" unicode="&#xfd;" horiz-adv-x="556" 
d="M325 562h-111l111 137h153zM530 508l-196 -534q-32 -90 -83 -132t-131 -42q-19 0 -34 3t-25 7q-12 4 -21 10l-10 95q9 -4 21 -8q11 -3 24.5 -5t31.5 -2q45 0 69 28.5t44 85.5l-194 494h158l112 -343l103 343h131z" />
    <glyph glyph-name="thorn" unicode="&#xfe;" horiz-adv-x="589" 
d="M349 517q86 0 139.5 -66.5t53.5 -195.5q0 -65 -15.5 -114.5t-42.5 -83t-63 -50.5t-78 -17q-49 0 -84.5 18.5t-58.5 50.5v-251h-137v907h137v-272q25 34 61.5 54t87.5 20zM300 94q47 0 71 38t24 121q0 81 -22 120t-71 39q-42 0 -72 -36.5t-30 -122.5q0 -87 29 -123t71 -36
z" />
    <glyph glyph-name="ydieresis" unicode="&#xff;" horiz-adv-x="556" 
d="M259 580h-116v126h116v-126zM432 580h-115v126h115v-126zM530 508l-196 -534q-32 -90 -83 -132t-131 -42q-19 0 -34 3t-25 7q-12 4 -21 10l-10 95q9 -4 21 -8q11 -3 24.5 -5t31.5 -2q45 0 69 28.5t44 85.5l-194 494h158l112 -343l103 343h131z" />
    <glyph glyph-name="Amacron" unicode="&#x100;" horiz-adv-x="725" 
d="M530 772h-338l10 88h319zM473 198h-237l-57 -198h-150l238 715h187l242 -715h-163zM445 291l-94 309l-88 -309h182z" />
    <glyph glyph-name="amacron" unicode="&#x101;" horiz-adv-x="553" 
d="M460 584h-338l10 88h319zM292 517q55 0 93 -13t62 -36t35 -55t11 -70v-343h-130v64q-26 -33 -66.5 -53.5t-97.5 -20.5q-76 0 -116.5 37.5t-40.5 101.5q0 45 21 75.5t60 51t95 32t126 17.5l14 1v30q0 38 -21 57.5t-73 19.5q-40 0 -76 -9.5t-64 -21.5q-33 -14 -61 -31
l14 104q24 17 56 31q29 13 68 22t91 9zM245 84q27 0 48.5 9.5t35.5 25t21.5 36.5t7.5 44v30l-8 -1q-37 -4 -68.5 -9t-54.5 -14.5t-35.5 -25t-12.5 -39.5q0 -56 66 -56z" />
    <glyph glyph-name="Abreve" unicode="&#x102;" horiz-adv-x="725" 
d="M362 750q-40 0 -69.5 12.5t-49.5 27.5q-24 18 -40 40l-8 64q19 -17 44 -29q23 -13 53 -21.5t70 -8.5t70.5 9t52.5 21q25 12 44 29l-9 -64q-16 -22 -40 -40q-21 -16 -49.5 -28t-68.5 -12zM473 198h-237l-57 -198h-150l238 715h187l242 -715h-163zM445 291l-94 309
l-88 -309h182z" />
    <glyph glyph-name="abreve" unicode="&#x103;" horiz-adv-x="553" 
d="M292 562q-40 0 -69.5 12.5t-49.5 27.5q-24 18 -40 40l-8 64q19 -17 44 -29q23 -13 53 -21.5t70 -8.5t70.5 9t52.5 21q25 12 44 29l-9 -64q-16 -22 -40 -40q-21 -16 -49.5 -28t-68.5 -12zM292 517q55 0 93 -13t62 -36t35 -55t11 -70v-343h-130v64q-26 -33 -66.5 -53.5
t-97.5 -20.5q-76 0 -116.5 37.5t-40.5 101.5q0 45 21 75.5t60 51t95 32t126 17.5l14 1v30q0 38 -21 57.5t-73 19.5q-40 0 -76 -9.5t-64 -21.5q-33 -14 -61 -31l14 104q24 17 56 31q29 13 68 22t91 9zM245 84q27 0 48.5 9.5t35.5 25t21.5 36.5t7.5 44v30l-8 -1
q-37 -4 -68.5 -9t-54.5 -14.5t-35.5 -25t-12.5 -39.5q0 -56 66 -56z" />
    <glyph glyph-name="Aogonek" unicode="&#x104;" horiz-adv-x="725" 
d="M629 -133q19 0 35 3.5t28 7.5q14 6 26 12l-10 -71q-12 -7 -27 -13q-15 -5 -33.5 -8.5t-42.5 -3.5q-60 0 -89.5 24t-29.5 64q0 46 33 76.5t78 41.5h-64l-60 198h-237l-57 -198h-150l238 715h187l242 -715h-28q-37 -19 -62.5 -40.5t-25.5 -50.5q0 -20 11.5 -31t37.5 -11z
M445 291l-94 309l-88 -309h182z" />
    <glyph glyph-name="aogonek" unicode="&#x105;" horiz-adv-x="553" 
d="M426 -133q19 0 35 3.5t28 7.5q14 6 26 12l-10 -71q-12 -7 -27 -13q-15 -5 -33.5 -8.5t-42.5 -3.5q-60 0 -89.5 24t-29.5 64q0 46 33 76.5t78 41.5h-31v64q-26 -33 -66.5 -53.5t-97.5 -20.5q-76 0 -116.5 37.5t-40.5 101.5q0 45 21 75.5t60 51t95 32t126 17.5l14 1v30
q0 38 -21 57.5t-73 19.5q-40 0 -76 -9.5t-64 -21.5q-33 -14 -61 -31l14 104q24 17 56 31q29 13 68 22t91 9q55 0 93 -13t62 -36t35 -55t11 -70v-343h-28q-37 -19 -62.5 -40.5t-25.5 -50.5q0 -20 11.5 -31t37.5 -11zM245 84q27 0 48.5 9.5t35.5 25t21.5 36.5t7.5 44v30l-8 -1
q-37 -4 -68.5 -9t-54.5 -14.5t-35.5 -25t-12.5 -39.5q0 -56 66 -56z" />
    <glyph glyph-name="Cacute" unicode="&#x106;" horiz-adv-x="670" 
d="M416 887h153l-153 -137h-111zM365 -9q-63 0 -120 21t-100 65.5t-68 114t-25 165.5q0 97 25.5 166.5t69.5 114.5t102.5 66t125.5 21q60 0 103.5 -9t72.5 -20q33 -13 56 -30l16 -147q-25 25 -57 45q-30 18 -68.5 31.5t-88.5 13.5q-42 0 -77 -13.5t-60 -43t-39 -77
t-14 -115.5q0 -69 15 -116.5t41.5 -77.5t63.5 -43t80 -13q45 0 82 9t64 20q32 12 58 28l-13 -102q-25 -21 -61 -37q-32 -15 -77 -26t-107 -11z" />
    <glyph glyph-name="cacute" unicode="&#x107;" horiz-adv-x="503" 
d="M315 699h153l-153 -137h-111zM278 -9q-49 0 -91.5 14.5t-73.5 46t-48.5 81t-17.5 119.5q0 69 18.5 118.5t51.5 82t77.5 48t96.5 15.5q39 0 68.5 -6t49.5 -14q23 -9 40 -20l12 -128q-17 17 -39 30q-20 12 -45.5 20.5t-57.5 8.5q-59 0 -93 -36t-34 -117t35 -116.5t95 -35.5
q31 0 56.5 5.5t43.5 12.5q22 7 39 17l-13 -95q-17 -14 -42 -25q-22 -11 -53.5 -18.5t-74.5 -7.5z" />
    <glyph glyph-name="Cdotaccent" unicode="&#x10a;" horiz-adv-x="670" 
d="M308 894h141v-126h-141v126zM365 -9q-63 0 -120 21t-100 65.5t-68 114t-25 165.5q0 97 25.5 166.5t69.5 114.5t102.5 66t125.5 21q60 0 103.5 -9t72.5 -20q33 -13 56 -30l16 -147q-25 25 -57 45q-30 18 -68.5 31.5t-88.5 13.5q-42 0 -77 -13.5t-60 -43t-39 -77
t-14 -115.5q0 -69 15 -116.5t41.5 -77.5t63.5 -43t80 -13q45 0 82 9t64 20q32 12 58 28l-13 -102q-25 -21 -61 -37q-32 -15 -77 -26t-107 -11z" />
    <glyph glyph-name="cdotaccent" unicode="&#x10b;" horiz-adv-x="503" 
d="M207 706h141v-126h-141v126zM278 -9q-49 0 -91.5 14.5t-73.5 46t-48.5 81t-17.5 119.5q0 69 18.5 118.5t51.5 82t77.5 48t96.5 15.5q39 0 68.5 -6t49.5 -14q23 -9 40 -20l12 -128q-17 17 -39 30q-20 12 -45.5 20.5t-57.5 8.5q-59 0 -93 -36t-34 -117t35 -116.5t95 -35.5
q31 0 56.5 5.5t43.5 12.5q22 7 39 17l-13 -95q-17 -14 -42 -25q-22 -11 -53.5 -18.5t-74.5 -7.5z" />
    <glyph glyph-name="Ccaron" unicode="&#x10c;" horiz-adv-x="670" 
d="M185 856l43 41l151 -64l151 64l43 -41l-154 -110h-80zM365 -9q-63 0 -120 21t-100 65.5t-68 114t-25 165.5q0 97 25.5 166.5t69.5 114.5t102.5 66t125.5 21q60 0 103.5 -9t72.5 -20q33 -13 56 -30l16 -147q-25 25 -57 45q-30 18 -68.5 31.5t-88.5 13.5q-42 0 -77 -13.5
t-60 -43t-39 -77t-14 -115.5q0 -69 15 -116.5t41.5 -77.5t63.5 -43t80 -13q45 0 82 9t64 20q32 12 58 28l-13 -102q-25 -21 -61 -37q-32 -15 -77 -26t-107 -11z" />
    <glyph glyph-name="ccaron" unicode="&#x10d;" horiz-adv-x="503" 
d="M84 668l43 41l151 -64l151 64l43 -41l-154 -110h-80zM278 -9q-49 0 -91.5 14.5t-73.5 46t-48.5 81t-17.5 119.5q0 69 18.5 118.5t51.5 82t77.5 48t96.5 15.5q39 0 68.5 -6t49.5 -14q23 -9 40 -20l12 -128q-17 17 -39 30q-20 12 -45.5 20.5t-57.5 8.5q-59 0 -93 -36
t-34 -117t35 -116.5t95 -35.5q31 0 56.5 5.5t43.5 12.5q22 7 39 17l-13 -95q-17 -14 -42 -25q-22 -11 -53.5 -18.5t-74.5 -7.5z" />
    <glyph glyph-name="Dcaron" unicode="&#x10e;" horiz-adv-x="717" 
d="M289 746l-154 110l43 41l151 -64l151 64l43 -41l-154 -110h-80zM335 715q75 0 136 -21t104 -64.5t66.5 -109.5t23.5 -157q0 -93 -25 -161.5t-70 -113t-106.5 -66.5t-134.5 -22h-261v715h267zM313 96q89 0 140 62t51 201q0 71 -13 120t-37.5 80.5t-60 45.5t-79.5 14h-88
v-523h87z" />
    <glyph glyph-name="dcaron" unicode="&#x10f;" horiz-adv-x="720" 
d="M723 725l-67 -253h-82l25 253h124zM386 715h140v-715h-135v71q-25 -36 -62.5 -58t-88.5 -22q-86 0 -139.5 66t-53.5 195q0 65 15.5 114.5t42.5 83t63 50.5t78 17q48 0 82.5 -18.5t57.5 -49.5v266zM285 96q21 0 39.5 8.5t32 27.5t21.5 49.5t8 73.5t-7.5 73t-21 48.5
t-31.5 27t-38 8.5q-47 0 -70 -38t-23 -119t21 -120t69 -39z" />
    <glyph glyph-name="Dcroat" unicode="&#x110;" horiz-adv-x="742" 
d="M359 715q76 0 137 -21t104 -64.5t66.5 -109.5t23.5 -157q0 -93 -25.5 -161.5t-70.5 -113t-106.5 -66.5t-134.5 -22h-261v318h-61v90h61v307h267zM338 96q88 0 139.5 62t51.5 201q0 71 -13 120t-38 80.5t-60 45.5t-80 14h-87v-211h153v-90h-153v-222h87z" />
    <glyph glyph-name="dcroat" unicode="&#x111;" horiz-adv-x="607" 
d="M526 589v-589h-135v71q-25 -36 -62.5 -58t-88.5 -22q-86 0 -139.5 66t-53.5 195q0 65 15.5 114.5t42.5 83t63 50.5t78 17q48 0 82.5 -18.5t57.5 -49.5v140h-193v72h193v54h140v-54h56l7 -72h-63zM285 96q21 0 39.5 8.5t32 27.5t21.5 49.5t8 73.5t-7.5 73t-21 48.5
t-31.5 27t-38 8.5q-47 0 -70 -38t-23 -119t21 -120t69 -39z" />
    <glyph glyph-name="Emacron" unicode="&#x112;" horiz-adv-x="594" 
d="M474 772h-338l10 88h319zM552 100l-13 -100h-471v715h467l12 -100h-323v-205h282v-90h-282v-220h328z" />
    <glyph glyph-name="emacron" unicode="&#x113;" horiz-adv-x="545" 
d="M454 584h-338l10 88h319zM189 235q7 -71 46 -104t109 -33q33 0 61 5.5t49 12.5q25 7 45 17l-12 -91q-19 -14 -46 -25q-25 -11 -58.5 -18.5t-79.5 -7.5q-58 0 -105 15t-80.5 47t-52 81.5t-18.5 119.5q0 66 17.5 115t49 81.5t75.5 49t98 16.5q99 0 156 -54t57 -169
q0 -11 -0.5 -21.5t-0.5 -18.5q0 -9 -1 -18h-309zM291 428q-89 0 -101 -120h194q0 120 -93 120z" />
    <glyph glyph-name="Edotaccent" unicode="&#x116;" horiz-adv-x="594" 
d="M376 768h-141v126h141v-126zM552 100l-13 -100h-471v715h467l12 -100h-323v-205h282v-90h-282v-220h328z" />
    <glyph glyph-name="edotaccent" unicode="&#x117;" horiz-adv-x="545" 
d="M356 580h-141v126h141v-126zM189 235q7 -71 46 -104t109 -33q33 0 61 5.5t49 12.5q25 7 45 17l-12 -91q-19 -14 -46 -25q-25 -11 -58.5 -18.5t-79.5 -7.5q-58 0 -105 15t-80.5 47t-52 81.5t-18.5 119.5q0 66 17.5 115t49 81.5t75.5 49t98 16.5q99 0 156 -54t57 -169
q0 -11 -0.5 -21.5t-0.5 -18.5q0 -9 -1 -18h-309zM291 428q-89 0 -101 -120h194q0 120 -93 120z" />
    <glyph glyph-name="Eogonek" unicode="&#x118;" horiz-adv-x="594" 
d="M473 -133q19 0 35 3.5t28 7.5q14 6 26 12l-10 -71q-12 -7 -27 -13q-15 -5 -33.5 -8.5t-42.5 -3.5q-60 0 -89.5 24t-29.5 64q0 46 33 76.5t78 41.5h-373v715h467l12 -100h-323v-205h282v-90h-282v-220h328l-13 -100h-27q-37 -19 -62.5 -40.5t-25.5 -50.5q0 -20 11.5 -31
t37.5 -11z" />
    <glyph glyph-name="eogonek" unicode="&#x119;" horiz-adv-x="545" 
d="M487 42q-4 -3 -10 -7q-6 -3 -13 -7t-17 -9q-38 -19 -64 -40.5t-26 -51.5q0 -20 11.5 -31t37.5 -11q19 0 35 3.5t28 7.5q14 6 26 12l-10 -71q-12 -7 -27 -13q-15 -5 -33.5 -8.5t-42.5 -3.5q-60 0 -89.5 24t-29.5 64q0 29 13.5 51.5t36.5 39.5h-10q-58 0 -105 15t-80.5 47
t-52 81.5t-18.5 119.5q0 66 17.5 115t49 81.5t75.5 49t98 16.5q99 0 156 -54t57 -169q0 -11 -0.5 -21.5t-0.5 -18.5q0 -9 -1 -18h-309q7 -71 46 -104t109 -33q33 0 61 5.5t49 12.5q25 7 45 17zM291 428q-89 0 -101 -120h194q0 120 -93 120z" />
    <glyph glyph-name="Ecaron" unicode="&#x11a;" horiz-adv-x="594" 
d="M266 746l-154 110l43 41l151 -64l151 64l43 -41l-154 -110h-80zM552 100l-13 -100h-471v715h467l12 -100h-323v-205h282v-90h-282v-220h328z" />
    <glyph glyph-name="ecaron" unicode="&#x11b;" horiz-adv-x="545" 
d="M246 558l-154 110l43 41l151 -64l151 64l43 -41l-154 -110h-80zM189 235q7 -71 46 -104t109 -33q33 0 61 5.5t49 12.5q25 7 45 17l-12 -91q-19 -14 -46 -25q-25 -11 -58.5 -18.5t-79.5 -7.5q-58 0 -105 15t-80.5 47t-52 81.5t-18.5 119.5q0 66 17.5 115t49 81.5t75.5 49
t98 16.5q99 0 156 -54t57 -169q0 -11 -0.5 -21.5t-0.5 -18.5q0 -9 -1 -18h-309zM291 428q-89 0 -101 -120h194q0 120 -93 120z" />
    <glyph glyph-name="Gbreve" unicode="&#x11e;" horiz-adv-x="719" 
d="M386 750q-40 0 -69.5 12.5t-49.5 27.5q-24 18 -40 40l-8 64q19 -17 44 -29q23 -13 53 -21.5t70 -8.5t70.5 9t52.5 21q25 12 44 29l-9 -64q-16 -22 -40 -40q-21 -16 -49.5 -28t-68.5 -12zM379 -9q-68 0 -127.5 21t-104 65t-70 113.5t-25.5 166.5t26 166.5t71.5 114.5
t107 66t132.5 21q64 0 109.5 -9.5t75.5 -21.5q35 -14 59 -31l17 -143q-26 25 -59 45q-31 18 -71.5 31t-92.5 13q-46 0 -84.5 -13.5t-66 -43t-42.5 -77t-16 -115.5q-1 -71 15 -120.5t44.5 -80t67 -44.5t83.5 -14q20 0 35.5 2t27.5 4q13 3 23 6v152h-122v85h265v-286
q-30 -20 -72 -36q-38 -15 -88 -26t-118 -11z" />
    <glyph glyph-name="gbreve" unicode="&#x11f;" horiz-adv-x="589" 
d="M316 562q-40 0 -69.5 12.5t-49.5 27.5q-24 18 -40 40l-8 64q19 -17 44 -29q23 -13 53 -21.5t70 -8.5t70.5 9t52.5 21q25 12 44 29l-9 -64q-16 -22 -40 -40q-21 -16 -49.5 -28t-68.5 -12zM526 507v-505q0 -38 -12 -74t-40.5 -64.5t-76 -46t-119.5 -17.5q-48 0 -83.5 9
t-59.5 20q-28 13 -48 29l-17 104q24 -17 53 -30q27 -12 61 -20.5t76 -8.5q66 0 96 27t30 78v75q-24 -32 -60.5 -51.5t-86.5 -19.5q-86 0 -139 63.5t-53 187.5q0 63 15.5 110.5t42 79.5t62.5 48t78 16q51 0 87 -19.5t59 -52.5v62h135zM284 112q43 0 72.5 34.5t29.5 118.5
q0 42 -7.5 71t-21 46.5t-32 25.5t-39.5 8q-47 0 -70.5 -36t-23.5 -115q0 -78 21 -115.5t71 -37.5z" />
    <glyph glyph-name="Gdotaccent" unicode="&#x120;" horiz-adv-x="719" 
d="M315 894h141v-126h-141v126zM379 -9q-68 0 -127.5 21t-104 65t-70 113.5t-25.5 166.5t26 166.5t71.5 114.5t107 66t132.5 21q64 0 109.5 -9.5t75.5 -21.5q35 -14 59 -31l17 -143q-26 25 -59 45q-31 18 -71.5 31t-92.5 13q-46 0 -84.5 -13.5t-66 -43t-42.5 -77t-16 -115.5
q-1 -71 15 -120.5t44.5 -80t67 -44.5t83.5 -14q20 0 35.5 2t27.5 4q13 3 23 6v152h-122v85h265v-286q-30 -20 -72 -36q-38 -15 -88 -26t-118 -11z" />
    <glyph glyph-name="gdotaccent" unicode="&#x121;" horiz-adv-x="589" 
d="M386 580h-141v126h141v-126zM526 507v-505q0 -38 -12 -74t-40.5 -64.5t-76 -46t-119.5 -17.5q-48 0 -83.5 9t-59.5 20q-28 13 -48 29l-17 104q24 -17 53 -30q27 -12 61 -20.5t76 -8.5q66 0 96 27t30 78v75q-24 -32 -60.5 -51.5t-86.5 -19.5q-86 0 -139 63.5t-53 187.5
q0 63 15.5 110.5t42 79.5t62.5 48t78 16q51 0 87 -19.5t59 -52.5v62h135zM284 112q43 0 72.5 34.5t29.5 118.5q0 42 -7.5 71t-21 46.5t-32 25.5t-39.5 8q-47 0 -70.5 -36t-23.5 -115q0 -78 21 -115.5t71 -37.5z" />
    <glyph glyph-name="Gcommaaccent" unicode="&#x122;" horiz-adv-x="719" 
d="M379 -9q-68 0 -127.5 21t-104 65t-70 113.5t-25.5 166.5t26 166.5t71.5 114.5t107 66t132.5 21q64 0 109.5 -9.5t75.5 -21.5q35 -14 59 -31l17 -143q-26 25 -59 45q-31 18 -71.5 31t-92.5 13q-46 0 -84.5 -13.5t-66 -43t-42.5 -77t-16 -115.5q-1 -71 15 -120.5t44.5 -80
t67 -44.5t83.5 -14q20 0 35.5 2t27.5 4q13 3 23 6v152h-122v85h265v-286q-30 -20 -72 -36q-38 -15 -88 -26t-118 -11zM320 -52h130l-66 -179h-89z" />
    <glyph glyph-name="gcommaaccent" unicode="&#x123;" horiz-adv-x="594" 
d="M362 578h-130l70 179h89zM526 507v-505q0 -38 -12 -74t-40.5 -64.5t-76 -46t-119.5 -17.5q-48 0 -83.5 9t-59.5 20q-28 13 -48 29l-17 104q24 -17 53 -30q27 -12 61 -20.5t76 -8.5q66 0 96 27t30 78v75q-24 -32 -60.5 -51.5t-86.5 -19.5q-86 0 -139 63.5t-53 187.5
q0 63 15.5 110.5t42 79.5t62.5 48t78 16q51 0 87 -19.5t59 -52.5v62h135zM284 112q43 0 72.5 34.5t29.5 118.5q0 42 -7.5 71t-21 46.5t-32 25.5t-39.5 8q-47 0 -70.5 -36t-23.5 -115q0 -78 21 -115.5t71 -37.5z" />
    <glyph glyph-name="Hbar" unicode="&#x126;" horiz-adv-x="762" 
d="M739 530h-72v-530h-159v320h-261v-320h-159v530h-65v74h65v111h159v-111h261v111h159v-111h72v-74zM508 530h-261v-120h261v120z" />
    <glyph glyph-name="hbar" unicode="&#x127;" horiz-adv-x="593" 
d="M382 517q75 0 110.5 -40.5t35.5 -114.5v-362h-142v333q0 32 -14 52t-51 20q-42 0 -73 -31.5t-31 -98.5v-275h-142v584h-52v72h52v59h142v-59h194l8 -72h-202v-144q28 35 69.5 56t95.5 21z" />
    <glyph glyph-name="Imacron" unicode="&#x12a;" horiz-adv-x="296" 
d="M-10 860h319l9 -88h-338zM68 715h161v-715h-161v715z" />
    <glyph glyph-name="imacron" unicode="&#x12b;" horiz-adv-x="268" 
d="M-22 672h319l9 -88h-338zM63 508h142v-508h-142v508z" />
    <glyph glyph-name="Iogonek" unicode="&#x12e;" horiz-adv-x="296" 
d="M170 -133q19 0 35 3.5t28 7.5q14 6 26 12l-10 -71q-12 -7 -27 -13q-15 -5 -33.5 -8.5t-42.5 -3.5q-60 0 -89.5 24t-29.5 64q0 46 33 76.5t78 41.5h-70v715h161v-715h-20q-37 -19 -62.5 -40.5t-25.5 -50.5q0 -20 11.5 -31t37.5 -11z" />
    <glyph glyph-name="iogonek" unicode="&#x12f;" horiz-adv-x="268" 
d="M208 580h-141v126h141v-126zM158 -134q19 0 35 3.5t28 7.5q14 6 26 12l-10 -71q-12 -7 -27 -13q-15 -5 -33.5 -8.5t-42.5 -3.5q-60 0 -89.5 24t-29.5 64q0 23 9.5 42.5t25 35t36.5 26t44 15.5h-67v508h142v-508h-6q-38 -19 -64 -40.5t-26 -51.5q0 -20 11.5 -31t37.5 -11z
" />
    <glyph glyph-name="Idotaccent" unicode="&#x130;" horiz-adv-x="296" 
d="M79 894h141v-126h-141v126zM68 715h161v-715h-161v715z" />
    <glyph glyph-name="dotlessi" unicode="&#x131;" horiz-adv-x="268" 
d="M63 508h142v-508h-142v508z" />
    <glyph glyph-name="IJ" unicode="&#x132;" horiz-adv-x="691" 
d="M68 715h161v-715h-161v715zM441 -9q-26 0 -44.5 3t-30.5 7q-15 4 -25 10l-14 103q9 -4 21 -7q10 -3 22.5 -5t27.5 -2q33 0 51.5 19t18.5 65v531h158v-534q0 -51 -13.5 -87t-38.5 -59t-58.5 -33.5t-74.5 -10.5z" />
    <glyph glyph-name="ij" unicode="&#x133;" horiz-adv-x="536" 
d="M63 705h142v-126h-142v126zM330 705h144v-126h-144v126zM314 -202q-19 0 -33 2.5t-24 4.5q-11 4 -19 8l-9 90q6 -2 12 -3t13 -2t15 -1q32 0 47 18t15 57v535h142v-534q0 -46 -12 -79t-33.5 -54.5t-50.5 -31.5t-63 -10zM63 507h142v-507h-142v507z" />
    <glyph glyph-name="Kcommaaccent" unicode="&#x136;" horiz-adv-x="690" 
d="M658 0h-184l-162 301l-83 -101v-200h-161v715h160l1 -365l250 365h173l-235 -286zM288 -52h130l-66 -179h-89z" />
    <glyph glyph-name="kcommaaccent" unicode="&#x137;" horiz-adv-x="557" 
d="M534 0h-159l-107 214l-63 -72v-142h-142v715h141l1 -448l170 240h153l-166 -187zM227 -52h130l-66 -179h-89z" />
    <glyph glyph-name="Lacute" unicode="&#x139;" horiz-adv-x="568" 
d="M331 750h-111l111 137h153zM532 100l-11 -100h-453v715h157v-615h307z" />
    <glyph glyph-name="lacute" unicode="&#x13a;" horiz-adv-x="268" 
d="M175 887h153l-153 -137h-111zM63 715h142v-715h-142v715z" />
    <glyph glyph-name="Lcommaaccent" unicode="&#x13b;" horiz-adv-x="568" 
d="M532 100l-11 -100h-453v715h157v-615h307zM239 -52h130l-66 -179h-89z" />
    <glyph glyph-name="lcommaaccent" unicode="&#x13c;" horiz-adv-x="268" 
d="M63 715h142v-715h-142v715zM73 -52h130l-66 -179h-89z" />
    <glyph glyph-name="Lcaron" unicode="&#x13d;" horiz-adv-x="573" 
d="M532 100l-11 -100h-453v715h157v-615h307zM414 445h-94l33 270h138z" />
    <glyph glyph-name="lcaron" unicode="&#x13e;" horiz-adv-x="403" 
d="M282 725h124l-67 -253h-82zM63 715h142v-715h-142v715z" />
    <glyph glyph-name="Ldot" unicode="&#x13f;" horiz-adv-x="568" 
d="M532 100l-11 -100h-453v715h157v-615h307zM452 257h-126v143h126v-143z" />
    <glyph glyph-name="ldot" unicode="&#x140;" horiz-adv-x="419" 
d="M63 715h142v-715h-142v715zM271 378h126v-143h-126v143z" />
    <glyph glyph-name="Lslash" unicode="&#x141;" horiz-adv-x="573" 
d="M536 100l-10 -100h-454v279l-62 -27v97l62 27v339h158v-272l172 75v-97l-172 -74v-247h306z" />
    <glyph glyph-name="lslash" unicode="&#x142;" horiz-adv-x="289" 
d="M269 410l-57 -32v-378h-142v300l-49 -28v107l49 28v308h142v-229l57 32v-108z" />
    <glyph glyph-name="Nacute" unicode="&#x143;" horiz-adv-x="725" 
d="M402 750h-111l111 137h153zM658 715v-715h-199l-267 534v-534h-124v715h216l249 -523v523h125z" />
    <glyph glyph-name="nacute" unicode="&#x144;" horiz-adv-x="577" 
d="M336 562h-111l111 137h153zM370 517q76 0 111.5 -40.5t35.5 -114.5v-362h-143v332q0 32 -13.5 52t-49.5 20q-43 0 -74.5 -31t-31.5 -98v-275h-142v507h136v-76q27 39 70.5 62.5t100.5 23.5z" />
    <glyph glyph-name="Ncommaaccent" unicode="&#x145;" horiz-adv-x="725" 
d="M658 715v-715h-199l-267 534v-534h-124v715h216l249 -523v523h125zM299 -52h130l-66 -179h-89z" />
    <glyph glyph-name="ncommaaccent" unicode="&#x146;" horiz-adv-x="577" 
d="M370 517q76 0 111.5 -40.5t35.5 -114.5v-362h-143v332q0 32 -13.5 52t-49.5 20q-43 0 -74.5 -31t-31.5 -98v-275h-142v507h136v-76q27 39 70.5 62.5t100.5 23.5zM230 -52h130l-66 -179h-89z" />
    <glyph glyph-name="Ncaron" unicode="&#x147;" horiz-adv-x="725" 
d="M325 746l-154 110l43 41l151 -64l151 64l43 -41l-154 -110h-80zM658 715v-715h-199l-267 534v-534h-124v715h216l249 -523v523h125z" />
    <glyph glyph-name="ncaron" unicode="&#x148;" horiz-adv-x="577" 
d="M259 558l-154 110l43 41l151 -64l151 64l43 -41l-154 -110h-80zM370 517q76 0 111.5 -40.5t35.5 -114.5v-362h-143v332q0 32 -13.5 52t-49.5 20q-43 0 -74.5 -31t-31.5 -98v-275h-142v507h136v-76q27 39 70.5 62.5t100.5 23.5z" />
    <glyph glyph-name="Eng" unicode="&#x14a;" horiz-adv-x="713" 
d="M500 -202q-17 0 -30 2.5t-22 4.5q-11 4 -18 8l-10 82q5 -2 11 -3q5 -1 12.5 -2t16.5 -1q30 0 46 17.5t16 56.5v37l-334 518v-518h-120v715h176l281 -451v451h121v-751q0 -88 -40 -127t-106 -39z" />
    <glyph glyph-name="eng" unicode="&#x14b;" horiz-adv-x="575" 
d="M370 518q75 0 110.5 -40.5t35.5 -114.5v-394q0 -89 -45 -129t-115 -40q-18 0 -31.5 2.5t-22.5 4.5q-11 4 -19 8l-9 86q6 -2 12 -3t12.5 -2t14.5 -1q31 0 46 17.5t15 55.5v363q0 32 -14 52t-49 20q-43 0 -75 -30.5t-32 -97.5v-275h-141v508h136v-76q27 39 70 62.5
t101 23.5z" />
    <glyph glyph-name="Omacron" unicode="&#x14c;" horiz-adv-x="783" 
d="M235 860h319l9 -88h-338zM389 -10q-75 0 -137 21.5t-106.5 66.5t-69 114.5t-24.5 166.5q0 95 25.5 164t71.5 114t108.5 66.5t136.5 21.5q75 0 137 -20t106.5 -64t69 -113.5t24.5 -167.5q0 -99 -26.5 -169t-73 -114.5t-108.5 -65.5t-134 -21zM391 86q41 0 73 15t54.5 47.5
t34 84.5t11.5 127q0 74 -11.5 125t-34 83t-54.5 46.5t-73 14.5q-40 0 -72 -15t-54 -47t-34 -83.5t-12 -124.5q0 -74 12 -126t34 -84.5t54 -47.5t72 -15z" />
    <glyph glyph-name="omacron" unicode="&#x14d;" horiz-adv-x="594" 
d="M140 672h319l9 -88h-338zM299 -11q-55 0 -101 15t-79.5 47.5t-52.5 82.5t-19 120q0 69 19 118.5t53 81.5t80.5 47.5t100.5 15.5q55 0 100.5 -14t78 -45.5t50.5 -81.5t18 -121t-19 -121.5t-52 -82.5t-78.5 -47t-98.5 -15zM297 81q50 0 77.5 39.5t27.5 133.5t-27.5 132.5
t-77.5 38.5t-77.5 -39t-27.5 -132q0 -94 27.5 -133.5t77.5 -39.5z" />
    <glyph glyph-name="Ohungarumlaut" unicode="&#x150;" horiz-adv-x="783" 
d="M335 892h130l-98 -142h-92zM519 892h138l-139 -142h-92zM389 -10q-75 0 -137 21.5t-106.5 66.5t-69 114.5t-24.5 166.5q0 95 25.5 164t71.5 114t108.5 66.5t136.5 21.5q75 0 137 -20t106.5 -64t69 -113.5t24.5 -167.5q0 -99 -26.5 -169t-73 -114.5t-108.5 -65.5t-134 -21
zM391 86q41 0 73 15t54.5 47.5t34 84.5t11.5 127q0 74 -11.5 125t-34 83t-54.5 46.5t-73 14.5q-40 0 -72 -15t-54 -47t-34 -83.5t-12 -124.5q0 -74 12 -126t34 -84.5t54 -47.5t72 -15z" />
    <glyph glyph-name="ohungarumlaut" unicode="&#x151;" horiz-adv-x="594" 
d="M240 704h130l-98 -142h-92zM424 704h138l-139 -142h-92zM299 -11q-55 0 -101 15t-79.5 47.5t-52.5 82.5t-19 120q0 69 19 118.5t53 81.5t80.5 47.5t100.5 15.5q55 0 100.5 -14t78 -45.5t50.5 -81.5t18 -121t-19 -121.5t-52 -82.5t-78.5 -47t-98.5 -15zM297 81
q50 0 77.5 39.5t27.5 133.5t-27.5 132.5t-77.5 38.5t-77.5 -39t-27.5 -132q0 -94 27.5 -133.5t77.5 -39.5z" />
    <glyph glyph-name="OE" unicode="&#x152;" horiz-adv-x="1005" 
d="M394 0q-76 0 -137 21t-104 64.5t-66.5 110t-23.5 157.5q0 93 25 161t70 113t106.5 66.5t134.5 21.5h547l12 -100h-321v-204h280v-92h-280v-219h326l-13 -100h-556zM479 95v525h-63q-88 0 -139.5 -62.5t-51.5 -201.5q0 -70 13 -120t38 -81t60 -45.5t80 -14.5h63z" />
    <glyph glyph-name="oe" unicode="&#x153;" horiz-adv-x="925" 
d="M570 235q6 -71 45 -103t109 -32q33 0 61.5 5.5t49.5 12.5q25 7 45 17l-13 -93q-19 -14 -46 -25q-24 -11 -58 -18.5t-80 -7.5q-63 0 -112.5 18.5t-83.5 60.5q-33 -42 -81.5 -61.5t-106.5 -19.5q-55 0 -101 15t-79.5 47.5t-52.5 82.5t-19 120q0 69 19 118.5t53 81.5
t80.5 47.5t100.5 15.5q60 0 108.5 -18t80.5 -59q32 38 77 57t102 19q99 0 156 -53.5t57 -169.5q0 -11 -0.5 -21.5t-0.5 -18.5l-2 -18h-308zM672 428q-47 0 -71.5 -30t-30.5 -90h195q0 120 -93 120zM302 79q50 0 77.5 40t27.5 135q0 94 -27.5 133t-77.5 39q-51 0 -79 -39.5
t-28 -132.5q0 -95 28 -135t79 -40z" />
    <glyph glyph-name="Racute" unicode="&#x154;" horiz-adv-x="667" 
d="M372 750h-111l111 137h153zM308 313h-84v-313h-156v715h332q98 0 157.5 -48.5t59.5 -146.5q0 -80 -45.5 -129t-118.5 -64l185 -327h-164zM224 405h130q48 0 80 28.5t32 80.5q0 54 -29 80.5t-83 26.5h-130v-216z" />
    <glyph glyph-name="racute" unicode="&#x155;" horiz-adv-x="431" 
d="M272 562h-111l111 137h153zM354 517q9 0 16 -1t12 -1q5 -2 9 -3l14 -136q-6 2 -14 4q-8 1 -18.5 2t-25.5 1q-28 0 -54 -11t-45.5 -33.5t-31 -55.5t-11.5 -77v-206h-142v507h137v-111q25 54 64 87.5t90 33.5z" />
    <glyph glyph-name="Rcommaaccent" unicode="&#x156;" horiz-adv-x="667" 
d="M638 0h-164l-166 313h-84v-313h-156v715h332q98 0 157.5 -48.5t59.5 -146.5q0 -80 -45.5 -129t-118.5 -64zM224 405h130q48 0 80 28.5t32 80.5q0 54 -29 80.5t-83 26.5h-130v-216zM277 -52h130l-66 -179h-89z" />
    <glyph glyph-name="rcommaaccent" unicode="&#x157;" horiz-adv-x="431" 
d="M405 376q-6 2 -14 4q-8 1 -18.5 2t-25.5 1q-28 0 -54 -11t-45.5 -33.5t-31 -55.5t-11.5 -77v-206h-142v507h137v-111q25 54 64 87.5t90 33.5q9 0 16 -1t12 -1q5 -2 9 -3zM72 -52h130l-66 -179h-89z" />
    <glyph glyph-name="Rcaron" unicode="&#x158;" horiz-adv-x="667" 
d="M295 746l-154 110l43 41l151 -64l151 64l43 -41l-154 -110h-80zM308 313h-84v-313h-156v715h332q98 0 157.5 -48.5t59.5 -146.5q0 -80 -45.5 -129t-118.5 -64l185 -327h-164zM224 405h130q48 0 80 28.5t32 80.5q0 54 -29 80.5t-83 26.5h-130v-216z" />
    <glyph glyph-name="rcaron" unicode="&#x159;" horiz-adv-x="431" 
d="M195 558l-154 110l43 41l151 -64l151 64l43 -41l-154 -110h-80zM354 517q9 0 16 -1t12 -1q5 -2 9 -3l14 -136q-6 2 -14 4q-8 1 -18.5 2t-25.5 1q-28 0 -54 -11t-45.5 -33.5t-31 -55.5t-11.5 -77v-206h-142v507h137v-111q25 54 64 87.5t90 33.5z" />
    <glyph glyph-name="Sacute" unicode="&#x15a;" horiz-adv-x="625" 
d="M357 887h153l-153 -137h-111zM310 -9q-60 0 -106.5 10t-78.5 23q-38 14 -66 32l-12 134q32 -26 71 -46q36 -19 81 -33t100 -14q65 0 96 23.5t31 65.5t-31 62.5t-88 37.5l-77 23q-39 12 -71 28.5t-55.5 40.5t-36 56t-12.5 75q0 47 15.5 86.5t47.5 68t81 45t115 16.5
q60 0 104 -9.5t74 -20.5q34 -13 57 -30l15 -143q-28 26 -64 47q-34 19 -77 33t-98 14q-60 0 -89 -24t-29 -65q0 -39 27.5 -59.5t74.5 -34.5l78 -22q42 -12 77 -28.5t60.5 -40.5t39.5 -57t14 -78q0 -48 -17 -87.5t-50.5 -68t-83.5 -44.5t-117 -16z" />
    <glyph glyph-name="sacute" unicode="&#x15b;" horiz-adv-x="511" 
d="M298 699h153l-153 -137h-111zM253 -10q-48 0 -83.5 7t-60.5 15q-28 10 -49 22l-13 116q24 -18 54 -33q27 -13 60.5 -23t73.5 -10q86 0 86 56q0 27 -20.5 39.5t-56.5 22.5l-55 13q-31 8 -56.5 18.5t-44 27t-28.5 40t-10 56.5q0 70 49.5 114.5t154.5 44.5q47 0 81 -6
t57 -12q27 -9 45 -19l16 -115q-23 16 -51 29q-25 12 -57 20.5t-71 8.5q-42 0 -61 -15t-19 -42q0 -26 19.5 -38.5t54.5 -21.5l56 -14q31 -7 56.5 -18.5t44 -28t29 -40t10.5 -56.5q0 -69 -52 -113.5t-159 -44.5z" />
    <glyph glyph-name="Scedilla" unicode="&#x15e;" horiz-adv-x="625" 
d="M578 207q0 -89 -59.5 -149t-178.5 -67l-23 -37l32 -8q27 -6 50 -20.5t23 -48.5q0 -38 -32 -59t-91 -21q-26 0 -46 3t-33 7q-15 4 -26 10l-9 65q14 -9 30 -17q15 -6 32.5 -11t38.5 -5q46 0 46 31q0 17 -14.5 24t-32.5 12l-45 13l36 63q-52 3 -92.5 13.5t-68.5 21.5
q-32 13 -56 29l-12 134q32 -26 71 -46q36 -19 81 -33t100 -14q65 0 96 23.5t31 65.5t-31 62.5t-88 37.5l-77 23q-39 12 -71 28.5t-55.5 40.5t-36 56t-12.5 75q0 47 15.5 86.5t47.5 68t81 45t115 16.5q60 0 104 -9.5t74 -20.5q34 -13 57 -30l15 -143q-28 26 -64 47
q-34 19 -77 33t-98 14q-60 0 -89 -24t-29 -65q0 -39 27.5 -59.5t74.5 -34.5l78 -22q42 -12 77 -28.5t60.5 -40.5t39.5 -57t14 -78z" />
    <glyph glyph-name="scedilla" unicode="&#x15f;" horiz-adv-x="511" 
d="M464 148q0 -64 -44 -107t-136 -50l-23 -37l32 -8q27 -6 50 -20.5t23 -48.5q0 -38 -32 -59t-91 -21q-26 0 -46 3t-33 7q-15 4 -26 10l-9 65q14 -9 30 -17q15 -6 32.5 -11t38.5 -5q46 0 46 31q0 17 -14.5 24t-32.5 12l-45 13l36 62q-40 3 -69.5 10t-49.5 14q-24 9 -41 19
l-13 116q24 -18 54 -33q27 -13 60.5 -23t73.5 -10q86 0 86 56q0 27 -20.5 39.5t-56.5 22.5l-55 13q-31 8 -56.5 18.5t-44 27t-28.5 40t-10 56.5q0 70 49.5 114.5t154.5 44.5q47 0 81 -6t57 -12q27 -9 45 -19l16 -115q-23 16 -51 29q-25 12 -57 20.5t-71 8.5q-42 0 -61 -15
t-19 -42q0 -26 19.5 -38.5t54.5 -21.5l56 -14q31 -7 56.5 -18.5t44 -28t29 -40t10.5 -56.5z" />
    <glyph glyph-name="Scaron" unicode="&#x160;" horiz-adv-x="625" 
d="M126 856l43 41l151 -64l151 64l43 -41l-154 -110h-80zM310 -9q-60 0 -106.5 10t-78.5 23q-38 14 -66 32l-12 134q32 -26 71 -46q36 -19 81 -33t100 -14q65 0 96 23.5t31 65.5t-31 62.5t-88 37.5l-77 23q-39 12 -71 28.5t-55.5 40.5t-36 56t-12.5 75q0 47 15.5 86.5
t47.5 68t81 45t115 16.5q60 0 104 -9.5t74 -20.5q34 -13 57 -30l15 -143q-28 26 -64 47q-34 19 -77 33t-98 14q-60 0 -89 -24t-29 -65q0 -39 27.5 -59.5t74.5 -34.5l78 -22q42 -12 77 -28.5t60.5 -40.5t39.5 -57t14 -78q0 -48 -17 -87.5t-50.5 -68t-83.5 -44.5t-117 -16z
" />
    <glyph glyph-name="scaron" unicode="&#x161;" horiz-adv-x="511" 
d="M67 668l43 41l151 -64l151 64l43 -41l-154 -110h-80zM253 -10q-48 0 -83.5 7t-60.5 15q-28 10 -49 22l-13 116q24 -18 54 -33q27 -13 60.5 -23t73.5 -10q86 0 86 56q0 27 -20.5 39.5t-56.5 22.5l-55 13q-31 8 -56.5 18.5t-44 27t-28.5 40t-10 56.5q0 70 49.5 114.5
t154.5 44.5q47 0 81 -6t57 -12q27 -9 45 -19l16 -115q-23 16 -51 29q-25 12 -57 20.5t-71 8.5q-42 0 -61 -15t-19 -42q0 -26 19.5 -38.5t54.5 -21.5l56 -14q31 -7 56.5 -18.5t44 -28t29 -40t10.5 -56.5q0 -69 -52 -113.5t-159 -44.5z" />
    <glyph glyph-name="uni0162" unicode="&#x162;" horiz-adv-x="652" 
d="M365 -54q27 -6 50 -20.5t23 -48.5q0 -38 -32 -59t-91 -21q-26 0 -46 3t-33 7q-15 4 -26 10l-9 65q14 -9 30 -17q15 -6 32.5 -11t38.5 -5q46 0 46 31q0 17 -14.5 24t-32.5 12l-45 13l41 71h-50v619h-210l9 96h560l10 -96h-210v-619h-45l-28 -46z" />
    <glyph glyph-name="uni0163" unicode="&#x163;" horiz-adv-x="423" 
d="M380 25q-12 -8 -28 -15q-14 -7 -34 -12t-46 -7l-22 -37l32 -8q27 -6 50 -20.5t23 -48.5q0 -38 -32 -59t-91 -21q-26 0 -46 3t-33 7q-15 4 -26 10l-9 65q14 -9 30 -17q15 -6 32.5 -11t38.5 -5q46 0 46 31q0 17 -14.5 24t-32.5 12l-45 13l37 64q-59 11 -86 48.5t-27 100.5
v276h-69v90h69v136h144v-136h134l10 -90h-144v-263q0 -67 67 -67q18 0 32.5 3.5t25.5 7.5q13 4 23 10z" />
    <glyph glyph-name="Tcaron" unicode="&#x164;" horiz-adv-x="652" 
d="M288 746l-154 110l43 41l151 -64l151 64l43 -41l-154 -110h-80zM406 619v-619h-159v619h-210l9 96h560l10 -96h-210z" />
    <glyph glyph-name="tcaron" unicode="&#x165;" horiz-adv-x="426" 
d="M369 559h-79l23 166h118zM241 155q0 -67 67 -67q18 0 32.5 3.5t25.5 7.5q13 4 23 10l-9 -84q-14 -10 -32 -17q-17 -8 -40.5 -13t-54.5 -5q-81 0 -118.5 39.5t-37.5 112.5v276h-69v90h69v136h144v-136h134l10 -90h-144v-263z" />
    <glyph glyph-name="Tbar" unicode="&#x166;" horiz-adv-x="652" 
d="M406 410h152v-90h-152v-320h-159v320h-146v90h146v209h-210l9 96h560l10 -96h-210v-209z" />
    <glyph glyph-name="tbar" unicode="&#x167;" horiz-adv-x="426" 
d="M241 155q0 -67 67 -67q18 0 32.5 3.5t25.5 7.5q13 4 23 10l-9 -84q-14 -10 -32 -17q-17 -8 -40.5 -13t-54.5 -5q-81 0 -118.5 39.5t-37.5 112.5v107h-69v87h69v82h-69v90h69v136h144v-136h134l10 -90h-144v-82h139l9 -87h-148v-94z" />
    <glyph glyph-name="Umacron" unicode="&#x16a;" horiz-adv-x="681" 
d="M195 860h319l9 -88h-338zM336 -10q-133 0 -203 63t-70 188v474h162v-472q0 -67 35 -98.5t97 -31.5q60 0 93.5 32t33.5 98v472h135v-470q0 -126 -74.5 -190.5t-208.5 -64.5z" />
    <glyph glyph-name="umacron" unicode="&#x16b;" horiz-adv-x="575" 
d="M458 584h-338l10 88h319zM513 508v-508h-137v75q-27 -39 -70 -62t-100 -23q-75 0 -110.5 40.5t-35.5 114.5v363h142v-334q0 -32 14.5 -52t50.5 -20q42 0 72.5 31.5t30.5 98.5v276h143z" />
    <glyph glyph-name="Uring" unicode="&#x16e;" horiz-adv-x="681" 
d="M355 735q-50 0 -82.5 27t-32.5 72t32.5 72.5t82.5 27.5t82 -27.5t32 -72.5t-32 -72t-82 -27zM355 793q19 0 30.5 11t11.5 30q0 20 -11.5 31t-30.5 11q-20 0 -31.5 -11t-11.5 -31q0 -19 11.5 -30t31.5 -11zM336 -10q-133 0 -203 63t-70 188v474h162v-472q0 -67 35 -98.5
t97 -31.5q60 0 93.5 32t33.5 98v472h135v-470q0 -126 -74.5 -190.5t-208.5 -64.5z" />
    <glyph glyph-name="uring" unicode="&#x16f;" horiz-adv-x="575" 
d="M290 547q-50 0 -82.5 27t-32.5 72t32.5 72.5t82.5 27.5t82 -27.5t32 -72.5t-32 -72t-82 -27zM290 688q-20 0 -31.5 -11t-11.5 -31q0 -19 11.5 -30t31.5 -11q19 0 30.5 11t11.5 30q0 20 -11.5 31t-30.5 11zM513 508v-508h-137v75q-27 -39 -70 -62t-100 -23
q-75 0 -110.5 40.5t-35.5 114.5v363h142v-334q0 -32 14.5 -52t50.5 -20q42 0 72.5 31.5t30.5 98.5v276h143z" />
    <glyph glyph-name="Uhungarumlaut" unicode="&#x170;" horiz-adv-x="681" 
d="M295 892h130l-98 -142h-92zM479 892h138l-139 -142h-92zM336 -10q-133 0 -203 63t-70 188v474h162v-472q0 -67 35 -98.5t97 -31.5q60 0 93.5 32t33.5 98v472h135v-470q0 -126 -74.5 -190.5t-208.5 -64.5z" />
    <glyph glyph-name="uhungarumlaut" unicode="&#x171;" horiz-adv-x="575" 
d="M262 562h-92l60 142h130zM321 562l93 142h138l-139 -142h-92zM370 508h143v-508h-137v75q-27 -39 -70 -62t-100 -23q-75 0 -110.5 40.5t-35.5 114.5v363h142v-334q0 -32 14.5 -52t50.5 -20q42 0 72.5 31.5t30.5 98.5v276z" />
    <glyph glyph-name="Uogonek" unicode="&#x172;" horiz-adv-x="681" 
d="M619 715v-470q0 -88 -37.5 -146t-106.5 -86q-29 -16 -47.5 -35t-18.5 -44q0 -20 11.5 -31t37.5 -11q19 0 35 3.5t28 7.5q14 6 26 12l-10 -71q-12 -7 -27 -13q-15 -5 -33.5 -8.5t-42.5 -3.5q-60 0 -89.5 24t-29.5 64q0 26 11 46.5t30 36.5h-20q-133 0 -203 63t-70 188v474
h162v-472q0 -67 35 -98.5t97 -31.5q60 0 93.5 32t33.5 98v472h135z" />
    <glyph glyph-name="uogonek" unicode="&#x173;" horiz-adv-x="575" 
d="M451 -133q19 0 35 3.5t28 7.5q14 6 26 12l-10 -71q-12 -7 -27 -13q-15 -5 -33.5 -8.5t-42.5 -3.5q-60 0 -89.5 24t-29.5 64q0 46 33 76.5t78 41.5h-43v75q-27 -39 -70 -62t-100 -23q-75 0 -110.5 40.5t-35.5 114.5v363h142v-334q0 -32 14.5 -52t50.5 -20q42 0 72.5 31.5
t30.5 98.5v276h143v-508h-23q-37 -19 -62.5 -40.5t-25.5 -50.5q0 -20 11.5 -31t37.5 -11z" />
    <glyph glyph-name="Wcircumflex" unicode="&#x174;" horiz-adv-x="981" 
d="M353 744l-43 41l154 109h80l154 -109l-43 -41l-151 63zM952 715l-169 -715h-172l-124 504l-123 -504h-174l-161 715h175l100 -567l134 567h134l132 -569l102 569h146z" />
    <glyph glyph-name="wcircumflex" unicode="&#x175;" horiz-adv-x="785" 
d="M253 556l-43 41l154 109h80l154 -109l-43 -41l-151 63zM759 508l-136 -508h-150l-83 326l-85 -326h-149l-130 508h153l73 -383l95 383h118l88 -386l75 386h131z" />
    <glyph glyph-name="Ycircumflex" unicode="&#x176;" horiz-adv-x="695" 
d="M210 744l-43 41l154 109h80l154 -109l-43 -41l-151 63zM666 715l-241 -407v-308h-159v305l-237 410h187l149 -295l148 295h153z" />
    <glyph glyph-name="ycircumflex" unicode="&#x177;" horiz-adv-x="556" 
d="M137 556l-43 41l154 109h80l154 -109l-43 -41l-151 63zM530 508l-196 -534q-32 -90 -83 -132t-131 -42q-19 0 -34 3t-25 7q-12 4 -21 10l-10 95q9 -4 21 -8q11 -3 24.5 -5t31.5 -2q45 0 69 28.5t44 85.5l-194 494h158l112 -343l103 343h131z" />
    <glyph glyph-name="Ydieresis" unicode="&#x178;" horiz-adv-x="695" 
d="M332 768h-116v126h116v-126zM505 768h-115v126h115v-126zM666 715l-241 -407v-308h-159v305l-237 410h187l149 -295l148 295h153z" />
    <glyph glyph-name="Zacute" unicode="&#x179;" horiz-adv-x="638" 
d="M360 750h-111l111 137h153zM601 98l-15 -98h-540v98l350 519h-351l10 98h525v-98l-345 -519h366z" />
    <glyph glyph-name="zacute" unicode="&#x17a;" horiz-adv-x="524" 
d="M305 562h-111l111 137h153zM487 88l-12 -88h-432v87l249 332h-247l10 89h414v-87l-243 -333h261z" />
    <glyph glyph-name="Zdotaccent" unicode="&#x17b;" horiz-adv-x="638" 
d="M393 768h-141v126h141v-126zM601 98l-15 -98h-540v98l350 519h-351l10 98h525v-98l-345 -519h366z" />
    <glyph glyph-name="zdotaccent" unicode="&#x17c;" horiz-adv-x="524" 
d="M338 580h-141v126h141v-126zM487 88l-12 -88h-432v87l249 332h-247l10 89h414v-87l-243 -333h261z" />
    <glyph glyph-name="Zcaron" unicode="&#x17d;" horiz-adv-x="638" 
d="M283 746l-154 110l43 41l151 -64l151 64l43 -41l-154 -110h-80zM601 98l-15 -98h-540v98l350 519h-351l10 98h525v-98l-345 -519h366z" />
    <glyph glyph-name="zcaron" unicode="&#x17e;" horiz-adv-x="524" 
d="M228 558l-154 110l43 41l151 -64l151 64l43 -41l-154 -110h-80zM487 88l-12 -88h-432v87l249 332h-247l10 89h414v-87l-243 -333h261z" />
    <glyph glyph-name="florin" unicode="&#x192;" horiz-adv-x="525" 
d="M469 419h-139l-45 -452q-7 -77 -49.5 -124t-128.5 -47q-27 0 -47 5t-34 11q-16 7 -28 16l-11 83q10 -7 22 -13q11 -5 25 -8.5t31 -3.5q33 0 53 18.5t25 66.5l44 448h-72v88h81l5 48q8 78 50 124t127 46q27 0 47.5 -5t34.5 -11q16 -7 28 -16l11 -83q-10 7 -22 13
q-12 5 -26.5 8.5t-32.5 3.5q-33 0 -52 -18t-24 -66l-4 -44h122z" />
    <glyph glyph-name="Scommaaccent" unicode="&#x218;" horiz-adv-x="625" 
d="M310 -9q-60 0 -106.5 10t-78.5 23q-38 14 -66 32l-12 134q32 -26 71 -46q36 -19 81 -33t100 -14q65 0 96 23.5t31 65.5t-31 62.5t-88 37.5l-77 23q-39 12 -71 28.5t-55.5 40.5t-36 56t-12.5 75q0 47 15.5 86.5t47.5 68t81 45t115 16.5q60 0 104 -9.5t74 -20.5
q34 -13 57 -30l15 -143q-28 26 -64 47q-34 19 -77 33t-98 14q-60 0 -89 -24t-29 -65q0 -39 27.5 -59.5t74.5 -34.5l78 -22q42 -12 77 -28.5t60.5 -40.5t39.5 -57t14 -78q0 -48 -17 -87.5t-50.5 -68t-83.5 -44.5t-117 -16zM251 -52h130l-66 -179h-89z" />
    <glyph glyph-name="scommaaccent" unicode="&#x219;" horiz-adv-x="511" 
d="M253 -10q-48 0 -83.5 7t-60.5 15q-28 10 -49 22l-13 116q24 -18 54 -33q27 -13 60.5 -23t73.5 -10q86 0 86 56q0 27 -20.5 39.5t-56.5 22.5l-55 13q-31 8 -56.5 18.5t-44 27t-28.5 40t-10 56.5q0 70 49.5 114.5t154.5 44.5q47 0 81 -6t57 -12q27 -9 45 -19l16 -115
q-23 16 -51 29q-25 12 -57 20.5t-71 8.5q-42 0 -61 -15t-19 -42q0 -26 19.5 -38.5t54.5 -21.5l56 -14q31 -7 56.5 -18.5t44 -28t29 -40t10.5 -56.5q0 -69 -52 -113.5t-159 -44.5zM195 -52h130l-66 -179h-89z" />
    <glyph glyph-name="uni021A" unicode="&#x21a;" horiz-adv-x="652" 
d="M406 619v-619h-159v619h-210l9 96h560l10 -96h-210zM267 -52h130l-66 -179h-89z" />
    <glyph glyph-name="uni021B" unicode="&#x21b;" horiz-adv-x="423" 
d="M308 88q18 0 32.5 3.5t25.5 7.5q13 4 23 10l-9 -84q-14 -10 -32 -17q-17 -8 -40.5 -13t-54.5 -5q-81 0 -118.5 39.5t-37.5 112.5v276h-69v90h69v136h144v-136h134l10 -90h-144v-263q0 -67 67 -67zM184 -52h130l-66 -179h-89z" />
    <glyph glyph-name="circumflex" unicode="&#x2c6;" horiz-adv-x="516" 
d="M64 597l154 109h80l154 -109l-43 -41l-151 63l-151 -63z" />
    <glyph glyph-name="caron" unicode="&#x2c7;" horiz-adv-x="516" 
d="M64 668l43 41l151 -64l151 64l43 -41l-154 -110h-80z" />
    <glyph glyph-name="breve" unicode="&#x2d8;" horiz-adv-x="516" 
d="M258 562q-40 0 -69.5 12.5t-49.5 27.5q-24 18 -40 40l-8 64q19 -17 44 -29q23 -13 53 -21.5t70 -8.5t70.5 9t52.5 21q25 12 44 29l-9 -64q-16 -22 -40 -40q-21 -16 -49.5 -28t-68.5 -12z" />
    <glyph glyph-name="dotaccent" unicode="&#x2d9;" horiz-adv-x="516" 
d="M187 706h141v-126h-141v126z" />
    <glyph glyph-name="ring" unicode="&#x2da;" horiz-adv-x="516" 
d="M258 547q-50 0 -82.5 27t-32.5 72t32.5 72.5t82.5 27.5t82 -27.5t32 -72.5t-32 -72t-82 -27zM258 605q19 0 30.5 11t11.5 30q0 20 -11.5 31t-30.5 11q-20 0 -31.5 -11t-11.5 -31q0 -19 11.5 -30t31.5 -11z" />
    <glyph glyph-name="ogonek" unicode="&#x2db;" horiz-adv-x="516" 
d="M255 -207q-60 0 -89.5 24t-29.5 64q0 25 11 46t29.5 37t42.5 26t49 13l33 5l19 -8q-38 -19 -64 -40.5t-26 -51.5q0 -20 11.5 -31t37.5 -11q19 0 35 3.5t28 7.5q14 6 26 12l-10 -71q-12 -7 -27 -13q-15 -5 -33.5 -8.5t-42.5 -3.5z" />
    <glyph glyph-name="tilde" unicode="&#x2dc;" horiz-adv-x="516" 
d="M334 561q-30 0 -51.5 9t-39.5 20.5t-36 20.5t-41 9q-21 0 -38 -8t-29.5 -17.5t-19.5 -18t-8 -9.5l10 78q11 18 25 32q14 13 32.5 22.5t43.5 9.5q31 0 52.5 -9.5t39.5 -20.5t36 -20.5t41 -9.5q21 0 38.5 8t30 17.5t19.5 18l7 8.5l-11 -78q-10 -17 -25 -31
q-13 -13 -31.5 -22t-44.5 -9z" />
    <glyph glyph-name="hungarumlaut" unicode="&#x2dd;" horiz-adv-x="516" 
d="M198 704h130l-98 -142h-92zM382 704h138l-139 -142h-92z" />
    <glyph glyph-name="gravecomb" unicode="&#x300;" horiz-adv-x="0" 
d="M-430 699h154l113 -137h-111z" />
    <glyph glyph-name="acutecomb" unicode="&#x301;" horiz-adv-x="0" 
d="M-241 699h153l-153 -137h-111z" />
    <glyph glyph-name="uni0302" unicode="&#x302;" horiz-adv-x="0" 
d="M-452 597l154 109h80l154 -109l-43 -41l-151 63l-151 -63z" />
    <glyph glyph-name="tildecomb" unicode="&#x303;" horiz-adv-x="0" 
d="M-182 561q-30 0 -51.5 9t-39.5 20.5t-36 20.5t-41 9q-21 0 -38 -8t-29.5 -17.5t-19.5 -18t-8 -9.5l10 78q11 18 25 32q14 13 32.5 22.5t43.5 9.5q31 0 52.5 -9.5t39.5 -20.5t36 -20.5t41 -9.5q21 0 38.5 8t30 17.5t19.5 18l7 8.5l-11 -78q-10 -17 -25 -31
q-13 -13 -31.5 -22t-44.5 -9z" />
    <glyph glyph-name="uni0304" unicode="&#x304;" horiz-adv-x="0" 
d="M-418 672h319l9 -88h-338z" />
    <glyph glyph-name="uni0306" unicode="&#x306;" horiz-adv-x="0" 
d="M-258 562q-40 0 -69.5 12.5t-49.5 27.5q-24 18 -40 40l-8 64q19 -17 44 -29q23 -13 53 -21.5t70 -8.5t70.5 9t52.5 21q25 12 44 29l-9 -64q-16 -22 -40 -40q-21 -16 -49.5 -28t-68.5 -12z" />
    <glyph glyph-name="uni0307" unicode="&#x307;" horiz-adv-x="0" 
d="M-329 706h141v-126h-141v126z" />
    <glyph glyph-name="uni0308" unicode="&#x308;" horiz-adv-x="0" 
d="M-403 706h116v-126h-116v126zM-229 706h115v-126h-115v126z" />
    <glyph glyph-name="uni030A" unicode="&#x30a;" horiz-adv-x="0" 
d="M-258 547q-50 0 -82.5 27t-32.5 72t32.5 72.5t82.5 27.5t82 -27.5t32 -72.5t-32 -72t-82 -27zM-258 605q19 0 30.5 11t11.5 30q0 20 -11.5 31t-30.5 11q-20 0 -31.5 -11t-11.5 -31q0 -19 11.5 -30t31.5 -11z" />
    <glyph glyph-name="uni030B" unicode="&#x30b;" horiz-adv-x="0" 
d="M-318 704h130l-98 -142h-92zM-134 704h139l-140 -142h-92z" />
    <glyph glyph-name="uni030C" unicode="&#x30c;" horiz-adv-x="0" 
d="M-452 668l43 41l151 -64l151 64l43 -41l-154 -110h-80z" />
    <glyph glyph-name="uni0326" unicode="&#x326;" horiz-adv-x="0" 
d="M-320 -52h130l-66 -179h-89z" />
    <glyph glyph-name="uni0327" unicode="&#x327;" horiz-adv-x="0" 
d="M-272 -203q-26 0 -46 3t-33 7q-15 4 -26 10l-9 65q14 -9 30 -17q15 -6 32.5 -11t38.5 -5q46 0 46 31q0 17 -14.5 24t-32.5 12l-45 13l46 79h64l-33 -54l32 -8q27 -6 50 -20.5t23 -48.5q0 -38 -32 -59t-91 -21z" />
    <glyph glyph-name="uni0328" unicode="&#x328;" horiz-adv-x="0" 
d="M-261 -207q-60 0 -89.5 24t-29.5 64q0 25 11 46t29.5 37t42 26t49.5 13l33 5l19 -8q-38 -19 -64 -40.5t-26 -51.5q0 -20 11.5 -31t37.5 -11q19 0 35 3.5t28 7.5q14 6 26 12l-10 -71q-12 -7 -28 -13q-14 -5 -32.5 -8.5t-42.5 -3.5z" />
    <glyph glyph-name="uni0394" unicode="&#x394;" horiz-adv-x="625" 
d="M232 715h159l208 -715h-570zM449 93l-142 487l-137 -487h279z" />
    <glyph glyph-name="uni03A9" unicode="&#x3a9;" horiz-adv-x="778" 
d="M44 101h134q-9 8 -30 28t-43 54t-39 81.5t-17 110.5q0 83 24 148t68.5 110t108 68.5t141.5 23.5t141 -23t106.5 -67t67 -109.5t23.5 -150.5q0 -62 -17.5 -110t-40 -82t-44 -54t-30.5 -28h137l-11 -101h-309q19 19 44.5 48.5t48 73.5t38 104t15.5 140q0 134 -44 195
t-126 61q-80 0 -126 -62t-46 -195q0 -80 15.5 -140t38 -103.5t48 -73t44.5 -48.5h-308z" />
    <glyph glyph-name="uni03BC" unicode="&#x3bc;" horiz-adv-x="575" 
d="M513 507v-507h-137v77q-27 -38 -70 -60.5t-100 -22.5q-2 0 -2.5 0.5t-1.5 0.5v-189h-142v389v312h141v-332q0 -32 14 -52t51 -20q43 0 74 31t31 98v275h142z" />
    <glyph glyph-name="pi" unicode="&#x3c0;" horiz-adv-x="730" 
d="M553 -10q-81 0 -119 39.5t-38 112.5v277h-133v-419h-142v420h-81v87h639l2 -88h-141v-265q0 -67 67 -67q17 0 32 3.5t26 8.5q13 5 24 12l-9 -86q-14 -10 -33 -17q-17 -8 -40 -13t-54 -5z" />
    <glyph glyph-name="Wgrave" unicode="&#x1e80;" horiz-adv-x="981" 
d="M488 750l-156 137h154l113 -137h-111zM952 715l-169 -715h-172l-124 504l-123 -504h-174l-161 715h175l100 -567l134 567h134l132 -569l102 569h146z" />
    <glyph glyph-name="wgrave" unicode="&#x1e81;" horiz-adv-x="785" 
d="M388 562l-156 137h154l113 -137h-111zM759 508l-136 -508h-150l-83 326l-85 -326h-149l-130 508h153l73 -383l95 383h118l88 -386l75 386h131z" />
    <glyph glyph-name="Wacute" unicode="&#x1e82;" horiz-adv-x="981" 
d="M541 750h-111l111 137h153zM952 715l-169 -715h-172l-124 504l-123 -504h-174l-161 715h175l100 -567l134 567h134l132 -569l102 569h146z" />
    <glyph glyph-name="wacute" unicode="&#x1e83;" horiz-adv-x="785" 
d="M441 562h-111l111 137h153zM759 508l-136 -508h-150l-83 326l-85 -326h-149l-130 508h153l73 -383l95 383h118l88 -386l75 386h131z" />
    <glyph glyph-name="Wdieresis" unicode="&#x1e84;" horiz-adv-x="981" 
d="M475 768h-116v126h116v-126zM648 768h-115v126h115v-126zM952 715l-169 -715h-172l-124 504l-123 -504h-174l-161 715h175l100 -567l134 567h134l132 -569l102 569h146z" />
    <glyph glyph-name="wdieresis" unicode="&#x1e85;" horiz-adv-x="785" 
d="M375 580h-116v126h116v-126zM548 580h-115v126h115v-126zM759 508l-136 -508h-150l-83 326l-85 -326h-149l-130 508h153l73 -383l95 383h118l88 -386l75 386h131z" />
    <glyph glyph-name="Ygrave" unicode="&#x1ef2;" horiz-adv-x="695" 
d="M345 750l-156 137h154l113 -137h-111zM666 715l-241 -407v-308h-159v305l-237 410h187l149 -295l148 295h153z" />
    <glyph glyph-name="ygrave" unicode="&#x1ef3;" horiz-adv-x="556" 
d="M272 562l-156 137h154l113 -137h-111zM530 508l-196 -534q-32 -90 -83 -132t-131 -42q-19 0 -34 3t-25 7q-12 4 -21 10l-10 95q9 -4 21 -8q11 -3 24.5 -5t31.5 -2q45 0 69 28.5t44 85.5l-194 494h158l112 -343l103 343h131z" />
    <glyph glyph-name="endash" unicode="&#x2013;" 
d="M79 330h470v-103h-470v103z" />
    <glyph glyph-name="emdash" unicode="&#x2014;" horiz-adv-x="836" 
d="M59 330h718v-103h-718v103z" />
    <glyph glyph-name="quoteleft" unicode="&#x2018;" horiz-adv-x="259" 
d="M132 715h90l-50 -269h-135z" />
    <glyph glyph-name="quoteright" unicode="&#x2019;" horiz-adv-x="259" 
d="M86 715l136 -1l-95 -268h-90z" />
    <glyph glyph-name="quotesinglbase" unicode="&#x201a;" horiz-adv-x="259" 
d="M73 144h144l-95 -275h-99z" />
    <glyph glyph-name="quotedblleft" unicode="&#x201c;" horiz-adv-x="450" 
d="M133 715h92l-50 -268h-137zM316 715h92l-50 -269h-136z" />
    <glyph glyph-name="quotedblright" unicode="&#x201d;" horiz-adv-x="450" 
d="M86 715h136l-94 -269h-91zM269 715h137l-95 -269h-92z" />
    <glyph glyph-name="quotedblbase" unicode="&#x201e;" horiz-adv-x="444" 
d="M82 144h136l-95 -275h-91zM265 144h136l-94 -275h-92z" />
    <glyph glyph-name="dagger" unicode="&#x2020;" 
d="M270 393l-208 -16v118l207 -15l-16 235h120l-16 -235l209 15v-118l-209 16l15 -585h-118z" />
    <glyph glyph-name="daggerdbl" unicode="&#x2021;" 
d="M269 31l-207 -15v118l207 -16l-12 143l12 146l-207 -16v119l207 -16l-16 221h120l-16 -221l209 16v-119l-209 16l13 -146l-13 -143l209 16v-118l-209 15l16 -223h-120z" />
    <glyph glyph-name="bullet" unicode="&#x2022;" horiz-adv-x="398" 
d="M200 146q-60 0 -97 36.5t-37 97.5t37.5 98t94.5 37q62 0 97.5 -36t35.5 -97t-36 -98.5t-95 -37.5z" />
    <glyph glyph-name="ellipsis" unicode="&#x2026;" horiz-adv-x="746" 
d="M61 154h137v-154h-137v154zM305 154h137v-154h-137v154zM548 154h137v-154h-137v154z" />
    <glyph glyph-name="perthousand" unicode="&#x2030;" horiz-adv-x="945" 
d="M170 361q-69 0 -100.5 47.5t-31.5 133.5q0 89 33 136t100 47q69 0 99.5 -47.5t30.5 -134.5q0 -88 -32.5 -135t-98.5 -47zM463 715h90l-360 -715h-91zM170 421q25 0 37 29.5t12 92.5q0 64 -11.5 93t-37.5 29t-38 -29t-12 -93q0 -63 12 -92.5t38 -29.5zM484 -9
q-69 0 -100 48t-31 133q0 89 33 136t100 47q69 0 99.5 -47.5t30.5 -134.5q0 -88 -33 -135t-99 -47zM777 -9q-69 0 -100.5 48t-31.5 133q0 89 33 136t100 47q69 0 99.5 -47.5t30.5 -134.5q0 -88 -32.5 -135t-98.5 -47zM484 52q26 0 37.5 29t11.5 93q0 63 -11 92t-37 29
t-38 -29t-12 -92q0 -64 11.5 -93t37.5 -29zM777 52q25 0 37 29t12 93q0 63 -11.5 92t-37.5 29t-38 -29t-12 -92q0 -64 12 -93t38 -29z" />
    <glyph glyph-name="guilsinglleft" unicode="&#x2039;" horiz-adv-x="354" 
d="M49 281l198 235l58 -48l-117 -188l117 -191l-58 -44z" />
    <glyph glyph-name="guilsinglright" unicode="&#x203a;" horiz-adv-x="354" 
d="M49 89l117 191l-117 188l58 48l198 -235l-198 -236z" />
    <glyph glyph-name="fraction" unicode="&#x2044;" horiz-adv-x="36" 
d="M155 715h90l-363 -715h-91z" />
    <glyph glyph-name="Euro" unicode="&#x20ac;" 
d="M426 103q35 0 63 5.5t48 12.5q23 8 41 18l-11 -98q-18 -14 -43 -25q-24 -11 -56.5 -18.5t-78.5 -7.5q-55 0 -98.5 18t-76 51t-53.5 80t-31 104h-87v81h78q0 8 -0.5 16.5t-0.5 16.5t0.5 15t0.5 15h-78v80h86q20 117 84.5 186.5t176.5 69.5q43 0 75 -7t53 -16
q24 -10 41 -23l12 -120q-20 16 -44 29q-23 12 -51.5 20.5t-63.5 8.5q-61 0 -94 -39t-46 -109h228v-80h-235q-1 -7 -1 -14v-14q0 -9 0.5 -18t0.5 -17h235v-81h-225q14 -67 50.5 -103.5t100.5 -36.5z" />
    <glyph glyph-name="trademark" unicode="&#x2122;" horiz-adv-x="867" 
d="M159 648h-107l7 67h298l7 -67h-106v-295h-99v295zM406 715h129l66 -241l67 241h127v-362h-88v256l-72 -256h-80l-72 255v-255h-77v362z" />
    <glyph glyph-name="partialdiff" unicode="&#x2202;" 
d="M300 -10q-50 0 -94 16t-76.5 47t-51 75t-18.5 100q0 58 15.5 102t42.5 73.5t64.5 44.5t81.5 15q35 0 62 -9.5t47 -23t32.5 -29.5t19.5 -30q-2 67 -17.5 113.5t-40.5 76t-57.5 43t-68.5 13.5q-34 0 -61 -7.5t-46 -16.5q-22 -11 -39 -24l11 116q17 11 41 20q21 8 50.5 14
t69.5 6q68 0 124 -25t96.5 -73.5t62.5 -119t22 -161.5q0 -178 -73 -267t-199 -89zM306 90q51 0 81.5 40.5t30.5 109.5q0 58 -33 93t-81 35q-51 0 -77.5 -34.5t-26.5 -99.5q0 -69 30 -106.5t76 -37.5z" />
    <glyph glyph-name="product" unicode="&#x220f;" horiz-adv-x="625" 
d="M117 618h-80l10 97h531l11 -97h-80v-618h-137v618h-117v-618h-138v618z" />
    <glyph glyph-name="summation" unicode="&#x2211;" 
d="M59 -18l236 311l-236 318v104h512v-201h-104v101h-260l233 -322l-233 -317h260v101h104v-200h-512v105z" />
    <glyph glyph-name="minus" unicode="&#x2212;" 
d="M79 330h470v-103h-470v103z" />
    <glyph glyph-name="radical" unicode="&#x221a;" horiz-adv-x="625" 
d="M101 406h-78l9 101h171l92 -372l140 590h182v-102h-88l-164 -623h-149z" />
    <glyph glyph-name="infinity" unicode="&#x221e;" horiz-adv-x="854" 
d="M613 490q45 0 81.5 -15t62.5 -42.5t40 -66.5t14 -87t-15 -87t-41.5 -67t-64 -43t-82.5 -15q-37 0 -65.5 10.5t-50.5 28t-38 40.5t-30 48q-14 -25 -30.5 -48t-38 -40.5t-48.5 -28t-63 -10.5q-45 0 -82 15t-63.5 42.5t-41 67t-14.5 87.5t14.5 87t40.5 66.5t63 42.5t82 15
q38 0 66.5 -10t50.5 -27t38.5 -39.5t29.5 -46.5q15 24 32.5 46.5t39.5 39.5t50 27t63 10zM255 178q44 0 72.5 30t52.5 72q-21 42 -49 70.5t-75 28.5t-74 -26t-27 -74t26.5 -74.5t73.5 -26.5zM598 178q47 0 74 26.5t27 74.5t-26.5 74t-73.5 26t-76.5 -28t-52.5 -68
q11 -22 23.5 -41t27.5 -33t34 -22.5t43 -8.5z" />
    <glyph glyph-name="integral" unicode="&#x222b;" horiz-adv-x="443" 
d="M127 -202q-26 0 -45.5 4t-32.5 9q-16 6 -27 13l-7 77q8 -4 17 -7q8 -2 18 -4t22 -2q64 0 64 72v600q0 75 41.5 118t122.5 43q28 0 49.5 -4t37.5 -9q18 -6 31 -14l8 -83q-10 6 -22 10q-11 4 -25 7t-31 3q-30 0 -49 -15t-19 -56v-598q0 -80 -39 -122t-114 -42z" />
    <glyph glyph-name="approxequal" unicode="&#x2248;" 
d="M411 284q-39 0 -66.5 11.5t-51.5 25.5t-47 25.5t-53 11.5q-28 0 -49.5 -11t-35.5 -24q-17 -16 -29 -36v97q15 21 35 38q18 16 43 27t58 11q39 0 67 -11.5t52 -26t47.5 -26t52.5 -11.5q28 0 49.5 11t36.5 25q17 16 29 36v-97q-15 -21 -36 -38q-18 -16 -43 -27t-59 -11z
M411 102q-39 0 -66.5 11.5t-51 26t-47 26t-53.5 11.5q-28 0 -49.5 -11t-35.5 -25q-17 -16 -29 -36v98q15 21 35 38q19 16 43.5 27t57.5 11q39 0 67 -12t52 -26t47.5 -26t52.5 -12q28 0 49.5 11.5t36.5 25.5q17 16 29 36v-98q-15 -21 -36 -38q-18 -16 -43 -27t-59 -11z" />
    <glyph glyph-name="notequal" unicode="&#x2260;" 
d="M378 315l-24 -74h195v-102h-228l-32 -97h-102l32 97h-140v102h174l24 74h-198v103h232l31 96h102l-32 -96h137v-103h-171z" />
    <glyph glyph-name="lessequal" unicode="&#x2264;" 
d="M74 280v112l471 152v-107l-335 -100l335 -97v-107zM74 97h471v-97h-471v97z" />
    <glyph glyph-name="greaterequal" unicode="&#x2265;" horiz-adv-x="627" 
d="M78 240l335 97l-335 100v107l471 -152v-112l-471 -147v107zM78 97h471v-97h-471v97z" />
    <glyph glyph-name="lozenge" unicode="&#x25ca;" 
d="M32 289l283 287l281 -287l-281 -285zM456 289l-141 147l-143 -147l143 -146z" />
    <glyph glyph-name="eight.dnom" horiz-adv-x="325" 
d="M162 -10q-59 0 -95 26t-36 74q0 36 19 55t41 28q-21 11 -35.5 31t-14.5 50q0 46 32 72.5t89 26.5t89.5 -25t32.5 -71q0 -29 -14 -48.5t-37 -30.5q26 -11 43 -31.5t17 -54.5q0 -48 -36.5 -75t-94.5 -27zM164 199q17 0 29.5 14.5t12.5 35.5q0 23 -11.5 35.5t-32.5 12.5
t-32.5 -12.5t-11.5 -35.5t13 -36.5t33 -13.5zM162 47q52 0 52 50q0 23 -14 36t-37 13q-24 0 -38.5 -13t-14.5 -36q0 -50 52 -50z" />
    <glyph glyph-name="eight.osf" 
d="M314 -10q-58 0 -106 13t-83 38.5t-54.5 63t-19.5 86.5q0 41 13.5 69.5t33.5 48.5t43 32.5t42 19.5q-17 7 -36.5 19.5t-36 32.5t-27.5 48t-11 67q0 92 64.5 144.5t177.5 52.5q114 0 178 -50t64 -141q0 -37 -11 -64.5t-28 -47t-36 -32.5t-36 -21q19 -7 42 -19t43 -32.5
t33.5 -50t13.5 -72.5q0 -49 -19.5 -87t-54.5 -64t-83.5 -40t-105.5 -14zM317 409q39 0 67.5 30.5t28.5 79.5q0 48 -25 76t-74 28q-48 0 -73.5 -28.5t-25.5 -76.5q0 -52 29 -80.5t73 -28.5zM314 92q55 0 85.5 29.5t30.5 81.5q0 54 -33 81.5t-82 27.5t-83 -27.5t-34 -81.5
q0 -52 30.5 -81.5t85.5 -29.5z" />
    <glyph glyph-name="five.dnom" horiz-adv-x="325" 
d="M158 -10q-31 0 -53.5 6t-37.5 13q-18 8 -30 18l-6 63q16 -11 35 -20q17 -8 38 -14t47 -6q28 0 41.5 14t13.5 37q0 34 -27 49t-84 22l-47 6l25 164h193l6 -62h-139l-7 -55l16 -2q74 -10 111 -37t37 -81q0 -53 -36.5 -84t-95.5 -31z" />
    <glyph glyph-name="five.osf" 
d="M273 264q148 -15 223.5 -72t75.5 -167q0 -50 -18.5 -91.5t-53 -71.5t-82.5 -46.5t-108 -16.5q-62 0 -107.5 11.5t-75.5 25.5q-36 16 -61 37l-11 116q32 -22 70 -40q35 -16 77.5 -28t93.5 -12q63 0 91.5 31.5t28.5 78.5q0 40 -17 67t-49 44.5t-77.5 27t-103.5 15.5l-80 8
l56 327h377l13 -117h-283l-20 -123z" />
    <glyph glyph-name="four.dnom" horiz-adv-x="325" 
d="M180 75h-156v54l129 213h105v-209h44v-58h-44v-75h-78v75zM180 133v123l-77 -123h77z" />
    <glyph glyph-name="four.osf" 
d="M590 0h-91v-191h-142v191h-317v102l266 406h193v-400h91v-108zM357 108v282l-177 -282h177z" />
    <glyph glyph-name="i.loclTRK" horiz-adv-x="268" 
d="M67 706h141v-126h-141v126zM63 508h142v-508h-142v508z" />
    <glyph glyph-name="nine.dnom" horiz-adv-x="325" 
d="M139 -8q-20 0 -35 3t-25 7q-12 4 -21 9l-5 63q8 -7 19 -12q10 -5 23 -8.5t31 -3.5q35 0 58.5 27t27.5 77q-10 -14 -29 -25.5t-48 -11.5q-47 0 -73 29t-26 83q0 55 33.5 89.5t86.5 34.5q67 0 101.5 -46.5t34.5 -129.5q0 -86 -41 -135.5t-112 -49.5zM158 170
q22 0 36.5 16.5t14.5 42.5q0 31 -14 49.5t-37 18.5q-21 0 -33.5 -17t-12.5 -49q0 -61 46 -61z" />
    <glyph glyph-name="nine.osf" 
d="M262 -201q-40 0 -70 6t-50 13q-23 8 -40 19l-11 119q17 -13 39 -24q21 -10 47.5 -17t60.5 -7q36 0 69 13t58 41t40.5 72.5t16.5 107.5q-7 -13 -21 -28.5t-35 -29t-49 -22.5t-63 -9q-43 0 -79.5 13.5t-63 41t-41 68.5t-14.5 96q0 56 18.5 101.5t51 77.5t76 49t93.5 17
q130 0 201.5 -87t71.5 -261q0 -89 -22.5 -158t-63 -116t-96.5 -71.5t-124 -24.5zM300 149q24 0 44.5 9t36 25t24.5 39t9 50q0 66 -31 105t-83 39q-46 0 -74.5 -36t-28.5 -103q0 -61 26.5 -94.5t76.5 -33.5z" />
    <glyph glyph-name="one.dnom" horiz-adv-x="325" 
d="M30 56h98v203l-80 -37l8 67l94 53h60v-286h82l-6 -56h-249z" />
    <glyph glyph-name="one.osf" horiz-adv-x="417" 
d="M349 507v-507h-148v364l-158 -81l13 118l183 106h110z" />
    <glyph glyph-name="seven.dnom" horiz-adv-x="336" 
d="M210 281h-176l5 61h259v-58l-130 -284h-84z" />
    <glyph glyph-name="seven.osf" horiz-adv-x="626" 
d="M570 508v-112l-256 -587h-149l248 585h-359l13 114h503z" />
    <glyph glyph-name="six.dnom" horiz-adv-x="325" 
d="M169 -10q-67 0 -101 46.5t-34 129.5q0 86 40.5 135.5t111.5 49.5q20 0 35 -3t25 -6q12 -5 21 -10l6 -63q-8 7 -19 12q-10 5 -23 8.5t-31 3.5q-35 0 -59 -27t-28 -77q11 14 30 25.5t47 11.5q47 0 73.5 -29t26.5 -83q0 -55 -34 -89.5t-87 -34.5zM167 46q21 0 33.5 17
t13.5 49q0 61 -47 61q-21 0 -35.5 -16.5t-14.5 -42.5q-1 -31 13 -49.5t37 -18.5z" />
    <glyph glyph-name="six.osf" 
d="M373 463q44 0 80.5 -13.5t63 -41.5t41 -70t14.5 -98q0 -57 -18.5 -103t-51 -79t-76 -50.5t-94.5 -17.5q-127 0 -199.5 89t-72.5 267q0 91 22.5 161.5t62.5 119t96.5 73.5t123.5 25q40 0 70 -6t50 -14q24 -9 41 -20l10 -116q-16 13 -38 24q-20 10 -46.5 17t-60.5 7
q-36 0 -69 -13.5t-58 -42t-40.5 -74t-17.5 -109.5q8 12 22 27t35 28t48.5 21.5t61.5 8.5zM329 90q46 0 75 37.5t29 106.5q0 65 -27.5 99.5t-78.5 34.5q-48 0 -81 -35t-33 -93q0 -69 33 -109.5t83 -40.5z" />
    <glyph glyph-name="three.dnom" horiz-adv-x="325" 
d="M160 -10q-31 0 -54 6t-38 13q-18 8 -30 19l-6 62q16 -11 35 -20q17 -8 38.5 -14t47.5 -6q29 0 43 14t14 36q0 46 -50 46h-61v55h58q22 0 35 13t13 35q0 43 -50 43q-25 0 -46.5 -6t-37.5 -13q-19 -9 -34 -20l6 62q14 11 33 19q17 8 39.5 13.5t51.5 5.5q57 0 88.5 -25
t31.5 -70q0 -32 -16.5 -51.5t-33.5 -29.5q20 -8 38.5 -26.5t18.5 -54.5q0 -48 -36.5 -77t-97.5 -29z" />
    <glyph glyph-name="three.osf" 
d="M444 168q20 -6 42.5 -17t41.5 -30.5t31.5 -48t12.5 -67.5q0 -47 -19 -85t-54 -65t-84 -41.5t-108 -14.5q-63 0 -108 11.5t-75 24.5q-35 17 -58 37l-10 117q30 -22 67 -40q33 -16 75.5 -27.5t95.5 -11.5q60 0 91.5 29.5t31.5 73.5q0 49 -31.5 73.5t-83.5 24.5h-117v102
h112q48 0 78.5 26.5t30.5 74.5q0 42 -26.5 67t-83.5 25q-50 0 -92 -12t-72 -27q-37 -17 -66 -39l12 113q28 21 65 38q33 16 76.5 27t99.5 11q112 0 174.5 -48.5t62.5 -136.5q0 -34 -11 -61t-28 -47t-36.5 -34t-36.5 -22z" />
    <glyph glyph-name="two.dnom" horiz-adv-x="325" 
d="M34 10q0 45 20 77t65 63l29 19q28 20 42.5 36.5t14.5 42.5q0 44 -51 44q-26 0 -47.5 -6t-36.5 -13q-19 -9 -34 -20l7 63q14 10 33 19q17 7 39.5 12.5t51.5 5.5q56 0 88 -25.5t32 -75.5q0 -42 -21 -69.5t-56 -50.5l-29 -19q-26 -17 -40.5 -31t-19.5 -27h172l-6 -55h-253
v10z" />
    <glyph glyph-name="two.osf" 
d="M575 100l-11 -100h-503v23q0 41 13.5 72t37 55t54.5 40.5t67 27.5l61 20q56 17 87 37.5t31 61.5q0 35 -26.5 55.5t-84.5 20.5q-51 0 -93.5 -12t-73.5 -26q-36 -17 -65 -38l10 110q29 20 68 36q34 14 79 24.5t102 10.5q115 0 175.5 -42t60.5 -127q0 -38 -13.5 -66.5
t-37 -48.5t-53.5 -33t-63 -21l-63 -16q-46 -11 -76 -26t-43 -38h360z" />
    <glyph glyph-name="zero.dnom" horiz-adv-x="325" 
d="M162 -10q-69 0 -100 47.5t-31 133.5q0 89 33 135.5t100 46.5q69 0 99.5 -47t30.5 -134q0 -88 -32.5 -135t-99.5 -47zM162 50q26 0 38 29.5t12 92.5t-11.5 92.5t-37.5 29.5t-38 -29t-12 -93q0 -63 11.5 -92.5t37.5 -29.5z" />
    <glyph glyph-name="zero.osf" 
d="M313 -10q-128 0 -192.5 69t-64.5 194q0 128 68 196t193 68q132 0 193.5 -68.5t61.5 -193.5q0 -128 -67 -196.5t-192 -68.5zM314 79q55 0 84 40t29 134q0 93 -27.5 134t-84.5 41t-85.5 -41t-28.5 -134q0 -94 28 -134t85 -40z" />
    </font>
</defs>
</svg>
