<svg xmlns="http://www.w3.org/2000/svg" viewBox="0 0 814.5 274.9"><defs><style>.cls-1{fill:#73797c;}.cls-2{fill:#b20e10;}</style></defs><title>gmh-logo</title><g id="Ebene_2" data-name="Ebene 2"><g id="Ebene_1-2" data-name="Ebene 1"><path class="cls-1" d="M209.08,217.5v-5.8h30.8v37.2h-5.8V236.6a34.18,34.18,0,0,1-4.35,5.85,23.63,23.63,0,0,1-5.65,4.5,27.56,27.56,0,0,1-7.4,2.85,40.92,40.92,0,0,1-9.5,1,32.65,32.65,0,0,1-12.6-2.4,27,27,0,0,1-10-7.15A33.44,33.44,0,0,1,178,229.3a54.43,54.43,0,0,1-2.35-16.8,52.53,52.53,0,0,1,2-14.75,33.32,33.32,0,0,1,6.15-11.9,29.21,29.21,0,0,1,10.4-7.95A34.84,34.84,0,0,1,209,175a39.12,39.12,0,0,1,10.65,1.4,28.07,28.07,0,0,1,8.9,4.25,25.49,25.49,0,0,1,6.65,7.1,29.88,29.88,0,0,1,3.9,10.05h-7a20.89,20.89,0,0,0-3.05-7.2,20.68,20.68,0,0,0-5.15-5.35,23.4,23.4,0,0,0-6.7-3.3,25.64,25.64,0,0,0-7.7-1.15,27.43,27.43,0,0,0-12.2,2.5,22.45,22.45,0,0,0-8.4,7,30.9,30.9,0,0,0-4.85,10.9,58.94,58.94,0,0,0-1.55,13.95,37,37,0,0,0,1.75,11.4,29,29,0,0,0,5.1,9.5,24.06,24.06,0,0,0,19.25,8.9,29.35,29.35,0,0,0,6-.65,23.3,23.3,0,0,0,6-2.15,22.86,22.86,0,0,0,5.4-3.9,22.07,22.07,0,0,0,4.3-5.9,25.44,25.44,0,0,0,2.35-7.1,50.7,50.7,0,0,0,.75-7.8Z"/><path class="cls-1" d="M256,248.9v-72h10.4L290,240.4h.2l23.2-63.5h10.3v72h-6.8V184.7h-.2l-23.6,64.2h-6.4L263,184.7h-.2v64.2Z"/><path class="cls-1" d="M339.08,248.9v-72h6.8v30.9h42.6V176.9h6.8v72h-6.8V213.6h-42.6v35.3Z"/><path class="cls-1" d="M445.18,174.9v100h-6v-100Z"/><path class="cls-1" d="M498.07,190.62v-1.91h10.16V201h-1.91v-4.06a11.14,11.14,0,0,1-1.44,1.93,7.92,7.92,0,0,1-1.86,1.49,9,9,0,0,1-2.45.94,13.55,13.55,0,0,1-3.13.33,10.93,10.93,0,0,1-4.16-.79,8.91,8.91,0,0,1-3.3-2.36,11.17,11.17,0,0,1-2.16-4A17.77,17.77,0,0,1,487,189a17.32,17.32,0,0,1,.66-4.87,11,11,0,0,1,2-3.92,9.63,9.63,0,0,1,3.43-2.63,11.47,11.47,0,0,1,4.87-1,12.8,12.8,0,0,1,3.52.47,8.93,8.93,0,0,1,2.93,1.4,8.62,8.62,0,0,1,2.2,2.34,10.1,10.1,0,0,1,1.29,3.32h-2.31a7.13,7.13,0,0,0-1-2.38A6.79,6.79,0,0,0,503,180a7.47,7.47,0,0,0-2.21-1.09,8.63,8.63,0,0,0-2.54-.38,9.08,9.08,0,0,0-4,.82,7.45,7.45,0,0,0-2.77,2.33,10.05,10.05,0,0,0-1.6,3.6,19.4,19.4,0,0,0-.51,4.6,12,12,0,0,0,.58,3.76,9.49,9.49,0,0,0,1.68,3.14,7.92,7.92,0,0,0,6.35,2.93,9.81,9.81,0,0,0,2-.21,7.7,7.7,0,0,0,2-.71,7.54,7.54,0,0,0,1.78-1.29,7,7,0,0,0,1.42-1.94,8.55,8.55,0,0,0,.78-2.35,17.39,17.39,0,0,0,.24-2.57Z"/><path class="cls-1" d="M514.07,192.9a9.37,9.37,0,0,0,.36,2.62,6.39,6.39,0,0,0,1.08,2.15,5.27,5.27,0,0,0,1.8,1.45,5.54,5.54,0,0,0,2.5.54,5.45,5.45,0,0,0,3.33-1,4.86,4.86,0,0,0,1.85-2.91h2.22a11.56,11.56,0,0,1-1,2.27,7,7,0,0,1-1.49,1.81,6.44,6.44,0,0,1-2.11,1.21,8.71,8.71,0,0,1-2.84.42,8.33,8.33,0,0,1-3.53-.69,6.58,6.58,0,0,1-2.44-1.9,8,8,0,0,1-1.42-2.83,12.86,12.86,0,0,1-.46-3.52,11.3,11.3,0,0,1,.54-3.53,9.21,9.21,0,0,1,1.55-2.89,7.12,7.12,0,0,1,5.76-2.65,6.82,6.82,0,0,1,5.55,2.42q2,2.43,2,7.05Zm11.16-1.65a7.83,7.83,0,0,0-.35-2.36,5.52,5.52,0,0,0-1-1.92,4.9,4.9,0,0,0-1.71-1.28,5.44,5.44,0,0,0-2.34-.48,5.18,5.18,0,0,0-2.32.49,5.24,5.24,0,0,0-1.72,1.32,6.78,6.78,0,0,0-1.14,1.92,9.08,9.08,0,0,0-.56,2.31Z"/><path class="cls-1" d="M533.08,201h-2V177.22h2v9.41a6.14,6.14,0,0,1,2.62-2.4,7.85,7.85,0,0,1,3.48-.8,7.17,7.17,0,0,1,3.38.74,6.85,6.85,0,0,1,2.38,2,8.19,8.19,0,0,1,1.4,2.89,12.57,12.57,0,0,1,.47,3.43,14.28,14.28,0,0,1-.43,3.53,7.71,7.71,0,0,1-1.37,2.85,6.57,6.57,0,0,1-2.39,1.9,8.22,8.22,0,0,1-3.54.69,6.18,6.18,0,0,1-1.68-.23,7.64,7.64,0,0,1-1.67-.66,6.63,6.63,0,0,1-1.48-1.07,5.52,5.52,0,0,1-1.11-1.5h-.06Zm0-8.61a10.35,10.35,0,0,0,.38,2.89,7.07,7.07,0,0,0,1.1,2.31,5.18,5.18,0,0,0,1.82,1.53,5.35,5.35,0,0,0,2.47.56,6,6,0,0,0,2.31-.44,5.34,5.34,0,0,0,1.85-1.31,6.11,6.11,0,0,0,1.24-2.09,8.38,8.38,0,0,0,.44-2.86,10.94,10.94,0,0,0-.26-3,7.2,7.2,0,0,0-1.06-2.46,5.22,5.22,0,0,0-1.86-1.66,5.5,5.5,0,0,0-2.66-.61,5.06,5.06,0,0,0-2.42.57,5.69,5.69,0,0,0-1.82,1.56,7.1,7.1,0,0,0-1.13,2.27A9.26,9.26,0,0,0,533.08,192.37Z"/><path class="cls-1" d="M558.56,191c.37-.05.81-.11,1.33-.2a4.83,4.83,0,0,0,1.27-.37,1,1,0,0,0,.61-.77,4.69,4.69,0,0,0,.12-1,3.38,3.38,0,0,0-1-2.49,4.53,4.53,0,0,0-3.28-1,9.16,9.16,0,0,0-1.88.18,4,4,0,0,0-1.5.63,3.46,3.46,0,0,0-1.06,1.18,5,5,0,0,0-.54,1.87h-2a6.1,6.1,0,0,1,.7-2.59,5.09,5.09,0,0,1,1.53-1.75,6.48,6.48,0,0,1,2.18-1,10.57,10.57,0,0,1,2.62-.31,10,10,0,0,1,2.43.28,5.43,5.43,0,0,1,2,.89,4.11,4.11,0,0,1,1.32,1.63,5.88,5.88,0,0,1,.48,2.51V198c0,.77.13,1.26.41,1.47s.83.16,1.67-.15v1.56l-.68.19a3,3,0,0,1-.88.14,4.41,4.41,0,0,1-.89-.1,1.54,1.54,0,0,1-.79-.32,1.84,1.84,0,0,1-.48-.59,2.33,2.33,0,0,1-.24-.76,5,5,0,0,1-.07-.88,8.64,8.64,0,0,1-2.87,2.12,8.5,8.5,0,0,1-3.5.72,8.1,8.1,0,0,1-2.16-.29,5.28,5.28,0,0,1-1.83-.93,4.51,4.51,0,0,1-1.25-1.53,4.71,4.71,0,0,1-.47-2.16c0-2.91,2-4.62,6-5.15Zm3.33,1a9.9,9.9,0,0,1-2.54.69c-.86.11-1.72.2-2.58.26a7.11,7.11,0,0,0-3.54,1,2.92,2.92,0,0,0-1.28,2.6,2.8,2.8,0,0,0,.32,1.37,2.83,2.83,0,0,0,.82,1,3.53,3.53,0,0,0,1.19.56,5.31,5.31,0,0,0,1.37.18,8.93,8.93,0,0,0,2.31-.3,6.28,6.28,0,0,0,2-.9,4.73,4.73,0,0,0,1.4-1.55,4.51,4.51,0,0,0,.53-2.23ZM554,178.34h2.14v3.37H554Zm5.25,0h2.14v3.37h-2.14Z"/><path class="cls-1" d="M580.47,183.89h2V201h-2V198.6q-.4.47-.9,1a6.92,6.92,0,0,1-1.13.91,6,6,0,0,1-1.51.69,6.25,6.25,0,0,1-2,.28,7.54,7.54,0,0,1-2.88-.48,4.58,4.58,0,0,1-1.86-1.33,5.2,5.2,0,0,1-1-2,9.32,9.32,0,0,1-.32-2.49V183.89h2v11.22a5,5,0,0,0,1,3.38,4.25,4.25,0,0,0,3.36,1.17,4.94,4.94,0,0,0,2.2-.48,4.67,4.67,0,0,0,1.63-1.33,6.46,6.46,0,0,0,1-2,8.94,8.94,0,0,0,.37-2.61Z"/><path class="cls-1" d="M599.77,177.22h2V201h-2v-3h-.07a5.29,5.29,0,0,1-1.1,1.5,6.47,6.47,0,0,1-1.49,1.07,7.56,7.56,0,0,1-1.66.66,6.25,6.25,0,0,1-1.69.23,8.2,8.2,0,0,1-3.53-.69,6.49,6.49,0,0,1-2.39-1.9,7.71,7.71,0,0,1-1.37-2.85,14.28,14.28,0,0,1-.43-3.53,13,13,0,0,1,.46-3.43,8.38,8.38,0,0,1,1.41-2.89,6.82,6.82,0,0,1,2.37-2,7.23,7.23,0,0,1,3.38-.74,7.86,7.86,0,0,1,3.49.8,6.14,6.14,0,0,1,2.62,2.4Zm0,15.15a9.26,9.26,0,0,0-.4-2.76,6.92,6.92,0,0,0-1.14-2.27,5.55,5.55,0,0,0-1.81-1.56,5.07,5.07,0,0,0-2.43-.57,5.48,5.48,0,0,0-2.67.61,5.24,5.24,0,0,0-1.84,1.66,7.2,7.2,0,0,0-1.06,2.46,11.33,11.33,0,0,0-.27,3,8.38,8.38,0,0,0,.45,2.86,6.11,6.11,0,0,0,1.24,2.09,5.34,5.34,0,0,0,1.85,1.31,6,6,0,0,0,2.3.44,5.39,5.39,0,0,0,2.48-.56,5.18,5.18,0,0,0,1.82-1.53,7.07,7.07,0,0,0,1.1-2.31A10.74,10.74,0,0,0,599.77,192.37Z"/><path class="cls-1" d="M607.46,192.9a9.37,9.37,0,0,0,.36,2.62,6.38,6.38,0,0,0,1.07,2.15,5.46,5.46,0,0,0,1.8,1.45,5.61,5.61,0,0,0,2.51.54,5.5,5.5,0,0,0,3.34-1,4.94,4.94,0,0,0,1.84-2.91h2.21a11,11,0,0,1-1,2.27,7,7,0,0,1-1.49,1.81A6.44,6.44,0,0,1,616,201a8.71,8.71,0,0,1-2.84.42,8.33,8.33,0,0,1-3.53-.69,6.58,6.58,0,0,1-2.44-1.9,8,8,0,0,1-1.42-2.83,12.86,12.86,0,0,1-.46-3.52,11.3,11.3,0,0,1,.54-3.53,9.21,9.21,0,0,1,1.55-2.89,7.34,7.34,0,0,1,2.46-2,7.47,7.47,0,0,1,3.3-.7,6.82,6.82,0,0,1,5.55,2.42q2,2.43,2,7.05Zm11.15-1.65a7.83,7.83,0,0,0-.34-2.36,5.38,5.38,0,0,0-1-1.92,4.82,4.82,0,0,0-1.69-1.28,5.51,5.51,0,0,0-2.35-.48,5.18,5.18,0,0,0-2.32.49,5.24,5.24,0,0,0-1.72,1.32,6.78,6.78,0,0,0-1.14,1.92,8.68,8.68,0,0,0-.56,2.31Z"/><path class="cls-1" d="M626.3,201h-2V183.89h2v2.57h.07a5.23,5.23,0,0,1,2.18-2.26,6.31,6.31,0,0,1,3.1-.77,6.54,6.54,0,0,1,2,.26,4.49,4.49,0,0,1,1.4.71,3.94,3.94,0,0,1,1,1,6.46,6.46,0,0,1,.64,1.29,5.78,5.78,0,0,1,2.3-2.5,6.53,6.53,0,0,1,3.28-.8A5.8,5.8,0,0,1,645,184a4.19,4.19,0,0,1,1.6,1.52,5.94,5.94,0,0,1,.74,2.16,17.24,17.24,0,0,1,.19,2.51V201h-2V189.17a4.81,4.81,0,0,0-.77-2.91,3.39,3.39,0,0,0-2.89-1,4.83,4.83,0,0,0-3.86,1.94,3.89,3.89,0,0,0-.54,1,8.25,8.25,0,0,0-.35,1.2,9.1,9.1,0,0,0-.18,1.26c0,.42-.05.8-.05,1.15V201h-2V189.17a4.81,4.81,0,0,0-.78-2.91,3.37,3.37,0,0,0-2.88-1,4.82,4.82,0,0,0-2.1.48,4.88,4.88,0,0,0-1.77,1.46,4.21,4.21,0,0,0-.54,1,9.73,9.73,0,0,0-.35,1.2q-.12.63-.18,1.26c0,.42-.05.8-.05,1.15Z"/><path class="cls-1" d="M659.93,191c.37-.05.82-.11,1.34-.2a5,5,0,0,0,1.27-.37,1,1,0,0,0,.61-.77,5.36,5.36,0,0,0,.11-1,3.37,3.37,0,0,0-1-2.49,4.54,4.54,0,0,0-3.29-1,9.23,9.23,0,0,0-1.88.18,4,4,0,0,0-1.5.63,3.34,3.34,0,0,0-1,1.18,5,5,0,0,0-.55,1.87h-2a6.1,6.1,0,0,1,.69-2.59,5.22,5.22,0,0,1,1.54-1.75,6.34,6.34,0,0,1,2.17-1,10.65,10.65,0,0,1,2.63-.31,9.85,9.85,0,0,1,2.42.28,5.43,5.43,0,0,1,2,.89,4.11,4.11,0,0,1,1.32,1.63,5.88,5.88,0,0,1,.48,2.51V198c0,.77.14,1.26.41,1.47s.83.16,1.67-.15v1.56l-.68.19a2.93,2.93,0,0,1-.87.14,4.26,4.26,0,0,1-.89-.1,1.54,1.54,0,0,1-.79-.32,1.84,1.84,0,0,1-.48-.59,2.35,2.35,0,0,1-.25-.76,6.19,6.19,0,0,1-.06-.88,8.68,8.68,0,0,1-2.88,2.12,8.45,8.45,0,0,1-3.49.72,8.23,8.23,0,0,1-2.17-.29,5.28,5.28,0,0,1-1.83-.93,4.63,4.63,0,0,1-1.25-1.53,4.71,4.71,0,0,1-.46-2.16c0-2.91,2-4.62,6-5.15Zm3.33,1a9.69,9.69,0,0,1-2.54.69c-.86.11-1.72.2-2.57.26a7.18,7.18,0,0,0-3.55,1,2.92,2.92,0,0,0-1.27,2.6,2.8,2.8,0,0,0,.31,1.37,2.86,2.86,0,0,0,.83,1,3.48,3.48,0,0,0,1.18.56,5.39,5.39,0,0,0,1.38.18,8.79,8.79,0,0,0,2.3-.3,6.18,6.18,0,0,0,2-.9,4.73,4.73,0,0,0,1.4-1.55,4.41,4.41,0,0,0,.53-2.23Z"/><path class="cls-1" d="M672.4,201h-2V183.89h2v2.37a13,13,0,0,1,2.46-2,5.65,5.65,0,0,1,3-.79,7.84,7.84,0,0,1,2.94.54,5,5,0,0,1,2.28,1.9,4.24,4.24,0,0,1,.74,1.9,16.37,16.37,0,0,1,.12,2V201h-2V189.83a5.12,5.12,0,0,0-1-3.47,4.33,4.33,0,0,0-3.4-1.15,4.78,4.78,0,0,0-1.68.28,5.31,5.31,0,0,0-1.37.74,5,5,0,0,0-1,1.06,4.84,4.84,0,0,0-.66,1.25,6.06,6.06,0,0,0-.36,1.58c-.05.51-.07,1.06-.07,1.65Z"/><path class="cls-1" d="M696.46,191c.37-.05.82-.11,1.34-.2a5,5,0,0,0,1.27-.37,1,1,0,0,0,.61-.77,5.36,5.36,0,0,0,.11-1,3.37,3.37,0,0,0-1-2.49,4.54,4.54,0,0,0-3.28-1,9.26,9.26,0,0,0-1.89.18,4,4,0,0,0-1.5.63,3.34,3.34,0,0,0-1,1.18,5,5,0,0,0-.55,1.87h-2a6.25,6.25,0,0,1,.69-2.59,5.22,5.22,0,0,1,1.54-1.75,6.31,6.31,0,0,1,2.18-1,10.51,10.51,0,0,1,2.62-.31,9.91,9.91,0,0,1,2.42.28,5.43,5.43,0,0,1,2,.89,4,4,0,0,1,1.32,1.63,5.88,5.88,0,0,1,.48,2.51V198c0,.77.14,1.26.41,1.47s.84.16,1.67-.15v1.56l-.68.19a2.93,2.93,0,0,1-.87.14,4.33,4.33,0,0,1-.89-.1,1.5,1.5,0,0,1-.79-.32,1.84,1.84,0,0,1-.48-.59,2.61,2.61,0,0,1-.25-.76,6.15,6.15,0,0,1-.07-.88,8.54,8.54,0,0,1-2.87,2.12,8.45,8.45,0,0,1-3.49.72,8.1,8.1,0,0,1-2.16-.29,5.24,5.24,0,0,1-1.84-.93,4.44,4.44,0,0,1-1.71-3.69c0-2.91,2-4.62,6-5.15Zm3.33,1a9.69,9.69,0,0,1-2.54.69c-.86.11-1.71.2-2.57.26a7.18,7.18,0,0,0-3.55,1,2.92,2.92,0,0,0-1.27,2.6,2.8,2.8,0,0,0,.31,1.37,2.86,2.86,0,0,0,.83,1,3.45,3.45,0,0,0,1.19.56,5.26,5.26,0,0,0,1.37.18,8.93,8.93,0,0,0,2.31-.3,6.23,6.23,0,0,0,2-.9,4.73,4.73,0,0,0,1.4-1.55,4.41,4.41,0,0,0,.53-2.23Z"/><path class="cls-1" d="M720,183.89h2v15.44a15.13,15.13,0,0,1-.35,3.28,7,7,0,0,1-1.24,2.76,6.21,6.21,0,0,1-2.44,1.9,11.36,11.36,0,0,1-7.22.23,7,7,0,0,1-2.22-1.21,5.13,5.13,0,0,1-1.3-1.6,3.9,3.9,0,0,1-.48-1.63h2.11a4,4,0,0,0,.73,1.57,3.86,3.86,0,0,0,1.17,1,4.79,4.79,0,0,0,1.5.47,10.71,10.71,0,0,0,1.72.13,6.53,6.53,0,0,0,3.23-.69,4.74,4.74,0,0,0,1.85-1.81,7,7,0,0,0,.81-2.54,20,20,0,0,0,.15-2.91,6,6,0,0,1-2.63,2.39,7.86,7.86,0,0,1-3.48.81,7.2,7.2,0,0,1-3.38-.74,6.73,6.73,0,0,1-2.37-2,8.47,8.47,0,0,1-1.41-2.89,12.56,12.56,0,0,1-.46-3.43,13.82,13.82,0,0,1,.43-3.53,7.71,7.71,0,0,1,1.37-2.85,6.49,6.49,0,0,1,2.39-1.9,8.2,8.2,0,0,1,3.53-.69,6.18,6.18,0,0,1,1.68.23,7.44,7.44,0,0,1,1.67.66,6.27,6.27,0,0,1,1.49,1.09,5.65,5.65,0,0,1,1.1,1.48H720Zm0,8.61a10.68,10.68,0,0,0-.38-2.89,6.89,6.89,0,0,0-1.11-2.31,5.15,5.15,0,0,0-1.81-1.53,5.27,5.27,0,0,0-2.48-.56,6.05,6.05,0,0,0-2.31.44,5.18,5.18,0,0,0-1.84,1.31,6,6,0,0,0-1.24,2.09,8.38,8.38,0,0,0-.45,2.86,11.37,11.37,0,0,0,.27,3,7.24,7.24,0,0,0,1.05,2.45,5.29,5.29,0,0,0,1.85,1.67,5.48,5.48,0,0,0,2.67.61,5,5,0,0,0,2.43-.58,5.5,5.5,0,0,0,1.81-1.55,6.92,6.92,0,0,0,1.14-2.27A9.26,9.26,0,0,0,720,192.5Z"/><path class="cls-1" d="M727.68,192.9a9.37,9.37,0,0,0,.36,2.62,6.38,6.38,0,0,0,1.07,2.15,5.36,5.36,0,0,0,1.8,1.45,5.58,5.58,0,0,0,2.51.54,5.45,5.45,0,0,0,3.33-1,4.9,4.9,0,0,0,1.85-2.91h2.21a10.47,10.47,0,0,1-1,2.27,7,7,0,0,1-1.48,1.81,6.44,6.44,0,0,1-2.11,1.21,8.75,8.75,0,0,1-2.84.42,8.33,8.33,0,0,1-3.53-.69,6.5,6.5,0,0,1-2.44-1.9A7.86,7.86,0,0,1,726,196a12.85,12.85,0,0,1-.47-3.52,11.3,11.3,0,0,1,.55-3.53,9,9,0,0,1,1.55-2.89,7.34,7.34,0,0,1,2.46-2,7.47,7.47,0,0,1,3.3-.7,6.8,6.8,0,0,1,5.54,2.42q2,2.43,2,7.05Zm11.15-1.65a7.53,7.53,0,0,0-.35-2.36,5.52,5.52,0,0,0-1-1.92,4.86,4.86,0,0,0-1.7-1.28,5.44,5.44,0,0,0-2.34-.48,5.22,5.22,0,0,0-2.33.49,5.3,5.3,0,0,0-1.71,1.32,6.35,6.35,0,0,0-1.14,1.92,8.31,8.31,0,0,0-.56,2.31Z"/><path class="cls-1" d="M746.52,201h-2V183.89h2v2.57h.07a5.21,5.21,0,0,1,2.17-2.26,6.35,6.35,0,0,1,3.11-.77,6.54,6.54,0,0,1,2,.26,4.49,4.49,0,0,1,1.4.71,4.12,4.12,0,0,1,1,1,6.46,6.46,0,0,1,.64,1.29,5.76,5.76,0,0,1,2.29-2.5,6.6,6.6,0,0,1,3.29-.8,5.8,5.8,0,0,1,2.79.57,4.26,4.26,0,0,1,1.6,1.52,5.94,5.94,0,0,1,.74,2.16,17.25,17.25,0,0,1,.18,2.51V201h-2V189.17a4.88,4.88,0,0,0-.77-2.91,3.39,3.39,0,0,0-2.89-1,4.79,4.79,0,0,0-3.86,1.94,4.23,4.23,0,0,0-.55,1,9.69,9.69,0,0,0-.34,1.2,9.1,9.1,0,0,0-.18,1.26c0,.42-.06.8-.06,1.15V201h-2V189.17a4.81,4.81,0,0,0-.78-2.91,3.39,3.39,0,0,0-2.89-1,4.8,4.8,0,0,0-2.09.48,4.88,4.88,0,0,0-1.77,1.46,3.89,3.89,0,0,0-.54,1,8.25,8.25,0,0,0-.35,1.2,9.1,9.1,0,0,0-.18,1.26c0,.42-.05.8-.05,1.15Z"/><path class="cls-1" d="M773.51,192.9a9,9,0,0,0,.37,2.62,6.38,6.38,0,0,0,1.07,2.15,5.27,5.27,0,0,0,1.8,1.45,6,6,0,0,0,5.84-.48,5,5,0,0,0,1.85-2.91h2.21a11,11,0,0,1-1,2.27,7.2,7.2,0,0,1-1.48,1.81,6.49,6.49,0,0,1-2.12,1.21,8.71,8.71,0,0,1-2.84.42,8.33,8.33,0,0,1-3.53-.69,6.58,6.58,0,0,1-2.44-1.9,8,8,0,0,1-1.42-2.83,13.25,13.25,0,0,1-.46-3.52A11,11,0,0,1,772,189a8.83,8.83,0,0,1,1.55-2.89,7.12,7.12,0,0,1,5.75-2.65,6.8,6.8,0,0,1,5.55,2.42q2,2.43,2,7.05Zm11.16-1.65a7.83,7.83,0,0,0-.35-2.36,5.52,5.52,0,0,0-1-1.92,4.86,4.86,0,0,0-1.7-1.28,5.45,5.45,0,0,0-2.35-.48,5.21,5.21,0,0,0-2.32.49,5.45,5.45,0,0,0-1.72,1.32,6.78,6.78,0,0,0-1.14,1.92,9.08,9.08,0,0,0-.56,2.31Z"/><path class="cls-1" d="M792.46,201h-2V183.89h2v2.37a12.94,12.94,0,0,1,2.45-2,5.67,5.67,0,0,1,3.06-.79,7.83,7.83,0,0,1,2.93.54,5,5,0,0,1,2.28,1.9,4.24,4.24,0,0,1,.74,1.9,16.37,16.37,0,0,1,.12,2V201h-2V189.83a5.07,5.07,0,0,0-1-3.47,4.32,4.32,0,0,0-3.39-1.15,4.79,4.79,0,0,0-1.69.28,5.47,5.47,0,0,0-1.37.74,5,5,0,0,0-1.7,2.31,6.49,6.49,0,0,0-.36,1.58q-.06.76-.06,1.65Z"/><path class="cls-1" d="M814.5,201.05c-.24,0-.56.12-1,.23a4.92,4.92,0,0,1-1.32.16,3.13,3.13,0,0,1-2.26-.74,3.6,3.6,0,0,1-.77-2.66v-12.5h-2.41v-1.65h2.41v-4.75h2v4.75h3.21v1.65h-3.21v11.71c0,.42,0,.78,0,1.09a1.8,1.8,0,0,0,.2.76,1,1,0,0,0,.51.43,2.76,2.76,0,0,0,1,.13,5.73,5.73,0,0,0,.81-.06c.28,0,.54-.1.81-.17Z"/><path class="cls-1" d="M487.81,249v-32.4h3.06v13.91H510V216.58h3.06V249H510V233.1H490.87V249Z"/><path class="cls-1" d="M530.64,235.39q.76-.09,1.83-.27a6.94,6.94,0,0,0,1.73-.49,1.43,1.43,0,0,0,.83-1.06,6.35,6.35,0,0,0,.16-1.37,4.58,4.58,0,0,0-1.33-3.4c-.88-.89-2.38-1.33-4.47-1.33a12.11,12.11,0,0,0-2.57.25,5.63,5.63,0,0,0-2.05.85,4.92,4.92,0,0,0-1.44,1.62,7,7,0,0,0-.74,2.55h-2.74a8.39,8.39,0,0,1,.94-3.54,7.19,7.19,0,0,1,2.09-2.38,8.58,8.58,0,0,1,3-1.35,14.33,14.33,0,0,1,3.58-.43,14.1,14.1,0,0,1,3.31.38,7.76,7.76,0,0,1,2.7,1.22,5.7,5.7,0,0,1,1.8,2.23,8.12,8.12,0,0,1,.65,3.42V245c0,1.05.19,1.71.56,2s1.13.22,2.28-.2v2.11l-.93.27a4.14,4.14,0,0,1-1.19.18,5.49,5.49,0,0,1-1.22-.13,2.16,2.16,0,0,1-1.08-.43,3,3,0,0,1-.65-.81,3.85,3.85,0,0,1-.34-1,7.47,7.47,0,0,1-.09-1.19,11.71,11.71,0,0,1-3.91,2.88,11.51,11.51,0,0,1-4.77,1,10.72,10.72,0,0,1-2.95-.4,7.05,7.05,0,0,1-2.49-1.26,6.26,6.26,0,0,1-1.72-2.1,6.51,6.51,0,0,1-.62-2.94q0-5.94,8.14-7Zm4.55,1.35a13.32,13.32,0,0,1-3.46.95q-1.76.23-3.51.36a9.86,9.86,0,0,0-4.84,1.39,4,4,0,0,0-1.74,3.56,3.87,3.87,0,0,0,.43,1.86,4,4,0,0,0,1.13,1.31,4.66,4.66,0,0,0,1.62.76,7,7,0,0,0,1.87.25,12.18,12.18,0,0,0,3.14-.4,8.72,8.72,0,0,0,2.73-1.24,6.38,6.38,0,0,0,1.91-2.12,6.06,6.06,0,0,0,.72-3Z"/><path class="cls-1" d="M547.3,249h-2.71V225.67h2.71v3.51h.09a7,7,0,0,1,3-3.08,8.65,8.65,0,0,1,4.23-1.06,9.13,9.13,0,0,1,2.75.36,6,6,0,0,1,1.91,1,5.52,5.52,0,0,1,1.31,1.42,9.85,9.85,0,0,1,.87,1.75,8,8,0,0,1,3.13-3.4A9,9,0,0,1,569,225a7.76,7.76,0,0,1,3.8.79A5.58,5.58,0,0,1,575,227.9a8.06,8.06,0,0,1,1,2.95,24,24,0,0,1,.24,3.42V249h-2.7V232.87a6.6,6.6,0,0,0-1.05-4c-.71-1-2-1.44-3.94-1.44a6.5,6.5,0,0,0-5.27,2.66,5.25,5.25,0,0,0-.74,1.37,12,12,0,0,0-.47,1.64,14.39,14.39,0,0,0-.25,1.71c0,.57-.06,1.1-.06,1.58V249h-2.71V232.87a6.6,6.6,0,0,0-1.05-4c-.71-1-2-1.44-3.94-1.44a6.5,6.5,0,0,0-5.27,2.66,5.25,5.25,0,0,0-.74,1.37,12,12,0,0,0-.47,1.64,14.39,14.39,0,0,0-.25,1.71c0,.57-.06,1.1-.06,1.58Z"/><path class="cls-1" d="M585.45,249h-2.7v-32.4h2.7v12.83a8.44,8.44,0,0,1,3.58-3.27,10.84,10.84,0,0,1,4.75-1.1,10,10,0,0,1,4.61,1,9.49,9.49,0,0,1,3.24,2.7,11.56,11.56,0,0,1,1.91,3.94,17.28,17.28,0,0,1,.63,4.68,19.12,19.12,0,0,1-.58,4.82,10.51,10.51,0,0,1-1.87,3.89,9,9,0,0,1-3.26,2.59,11.14,11.14,0,0,1-4.82.94,8.76,8.76,0,0,1-2.29-.31,10.73,10.73,0,0,1-2.27-.9,9.05,9.05,0,0,1-2-1.47,7.31,7.31,0,0,1-1.51-2h-.09Zm0-11.74a14.48,14.48,0,0,0,.52,3.93,9.6,9.6,0,0,0,1.51,3.15,7.06,7.06,0,0,0,2.47,2.1,7.28,7.28,0,0,0,3.38.76,7.93,7.93,0,0,0,3.15-.61A7.13,7.13,0,0,0,599,244.8a8.44,8.44,0,0,0,1.69-2.86,11.6,11.6,0,0,0,.6-3.89,15.22,15.22,0,0,0-.36-4.12,9.77,9.77,0,0,0-1.44-3.35A7.14,7.14,0,0,0,597,228.3a7.59,7.59,0,0,0-3.62-.83,6.83,6.83,0,0,0-3.31.79,7.59,7.59,0,0,0-2.47,2.11,9.67,9.67,0,0,0-1.56,3.11A12.85,12.85,0,0,0,585.45,237.24Z"/><path class="cls-1" d="M624.83,225.67h2.7V249h-2.7v-3.24c-.36.42-.77.86-1.22,1.31a8.74,8.74,0,0,1-1.55,1.23,8.51,8.51,0,0,1-4.75,1.33,10.34,10.34,0,0,1-3.91-.65,6.41,6.41,0,0,1-2.54-1.82,7.23,7.23,0,0,1-1.4-2.73A12.89,12.89,0,0,1,609,241V225.67h2.7V241a6.79,6.79,0,0,0,1.4,4.61q1.39,1.6,4.59,1.6a6.73,6.73,0,0,0,3-.65,6.27,6.27,0,0,0,2.23-1.82,8.69,8.69,0,0,0,1.39-2.79,12.15,12.15,0,0,0,.5-3.56Z"/><path class="cls-1" d="M636.89,249h-2.7V225.67h2.7V230H637a7.89,7.89,0,0,1,2.9-3.9,8.86,8.86,0,0,1,4.7-1.1V228a7.88,7.88,0,0,0-3.78.72,6.25,6.25,0,0,0-2.36,2.07,8.15,8.15,0,0,0-1.21,3.08,19.39,19.39,0,0,0-.34,3.71Z"/><path class="cls-1" d="M666.59,225.67h2.7v21.06a21.07,21.07,0,0,1-.47,4.48,9.77,9.77,0,0,1-1.69,3.76,8.39,8.39,0,0,1-3.33,2.58,13.1,13.1,0,0,1-5.45,1,13.4,13.4,0,0,1-4.41-.65,9.63,9.63,0,0,1-3-1.64,7.13,7.13,0,0,1-1.78-2.19,5.49,5.49,0,0,1-.65-2.22h2.88a5.26,5.26,0,0,0,1,2.13,4.91,4.91,0,0,0,1.6,1.31,6.87,6.87,0,0,0,2,.65,14.8,14.8,0,0,0,2.34.18,8.91,8.91,0,0,0,4.41-.94,6.46,6.46,0,0,0,2.52-2.48,9.58,9.58,0,0,0,1.11-3.46,27.22,27.22,0,0,0,.2-4,8.36,8.36,0,0,1-3.58,3.26,10.81,10.81,0,0,1-4.75,1.1,10,10,0,0,1-4.61-1,9.68,9.68,0,0,1-3.24-2.7A11.75,11.75,0,0,1,648.5,242a17.28,17.28,0,0,1-.63-4.68,19,19,0,0,1,.58-4.81,10.71,10.71,0,0,1,1.87-3.9,9,9,0,0,1,3.26-2.58,11.13,11.13,0,0,1,4.82-1,8.78,8.78,0,0,1,2.29.32,11,11,0,0,1,2.28.9,8.74,8.74,0,0,1,2,1.48,7.84,7.84,0,0,1,1.51,2h.09Zm0,11.75a14.17,14.17,0,0,0-.52-3.94,9.41,9.41,0,0,0-1.51-3.15,7,7,0,0,0-2.47-2.09,7.29,7.29,0,0,0-3.38-.77,7.93,7.93,0,0,0-3.15.61,7.15,7.15,0,0,0-2.52,1.78,8.21,8.21,0,0,0-1.68,2.85,11.41,11.41,0,0,0-.61,3.9,15.14,15.14,0,0,0,.36,4.11,9.82,9.82,0,0,0,1.44,3.36,7.23,7.23,0,0,0,2.52,2.27,7.56,7.56,0,0,0,3.64.83,6.81,6.81,0,0,0,3.31-.79,7.63,7.63,0,0,0,2.48-2.11,9.86,9.86,0,0,0,1.55-3.11A12.78,12.78,0,0,0,666.59,237.42Z"/><path class="cls-1" d="M702.77,234.85v-2.61h13.86V249H714v-5.53a15.51,15.51,0,0,1-2,2.63,10.87,10.87,0,0,1-2.54,2,12.17,12.17,0,0,1-3.33,1.29,18.56,18.56,0,0,1-4.28.45,14.68,14.68,0,0,1-5.67-1.08,12.19,12.19,0,0,1-4.5-3.22,15,15,0,0,1-2.94-5.38,24.25,24.25,0,0,1-1.06-7.56,23.63,23.63,0,0,1,.9-6.64,14.8,14.8,0,0,1,2.77-5.35,13,13,0,0,1,4.68-3.58,15.59,15.59,0,0,1,6.63-1.3,17.63,17.63,0,0,1,4.8.63,12.54,12.54,0,0,1,4,1.91,11.39,11.39,0,0,1,3,3.19,13.52,13.52,0,0,1,1.76,4.53h-3.15a9.58,9.58,0,0,0-1.37-3.24,9.35,9.35,0,0,0-2.32-2.41,10.51,10.51,0,0,0-3-1.49,11.73,11.73,0,0,0-3.46-.51,12.36,12.36,0,0,0-5.49,1.12,10.11,10.11,0,0,0-3.78,3.17,13.79,13.79,0,0,0-2.18,4.91,26.19,26.19,0,0,0-.7,6.28,16.39,16.39,0,0,0,.79,5.13,13,13,0,0,0,2.29,4.27,10.81,10.81,0,0,0,8.66,4,12.83,12.83,0,0,0,2.7-.3,10.32,10.32,0,0,0,5.13-2.72,9.93,9.93,0,0,0,1.94-2.65,11.8,11.8,0,0,0,1.06-3.2,24.31,24.31,0,0,0,.33-3.51Z"/><path class="cls-1" d="M725.94,249h-2.7V225.67h2.7v3.51H726a7.08,7.08,0,0,1,3-3.08,8.62,8.62,0,0,1,4.23-1.06,9.13,9.13,0,0,1,2.75.36,6,6,0,0,1,1.91,1,5.7,5.7,0,0,1,1.31,1.42,9.85,9.85,0,0,1,.87,1.75,7.86,7.86,0,0,1,3.13-3.4,9,9,0,0,1,4.48-1.1,7.76,7.76,0,0,1,3.8.79,5.58,5.58,0,0,1,2.18,2.07,8.06,8.06,0,0,1,1,2.95,24,24,0,0,1,.24,3.42V249h-2.7V232.87a6.6,6.6,0,0,0-1.05-4c-.71-1-2-1.44-3.94-1.44a6.5,6.5,0,0,0-5.27,2.66,5.25,5.25,0,0,0-.74,1.37,12,12,0,0,0-.47,1.64,14.39,14.39,0,0,0-.25,1.71c0,.57-.07,1.1-.07,1.58V249h-2.7V232.87a6.6,6.6,0,0,0-1.05-4c-.71-1-2-1.44-3.94-1.44a6.5,6.5,0,0,0-5.27,2.66,5.25,5.25,0,0,0-.74,1.37,12,12,0,0,0-.47,1.64,14.39,14.39,0,0,0-.25,1.71c0,.57-.07,1.1-.07,1.58Z"/><path class="cls-1" d="M764.1,249h-2.7v-32.4h2.7v12.83a8.38,8.38,0,0,1,3.58-3.27,10.81,10.81,0,0,1,4.75-1.1,10,10,0,0,1,4.61,1,9.68,9.68,0,0,1,3.24,2.7,11.56,11.56,0,0,1,1.91,3.94,17.28,17.28,0,0,1,.63,4.68,19.12,19.12,0,0,1-.58,4.82,10.51,10.51,0,0,1-1.87,3.89,9,9,0,0,1-3.26,2.59,11.14,11.14,0,0,1-4.82.94,8.76,8.76,0,0,1-2.29-.31,10.73,10.73,0,0,1-2.27-.9,8.83,8.83,0,0,1-2-1.47,7.12,7.12,0,0,1-1.51-2h-.09Zm0-11.74a14.48,14.48,0,0,0,.52,3.93,9.6,9.6,0,0,0,1.51,3.15,7.06,7.06,0,0,0,2.47,2.1,7.28,7.28,0,0,0,3.38.76,7.93,7.93,0,0,0,3.15-.61,7.13,7.13,0,0,0,2.52-1.77,8.26,8.26,0,0,0,1.68-2.86,11.35,11.35,0,0,0,.61-3.89,15.22,15.22,0,0,0-.36-4.12,9.77,9.77,0,0,0-1.44-3.35,7.14,7.14,0,0,0-2.54-2.28,7.61,7.61,0,0,0-3.62-.83,6.81,6.81,0,0,0-3.31.79,7.59,7.59,0,0,0-2.47,2.11,9.67,9.67,0,0,0-1.56,3.11A12.85,12.85,0,0,0,764.1,237.24Z"/><path class="cls-1" d="M788.72,249v-32.4h3.06v13.91H811V216.58H814V249H811V233.1H791.78V249Z"/><rect class="cls-2" x="37.28" y="198.85" width="27.5" height="27.5"/><rect class="cls-2" y="206.93" width="11.34" height="11.34"/><rect class="cls-2" x="45.35" y="116.22" width="11.34" height="11.34"/><rect class="cls-2" x="102.05" y="192.76" width="39.69" height="39.68"/><rect class="cls-2" x="194.03" y="37.28" width="27.5" height="27.5"/><rect class="cls-2" x="108.14" y="108.14" width="27.5" height="27.5"/><rect class="cls-2" x="202.11" width="11.34" height="11.34"/><rect class="cls-2" x="116.22" y="45.35" width="11.34" height="11.34"/><rect class="cls-2" x="187.94" y="102.05" width="39.68" height="39.69"/></g></g></svg>